G04 #@! TF.GenerationSoftware,KiCad,Pcbnew,(5.1.4)-1*
G04 #@! TF.CreationDate,2019-11-20T20:31:01+01:00*
G04 #@! TF.ProjectId,ArtNetNode1.2,4172744e-6574-44e6-9f64-65312e322e6b,rev?*
G04 #@! TF.SameCoordinates,Original*
G04 #@! TF.FileFunction,Legend,Bot*
G04 #@! TF.FilePolarity,Positive*
%FSLAX46Y46*%
G04 Gerber Fmt 4.6, Leading zero omitted, Abs format (unit mm)*
G04 Created by KiCad (PCBNEW (5.1.4)-1) date 2019-11-20 20:31:01*
%MOMM*%
%LPD*%
G04 APERTURE LIST*
%ADD10C,0.150000*%
%ADD11C,0.120000*%
G04 APERTURE END LIST*
D10*
X176694619Y-70392486D02*
X176681151Y-70473299D01*
X176610440Y-70544009D01*
X176506058Y-70581048D01*
X176391574Y-70560845D01*
X176300660Y-70517072D01*
X176142403Y-70405955D01*
X176041387Y-70304940D01*
X175930271Y-70146683D01*
X175886497Y-70055769D01*
X175866294Y-69941285D01*
X175903333Y-69836902D01*
X175950474Y-69789762D01*
X176054856Y-69752723D01*
X176112098Y-69762825D01*
X176347800Y-69998527D01*
X176253519Y-70092808D01*
X176256887Y-69483349D02*
X176963993Y-70190456D01*
X176539729Y-69200506D01*
X177246836Y-69907613D01*
X176775432Y-68964804D02*
X177482538Y-69671911D01*
X177600390Y-69554060D01*
X177637428Y-69449677D01*
X177617225Y-69335193D01*
X177573452Y-69244280D01*
X177462335Y-69086022D01*
X177361320Y-68985007D01*
X177203063Y-68873890D01*
X177112149Y-68830117D01*
X176997665Y-68809914D01*
X176893283Y-68846953D01*
X176775432Y-68964804D01*
X178958511Y-70735938D02*
X178487107Y-69793129D01*
X179429916Y-70264534D01*
X179429916Y-68985007D02*
X179362572Y-68985007D01*
X179227885Y-69052351D01*
X179160542Y-69119694D01*
X179093198Y-69254381D01*
X179093198Y-69389068D01*
X179126870Y-69490083D01*
X179227885Y-69658442D01*
X179328900Y-69759457D01*
X179497259Y-69860473D01*
X179598274Y-69894144D01*
X179732961Y-69894144D01*
X179867648Y-69826801D01*
X179934992Y-69759457D01*
X180002335Y-69624770D01*
X180002335Y-69557427D01*
X180137022Y-68277900D02*
X180069679Y-68277900D01*
X179934992Y-68345244D01*
X179867648Y-68412587D01*
X179800305Y-68547274D01*
X179800305Y-68681961D01*
X179833977Y-68782977D01*
X179934992Y-68951335D01*
X180036007Y-69052351D01*
X180204366Y-69153366D01*
X180305381Y-69187038D01*
X180440068Y-69187038D01*
X180574755Y-69119694D01*
X180642099Y-69052351D01*
X180709442Y-68917664D01*
X180709442Y-68850320D01*
X181532183Y-70702266D02*
X181969916Y-70264534D01*
X181464839Y-70230862D01*
X181565855Y-70129847D01*
X181599526Y-70028831D01*
X181599526Y-69961488D01*
X181565855Y-69860473D01*
X181397496Y-69692114D01*
X181296481Y-69658442D01*
X181229137Y-69658442D01*
X181128122Y-69692114D01*
X180926091Y-69894144D01*
X180892420Y-69995160D01*
X180892420Y-70062503D01*
X181633198Y-69321725D02*
X181633198Y-69254381D01*
X181565855Y-69254381D01*
X181565855Y-69321725D01*
X181633198Y-69321725D01*
X181565855Y-69254381D01*
X182542335Y-69692114D02*
X182980068Y-69254381D01*
X182474992Y-69220709D01*
X182576007Y-69119694D01*
X182609679Y-69018679D01*
X182609679Y-68951335D01*
X182576007Y-68850320D01*
X182407648Y-68681961D01*
X182306633Y-68648290D01*
X182239290Y-68648290D01*
X182138274Y-68681961D01*
X181936244Y-68883992D01*
X181902572Y-68985007D01*
X181902572Y-69052351D01*
X183182099Y-69052351D02*
X182710694Y-68109542D01*
X183653503Y-68580946D01*
X184476244Y-70230862D02*
X184442572Y-70331877D01*
X184341557Y-70432892D01*
X184206870Y-70500236D01*
X184072183Y-70500236D01*
X183971168Y-70466564D01*
X183802809Y-70365549D01*
X183701794Y-70264534D01*
X183600778Y-70096175D01*
X183567107Y-69995160D01*
X183567107Y-69860473D01*
X183634450Y-69725786D01*
X183701794Y-69658442D01*
X183836481Y-69591099D01*
X183903824Y-69591099D01*
X184139526Y-69826801D01*
X184004839Y-69961488D01*
X184139526Y-69220709D02*
X184846633Y-69927816D01*
X184543587Y-68816648D01*
X185250694Y-69523755D01*
X184880305Y-68479931D02*
X185587412Y-69187038D01*
X185755770Y-69018679D01*
X185823114Y-68883992D01*
X185823114Y-68749305D01*
X185789442Y-68648290D01*
X185688427Y-68479931D01*
X185587412Y-68378916D01*
X185419053Y-68277900D01*
X185318038Y-68244229D01*
X185183351Y-68244229D01*
X185048664Y-68311572D01*
X184880305Y-68479931D01*
X189354213Y-70500236D02*
X189421557Y-70432892D01*
X189455229Y-70331877D01*
X189455229Y-70264534D01*
X189421557Y-70163518D01*
X189320542Y-69995160D01*
X189152183Y-69826801D01*
X188983824Y-69725786D01*
X188882809Y-69692114D01*
X188815465Y-69692114D01*
X188714450Y-69725786D01*
X188647107Y-69793129D01*
X188613435Y-69894144D01*
X188613435Y-69961488D01*
X188647107Y-70062503D01*
X188748122Y-70230862D01*
X188916481Y-70399221D01*
X189084839Y-70500236D01*
X189185855Y-70533908D01*
X189253198Y-70533908D01*
X189354213Y-70500236D01*
X191422809Y-69557427D02*
X191018748Y-69961488D01*
X191220778Y-69759457D02*
X191927885Y-70466564D01*
X191759526Y-70432892D01*
X191624839Y-70432892D01*
X191523824Y-70466564D01*
X192769679Y-69624770D02*
X192432961Y-69961488D01*
X192062572Y-69658442D01*
X192129916Y-69658442D01*
X192230931Y-69624770D01*
X192399290Y-69456412D01*
X192432961Y-69355396D01*
X192432961Y-69288053D01*
X192399290Y-69187038D01*
X192230931Y-69018679D01*
X192129916Y-68985007D01*
X192062572Y-68985007D01*
X191961557Y-69018679D01*
X191793198Y-69187038D01*
X191759526Y-69288053D01*
X191759526Y-69355396D01*
X193962809Y-69557427D02*
X193558748Y-69961488D01*
X193760778Y-69759457D02*
X194467885Y-70466564D01*
X194299526Y-70432892D01*
X194164839Y-70432892D01*
X194063824Y-70466564D01*
X194905618Y-70028831D02*
X195343351Y-69591099D01*
X194838274Y-69557427D01*
X194939290Y-69456412D01*
X194972961Y-69355396D01*
X194972961Y-69288053D01*
X194939290Y-69187038D01*
X194770931Y-69018679D01*
X194669916Y-68985007D01*
X194602572Y-68985007D01*
X194501557Y-69018679D01*
X194299526Y-69220709D01*
X194265855Y-69321725D01*
X194265855Y-69389068D01*
X196502809Y-69557427D02*
X196098748Y-69961488D01*
X196300778Y-69759457D02*
X197007885Y-70466564D01*
X196839526Y-70432892D01*
X196704839Y-70432892D01*
X196603824Y-70466564D01*
X197411946Y-69927816D02*
X197479290Y-69927816D01*
X197580305Y-69894144D01*
X197748664Y-69725786D01*
X197782335Y-69624770D01*
X197782335Y-69557427D01*
X197748664Y-69456412D01*
X197681320Y-69389068D01*
X197546633Y-69321725D01*
X196738511Y-69321725D01*
X197176244Y-68883992D01*
X199042809Y-69557427D02*
X198638748Y-69961488D01*
X198840778Y-69759457D02*
X199547885Y-70466564D01*
X199379526Y-70432892D01*
X199244839Y-70432892D01*
X199143824Y-70466564D01*
X200120305Y-69422740D02*
X199648900Y-68951335D01*
X200221320Y-69860473D02*
X199547885Y-69523755D01*
X199985618Y-69086022D01*
X204021794Y-61882809D02*
X204257496Y-62118511D01*
X204728900Y-61849137D02*
X204392183Y-61512420D01*
X203685076Y-62219526D01*
X204021794Y-62556244D01*
X205031946Y-62152183D02*
X204324839Y-62859290D01*
X205436007Y-62556244D01*
X204728900Y-63263351D01*
X199716244Y-61916481D02*
X199143824Y-62017496D01*
X199312183Y-61512420D02*
X198605076Y-62219526D01*
X198874450Y-62488900D01*
X198975465Y-62522572D01*
X199042809Y-62522572D01*
X199143824Y-62488900D01*
X199244839Y-62387885D01*
X199278511Y-62286870D01*
X199278511Y-62219526D01*
X199244839Y-62118511D01*
X198975465Y-61849137D01*
X199951946Y-62219526D02*
X200086633Y-62286870D01*
X200254992Y-62455229D01*
X200288664Y-62556244D01*
X200288664Y-62623587D01*
X200254992Y-62724603D01*
X200187648Y-62791946D01*
X200086633Y-62825618D01*
X200019290Y-62825618D01*
X199918274Y-62791946D01*
X199749916Y-62690931D01*
X199648900Y-62657259D01*
X199581557Y-62657259D01*
X199480542Y-62690931D01*
X199413198Y-62758274D01*
X199379526Y-62859290D01*
X199379526Y-62926633D01*
X199413198Y-63027648D01*
X199581557Y-63196007D01*
X199716244Y-63263351D01*
X199884603Y-63499053D02*
X200288664Y-63903114D01*
X200793740Y-62993977D02*
X200086633Y-63701083D01*
X195997733Y-62152183D02*
X196435465Y-62589916D01*
X196469137Y-62084839D01*
X196570152Y-62185855D01*
X196671168Y-62219526D01*
X196738511Y-62219526D01*
X196839526Y-62185855D01*
X197007885Y-62017496D01*
X197041557Y-61916481D01*
X197041557Y-61849137D01*
X197007885Y-61748122D01*
X196805855Y-61546091D01*
X196704839Y-61512420D01*
X196637496Y-61512420D01*
X194602572Y-61882809D02*
X194198511Y-61478748D01*
X194400542Y-61680778D02*
X193693435Y-62387885D01*
X193727107Y-62219526D01*
X193727107Y-62084839D01*
X193693435Y-61983824D01*
X189152183Y-61512420D02*
X188445076Y-62219526D01*
X188613435Y-62387885D01*
X188748122Y-62455229D01*
X188882809Y-62455229D01*
X188983824Y-62421557D01*
X189152183Y-62320542D01*
X189253198Y-62219526D01*
X189354213Y-62051168D01*
X189387885Y-61950152D01*
X189387885Y-61815465D01*
X189320542Y-61680778D01*
X189152183Y-61512420D01*
X189051168Y-62825618D02*
X189455229Y-63229679D01*
X189960305Y-62320542D02*
X189253198Y-63027648D01*
X190802099Y-63162335D02*
X190229679Y-63263351D01*
X190398038Y-62758274D02*
X189690931Y-63465381D01*
X189960305Y-63734755D01*
X190061320Y-63768427D01*
X190128664Y-63768427D01*
X190229679Y-63734755D01*
X190330694Y-63633740D01*
X190364366Y-63532725D01*
X190364366Y-63465381D01*
X190330694Y-63364366D01*
X190061320Y-63094992D01*
X186948900Y-61983824D02*
X186948900Y-61916481D01*
X186881557Y-61781794D01*
X186814213Y-61714450D01*
X186679526Y-61647107D01*
X186544839Y-61647107D01*
X186443824Y-61680778D01*
X186275465Y-61781794D01*
X186174450Y-61882809D01*
X186073435Y-62051168D01*
X186039763Y-62152183D01*
X186039763Y-62286870D01*
X186107107Y-62421557D01*
X186174450Y-62488900D01*
X186309137Y-62556244D01*
X186376481Y-62556244D01*
X186511168Y-62825618D02*
X186915229Y-63229679D01*
X187420305Y-62320542D02*
X186713198Y-63027648D01*
X187790694Y-62758274D02*
X187925381Y-62825618D01*
X188093740Y-62993977D01*
X188127412Y-63094992D01*
X188127412Y-63162335D01*
X188093740Y-63263351D01*
X188026396Y-63330694D01*
X187925381Y-63364366D01*
X187858038Y-63364366D01*
X187757022Y-63330694D01*
X187588664Y-63229679D01*
X187487648Y-63196007D01*
X187420305Y-63196007D01*
X187319290Y-63229679D01*
X187251946Y-63297022D01*
X187218274Y-63398038D01*
X187218274Y-63465381D01*
X187251946Y-63566396D01*
X187420305Y-63734755D01*
X187554992Y-63802099D01*
X183769137Y-62556244D02*
X183668122Y-62522572D01*
X183567107Y-62421557D01*
X183499763Y-62286870D01*
X183499763Y-62152183D01*
X183533435Y-62051168D01*
X183634450Y-61882809D01*
X183735465Y-61781794D01*
X183903824Y-61680778D01*
X184004839Y-61647107D01*
X184139526Y-61647107D01*
X184274213Y-61714450D01*
X184341557Y-61781794D01*
X184408900Y-61916481D01*
X184408900Y-61983824D01*
X184173198Y-62219526D01*
X184038511Y-62084839D01*
X184779290Y-62219526D02*
X184072183Y-62926633D01*
X185183351Y-62623587D01*
X184476244Y-63330694D01*
X185520068Y-62960305D02*
X184812961Y-63667412D01*
X184981320Y-63835770D01*
X185116007Y-63903114D01*
X185250694Y-63903114D01*
X185351709Y-63869442D01*
X185520068Y-63768427D01*
X185621083Y-63667412D01*
X185722099Y-63499053D01*
X185755770Y-63398038D01*
X185755770Y-63263351D01*
X185688427Y-63128664D01*
X185520068Y-62960305D01*
X180757733Y-62152183D02*
X181195465Y-62589916D01*
X181229137Y-62084839D01*
X181330152Y-62185855D01*
X181431168Y-62219526D01*
X181498511Y-62219526D01*
X181599526Y-62185855D01*
X181767885Y-62017496D01*
X181801557Y-61916481D01*
X181801557Y-61849137D01*
X181767885Y-61748122D01*
X181565855Y-61546091D01*
X181464839Y-61512420D01*
X181397496Y-61512420D01*
X182138274Y-62253198D02*
X182205618Y-62253198D01*
X182205618Y-62185855D01*
X182138274Y-62185855D01*
X182138274Y-62253198D01*
X182205618Y-62185855D01*
X181767885Y-63162335D02*
X182205618Y-63600068D01*
X182239290Y-63094992D01*
X182340305Y-63196007D01*
X182441320Y-63229679D01*
X182508664Y-63229679D01*
X182609679Y-63196007D01*
X182778038Y-63027648D01*
X182811709Y-62926633D01*
X182811709Y-62859290D01*
X182778038Y-62758274D01*
X182576007Y-62556244D01*
X182474992Y-62522572D01*
X182407648Y-62522572D01*
X182407648Y-63802099D02*
X183350457Y-63330694D01*
X182879053Y-64273503D01*
X178184061Y-62118511D02*
X179126870Y-61647107D01*
X178655465Y-62589916D01*
X179934992Y-62589916D02*
X179934992Y-62522572D01*
X179867648Y-62387885D01*
X179800305Y-62320542D01*
X179665618Y-62253198D01*
X179530931Y-62253198D01*
X179429916Y-62286870D01*
X179261557Y-62387885D01*
X179160542Y-62488900D01*
X179059526Y-62657259D01*
X179025855Y-62758274D01*
X179025855Y-62892961D01*
X179093198Y-63027648D01*
X179160542Y-63094992D01*
X179295229Y-63162335D01*
X179362572Y-63162335D01*
X180642099Y-63297022D02*
X180642099Y-63229679D01*
X180574755Y-63094992D01*
X180507412Y-63027648D01*
X180372725Y-62960305D01*
X180238038Y-62960305D01*
X180137022Y-62993977D01*
X179968664Y-63094992D01*
X179867648Y-63196007D01*
X179766633Y-63364366D01*
X179732961Y-63465381D01*
X179732961Y-63600068D01*
X179800305Y-63734755D01*
X179867648Y-63802099D01*
X180002335Y-63869442D01*
X180069679Y-63869442D01*
X206021071Y-65813571D02*
X205878214Y-65861190D01*
X205830595Y-65908809D01*
X205782976Y-66004047D01*
X205782976Y-66146904D01*
X205830595Y-66242142D01*
X205878214Y-66289761D01*
X205973452Y-66337380D01*
X206354404Y-66337380D01*
X206354404Y-65337380D01*
X206021071Y-65337380D01*
X205925833Y-65385000D01*
X205878214Y-65432619D01*
X205830595Y-65527857D01*
X205830595Y-65623095D01*
X205878214Y-65718333D01*
X205925833Y-65765952D01*
X206021071Y-65813571D01*
X206354404Y-65813571D01*
X205354404Y-66337380D02*
X205354404Y-65670714D01*
X205354404Y-65861190D02*
X205306785Y-65765952D01*
X205259166Y-65718333D01*
X205163928Y-65670714D01*
X205068690Y-65670714D01*
X204735357Y-66337380D02*
X204735357Y-65670714D01*
X204735357Y-65337380D02*
X204782976Y-65385000D01*
X204735357Y-65432619D01*
X204687738Y-65385000D01*
X204735357Y-65337380D01*
X204735357Y-65432619D01*
X203830595Y-66337380D02*
X203830595Y-65337380D01*
X203830595Y-66289761D02*
X203925833Y-66337380D01*
X204116309Y-66337380D01*
X204211547Y-66289761D01*
X204259166Y-66242142D01*
X204306785Y-66146904D01*
X204306785Y-65861190D01*
X204259166Y-65765952D01*
X204211547Y-65718333D01*
X204116309Y-65670714D01*
X203925833Y-65670714D01*
X203830595Y-65718333D01*
X202925833Y-65670714D02*
X202925833Y-66480238D01*
X202973452Y-66575476D01*
X203021071Y-66623095D01*
X203116309Y-66670714D01*
X203259166Y-66670714D01*
X203354404Y-66623095D01*
X202925833Y-66289761D02*
X203021071Y-66337380D01*
X203211547Y-66337380D01*
X203306785Y-66289761D01*
X203354404Y-66242142D01*
X203402023Y-66146904D01*
X203402023Y-65861190D01*
X203354404Y-65765952D01*
X203306785Y-65718333D01*
X203211547Y-65670714D01*
X203021071Y-65670714D01*
X202925833Y-65718333D01*
X202068690Y-66289761D02*
X202163928Y-66337380D01*
X202354404Y-66337380D01*
X202449642Y-66289761D01*
X202497261Y-66194523D01*
X202497261Y-65813571D01*
X202449642Y-65718333D01*
X202354404Y-65670714D01*
X202163928Y-65670714D01*
X202068690Y-65718333D01*
X202021071Y-65813571D01*
X202021071Y-65908809D01*
X202497261Y-66004047D01*
X206211547Y-67987380D02*
X206306785Y-67939761D01*
X206354404Y-67892142D01*
X206402023Y-67796904D01*
X206402023Y-67511190D01*
X206354404Y-67415952D01*
X206306785Y-67368333D01*
X206211547Y-67320714D01*
X206068690Y-67320714D01*
X205973452Y-67368333D01*
X205925833Y-67415952D01*
X205878214Y-67511190D01*
X205878214Y-67796904D01*
X205925833Y-67892142D01*
X205973452Y-67939761D01*
X206068690Y-67987380D01*
X206211547Y-67987380D01*
X205449642Y-67987380D02*
X205449642Y-67320714D01*
X205449642Y-67511190D02*
X205402023Y-67415952D01*
X205354404Y-67368333D01*
X205259166Y-67320714D01*
X205163928Y-67320714D01*
X203640119Y-67939761D02*
X203735357Y-67987380D01*
X203925833Y-67987380D01*
X204021071Y-67939761D01*
X204068690Y-67892142D01*
X204116309Y-67796904D01*
X204116309Y-67511190D01*
X204068690Y-67415952D01*
X204021071Y-67368333D01*
X203925833Y-67320714D01*
X203735357Y-67320714D01*
X203640119Y-67368333D01*
X203068690Y-67987380D02*
X203163928Y-67939761D01*
X203211547Y-67892142D01*
X203259166Y-67796904D01*
X203259166Y-67511190D01*
X203211547Y-67415952D01*
X203163928Y-67368333D01*
X203068690Y-67320714D01*
X202925833Y-67320714D01*
X202830595Y-67368333D01*
X202782976Y-67415952D01*
X202735357Y-67511190D01*
X202735357Y-67796904D01*
X202782976Y-67892142D01*
X202830595Y-67939761D01*
X202925833Y-67987380D01*
X203068690Y-67987380D01*
X202306785Y-67320714D02*
X202306785Y-67987380D01*
X202306785Y-67415952D02*
X202259166Y-67368333D01*
X202163928Y-67320714D01*
X202021071Y-67320714D01*
X201925833Y-67368333D01*
X201878214Y-67463571D01*
X201878214Y-67987380D01*
X201402023Y-67320714D02*
X201402023Y-67987380D01*
X201402023Y-67415952D02*
X201354404Y-67368333D01*
X201259166Y-67320714D01*
X201116309Y-67320714D01*
X201021071Y-67368333D01*
X200973452Y-67463571D01*
X200973452Y-67987380D01*
X200116309Y-67939761D02*
X200211547Y-67987380D01*
X200402023Y-67987380D01*
X200497261Y-67939761D01*
X200544880Y-67844523D01*
X200544880Y-67463571D01*
X200497261Y-67368333D01*
X200402023Y-67320714D01*
X200211547Y-67320714D01*
X200116309Y-67368333D01*
X200068690Y-67463571D01*
X200068690Y-67558809D01*
X200544880Y-67654047D01*
X199211547Y-67939761D02*
X199306785Y-67987380D01*
X199497261Y-67987380D01*
X199592500Y-67939761D01*
X199640119Y-67892142D01*
X199687738Y-67796904D01*
X199687738Y-67511190D01*
X199640119Y-67415952D01*
X199592500Y-67368333D01*
X199497261Y-67320714D01*
X199306785Y-67320714D01*
X199211547Y-67368333D01*
X198925833Y-67320714D02*
X198544880Y-67320714D01*
X198782976Y-66987380D02*
X198782976Y-67844523D01*
X198735357Y-67939761D01*
X198640119Y-67987380D01*
X198544880Y-67987380D01*
X197449642Y-66987380D02*
X197449642Y-67796904D01*
X197402023Y-67892142D01*
X197354404Y-67939761D01*
X197259166Y-67987380D01*
X197068690Y-67987380D01*
X196973452Y-67939761D01*
X196925833Y-67892142D01*
X196878214Y-67796904D01*
X196878214Y-66987380D01*
X195878214Y-67987380D02*
X196449642Y-67987380D01*
X196163928Y-67987380D02*
X196163928Y-66987380D01*
X196259166Y-67130238D01*
X196354404Y-67225476D01*
X196449642Y-67273095D01*
D11*
X200820000Y-66970000D02*
G75*
G03X201520000Y-66270000I0J700000D01*
G01*
X201520000Y-65670000D02*
G75*
G03X200820000Y-64970000I-700000J0D01*
G01*
X199420000Y-64970000D02*
G75*
G03X198720000Y-65670000I0J-700000D01*
G01*
X198720000Y-66270000D02*
G75*
G03X199420000Y-66970000I700000J0D01*
G01*
X198720000Y-65670000D02*
X198720000Y-66270000D01*
X200820000Y-64970000D02*
X199420000Y-64970000D01*
X201520000Y-66270000D02*
X201520000Y-65670000D01*
X199420000Y-66970000D02*
X200820000Y-66970000D01*
D10*
X175860513Y-62267619D02*
X175779700Y-62254151D01*
X175708990Y-62183440D01*
X175671951Y-62079058D01*
X175692154Y-61964574D01*
X175735927Y-61873660D01*
X175847044Y-61715403D01*
X175948059Y-61614387D01*
X176106316Y-61503271D01*
X176197230Y-61459497D01*
X176311714Y-61439294D01*
X176416097Y-61476333D01*
X176463237Y-61523474D01*
X176500276Y-61627856D01*
X176490174Y-61685098D01*
X176254472Y-61920800D01*
X176160191Y-61826519D01*
X176769650Y-61829887D02*
X176062543Y-62536993D01*
X177052493Y-62112729D01*
X176345386Y-62819836D01*
X177288195Y-62348432D02*
X176581088Y-63055538D01*
X176698939Y-63173390D01*
X176803322Y-63210428D01*
X176917806Y-63190225D01*
X177008719Y-63146452D01*
X177166977Y-63035335D01*
X177267992Y-62934320D01*
X177379109Y-62776063D01*
X177422882Y-62685149D01*
X177443085Y-62570665D01*
X177406046Y-62466283D01*
X177288195Y-62348432D01*
X203920778Y-70163518D02*
X204257496Y-69826801D01*
X203651404Y-70028831D02*
X204594213Y-70500236D01*
X204122809Y-69557427D01*
X204358511Y-69321725D02*
X205065618Y-70028831D01*
X205233977Y-69860473D01*
X205301320Y-69725786D01*
X205301320Y-69591099D01*
X205267648Y-69490083D01*
X205166633Y-69321725D01*
X205065618Y-69220709D01*
X204897259Y-69119694D01*
X204796244Y-69086022D01*
X204661557Y-69086022D01*
X204526870Y-69153366D01*
X204358511Y-69321725D01*
X205537022Y-68277900D02*
X205469679Y-68277900D01*
X205334992Y-68345244D01*
X205267648Y-68412587D01*
X205200305Y-68547274D01*
X205200305Y-68681961D01*
X205233977Y-68782977D01*
X205334992Y-68951335D01*
X205436007Y-69052351D01*
X205604366Y-69153366D01*
X205705381Y-69187038D01*
X205840068Y-69187038D01*
X205974755Y-69119694D01*
X206042099Y-69052351D01*
X206109442Y-68917664D01*
X206109442Y-68850320D01*
X197813333Y-65282380D02*
X197813333Y-65996666D01*
X197860952Y-66139523D01*
X197956190Y-66234761D01*
X198099047Y-66282380D01*
X198194285Y-66282380D01*
X197337142Y-66282380D02*
X197337142Y-65282380D01*
X196956190Y-65282380D01*
X196860952Y-65330000D01*
X196813333Y-65377619D01*
X196765714Y-65472857D01*
X196765714Y-65615714D01*
X196813333Y-65710952D01*
X196860952Y-65758571D01*
X196956190Y-65806190D01*
X197337142Y-65806190D01*
X195813333Y-66282380D02*
X196384761Y-66282380D01*
X196099047Y-66282380D02*
X196099047Y-65282380D01*
X196194285Y-65425238D01*
X196289523Y-65520476D01*
X196384761Y-65568095D01*
M02*
