M48
; DRILL file {KiCad (5.1.4)-1} date 11/22/2019 1:16:24 PM
; FORMAT={-:-/ absolute / inch / decimal}
; #@! TF.CreationDate,2019-11-22T13:16:24+01:00
; #@! TF.GenerationSoftware,Kicad,Pcbnew,(5.1.4)-1
; #@! TF.FileFunction,Plated,1,2,PTH
FMAT,2
INCH
T1C0.0157
T2C0.0315
T3C0.0394
T4C0.0472
T5C0.1260
%
G90
G05
T1
X7.19Y-2.57
X7.19Y-2.62
X7.24Y-2.57
X7.24Y-2.62
T2
X7.3265Y-2.5983
X7.6265Y-2.5983
X6.4065Y-2.3
X6.4065Y-2.4
X6.4065Y-2.5
X6.4065Y-2.6
X6.4065Y-2.7
X6.4065Y-2.8
X6.4065Y-2.9
X6.7065Y-2.3
X6.7065Y-2.4
X6.7065Y-2.5
X6.7065Y-2.6
X6.7065Y-2.7
X6.7065Y-2.8
X6.7065Y-2.9
T3
X8.2Y-2.3
X8.3Y-2.3
X6.9004Y-2.3
X6.9004Y-2.9
X7.0004Y-2.3
X7.0004Y-2.9
X7.1004Y-2.3
X7.1004Y-2.9
X7.2004Y-2.3
X7.2004Y-2.9
X7.3004Y-2.3
X7.3004Y-2.9
X7.4004Y-2.3
X7.4004Y-2.9
X7.5004Y-2.3
X7.5004Y-2.9
X7.6004Y-2.3
X7.6004Y-2.9
X7.7004Y-2.3
X7.7004Y-2.9
X7.8004Y-2.3
X7.8004Y-2.9
X7.9004Y-2.3
X7.9004Y-2.9
X8.0004Y-2.3
X8.0004Y-2.9
X6.9Y-2.8
X7.0Y-2.8
X7.1Y-2.8
X7.2Y-2.8
X7.3Y-2.8
X7.4Y-2.8
X7.5Y-2.8
X7.6Y-2.8
X7.7Y-2.8
X7.8Y-2.8
X7.9Y-2.8
X8.0Y-2.8
X6.9Y-2.4
X7.0Y-2.4
X7.1Y-2.4
X7.2Y-2.4
X7.3Y-2.4
X7.4Y-2.4
X7.5Y-2.4
X7.6Y-2.4
X7.7Y-2.4
X7.8Y-2.4
X7.9Y-2.4
X8.0Y-2.4
X8.5535Y-2.3443
X8.5535Y-2.5412
T4
X8.0543Y-2.5441
X8.0543Y-2.6425
X8.0543Y-2.7409
X8.2512Y-2.5441
X8.2512Y-2.6425
X8.2512Y-2.7409
T5
X7.0Y-2.6
X8.9Y-2.4
X8.475Y-2.825
T3
G00X8.7419Y-2.8194
M15
G01X8.7419Y-2.7406
M16
G05
G00X8.8994Y-2.595
M15
G01X8.8206Y-2.595
M16
G05
G00X8.9781Y-2.8194
M15
G01X8.9781Y-2.7406
M16
G05
T0
M30
