G04 #@! TF.GenerationSoftware,KiCad,Pcbnew,(5.1.4)-1*
G04 #@! TF.CreationDate,2019-11-22T13:16:02+01:00*
G04 #@! TF.ProjectId,ArtNetNode1.2,4172744e-6574-44e6-9f64-65312e322e6b,rev?*
G04 #@! TF.SameCoordinates,Original*
G04 #@! TF.FileFunction,Legend,Top*
G04 #@! TF.FilePolarity,Positive*
%FSLAX46Y46*%
G04 Gerber Fmt 4.6, Leading zero omitted, Abs format (unit mm)*
G04 Created by KiCad (PCBNEW (5.1.4)-1) date 2019-11-22 13:16:02*
%MOMM*%
%LPD*%
G04 APERTURE LIST*
%ADD10C,0.150000*%
%ADD11C,0.120000*%
G04 APERTURE END LIST*
D10*
X172426380Y-73354285D02*
X173426380Y-73163809D01*
X172712095Y-73011428D01*
X173426380Y-72859047D01*
X172426380Y-72668571D01*
X173378761Y-72401904D02*
X173426380Y-72287619D01*
X173426380Y-72097142D01*
X173378761Y-72020952D01*
X173331142Y-71982857D01*
X173235904Y-71944761D01*
X173140666Y-71944761D01*
X173045428Y-71982857D01*
X172997809Y-72020952D01*
X172950190Y-72097142D01*
X172902571Y-72249523D01*
X172854952Y-72325714D01*
X172807333Y-72363809D01*
X172712095Y-72401904D01*
X172616857Y-72401904D01*
X172521619Y-72363809D01*
X172474000Y-72325714D01*
X172426380Y-72249523D01*
X172426380Y-72059047D01*
X172474000Y-71944761D01*
X172521619Y-71640000D02*
X172474000Y-71601904D01*
X172426380Y-71525714D01*
X172426380Y-71335238D01*
X172474000Y-71259047D01*
X172521619Y-71220952D01*
X172616857Y-71182857D01*
X172712095Y-71182857D01*
X172854952Y-71220952D01*
X173426380Y-71678095D01*
X173426380Y-71182857D01*
X172854952Y-70725714D02*
X172807333Y-70801904D01*
X172759714Y-70840000D01*
X172664476Y-70878095D01*
X172616857Y-70878095D01*
X172521619Y-70840000D01*
X172474000Y-70801904D01*
X172426380Y-70725714D01*
X172426380Y-70573333D01*
X172474000Y-70497142D01*
X172521619Y-70459047D01*
X172616857Y-70420952D01*
X172664476Y-70420952D01*
X172759714Y-70459047D01*
X172807333Y-70497142D01*
X172854952Y-70573333D01*
X172854952Y-70725714D01*
X172902571Y-70801904D01*
X172950190Y-70840000D01*
X173045428Y-70878095D01*
X173235904Y-70878095D01*
X173331142Y-70840000D01*
X173378761Y-70801904D01*
X173426380Y-70725714D01*
X173426380Y-70573333D01*
X173378761Y-70497142D01*
X173331142Y-70459047D01*
X173235904Y-70420952D01*
X173045428Y-70420952D01*
X172950190Y-70459047D01*
X172902571Y-70497142D01*
X172854952Y-70573333D01*
X173331142Y-70078095D02*
X173378761Y-70040000D01*
X173426380Y-70078095D01*
X173378761Y-70116190D01*
X173331142Y-70078095D01*
X173426380Y-70078095D01*
X173331142Y-69697142D02*
X173378761Y-69659047D01*
X173426380Y-69697142D01*
X173378761Y-69735238D01*
X173331142Y-69697142D01*
X173426380Y-69697142D01*
X173140666Y-68744761D02*
X173140666Y-68363809D01*
X173426380Y-68820952D02*
X172426380Y-68554285D01*
X173426380Y-68287619D01*
X173426380Y-68020952D02*
X172759714Y-68020952D01*
X172950190Y-68020952D02*
X172854952Y-67982857D01*
X172807333Y-67944761D01*
X172759714Y-67868571D01*
X172759714Y-67792380D01*
X172759714Y-67640000D02*
X172759714Y-67335238D01*
X172426380Y-67525714D02*
X173283523Y-67525714D01*
X173378761Y-67487619D01*
X173426380Y-67411428D01*
X173426380Y-67335238D01*
X172759714Y-67068571D02*
X173426380Y-67068571D01*
X172854952Y-67068571D02*
X172807333Y-67030476D01*
X172759714Y-66954285D01*
X172759714Y-66840000D01*
X172807333Y-66763809D01*
X172902571Y-66725714D01*
X173426380Y-66725714D01*
X173378761Y-66040000D02*
X173426380Y-66116190D01*
X173426380Y-66268571D01*
X173378761Y-66344761D01*
X173283523Y-66382857D01*
X172902571Y-66382857D01*
X172807333Y-66344761D01*
X172759714Y-66268571D01*
X172759714Y-66116190D01*
X172807333Y-66040000D01*
X172902571Y-66001904D01*
X172997809Y-66001904D01*
X173093047Y-66382857D01*
X172759714Y-65773333D02*
X172759714Y-65468571D01*
X172426380Y-65659047D02*
X173283523Y-65659047D01*
X173378761Y-65620952D01*
X173426380Y-65544761D01*
X173426380Y-65468571D01*
X173426380Y-64592380D02*
X172426380Y-64592380D01*
X173426380Y-64135238D01*
X172426380Y-64135238D01*
X173426380Y-63640000D02*
X173378761Y-63716190D01*
X173331142Y-63754285D01*
X173235904Y-63792380D01*
X172950190Y-63792380D01*
X172854952Y-63754285D01*
X172807333Y-63716190D01*
X172759714Y-63640000D01*
X172759714Y-63525714D01*
X172807333Y-63449523D01*
X172854952Y-63411428D01*
X172950190Y-63373333D01*
X173235904Y-63373333D01*
X173331142Y-63411428D01*
X173378761Y-63449523D01*
X173426380Y-63525714D01*
X173426380Y-63640000D01*
X173426380Y-62687619D02*
X172426380Y-62687619D01*
X173378761Y-62687619D02*
X173426380Y-62763809D01*
X173426380Y-62916190D01*
X173378761Y-62992380D01*
X173331142Y-63030476D01*
X173235904Y-63068571D01*
X172950190Y-63068571D01*
X172854952Y-63030476D01*
X172807333Y-62992380D01*
X172759714Y-62916190D01*
X172759714Y-62763809D01*
X172807333Y-62687619D01*
X173378761Y-62001904D02*
X173426380Y-62078095D01*
X173426380Y-62230476D01*
X173378761Y-62306666D01*
X173283523Y-62344761D01*
X172902571Y-62344761D01*
X172807333Y-62306666D01*
X172759714Y-62230476D01*
X172759714Y-62078095D01*
X172807333Y-62001904D01*
X172902571Y-61963809D01*
X172997809Y-61963809D01*
X173093047Y-62344761D01*
X172426380Y-61125714D02*
X173426380Y-60859047D01*
X172426380Y-60592380D01*
X173426380Y-59906666D02*
X173426380Y-60363809D01*
X173426380Y-60135238D02*
X172426380Y-60135238D01*
X172569238Y-60211428D01*
X172664476Y-60287619D01*
X172712095Y-60363809D01*
X173331142Y-59563809D02*
X173378761Y-59525714D01*
X173426380Y-59563809D01*
X173378761Y-59601904D01*
X173331142Y-59563809D01*
X173426380Y-59563809D01*
X172426380Y-59259047D02*
X172426380Y-58763809D01*
X172807333Y-59030476D01*
X172807333Y-58916190D01*
X172854952Y-58840000D01*
X172902571Y-58801904D01*
X172997809Y-58763809D01*
X173235904Y-58763809D01*
X173331142Y-58801904D01*
X173378761Y-58840000D01*
X173426380Y-58916190D01*
X173426380Y-59144761D01*
X173378761Y-59220952D01*
X173331142Y-59259047D01*
D11*
X211780000Y-61620000D02*
X211780000Y-70270000D01*
X211780000Y-70270000D02*
X201780000Y-70270000D01*
X211780000Y-61620000D02*
X201780000Y-61620000D01*
X201780000Y-61620000D02*
X201780000Y-70270000D01*
X222379600Y-62046000D02*
G75*
G03X222379600Y-62046000I-5120000J0D01*
G01*
X222339600Y-62046000D02*
X212179600Y-62046000D01*
X222339600Y-62086000D02*
X212179600Y-62086000D01*
X222339600Y-62126000D02*
X212179600Y-62126000D01*
X222338600Y-62166000D02*
X212180600Y-62166000D01*
X222337600Y-62206000D02*
X212181600Y-62206000D01*
X222336600Y-62246000D02*
X212182600Y-62246000D01*
X222334600Y-62286000D02*
X212184600Y-62286000D01*
X222332600Y-62326000D02*
X212186600Y-62326000D01*
X222329600Y-62366000D02*
X212189600Y-62366000D01*
X222327600Y-62406000D02*
X212191600Y-62406000D01*
X222324600Y-62446000D02*
X212194600Y-62446000D01*
X222321600Y-62486000D02*
X212197600Y-62486000D01*
X222317600Y-62526000D02*
X212201600Y-62526000D01*
X222313600Y-62566000D02*
X212205600Y-62566000D01*
X222309600Y-62606000D02*
X212209600Y-62606000D01*
X222304600Y-62646000D02*
X212214600Y-62646000D01*
X222299600Y-62686000D02*
X212219600Y-62686000D01*
X222294600Y-62726000D02*
X212224600Y-62726000D01*
X222289600Y-62767000D02*
X212229600Y-62767000D01*
X222283600Y-62807000D02*
X212235600Y-62807000D01*
X222277600Y-62847000D02*
X212241600Y-62847000D01*
X222270600Y-62887000D02*
X212248600Y-62887000D01*
X222263600Y-62927000D02*
X212255600Y-62927000D01*
X222256600Y-62967000D02*
X212262600Y-62967000D01*
X222249600Y-63007000D02*
X212269600Y-63007000D01*
X222241600Y-63047000D02*
X212277600Y-63047000D01*
X222233600Y-63087000D02*
X212285600Y-63087000D01*
X222224600Y-63127000D02*
X212294600Y-63127000D01*
X222215600Y-63167000D02*
X212303600Y-63167000D01*
X222206600Y-63207000D02*
X212312600Y-63207000D01*
X222197600Y-63247000D02*
X212321600Y-63247000D01*
X222187600Y-63287000D02*
X212331600Y-63287000D01*
X222177600Y-63327000D02*
X218500600Y-63327000D01*
X216018600Y-63327000D02*
X212341600Y-63327000D01*
X222166600Y-63367000D02*
X218500600Y-63367000D01*
X216018600Y-63367000D02*
X212352600Y-63367000D01*
X222156600Y-63407000D02*
X218500600Y-63407000D01*
X216018600Y-63407000D02*
X212362600Y-63407000D01*
X222144600Y-63447000D02*
X218500600Y-63447000D01*
X216018600Y-63447000D02*
X212374600Y-63447000D01*
X222133600Y-63487000D02*
X218500600Y-63487000D01*
X216018600Y-63487000D02*
X212385600Y-63487000D01*
X222121600Y-63527000D02*
X218500600Y-63527000D01*
X216018600Y-63527000D02*
X212397600Y-63527000D01*
X222109600Y-63567000D02*
X218500600Y-63567000D01*
X216018600Y-63567000D02*
X212409600Y-63567000D01*
X222096600Y-63607000D02*
X218500600Y-63607000D01*
X216018600Y-63607000D02*
X212422600Y-63607000D01*
X222083600Y-63647000D02*
X218500600Y-63647000D01*
X216018600Y-63647000D02*
X212435600Y-63647000D01*
X222070600Y-63687000D02*
X218500600Y-63687000D01*
X216018600Y-63687000D02*
X212448600Y-63687000D01*
X222056600Y-63727000D02*
X218500600Y-63727000D01*
X216018600Y-63727000D02*
X212462600Y-63727000D01*
X222042600Y-63767000D02*
X218500600Y-63767000D01*
X216018600Y-63767000D02*
X212476600Y-63767000D01*
X222027600Y-63807000D02*
X218500600Y-63807000D01*
X216018600Y-63807000D02*
X212491600Y-63807000D01*
X222013600Y-63847000D02*
X218500600Y-63847000D01*
X216018600Y-63847000D02*
X212505600Y-63847000D01*
X221997600Y-63887000D02*
X218500600Y-63887000D01*
X216018600Y-63887000D02*
X212521600Y-63887000D01*
X221982600Y-63927000D02*
X218500600Y-63927000D01*
X216018600Y-63927000D02*
X212536600Y-63927000D01*
X221966600Y-63967000D02*
X218500600Y-63967000D01*
X216018600Y-63967000D02*
X212552600Y-63967000D01*
X221949600Y-64007000D02*
X218500600Y-64007000D01*
X216018600Y-64007000D02*
X212569600Y-64007000D01*
X221933600Y-64047000D02*
X218500600Y-64047000D01*
X216018600Y-64047000D02*
X212585600Y-64047000D01*
X221916600Y-64087000D02*
X218500600Y-64087000D01*
X216018600Y-64087000D02*
X212602600Y-64087000D01*
X221898600Y-64127000D02*
X218500600Y-64127000D01*
X216018600Y-64127000D02*
X212620600Y-64127000D01*
X221880600Y-64167000D02*
X218500600Y-64167000D01*
X216018600Y-64167000D02*
X212638600Y-64167000D01*
X221862600Y-64207000D02*
X218500600Y-64207000D01*
X216018600Y-64207000D02*
X212656600Y-64207000D01*
X221843600Y-64247000D02*
X218500600Y-64247000D01*
X216018600Y-64247000D02*
X212675600Y-64247000D01*
X221823600Y-64287000D02*
X218500600Y-64287000D01*
X216018600Y-64287000D02*
X212695600Y-64287000D01*
X221804600Y-64327000D02*
X218500600Y-64327000D01*
X216018600Y-64327000D02*
X212714600Y-64327000D01*
X221784600Y-64367000D02*
X218500600Y-64367000D01*
X216018600Y-64367000D02*
X212734600Y-64367000D01*
X221763600Y-64407000D02*
X218500600Y-64407000D01*
X216018600Y-64407000D02*
X212755600Y-64407000D01*
X221742600Y-64447000D02*
X218500600Y-64447000D01*
X216018600Y-64447000D02*
X212776600Y-64447000D01*
X221721600Y-64487000D02*
X218500600Y-64487000D01*
X216018600Y-64487000D02*
X212797600Y-64487000D01*
X221699600Y-64527000D02*
X218500600Y-64527000D01*
X216018600Y-64527000D02*
X212819600Y-64527000D01*
X221676600Y-64567000D02*
X218500600Y-64567000D01*
X216018600Y-64567000D02*
X212842600Y-64567000D01*
X221654600Y-64607000D02*
X218500600Y-64607000D01*
X216018600Y-64607000D02*
X212864600Y-64607000D01*
X221630600Y-64647000D02*
X218500600Y-64647000D01*
X216018600Y-64647000D02*
X212888600Y-64647000D01*
X221606600Y-64687000D02*
X218500600Y-64687000D01*
X216018600Y-64687000D02*
X212912600Y-64687000D01*
X221582600Y-64727000D02*
X218500600Y-64727000D01*
X216018600Y-64727000D02*
X212936600Y-64727000D01*
X221557600Y-64767000D02*
X218500600Y-64767000D01*
X216018600Y-64767000D02*
X212961600Y-64767000D01*
X221532600Y-64807000D02*
X218500600Y-64807000D01*
X216018600Y-64807000D02*
X212986600Y-64807000D01*
X221506600Y-64847000D02*
X218500600Y-64847000D01*
X216018600Y-64847000D02*
X213012600Y-64847000D01*
X221480600Y-64887000D02*
X218500600Y-64887000D01*
X216018600Y-64887000D02*
X213038600Y-64887000D01*
X221453600Y-64927000D02*
X218500600Y-64927000D01*
X216018600Y-64927000D02*
X213065600Y-64927000D01*
X221425600Y-64967000D02*
X218500600Y-64967000D01*
X216018600Y-64967000D02*
X213093600Y-64967000D01*
X221397600Y-65007000D02*
X218500600Y-65007000D01*
X216018600Y-65007000D02*
X213121600Y-65007000D01*
X221369600Y-65047000D02*
X218500600Y-65047000D01*
X216018600Y-65047000D02*
X213149600Y-65047000D01*
X221339600Y-65087000D02*
X218500600Y-65087000D01*
X216018600Y-65087000D02*
X213179600Y-65087000D01*
X221309600Y-65127000D02*
X218500600Y-65127000D01*
X216018600Y-65127000D02*
X213209600Y-65127000D01*
X221279600Y-65167000D02*
X218500600Y-65167000D01*
X216018600Y-65167000D02*
X213239600Y-65167000D01*
X221248600Y-65207000D02*
X218500600Y-65207000D01*
X216018600Y-65207000D02*
X213270600Y-65207000D01*
X221216600Y-65247000D02*
X218500600Y-65247000D01*
X216018600Y-65247000D02*
X213302600Y-65247000D01*
X221184600Y-65287000D02*
X218500600Y-65287000D01*
X216018600Y-65287000D02*
X213334600Y-65287000D01*
X221151600Y-65327000D02*
X218500600Y-65327000D01*
X216018600Y-65327000D02*
X213367600Y-65327000D01*
X221117600Y-65367000D02*
X218500600Y-65367000D01*
X216018600Y-65367000D02*
X213401600Y-65367000D01*
X221083600Y-65407000D02*
X218500600Y-65407000D01*
X216018600Y-65407000D02*
X213435600Y-65407000D01*
X221048600Y-65447000D02*
X218500600Y-65447000D01*
X216018600Y-65447000D02*
X213470600Y-65447000D01*
X221012600Y-65487000D02*
X218500600Y-65487000D01*
X216018600Y-65487000D02*
X213506600Y-65487000D01*
X220975600Y-65527000D02*
X218500600Y-65527000D01*
X216018600Y-65527000D02*
X213543600Y-65527000D01*
X220938600Y-65567000D02*
X218500600Y-65567000D01*
X216018600Y-65567000D02*
X213580600Y-65567000D01*
X220899600Y-65607000D02*
X218500600Y-65607000D01*
X216018600Y-65607000D02*
X213619600Y-65607000D01*
X220860600Y-65647000D02*
X218500600Y-65647000D01*
X216018600Y-65647000D02*
X213658600Y-65647000D01*
X220820600Y-65687000D02*
X218500600Y-65687000D01*
X216018600Y-65687000D02*
X213698600Y-65687000D01*
X220779600Y-65727000D02*
X218500600Y-65727000D01*
X216018600Y-65727000D02*
X213739600Y-65727000D01*
X220737600Y-65767000D02*
X218500600Y-65767000D01*
X216018600Y-65767000D02*
X213781600Y-65767000D01*
X220695600Y-65807000D02*
X213823600Y-65807000D01*
X220651600Y-65847000D02*
X213867600Y-65847000D01*
X220606600Y-65887000D02*
X213912600Y-65887000D01*
X220560600Y-65927000D02*
X213958600Y-65927000D01*
X220513600Y-65967000D02*
X214005600Y-65967000D01*
X220465600Y-66007000D02*
X214053600Y-66007000D01*
X220415600Y-66047000D02*
X214103600Y-66047000D01*
X220365600Y-66087000D02*
X214153600Y-66087000D01*
X220313600Y-66127000D02*
X214205600Y-66127000D01*
X220259600Y-66167000D02*
X214259600Y-66167000D01*
X220204600Y-66207000D02*
X214314600Y-66207000D01*
X220148600Y-66247000D02*
X214370600Y-66247000D01*
X220089600Y-66287000D02*
X214429600Y-66287000D01*
X220029600Y-66327000D02*
X214489600Y-66327000D01*
X219968600Y-66367000D02*
X214550600Y-66367000D01*
X219904600Y-66407000D02*
X214614600Y-66407000D01*
X219838600Y-66447000D02*
X214680600Y-66447000D01*
X219769600Y-66487000D02*
X214749600Y-66487000D01*
X219698600Y-66527000D02*
X214820600Y-66527000D01*
X219624600Y-66567000D02*
X214894600Y-66567000D01*
X219548600Y-66607000D02*
X214970600Y-66607000D01*
X219468600Y-66647000D02*
X215050600Y-66647000D01*
X219384600Y-66687000D02*
X215134600Y-66687000D01*
X219296600Y-66727000D02*
X215222600Y-66727000D01*
X219203600Y-66767000D02*
X215315600Y-66767000D01*
X219105600Y-66807000D02*
X215413600Y-66807000D01*
X219001600Y-66847000D02*
X215517600Y-66847000D01*
X218889600Y-66887000D02*
X215629600Y-66887000D01*
X218769600Y-66927000D02*
X215749600Y-66927000D01*
X218637600Y-66967000D02*
X215881600Y-66967000D01*
X218489600Y-67007000D02*
X216029600Y-67007000D01*
X218321600Y-67047000D02*
X216197600Y-67047000D01*
X218121600Y-67087000D02*
X216397600Y-67087000D01*
X217858600Y-67127000D02*
X216660600Y-67127000D01*
X221634600Y-57466354D02*
X221634600Y-58466354D01*
X222134600Y-57966354D02*
X221134600Y-57966354D01*
X160770000Y-75040000D02*
X211770000Y-75040000D01*
X160770000Y-75040000D02*
X160770000Y-57040000D01*
X160770000Y-57040000D02*
X211770000Y-57040000D01*
X211770000Y-75040000D02*
X211770000Y-57040000D01*
X220944000Y-74362000D02*
X220944000Y-75412000D01*
X221994000Y-75412000D02*
X220944000Y-75412000D01*
X227044000Y-66012000D02*
X235844000Y-66012000D01*
X235844000Y-66012000D02*
X235844000Y-75212000D01*
X221144000Y-68712000D02*
X221144000Y-66012000D01*
X221144000Y-66012000D02*
X223044000Y-66012000D01*
X235844000Y-75212000D02*
X221144000Y-75212000D01*
X221144000Y-75212000D02*
X221144000Y-72612000D01*
X186633800Y-64957600D02*
X186633800Y-64627600D01*
X186633800Y-64627600D02*
X193173800Y-64627600D01*
X193173800Y-64627600D02*
X193173800Y-64957600D01*
X186633800Y-67037600D02*
X186633800Y-67367600D01*
X186633800Y-67367600D02*
X193173800Y-67367600D01*
X193173800Y-67367600D02*
X193173800Y-67037600D01*
X167535800Y-57090000D02*
G75*
G02X165535800Y-57090000I-1000000J0D01*
G01*
X165535800Y-57090000D02*
X164285800Y-57090000D01*
X164285800Y-57090000D02*
X164285800Y-74990000D01*
X164285800Y-74990000D02*
X168785800Y-74990000D01*
X168785800Y-74990000D02*
X168785800Y-57090000D01*
X168785800Y-57090000D02*
X167535800Y-57090000D01*
X161285800Y-57030000D02*
X161285800Y-75050000D01*
X161285800Y-75050000D02*
X171785800Y-75050000D01*
X171785800Y-75050000D02*
X171785800Y-57030000D01*
X171785800Y-57030000D02*
X161285800Y-57030000D01*
D10*
X209746666Y-71612380D02*
X209746666Y-72326666D01*
X209699047Y-72469523D01*
X209603809Y-72564761D01*
X209460952Y-72612380D01*
X209365714Y-72612380D01*
X210746666Y-72612380D02*
X210175238Y-72612380D01*
X210460952Y-72612380D02*
X210460952Y-71612380D01*
X210365714Y-71755238D01*
X210270476Y-71850476D01*
X210175238Y-71898095D01*
X200179523Y-62592380D02*
X199703333Y-62592380D01*
X199655714Y-63068571D01*
X199703333Y-63020952D01*
X199798571Y-62973333D01*
X200036666Y-62973333D01*
X200131904Y-63020952D01*
X200179523Y-63068571D01*
X200227142Y-63163809D01*
X200227142Y-63401904D01*
X200179523Y-63497142D01*
X200131904Y-63544761D01*
X200036666Y-63592380D01*
X199798571Y-63592380D01*
X199703333Y-63544761D01*
X199655714Y-63497142D01*
X200512857Y-62592380D02*
X200846190Y-63592380D01*
X201179523Y-62592380D01*
X198117619Y-66212380D02*
X198117619Y-65212380D01*
X198355714Y-65212380D01*
X198498571Y-65260000D01*
X198593809Y-65355238D01*
X198641428Y-65450476D01*
X198689047Y-65640952D01*
X198689047Y-65783809D01*
X198641428Y-65974285D01*
X198593809Y-66069523D01*
X198498571Y-66164761D01*
X198355714Y-66212380D01*
X198117619Y-66212380D01*
X199260476Y-66212380D02*
X199165238Y-66164761D01*
X199117619Y-66117142D01*
X199070000Y-66021904D01*
X199070000Y-65736190D01*
X199117619Y-65640952D01*
X199165238Y-65593333D01*
X199260476Y-65545714D01*
X199403333Y-65545714D01*
X199498571Y-65593333D01*
X199546190Y-65640952D01*
X199593809Y-65736190D01*
X199593809Y-66021904D01*
X199546190Y-66117142D01*
X199498571Y-66164761D01*
X199403333Y-66212380D01*
X199260476Y-66212380D01*
X200450952Y-65545714D02*
X200450952Y-66212380D01*
X200022380Y-65545714D02*
X200022380Y-66069523D01*
X200070000Y-66164761D01*
X200165238Y-66212380D01*
X200308095Y-66212380D01*
X200403333Y-66164761D01*
X200450952Y-66117142D01*
X200784285Y-65545714D02*
X201165238Y-65545714D01*
X200927142Y-65212380D02*
X200927142Y-66069523D01*
X200974761Y-66164761D01*
X201070000Y-66212380D01*
X201165238Y-66212380D01*
X199078095Y-68350000D02*
X198982857Y-68302380D01*
X198840000Y-68302380D01*
X198697142Y-68350000D01*
X198601904Y-68445238D01*
X198554285Y-68540476D01*
X198506666Y-68730952D01*
X198506666Y-68873809D01*
X198554285Y-69064285D01*
X198601904Y-69159523D01*
X198697142Y-69254761D01*
X198840000Y-69302380D01*
X198935238Y-69302380D01*
X199078095Y-69254761D01*
X199125714Y-69207142D01*
X199125714Y-68873809D01*
X198935238Y-68873809D01*
X199554285Y-69302380D02*
X199554285Y-68302380D01*
X200125714Y-69302380D01*
X200125714Y-68302380D01*
X200601904Y-69302380D02*
X200601904Y-68302380D01*
X200840000Y-68302380D01*
X200982857Y-68350000D01*
X201078095Y-68445238D01*
X201125714Y-68540476D01*
X201173333Y-68730952D01*
X201173333Y-68873809D01*
X201125714Y-69064285D01*
X201078095Y-69159523D01*
X200982857Y-69254761D01*
X200840000Y-69302380D01*
X200601904Y-69302380D01*
X217181833Y-68793142D02*
X217134214Y-68840761D01*
X216991357Y-68888380D01*
X216896119Y-68888380D01*
X216753261Y-68840761D01*
X216658023Y-68745523D01*
X216610404Y-68650285D01*
X216562785Y-68459809D01*
X216562785Y-68316952D01*
X216610404Y-68126476D01*
X216658023Y-68031238D01*
X216753261Y-67936000D01*
X216896119Y-67888380D01*
X216991357Y-67888380D01*
X217134214Y-67936000D01*
X217181833Y-67983619D01*
X218134214Y-68888380D02*
X217562785Y-68888380D01*
X217848500Y-68888380D02*
X217848500Y-67888380D01*
X217753261Y-68031238D01*
X217658023Y-68126476D01*
X217562785Y-68174095D01*
X205836666Y-57912380D02*
X205836666Y-58626666D01*
X205789047Y-58769523D01*
X205693809Y-58864761D01*
X205550952Y-58912380D01*
X205455714Y-58912380D01*
X206789047Y-57912380D02*
X206312857Y-57912380D01*
X206265238Y-58388571D01*
X206312857Y-58340952D01*
X206408095Y-58293333D01*
X206646190Y-58293333D01*
X206741428Y-58340952D01*
X206789047Y-58388571D01*
X206836666Y-58483809D01*
X206836666Y-58721904D01*
X206789047Y-58817142D01*
X206741428Y-58864761D01*
X206646190Y-58912380D01*
X206408095Y-58912380D01*
X206312857Y-58864761D01*
X206265238Y-58817142D01*
X182312380Y-66661904D02*
X181312380Y-66661904D01*
X181788571Y-66661904D02*
X181788571Y-66090476D01*
X182312380Y-66090476D02*
X181312380Y-66090476D01*
X181407619Y-65661904D02*
X181360000Y-65614285D01*
X181312380Y-65519047D01*
X181312380Y-65280952D01*
X181360000Y-65185714D01*
X181407619Y-65138095D01*
X181502857Y-65090476D01*
X181598095Y-65090476D01*
X181740952Y-65138095D01*
X182312380Y-65709523D01*
X182312380Y-65090476D01*
X204556666Y-74262380D02*
X204556666Y-73262380D01*
X204890000Y-73976666D01*
X205223333Y-73262380D01*
X205223333Y-74262380D01*
X206270952Y-74167142D02*
X206223333Y-74214761D01*
X206080476Y-74262380D01*
X205985238Y-74262380D01*
X205842380Y-74214761D01*
X205747142Y-74119523D01*
X205699523Y-74024285D01*
X205651904Y-73833809D01*
X205651904Y-73690952D01*
X205699523Y-73500476D01*
X205747142Y-73405238D01*
X205842380Y-73310000D01*
X205985238Y-73262380D01*
X206080476Y-73262380D01*
X206223333Y-73310000D01*
X206270952Y-73357619D01*
X206699523Y-73262380D02*
X206699523Y-74071904D01*
X206747142Y-74167142D01*
X206794761Y-74214761D01*
X206890000Y-74262380D01*
X207080476Y-74262380D01*
X207175714Y-74214761D01*
X207223333Y-74167142D01*
X207270952Y-74071904D01*
X207270952Y-73262380D01*
X208270952Y-74262380D02*
X207699523Y-74262380D01*
X207985238Y-74262380D02*
X207985238Y-73262380D01*
X207890000Y-73405238D01*
X207794761Y-73500476D01*
X207699523Y-73548095D01*
X219527380Y-72516904D02*
X218527380Y-72516904D01*
X219003571Y-72516904D02*
X219003571Y-71945476D01*
X219527380Y-71945476D02*
X218527380Y-71945476D01*
X218527380Y-71564523D02*
X218527380Y-70945476D01*
X218908333Y-71278809D01*
X218908333Y-71135952D01*
X218955952Y-71040714D01*
X219003571Y-70993095D01*
X219098809Y-70945476D01*
X219336904Y-70945476D01*
X219432142Y-70993095D01*
X219479761Y-71040714D01*
X219527380Y-71135952D01*
X219527380Y-71421666D01*
X219479761Y-71516904D01*
X219432142Y-71564523D01*
X222448380Y-61721904D02*
X221448380Y-61721904D01*
X221924571Y-61721904D02*
X221924571Y-61150476D01*
X222448380Y-61150476D02*
X221448380Y-61150476D01*
X222448380Y-60150476D02*
X222448380Y-60721904D01*
X222448380Y-60436190D02*
X221448380Y-60436190D01*
X221591238Y-60531428D01*
X221686476Y-60626666D01*
X221734095Y-60721904D01*
X228072666Y-64158880D02*
X228072666Y-64873166D01*
X228025047Y-65016023D01*
X227929809Y-65111261D01*
X227786952Y-65158880D01*
X227691714Y-65158880D01*
X228501238Y-64254119D02*
X228548857Y-64206500D01*
X228644095Y-64158880D01*
X228882190Y-64158880D01*
X228977428Y-64206500D01*
X229025047Y-64254119D01*
X229072666Y-64349357D01*
X229072666Y-64444595D01*
X229025047Y-64587452D01*
X228453619Y-65158880D01*
X229072666Y-65158880D01*
X190130833Y-63935380D02*
X189797500Y-63459190D01*
X189559404Y-63935380D02*
X189559404Y-62935380D01*
X189940357Y-62935380D01*
X190035595Y-62983000D01*
X190083214Y-63030619D01*
X190130833Y-63125857D01*
X190130833Y-63268714D01*
X190083214Y-63363952D01*
X190035595Y-63411571D01*
X189940357Y-63459190D01*
X189559404Y-63459190D01*
X191083214Y-63935380D02*
X190511785Y-63935380D01*
X190797500Y-63935380D02*
X190797500Y-62935380D01*
X190702261Y-63078238D01*
X190607023Y-63173476D01*
X190511785Y-63221095D01*
X165938095Y-59072380D02*
X165938095Y-59881904D01*
X165985714Y-59977142D01*
X166033333Y-60024761D01*
X166128571Y-60072380D01*
X166319047Y-60072380D01*
X166414285Y-60024761D01*
X166461904Y-59977142D01*
X166509523Y-59881904D01*
X166509523Y-59072380D01*
X167509523Y-60072380D02*
X166938095Y-60072380D01*
X167223809Y-60072380D02*
X167223809Y-59072380D01*
X167128571Y-59215238D01*
X167033333Y-59310476D01*
X166938095Y-59358095D01*
M02*
