G04 #@! TF.GenerationSoftware,KiCad,Pcbnew,(5.1.4)-1*
G04 #@! TF.CreationDate,2019-11-22T13:16:02+01:00*
G04 #@! TF.ProjectId,ArtNetNode1.2,4172744e-6574-44e6-9f64-65312e322e6b,rev?*
G04 #@! TF.SameCoordinates,Original*
G04 #@! TF.FileFunction,Copper,L1,Top*
G04 #@! TF.FilePolarity,Positive*
%FSLAX46Y46*%
G04 Gerber Fmt 4.6, Leading zero omitted, Abs format (unit mm)*
G04 Created by KiCad (PCBNEW (5.1.4)-1) date 2019-11-22 13:16:02*
%MOMM*%
%LPD*%
G04 APERTURE LIST*
%ADD10C,2.000000*%
%ADD11R,2.000000X2.000000*%
%ADD12C,1.500000*%
%ADD13O,1.700000X1.700000*%
%ADD14R,1.700000X1.700000*%
%ADD15C,5.600000*%
%ADD16O,1.300000X2.000000*%
%ADD17R,1.300000X2.000000*%
%ADD18C,1.700000*%
%ADD19R,3.500000X3.500000*%
%ADD20C,0.100000*%
%ADD21C,3.000000*%
%ADD22C,3.500000*%
%ADD23C,1.600000*%
%ADD24O,1.600000X1.600000*%
%ADD25R,2.400000X1.600000*%
%ADD26O,2.400000X1.600000*%
%ADD27C,0.800000*%
%ADD28C,0.508000*%
%ADD29C,0.762000*%
%ADD30C,0.254000*%
G04 APERTURE END LIST*
D10*
X209580000Y-64620000D03*
X209580000Y-67120000D03*
D11*
X209580000Y-69620000D03*
D12*
X204580000Y-69620000D03*
D10*
X204580000Y-67120000D03*
X204580000Y-64620000D03*
D11*
X217259600Y-59546000D03*
D10*
X217259600Y-64546000D03*
D13*
X210820000Y-58420000D03*
D14*
X208280000Y-58420000D03*
D15*
X177800000Y-66040000D03*
D16*
X193050000Y-58420000D03*
X195590000Y-58420000D03*
X190510000Y-58420000D03*
X177810000Y-58420000D03*
X180350000Y-58420000D03*
D17*
X182890000Y-58420000D03*
D16*
X187970000Y-58420000D03*
X185430000Y-58420000D03*
X185430000Y-73660000D03*
X187970000Y-73660000D03*
X200670000Y-58420000D03*
X190510000Y-73660000D03*
X193050000Y-73660000D03*
X203210000Y-73660000D03*
X195590000Y-73660000D03*
X203210000Y-58420000D03*
X200670000Y-73660000D03*
D17*
X175270000Y-58420000D03*
D16*
X198130000Y-73660000D03*
X198130000Y-58420000D03*
D17*
X182890000Y-73660000D03*
D16*
X180350000Y-73660000D03*
X177810000Y-73660000D03*
D17*
X175270000Y-73660000D03*
D13*
X203200000Y-60960000D03*
X200660000Y-60960000D03*
X198120000Y-60960000D03*
X195580000Y-60960000D03*
X193040000Y-60960000D03*
X190500000Y-60960000D03*
X187960000Y-60960000D03*
X185420000Y-60960000D03*
X182880000Y-60960000D03*
X180340000Y-60960000D03*
X177800000Y-60960000D03*
D18*
X175260000Y-60960000D03*
D13*
X175260000Y-71120000D03*
X177800000Y-71120000D03*
X180340000Y-71120000D03*
X182880000Y-71120000D03*
X185420000Y-71120000D03*
X187960000Y-71120000D03*
X190500000Y-71120000D03*
X193040000Y-71120000D03*
X195580000Y-71120000D03*
X198120000Y-71120000D03*
X200660000Y-71120000D03*
D18*
X203200000Y-71120000D03*
D15*
X215265000Y-71755000D03*
X226060000Y-60960000D03*
D19*
X222044000Y-70612000D03*
D20*
G36*
X228867513Y-68865611D02*
G01*
X228940318Y-68876411D01*
X229011714Y-68894295D01*
X229081013Y-68919090D01*
X229147548Y-68950559D01*
X229210678Y-68988398D01*
X229269795Y-69032242D01*
X229324330Y-69081670D01*
X229373758Y-69136205D01*
X229417602Y-69195322D01*
X229455441Y-69258452D01*
X229486910Y-69324987D01*
X229511705Y-69394286D01*
X229529589Y-69465682D01*
X229540389Y-69538487D01*
X229544000Y-69612000D01*
X229544000Y-71612000D01*
X229540389Y-71685513D01*
X229529589Y-71758318D01*
X229511705Y-71829714D01*
X229486910Y-71899013D01*
X229455441Y-71965548D01*
X229417602Y-72028678D01*
X229373758Y-72087795D01*
X229324330Y-72142330D01*
X229269795Y-72191758D01*
X229210678Y-72235602D01*
X229147548Y-72273441D01*
X229081013Y-72304910D01*
X229011714Y-72329705D01*
X228940318Y-72347589D01*
X228867513Y-72358389D01*
X228794000Y-72362000D01*
X227294000Y-72362000D01*
X227220487Y-72358389D01*
X227147682Y-72347589D01*
X227076286Y-72329705D01*
X227006987Y-72304910D01*
X226940452Y-72273441D01*
X226877322Y-72235602D01*
X226818205Y-72191758D01*
X226763670Y-72142330D01*
X226714242Y-72087795D01*
X226670398Y-72028678D01*
X226632559Y-71965548D01*
X226601090Y-71899013D01*
X226576295Y-71829714D01*
X226558411Y-71758318D01*
X226547611Y-71685513D01*
X226544000Y-71612000D01*
X226544000Y-69612000D01*
X226547611Y-69538487D01*
X226558411Y-69465682D01*
X226576295Y-69394286D01*
X226601090Y-69324987D01*
X226632559Y-69258452D01*
X226670398Y-69195322D01*
X226714242Y-69136205D01*
X226763670Y-69081670D01*
X226818205Y-69032242D01*
X226877322Y-68988398D01*
X226940452Y-68950559D01*
X227006987Y-68919090D01*
X227076286Y-68894295D01*
X227147682Y-68876411D01*
X227220487Y-68865611D01*
X227294000Y-68862000D01*
X228794000Y-68862000D01*
X228867513Y-68865611D01*
X228867513Y-68865611D01*
G37*
D21*
X228044000Y-70612000D03*
D20*
G36*
X226004765Y-64166213D02*
G01*
X226089704Y-64178813D01*
X226172999Y-64199677D01*
X226253848Y-64228605D01*
X226331472Y-64265319D01*
X226405124Y-64309464D01*
X226474094Y-64360616D01*
X226537718Y-64418282D01*
X226595384Y-64481906D01*
X226646536Y-64550876D01*
X226690681Y-64624528D01*
X226727395Y-64702152D01*
X226756323Y-64783001D01*
X226777187Y-64866296D01*
X226789787Y-64951235D01*
X226794000Y-65037000D01*
X226794000Y-66787000D01*
X226789787Y-66872765D01*
X226777187Y-66957704D01*
X226756323Y-67040999D01*
X226727395Y-67121848D01*
X226690681Y-67199472D01*
X226646536Y-67273124D01*
X226595384Y-67342094D01*
X226537718Y-67405718D01*
X226474094Y-67463384D01*
X226405124Y-67514536D01*
X226331472Y-67558681D01*
X226253848Y-67595395D01*
X226172999Y-67624323D01*
X226089704Y-67645187D01*
X226004765Y-67657787D01*
X225919000Y-67662000D01*
X224169000Y-67662000D01*
X224083235Y-67657787D01*
X223998296Y-67645187D01*
X223915001Y-67624323D01*
X223834152Y-67595395D01*
X223756528Y-67558681D01*
X223682876Y-67514536D01*
X223613906Y-67463384D01*
X223550282Y-67405718D01*
X223492616Y-67342094D01*
X223441464Y-67273124D01*
X223397319Y-67199472D01*
X223360605Y-67121848D01*
X223331677Y-67040999D01*
X223310813Y-66957704D01*
X223298213Y-66872765D01*
X223294000Y-66787000D01*
X223294000Y-65037000D01*
X223298213Y-64951235D01*
X223310813Y-64866296D01*
X223331677Y-64783001D01*
X223360605Y-64702152D01*
X223397319Y-64624528D01*
X223441464Y-64550876D01*
X223492616Y-64481906D01*
X223550282Y-64418282D01*
X223613906Y-64360616D01*
X223682876Y-64309464D01*
X223756528Y-64265319D01*
X223834152Y-64228605D01*
X223915001Y-64199677D01*
X223998296Y-64178813D01*
X224083235Y-64166213D01*
X224169000Y-64162000D01*
X225919000Y-64162000D01*
X226004765Y-64166213D01*
X226004765Y-64166213D01*
G37*
D22*
X225044000Y-65912000D03*
D23*
X186093800Y-65997600D03*
D24*
X193713800Y-65997600D03*
D25*
X162725800Y-58420000D03*
D26*
X170345800Y-73660000D03*
X162725800Y-60960000D03*
X170345800Y-71120000D03*
X162725800Y-63500000D03*
X170345800Y-68580000D03*
X162725800Y-66040000D03*
X170345800Y-66040000D03*
X162725800Y-68580000D03*
X170345800Y-63500000D03*
X162725800Y-71120000D03*
X170345800Y-60960000D03*
X162725800Y-73660000D03*
X170345800Y-58420000D03*
D27*
X182626000Y-66548000D03*
X182626000Y-65278000D03*
X183896000Y-66548000D03*
X183896000Y-65278000D03*
D28*
X193866200Y-65845200D02*
X193713800Y-65997600D01*
D29*
X193751900Y-65959500D02*
X193713800Y-65997600D01*
X194836200Y-67120000D02*
X193713800Y-65997600D01*
X204580000Y-67120000D02*
X194836200Y-67120000D01*
X204580000Y-67120000D02*
X209580000Y-67120000D01*
X177788000Y-73638000D02*
X177810000Y-73660000D01*
X177788000Y-58442000D02*
X177810000Y-58420000D01*
X170745800Y-58403000D02*
X170345800Y-58403000D01*
X170745800Y-58420000D02*
X170345800Y-58420000D01*
X217259600Y-59546000D02*
X210896500Y-59546000D01*
X177810000Y-71130000D02*
X177800000Y-71120000D01*
X177810000Y-73660000D02*
X177810000Y-71130000D01*
X177800000Y-58430000D02*
X177810000Y-58420000D01*
X177800000Y-60960000D02*
X177800000Y-58430000D01*
X180420000Y-63580000D02*
X177800000Y-60960000D01*
X176950001Y-61809999D02*
X177800000Y-60960000D01*
X176368999Y-62391001D02*
X176950001Y-61809999D01*
X174573119Y-62391001D02*
X176368999Y-62391001D01*
X170602118Y-58420000D02*
X174573119Y-62391001D01*
X170345800Y-58420000D02*
X170602118Y-58420000D01*
X210820000Y-59469500D02*
X210896500Y-59546000D01*
X210820000Y-58420000D02*
X210820000Y-59469500D01*
X181181001Y-63580999D02*
X181182000Y-63580000D01*
X181181001Y-67738999D02*
X181181001Y-63580999D01*
X177800000Y-71120000D02*
X181181001Y-67738999D01*
X182800000Y-63580000D02*
X181182000Y-63580000D01*
X181182000Y-63580000D02*
X180420000Y-63580000D01*
X222044000Y-62568400D02*
X222044000Y-70612000D01*
X217259600Y-59546000D02*
X219021600Y-59546000D01*
X219021600Y-59546000D02*
X222044000Y-62568400D01*
X210820000Y-63380000D02*
X209580000Y-64620000D01*
X210820000Y-59469500D02*
X210820000Y-63380000D01*
X209580000Y-64620000D02*
X204580000Y-64620000D01*
X202125787Y-63580000D02*
X182800000Y-63580000D01*
X203165787Y-64620000D02*
X202125787Y-63580000D01*
X204580000Y-64620000D02*
X203165787Y-64620000D01*
D28*
X165632363Y-73660000D02*
X164433800Y-73660000D01*
X174005990Y-69865990D02*
X169426373Y-69865990D01*
X175260000Y-71120000D02*
X174005990Y-69865990D01*
X174112000Y-73660000D02*
X175270000Y-73660000D01*
X172857990Y-72405990D02*
X174112000Y-73660000D01*
X164433800Y-73660000D02*
X165687810Y-72405990D01*
X162725800Y-73660000D02*
X164433800Y-73660000D01*
X163125800Y-73660000D02*
X162725800Y-73660000D01*
X164433800Y-72352000D02*
X163125800Y-73660000D01*
X162725800Y-58420000D02*
X163125800Y-58420000D01*
X165687810Y-72405990D02*
X172857990Y-72405990D01*
X162725800Y-58420000D02*
X165735000Y-58420000D01*
X168691790Y-70266790D02*
X168858682Y-70433682D01*
X165735000Y-58420000D02*
X168691790Y-61376790D01*
X169426373Y-69865990D02*
X168858682Y-70433682D01*
X168858682Y-70433682D02*
X165632363Y-73660000D01*
D29*
X173840203Y-66040000D02*
X172974000Y-66906203D01*
D28*
X164433800Y-58420000D02*
X162725800Y-58420000D01*
X164515917Y-58420000D02*
X164433800Y-58420000D01*
X172259238Y-63240001D02*
X171233247Y-62214010D01*
X175000001Y-63240001D02*
X172259238Y-63240001D01*
X177800000Y-66040000D02*
X175000001Y-63240001D01*
X168711590Y-64754010D02*
X168691790Y-64734210D01*
X172554213Y-64754010D02*
X168711590Y-64754010D01*
X173840203Y-66040000D02*
X172554213Y-64754010D01*
X168691790Y-61376790D02*
X168691790Y-64734210D01*
X168711590Y-67294010D02*
X168691790Y-67274210D01*
X172586193Y-67294010D02*
X168711590Y-67294010D01*
X173840203Y-66040000D02*
X172586193Y-67294010D01*
X177800000Y-66040000D02*
X173840203Y-66040000D01*
X168691790Y-64734210D02*
X168691790Y-67274210D01*
X168691790Y-67274210D02*
X168691790Y-70266790D01*
X171233247Y-62214010D02*
X168925990Y-62214010D01*
X164379810Y-72405990D02*
X164379810Y-62271810D01*
X163125800Y-73660000D02*
X164379810Y-72405990D01*
D29*
X203188000Y-58442000D02*
X203210000Y-58420000D01*
X203200000Y-58430000D02*
X203210000Y-58420000D01*
X203200000Y-60960000D02*
X203200000Y-58430000D01*
D30*
X163125800Y-60943000D02*
X162725800Y-60943000D01*
X200670000Y-58420000D02*
X200670000Y-58070000D01*
D29*
X200670000Y-60950000D02*
X200660000Y-60960000D01*
X200670000Y-58420000D02*
X200670000Y-60950000D01*
X198108000Y-58442000D02*
X198130000Y-58420000D01*
X198130000Y-60950000D02*
X198120000Y-60960000D01*
X198130000Y-58420000D02*
X198130000Y-60950000D01*
X195568000Y-58442000D02*
X195590000Y-58420000D01*
X195580000Y-58430000D02*
X195590000Y-58420000D01*
X195580000Y-60960000D02*
X195580000Y-58430000D01*
X193028000Y-58442000D02*
X193050000Y-58420000D01*
X193050000Y-60950000D02*
X193040000Y-60960000D01*
X193050000Y-58420000D02*
X193050000Y-60950000D01*
X190488000Y-58442000D02*
X190510000Y-58420000D01*
X190500000Y-58430000D02*
X190510000Y-58420000D01*
X190500000Y-60960000D02*
X190500000Y-58430000D01*
X187948000Y-58442000D02*
X187970000Y-58420000D01*
X187970000Y-60950000D02*
X187960000Y-60960000D01*
X187970000Y-58420000D02*
X187970000Y-60950000D01*
X185408000Y-58442000D02*
X185430000Y-58420000D01*
X185420000Y-58430000D02*
X185430000Y-58420000D01*
X185420000Y-60960000D02*
X185420000Y-58430000D01*
X180328000Y-58442000D02*
X180350000Y-58420000D01*
X180350000Y-60950000D02*
X180340000Y-60960000D01*
X180350000Y-58420000D02*
X180350000Y-60950000D01*
X180328000Y-73638000D02*
X180350000Y-73660000D01*
X180340000Y-73650000D02*
X180350000Y-73660000D01*
X180340000Y-71120000D02*
X180340000Y-73650000D01*
X185408000Y-73638000D02*
X185430000Y-73660000D01*
X185430000Y-71130000D02*
X185420000Y-71120000D01*
X185430000Y-73660000D02*
X185430000Y-71130000D01*
X187960000Y-73650000D02*
X187970000Y-73660000D01*
X187960000Y-71120000D02*
X187960000Y-73650000D01*
X190510000Y-71130000D02*
X190500000Y-71120000D01*
X190510000Y-73660000D02*
X190510000Y-71130000D01*
X193040000Y-73650000D02*
X193050000Y-73660000D01*
X193040000Y-71120000D02*
X193040000Y-73650000D01*
X195590000Y-71130000D02*
X195580000Y-71120000D01*
X195590000Y-73660000D02*
X195590000Y-71130000D01*
X198120000Y-73650000D02*
X198130000Y-73660000D01*
X198120000Y-71120000D02*
X198120000Y-73650000D01*
X200670000Y-71130000D02*
X200660000Y-71120000D01*
X200670000Y-73660000D02*
X200670000Y-71130000D01*
X203200000Y-73650000D02*
X203210000Y-73660000D01*
X203200000Y-71120000D02*
X203200000Y-73650000D01*
D30*
G36*
X225394977Y-57573051D02*
G01*
X224746994Y-57767870D01*
X224149470Y-58085361D01*
X224135308Y-58094823D01*
X223823124Y-58543519D01*
X226060000Y-60780395D01*
X226074143Y-60766253D01*
X226253748Y-60945858D01*
X226239605Y-60960000D01*
X228476481Y-63196876D01*
X228925177Y-62884692D01*
X229245612Y-62288741D01*
X229443626Y-61641727D01*
X229464000Y-61439973D01*
X229464001Y-68224130D01*
X228329750Y-68227000D01*
X228171000Y-68385750D01*
X228171000Y-70485000D01*
X228191000Y-70485000D01*
X228191000Y-70739000D01*
X228171000Y-70739000D01*
X228171000Y-72838250D01*
X228329750Y-72997000D01*
X229464001Y-72999870D01*
X229464001Y-74524000D01*
X217256608Y-74524000D01*
X217501876Y-74171481D01*
X215265000Y-71934605D01*
X213028124Y-74171481D01*
X213273392Y-74524000D01*
X204392307Y-74524000D01*
X204402929Y-74504127D01*
X204476407Y-74261903D01*
X204495000Y-74073122D01*
X204495000Y-73246877D01*
X204476407Y-73058096D01*
X204402929Y-72815873D01*
X204283608Y-72592638D01*
X204216000Y-72510258D01*
X204216000Y-72204107D01*
X204353475Y-72066632D01*
X204515990Y-71823411D01*
X204547854Y-71746484D01*
X211813390Y-71746484D01*
X211878051Y-72420023D01*
X212072870Y-73068006D01*
X212390361Y-73665530D01*
X212399823Y-73679692D01*
X212848519Y-73991876D01*
X215085395Y-71755000D01*
X215444605Y-71755000D01*
X217681481Y-73991876D01*
X218130177Y-73679692D01*
X218450612Y-73083741D01*
X218648626Y-72436727D01*
X218716610Y-71763516D01*
X218651949Y-71089977D01*
X218457130Y-70441994D01*
X218139639Y-69844470D01*
X218130177Y-69830308D01*
X217681481Y-69518124D01*
X215444605Y-71755000D01*
X215085395Y-71755000D01*
X212848519Y-69518124D01*
X212399823Y-69830308D01*
X212079388Y-70426259D01*
X211881374Y-71073273D01*
X211813390Y-71746484D01*
X204547854Y-71746484D01*
X204627932Y-71553158D01*
X204685000Y-71266260D01*
X204685000Y-71004889D01*
X204922238Y-70968965D01*
X205178832Y-70876277D01*
X205291863Y-70815860D01*
X205345590Y-70620000D01*
X207941928Y-70620000D01*
X207954188Y-70744482D01*
X207990498Y-70864180D01*
X208049463Y-70974494D01*
X208128815Y-71071185D01*
X208225506Y-71150537D01*
X208335820Y-71209502D01*
X208455518Y-71245812D01*
X208580000Y-71258072D01*
X209294250Y-71255000D01*
X209453000Y-71096250D01*
X209453000Y-69747000D01*
X209707000Y-69747000D01*
X209707000Y-71096250D01*
X209865750Y-71255000D01*
X210580000Y-71258072D01*
X210704482Y-71245812D01*
X210824180Y-71209502D01*
X210934494Y-71150537D01*
X211031185Y-71071185D01*
X211110537Y-70974494D01*
X211169502Y-70864180D01*
X211205812Y-70744482D01*
X211218072Y-70620000D01*
X211215000Y-69905750D01*
X211056250Y-69747000D01*
X209707000Y-69747000D01*
X209453000Y-69747000D01*
X208103750Y-69747000D01*
X207945000Y-69905750D01*
X207941928Y-70620000D01*
X205345590Y-70620000D01*
X205357388Y-70576993D01*
X204580000Y-69799605D01*
X204565858Y-69813748D01*
X204386253Y-69634143D01*
X204400395Y-69620000D01*
X204759605Y-69620000D01*
X205536993Y-70397388D01*
X205775860Y-70331863D01*
X205891760Y-70084884D01*
X205957250Y-69820040D01*
X205969812Y-69547508D01*
X205928965Y-69277762D01*
X205836277Y-69021168D01*
X205775860Y-68908137D01*
X205536993Y-68842612D01*
X204759605Y-69620000D01*
X204400395Y-69620000D01*
X203623007Y-68842612D01*
X203384140Y-68908137D01*
X203268240Y-69155116D01*
X203202750Y-69419960D01*
X203192838Y-69635000D01*
X203053740Y-69635000D01*
X202766842Y-69692068D01*
X202496589Y-69804010D01*
X202253368Y-69966525D01*
X202046525Y-70173368D01*
X201930585Y-70346885D01*
X201900706Y-70290986D01*
X201715134Y-70064866D01*
X201489014Y-69879294D01*
X201231034Y-69741401D01*
X200951111Y-69656487D01*
X200732950Y-69635000D01*
X200587050Y-69635000D01*
X200368889Y-69656487D01*
X200088966Y-69741401D01*
X199830986Y-69879294D01*
X199604866Y-70064866D01*
X199419294Y-70290986D01*
X199390000Y-70345791D01*
X199360706Y-70290986D01*
X199175134Y-70064866D01*
X198949014Y-69879294D01*
X198691034Y-69741401D01*
X198411111Y-69656487D01*
X198192950Y-69635000D01*
X198047050Y-69635000D01*
X197828889Y-69656487D01*
X197548966Y-69741401D01*
X197290986Y-69879294D01*
X197064866Y-70064866D01*
X196879294Y-70290986D01*
X196850000Y-70345791D01*
X196820706Y-70290986D01*
X196635134Y-70064866D01*
X196409014Y-69879294D01*
X196151034Y-69741401D01*
X195871111Y-69656487D01*
X195652950Y-69635000D01*
X195507050Y-69635000D01*
X195288889Y-69656487D01*
X195008966Y-69741401D01*
X194750986Y-69879294D01*
X194524866Y-70064866D01*
X194339294Y-70290986D01*
X194310000Y-70345791D01*
X194280706Y-70290986D01*
X194095134Y-70064866D01*
X193869014Y-69879294D01*
X193611034Y-69741401D01*
X193331111Y-69656487D01*
X193112950Y-69635000D01*
X192967050Y-69635000D01*
X192748889Y-69656487D01*
X192468966Y-69741401D01*
X192210986Y-69879294D01*
X191984866Y-70064866D01*
X191799294Y-70290986D01*
X191770000Y-70345791D01*
X191740706Y-70290986D01*
X191555134Y-70064866D01*
X191329014Y-69879294D01*
X191071034Y-69741401D01*
X190791111Y-69656487D01*
X190572950Y-69635000D01*
X190427050Y-69635000D01*
X190208889Y-69656487D01*
X189928966Y-69741401D01*
X189670986Y-69879294D01*
X189444866Y-70064866D01*
X189259294Y-70290986D01*
X189230000Y-70345791D01*
X189200706Y-70290986D01*
X189015134Y-70064866D01*
X188789014Y-69879294D01*
X188531034Y-69741401D01*
X188251111Y-69656487D01*
X188032950Y-69635000D01*
X187887050Y-69635000D01*
X187668889Y-69656487D01*
X187388966Y-69741401D01*
X187130986Y-69879294D01*
X186904866Y-70064866D01*
X186719294Y-70290986D01*
X186690000Y-70345791D01*
X186660706Y-70290986D01*
X186475134Y-70064866D01*
X186249014Y-69879294D01*
X185991034Y-69741401D01*
X185711111Y-69656487D01*
X185492950Y-69635000D01*
X185347050Y-69635000D01*
X185128889Y-69656487D01*
X184848966Y-69741401D01*
X184590986Y-69879294D01*
X184364866Y-70064866D01*
X184179294Y-70290986D01*
X184144799Y-70355523D01*
X184075178Y-70238645D01*
X183880269Y-70022412D01*
X183646920Y-69848359D01*
X183384099Y-69723175D01*
X183236890Y-69678524D01*
X183007000Y-69799845D01*
X183007000Y-70993000D01*
X183027000Y-70993000D01*
X183027000Y-71247000D01*
X183007000Y-71247000D01*
X183007000Y-72440155D01*
X183017000Y-72445432D01*
X183017000Y-73533000D01*
X183037000Y-73533000D01*
X183037000Y-73787000D01*
X183017000Y-73787000D01*
X183017000Y-73807000D01*
X182763000Y-73807000D01*
X182763000Y-73787000D01*
X182743000Y-73787000D01*
X182743000Y-73533000D01*
X182763000Y-73533000D01*
X182763000Y-72183750D01*
X182753000Y-72173750D01*
X182753000Y-71247000D01*
X182733000Y-71247000D01*
X182733000Y-70993000D01*
X182753000Y-70993000D01*
X182753000Y-69799845D01*
X182523110Y-69678524D01*
X182375901Y-69723175D01*
X182113080Y-69848359D01*
X181879731Y-70022412D01*
X181684822Y-70238645D01*
X181615201Y-70355523D01*
X181580706Y-70290986D01*
X181395134Y-70064866D01*
X181169014Y-69879294D01*
X180911034Y-69741401D01*
X180684238Y-69672603D01*
X181864134Y-68492707D01*
X181902897Y-68460895D01*
X182029861Y-68306189D01*
X182124203Y-68129686D01*
X182174254Y-67964692D01*
X182182299Y-67938171D01*
X182192413Y-67835480D01*
X182197001Y-67788901D01*
X182197001Y-67788894D01*
X182201915Y-67739000D01*
X182197001Y-67689106D01*
X182197001Y-64596000D01*
X185784554Y-64596000D01*
X185675226Y-64617747D01*
X185414073Y-64725920D01*
X185179041Y-64882963D01*
X184979163Y-65082841D01*
X184822120Y-65317873D01*
X184713947Y-65579026D01*
X184658800Y-65856265D01*
X184658800Y-66138935D01*
X184713947Y-66416174D01*
X184822120Y-66677327D01*
X184979163Y-66912359D01*
X185179041Y-67112237D01*
X185414073Y-67269280D01*
X185675226Y-67377453D01*
X185952465Y-67432600D01*
X186235135Y-67432600D01*
X186512374Y-67377453D01*
X186773527Y-67269280D01*
X187008559Y-67112237D01*
X187208437Y-66912359D01*
X187365480Y-66677327D01*
X187473653Y-66416174D01*
X187528800Y-66138935D01*
X187528800Y-65856265D01*
X187473653Y-65579026D01*
X187365480Y-65317873D01*
X187208437Y-65082841D01*
X187008559Y-64882963D01*
X186773527Y-64725920D01*
X186512374Y-64617747D01*
X186403046Y-64596000D01*
X193390835Y-64596000D01*
X193161992Y-64665418D01*
X192912699Y-64798668D01*
X192694192Y-64977992D01*
X192514868Y-65196499D01*
X192381618Y-65445792D01*
X192299564Y-65716291D01*
X192271857Y-65997600D01*
X192299564Y-66278909D01*
X192381618Y-66549408D01*
X192514868Y-66798701D01*
X192694192Y-67017208D01*
X192912699Y-67196532D01*
X193161992Y-67329782D01*
X193432491Y-67411836D01*
X193643308Y-67432600D01*
X193711959Y-67432600D01*
X194082492Y-67803133D01*
X194114304Y-67841896D01*
X194269010Y-67968860D01*
X194445513Y-68063202D01*
X194637029Y-68121298D01*
X194786298Y-68136000D01*
X194786305Y-68136000D01*
X194836199Y-68140914D01*
X194886093Y-68136000D01*
X203292472Y-68136000D01*
X203310013Y-68162252D01*
X203537748Y-68389987D01*
X203805537Y-68568918D01*
X203826087Y-68577430D01*
X203802612Y-68663007D01*
X204580000Y-69440395D01*
X205357388Y-68663007D01*
X205333913Y-68577430D01*
X205354463Y-68568918D01*
X205622252Y-68389987D01*
X205849987Y-68162252D01*
X205867528Y-68136000D01*
X208168800Y-68136000D01*
X208128815Y-68168815D01*
X208049463Y-68265506D01*
X207990498Y-68375820D01*
X207954188Y-68495518D01*
X207941928Y-68620000D01*
X207945000Y-69334250D01*
X208103750Y-69493000D01*
X209453000Y-69493000D01*
X209453000Y-69473000D01*
X209707000Y-69473000D01*
X209707000Y-69493000D01*
X211056250Y-69493000D01*
X211210731Y-69338519D01*
X213028124Y-69338519D01*
X215265000Y-71575395D01*
X217501876Y-69338519D01*
X217189692Y-68889823D01*
X216593741Y-68569388D01*
X215946727Y-68371374D01*
X215273516Y-68303390D01*
X214599977Y-68368051D01*
X213951994Y-68562870D01*
X213354470Y-68880361D01*
X213340308Y-68889823D01*
X213028124Y-69338519D01*
X211210731Y-69338519D01*
X211215000Y-69334250D01*
X211218072Y-68620000D01*
X211205812Y-68495518D01*
X211169502Y-68375820D01*
X211110537Y-68265506D01*
X211031185Y-68168815D01*
X210934494Y-68089463D01*
X210908063Y-68075335D01*
X211028918Y-67894463D01*
X211152168Y-67596912D01*
X211215000Y-67281033D01*
X211215000Y-66958967D01*
X211152168Y-66643088D01*
X211028918Y-66345537D01*
X210849987Y-66077748D01*
X210642239Y-65870000D01*
X210830826Y-65681413D01*
X216303792Y-65681413D01*
X216399556Y-65945814D01*
X216689171Y-66086704D01*
X217000708Y-66168384D01*
X217322195Y-66187718D01*
X217641275Y-66143961D01*
X217945688Y-66038795D01*
X218119644Y-65945814D01*
X218215408Y-65681413D01*
X217259600Y-64725605D01*
X216303792Y-65681413D01*
X210830826Y-65681413D01*
X210849987Y-65662252D01*
X211028918Y-65394463D01*
X211152168Y-65096912D01*
X211215000Y-64781033D01*
X211215000Y-64608595D01*
X215617882Y-64608595D01*
X215661639Y-64927675D01*
X215766805Y-65232088D01*
X215859786Y-65406044D01*
X216124187Y-65501808D01*
X217079995Y-64546000D01*
X217439205Y-64546000D01*
X218395013Y-65501808D01*
X218659414Y-65406044D01*
X218800304Y-65116429D01*
X218881984Y-64804892D01*
X218901318Y-64483405D01*
X218857561Y-64164325D01*
X218752395Y-63859912D01*
X218659414Y-63685956D01*
X218395013Y-63590192D01*
X217439205Y-64546000D01*
X217079995Y-64546000D01*
X216124187Y-63590192D01*
X215859786Y-63685956D01*
X215718896Y-63975571D01*
X215637216Y-64287108D01*
X215617882Y-64608595D01*
X211215000Y-64608595D01*
X211215000Y-64458967D01*
X211208840Y-64428000D01*
X211503133Y-64133708D01*
X211541896Y-64101896D01*
X211668860Y-63947190D01*
X211763202Y-63770687D01*
X211821298Y-63579171D01*
X211836000Y-63429902D01*
X211837902Y-63410587D01*
X216303792Y-63410587D01*
X217259600Y-64366395D01*
X218215408Y-63410587D01*
X218119644Y-63146186D01*
X217830029Y-63005296D01*
X217518492Y-62923616D01*
X217197005Y-62904282D01*
X216877925Y-62948039D01*
X216573512Y-63053205D01*
X216399556Y-63146186D01*
X216303792Y-63410587D01*
X211837902Y-63410587D01*
X211840915Y-63380000D01*
X211836000Y-63330098D01*
X211836000Y-60562000D01*
X215623104Y-60562000D01*
X215633788Y-60670482D01*
X215670098Y-60790180D01*
X215729063Y-60900494D01*
X215808415Y-60997185D01*
X215905106Y-61076537D01*
X216015420Y-61135502D01*
X216135118Y-61171812D01*
X216259600Y-61184072D01*
X218259600Y-61184072D01*
X218384082Y-61171812D01*
X218503780Y-61135502D01*
X218614094Y-61076537D01*
X218710785Y-60997185D01*
X218790137Y-60900494D01*
X218842079Y-60803319D01*
X221028000Y-62989241D01*
X221028001Y-68223928D01*
X220294000Y-68223928D01*
X220169518Y-68236188D01*
X220049820Y-68272498D01*
X219939506Y-68331463D01*
X219842815Y-68410815D01*
X219763463Y-68507506D01*
X219704498Y-68617820D01*
X219668188Y-68737518D01*
X219655928Y-68862000D01*
X219655928Y-72362000D01*
X219668188Y-72486482D01*
X219704498Y-72606180D01*
X219763463Y-72716494D01*
X219842815Y-72813185D01*
X219939506Y-72892537D01*
X220049820Y-72951502D01*
X220169518Y-72987812D01*
X220294000Y-73000072D01*
X223794000Y-73000072D01*
X223918482Y-72987812D01*
X224038180Y-72951502D01*
X224148494Y-72892537D01*
X224245185Y-72813185D01*
X224324537Y-72716494D01*
X224383502Y-72606180D01*
X224419812Y-72486482D01*
X224432072Y-72362000D01*
X225905928Y-72362000D01*
X225918188Y-72486482D01*
X225954498Y-72606180D01*
X226013463Y-72716494D01*
X226092815Y-72813185D01*
X226189506Y-72892537D01*
X226299820Y-72951502D01*
X226419518Y-72987812D01*
X226544000Y-73000072D01*
X227758250Y-72997000D01*
X227917000Y-72838250D01*
X227917000Y-70739000D01*
X226067750Y-70739000D01*
X225909000Y-70897750D01*
X225905928Y-72362000D01*
X224432072Y-72362000D01*
X224432072Y-68862000D01*
X224419812Y-68737518D01*
X224383502Y-68617820D01*
X224324537Y-68507506D01*
X224245185Y-68410815D01*
X224148494Y-68331463D01*
X224086655Y-68298409D01*
X224758250Y-68297000D01*
X224917000Y-68138250D01*
X224917000Y-66039000D01*
X225171000Y-66039000D01*
X225171000Y-68138250D01*
X225329750Y-68297000D01*
X226250367Y-68298931D01*
X226189506Y-68331463D01*
X226092815Y-68410815D01*
X226013463Y-68507506D01*
X225954498Y-68617820D01*
X225918188Y-68737518D01*
X225905928Y-68862000D01*
X225909000Y-70326250D01*
X226067750Y-70485000D01*
X227917000Y-70485000D01*
X227917000Y-68385750D01*
X227758250Y-68227000D01*
X227087195Y-68225302D01*
X227148494Y-68192537D01*
X227245185Y-68113185D01*
X227324537Y-68016494D01*
X227383502Y-67906180D01*
X227419812Y-67786482D01*
X227432072Y-67662000D01*
X227429000Y-66197750D01*
X227270250Y-66039000D01*
X225171000Y-66039000D01*
X224917000Y-66039000D01*
X224897000Y-66039000D01*
X224897000Y-65785000D01*
X224917000Y-65785000D01*
X224917000Y-65765000D01*
X225171000Y-65765000D01*
X225171000Y-65785000D01*
X227270250Y-65785000D01*
X227429000Y-65626250D01*
X227432072Y-64162000D01*
X227428211Y-64122797D01*
X227970530Y-63834639D01*
X227984692Y-63825177D01*
X228296876Y-63376481D01*
X226060000Y-61139605D01*
X223823124Y-63376481D01*
X223926635Y-63525255D01*
X223294000Y-63523928D01*
X223169518Y-63536188D01*
X223060000Y-63569410D01*
X223060000Y-62634598D01*
X223185361Y-62870530D01*
X223194823Y-62884692D01*
X223643519Y-63196876D01*
X225880395Y-60960000D01*
X223643519Y-58723124D01*
X223194823Y-59035308D01*
X222874388Y-59631259D01*
X222676374Y-60278273D01*
X222608390Y-60951484D01*
X222673051Y-61625023D01*
X222731040Y-61817898D01*
X222727133Y-61814692D01*
X219775312Y-58862872D01*
X219743496Y-58824104D01*
X219588790Y-58697140D01*
X219412287Y-58602798D01*
X219220771Y-58544702D01*
X219071502Y-58530000D01*
X219021600Y-58525085D01*
X218971698Y-58530000D01*
X218896096Y-58530000D01*
X218885412Y-58421518D01*
X218849102Y-58301820D01*
X218790137Y-58191506D01*
X218710785Y-58094815D01*
X218614094Y-58015463D01*
X218503780Y-57956498D01*
X218384082Y-57920188D01*
X218259600Y-57907928D01*
X216259600Y-57907928D01*
X216135118Y-57920188D01*
X216015420Y-57956498D01*
X215905106Y-58015463D01*
X215808415Y-58094815D01*
X215729063Y-58191506D01*
X215670098Y-58301820D01*
X215633788Y-58421518D01*
X215623104Y-58530000D01*
X212301351Y-58530000D01*
X212312185Y-58420000D01*
X212283513Y-58128889D01*
X212198599Y-57848966D01*
X212060706Y-57590986D01*
X212031994Y-57556000D01*
X225572588Y-57556000D01*
X225394977Y-57573051D01*
X225394977Y-57573051D01*
G37*
X225394977Y-57573051D02*
X224746994Y-57767870D01*
X224149470Y-58085361D01*
X224135308Y-58094823D01*
X223823124Y-58543519D01*
X226060000Y-60780395D01*
X226074143Y-60766253D01*
X226253748Y-60945858D01*
X226239605Y-60960000D01*
X228476481Y-63196876D01*
X228925177Y-62884692D01*
X229245612Y-62288741D01*
X229443626Y-61641727D01*
X229464000Y-61439973D01*
X229464001Y-68224130D01*
X228329750Y-68227000D01*
X228171000Y-68385750D01*
X228171000Y-70485000D01*
X228191000Y-70485000D01*
X228191000Y-70739000D01*
X228171000Y-70739000D01*
X228171000Y-72838250D01*
X228329750Y-72997000D01*
X229464001Y-72999870D01*
X229464001Y-74524000D01*
X217256608Y-74524000D01*
X217501876Y-74171481D01*
X215265000Y-71934605D01*
X213028124Y-74171481D01*
X213273392Y-74524000D01*
X204392307Y-74524000D01*
X204402929Y-74504127D01*
X204476407Y-74261903D01*
X204495000Y-74073122D01*
X204495000Y-73246877D01*
X204476407Y-73058096D01*
X204402929Y-72815873D01*
X204283608Y-72592638D01*
X204216000Y-72510258D01*
X204216000Y-72204107D01*
X204353475Y-72066632D01*
X204515990Y-71823411D01*
X204547854Y-71746484D01*
X211813390Y-71746484D01*
X211878051Y-72420023D01*
X212072870Y-73068006D01*
X212390361Y-73665530D01*
X212399823Y-73679692D01*
X212848519Y-73991876D01*
X215085395Y-71755000D01*
X215444605Y-71755000D01*
X217681481Y-73991876D01*
X218130177Y-73679692D01*
X218450612Y-73083741D01*
X218648626Y-72436727D01*
X218716610Y-71763516D01*
X218651949Y-71089977D01*
X218457130Y-70441994D01*
X218139639Y-69844470D01*
X218130177Y-69830308D01*
X217681481Y-69518124D01*
X215444605Y-71755000D01*
X215085395Y-71755000D01*
X212848519Y-69518124D01*
X212399823Y-69830308D01*
X212079388Y-70426259D01*
X211881374Y-71073273D01*
X211813390Y-71746484D01*
X204547854Y-71746484D01*
X204627932Y-71553158D01*
X204685000Y-71266260D01*
X204685000Y-71004889D01*
X204922238Y-70968965D01*
X205178832Y-70876277D01*
X205291863Y-70815860D01*
X205345590Y-70620000D01*
X207941928Y-70620000D01*
X207954188Y-70744482D01*
X207990498Y-70864180D01*
X208049463Y-70974494D01*
X208128815Y-71071185D01*
X208225506Y-71150537D01*
X208335820Y-71209502D01*
X208455518Y-71245812D01*
X208580000Y-71258072D01*
X209294250Y-71255000D01*
X209453000Y-71096250D01*
X209453000Y-69747000D01*
X209707000Y-69747000D01*
X209707000Y-71096250D01*
X209865750Y-71255000D01*
X210580000Y-71258072D01*
X210704482Y-71245812D01*
X210824180Y-71209502D01*
X210934494Y-71150537D01*
X211031185Y-71071185D01*
X211110537Y-70974494D01*
X211169502Y-70864180D01*
X211205812Y-70744482D01*
X211218072Y-70620000D01*
X211215000Y-69905750D01*
X211056250Y-69747000D01*
X209707000Y-69747000D01*
X209453000Y-69747000D01*
X208103750Y-69747000D01*
X207945000Y-69905750D01*
X207941928Y-70620000D01*
X205345590Y-70620000D01*
X205357388Y-70576993D01*
X204580000Y-69799605D01*
X204565858Y-69813748D01*
X204386253Y-69634143D01*
X204400395Y-69620000D01*
X204759605Y-69620000D01*
X205536993Y-70397388D01*
X205775860Y-70331863D01*
X205891760Y-70084884D01*
X205957250Y-69820040D01*
X205969812Y-69547508D01*
X205928965Y-69277762D01*
X205836277Y-69021168D01*
X205775860Y-68908137D01*
X205536993Y-68842612D01*
X204759605Y-69620000D01*
X204400395Y-69620000D01*
X203623007Y-68842612D01*
X203384140Y-68908137D01*
X203268240Y-69155116D01*
X203202750Y-69419960D01*
X203192838Y-69635000D01*
X203053740Y-69635000D01*
X202766842Y-69692068D01*
X202496589Y-69804010D01*
X202253368Y-69966525D01*
X202046525Y-70173368D01*
X201930585Y-70346885D01*
X201900706Y-70290986D01*
X201715134Y-70064866D01*
X201489014Y-69879294D01*
X201231034Y-69741401D01*
X200951111Y-69656487D01*
X200732950Y-69635000D01*
X200587050Y-69635000D01*
X200368889Y-69656487D01*
X200088966Y-69741401D01*
X199830986Y-69879294D01*
X199604866Y-70064866D01*
X199419294Y-70290986D01*
X199390000Y-70345791D01*
X199360706Y-70290986D01*
X199175134Y-70064866D01*
X198949014Y-69879294D01*
X198691034Y-69741401D01*
X198411111Y-69656487D01*
X198192950Y-69635000D01*
X198047050Y-69635000D01*
X197828889Y-69656487D01*
X197548966Y-69741401D01*
X197290986Y-69879294D01*
X197064866Y-70064866D01*
X196879294Y-70290986D01*
X196850000Y-70345791D01*
X196820706Y-70290986D01*
X196635134Y-70064866D01*
X196409014Y-69879294D01*
X196151034Y-69741401D01*
X195871111Y-69656487D01*
X195652950Y-69635000D01*
X195507050Y-69635000D01*
X195288889Y-69656487D01*
X195008966Y-69741401D01*
X194750986Y-69879294D01*
X194524866Y-70064866D01*
X194339294Y-70290986D01*
X194310000Y-70345791D01*
X194280706Y-70290986D01*
X194095134Y-70064866D01*
X193869014Y-69879294D01*
X193611034Y-69741401D01*
X193331111Y-69656487D01*
X193112950Y-69635000D01*
X192967050Y-69635000D01*
X192748889Y-69656487D01*
X192468966Y-69741401D01*
X192210986Y-69879294D01*
X191984866Y-70064866D01*
X191799294Y-70290986D01*
X191770000Y-70345791D01*
X191740706Y-70290986D01*
X191555134Y-70064866D01*
X191329014Y-69879294D01*
X191071034Y-69741401D01*
X190791111Y-69656487D01*
X190572950Y-69635000D01*
X190427050Y-69635000D01*
X190208889Y-69656487D01*
X189928966Y-69741401D01*
X189670986Y-69879294D01*
X189444866Y-70064866D01*
X189259294Y-70290986D01*
X189230000Y-70345791D01*
X189200706Y-70290986D01*
X189015134Y-70064866D01*
X188789014Y-69879294D01*
X188531034Y-69741401D01*
X188251111Y-69656487D01*
X188032950Y-69635000D01*
X187887050Y-69635000D01*
X187668889Y-69656487D01*
X187388966Y-69741401D01*
X187130986Y-69879294D01*
X186904866Y-70064866D01*
X186719294Y-70290986D01*
X186690000Y-70345791D01*
X186660706Y-70290986D01*
X186475134Y-70064866D01*
X186249014Y-69879294D01*
X185991034Y-69741401D01*
X185711111Y-69656487D01*
X185492950Y-69635000D01*
X185347050Y-69635000D01*
X185128889Y-69656487D01*
X184848966Y-69741401D01*
X184590986Y-69879294D01*
X184364866Y-70064866D01*
X184179294Y-70290986D01*
X184144799Y-70355523D01*
X184075178Y-70238645D01*
X183880269Y-70022412D01*
X183646920Y-69848359D01*
X183384099Y-69723175D01*
X183236890Y-69678524D01*
X183007000Y-69799845D01*
X183007000Y-70993000D01*
X183027000Y-70993000D01*
X183027000Y-71247000D01*
X183007000Y-71247000D01*
X183007000Y-72440155D01*
X183017000Y-72445432D01*
X183017000Y-73533000D01*
X183037000Y-73533000D01*
X183037000Y-73787000D01*
X183017000Y-73787000D01*
X183017000Y-73807000D01*
X182763000Y-73807000D01*
X182763000Y-73787000D01*
X182743000Y-73787000D01*
X182743000Y-73533000D01*
X182763000Y-73533000D01*
X182763000Y-72183750D01*
X182753000Y-72173750D01*
X182753000Y-71247000D01*
X182733000Y-71247000D01*
X182733000Y-70993000D01*
X182753000Y-70993000D01*
X182753000Y-69799845D01*
X182523110Y-69678524D01*
X182375901Y-69723175D01*
X182113080Y-69848359D01*
X181879731Y-70022412D01*
X181684822Y-70238645D01*
X181615201Y-70355523D01*
X181580706Y-70290986D01*
X181395134Y-70064866D01*
X181169014Y-69879294D01*
X180911034Y-69741401D01*
X180684238Y-69672603D01*
X181864134Y-68492707D01*
X181902897Y-68460895D01*
X182029861Y-68306189D01*
X182124203Y-68129686D01*
X182174254Y-67964692D01*
X182182299Y-67938171D01*
X182192413Y-67835480D01*
X182197001Y-67788901D01*
X182197001Y-67788894D01*
X182201915Y-67739000D01*
X182197001Y-67689106D01*
X182197001Y-64596000D01*
X185784554Y-64596000D01*
X185675226Y-64617747D01*
X185414073Y-64725920D01*
X185179041Y-64882963D01*
X184979163Y-65082841D01*
X184822120Y-65317873D01*
X184713947Y-65579026D01*
X184658800Y-65856265D01*
X184658800Y-66138935D01*
X184713947Y-66416174D01*
X184822120Y-66677327D01*
X184979163Y-66912359D01*
X185179041Y-67112237D01*
X185414073Y-67269280D01*
X185675226Y-67377453D01*
X185952465Y-67432600D01*
X186235135Y-67432600D01*
X186512374Y-67377453D01*
X186773527Y-67269280D01*
X187008559Y-67112237D01*
X187208437Y-66912359D01*
X187365480Y-66677327D01*
X187473653Y-66416174D01*
X187528800Y-66138935D01*
X187528800Y-65856265D01*
X187473653Y-65579026D01*
X187365480Y-65317873D01*
X187208437Y-65082841D01*
X187008559Y-64882963D01*
X186773527Y-64725920D01*
X186512374Y-64617747D01*
X186403046Y-64596000D01*
X193390835Y-64596000D01*
X193161992Y-64665418D01*
X192912699Y-64798668D01*
X192694192Y-64977992D01*
X192514868Y-65196499D01*
X192381618Y-65445792D01*
X192299564Y-65716291D01*
X192271857Y-65997600D01*
X192299564Y-66278909D01*
X192381618Y-66549408D01*
X192514868Y-66798701D01*
X192694192Y-67017208D01*
X192912699Y-67196532D01*
X193161992Y-67329782D01*
X193432491Y-67411836D01*
X193643308Y-67432600D01*
X193711959Y-67432600D01*
X194082492Y-67803133D01*
X194114304Y-67841896D01*
X194269010Y-67968860D01*
X194445513Y-68063202D01*
X194637029Y-68121298D01*
X194786298Y-68136000D01*
X194786305Y-68136000D01*
X194836199Y-68140914D01*
X194886093Y-68136000D01*
X203292472Y-68136000D01*
X203310013Y-68162252D01*
X203537748Y-68389987D01*
X203805537Y-68568918D01*
X203826087Y-68577430D01*
X203802612Y-68663007D01*
X204580000Y-69440395D01*
X205357388Y-68663007D01*
X205333913Y-68577430D01*
X205354463Y-68568918D01*
X205622252Y-68389987D01*
X205849987Y-68162252D01*
X205867528Y-68136000D01*
X208168800Y-68136000D01*
X208128815Y-68168815D01*
X208049463Y-68265506D01*
X207990498Y-68375820D01*
X207954188Y-68495518D01*
X207941928Y-68620000D01*
X207945000Y-69334250D01*
X208103750Y-69493000D01*
X209453000Y-69493000D01*
X209453000Y-69473000D01*
X209707000Y-69473000D01*
X209707000Y-69493000D01*
X211056250Y-69493000D01*
X211210731Y-69338519D01*
X213028124Y-69338519D01*
X215265000Y-71575395D01*
X217501876Y-69338519D01*
X217189692Y-68889823D01*
X216593741Y-68569388D01*
X215946727Y-68371374D01*
X215273516Y-68303390D01*
X214599977Y-68368051D01*
X213951994Y-68562870D01*
X213354470Y-68880361D01*
X213340308Y-68889823D01*
X213028124Y-69338519D01*
X211210731Y-69338519D01*
X211215000Y-69334250D01*
X211218072Y-68620000D01*
X211205812Y-68495518D01*
X211169502Y-68375820D01*
X211110537Y-68265506D01*
X211031185Y-68168815D01*
X210934494Y-68089463D01*
X210908063Y-68075335D01*
X211028918Y-67894463D01*
X211152168Y-67596912D01*
X211215000Y-67281033D01*
X211215000Y-66958967D01*
X211152168Y-66643088D01*
X211028918Y-66345537D01*
X210849987Y-66077748D01*
X210642239Y-65870000D01*
X210830826Y-65681413D01*
X216303792Y-65681413D01*
X216399556Y-65945814D01*
X216689171Y-66086704D01*
X217000708Y-66168384D01*
X217322195Y-66187718D01*
X217641275Y-66143961D01*
X217945688Y-66038795D01*
X218119644Y-65945814D01*
X218215408Y-65681413D01*
X217259600Y-64725605D01*
X216303792Y-65681413D01*
X210830826Y-65681413D01*
X210849987Y-65662252D01*
X211028918Y-65394463D01*
X211152168Y-65096912D01*
X211215000Y-64781033D01*
X211215000Y-64608595D01*
X215617882Y-64608595D01*
X215661639Y-64927675D01*
X215766805Y-65232088D01*
X215859786Y-65406044D01*
X216124187Y-65501808D01*
X217079995Y-64546000D01*
X217439205Y-64546000D01*
X218395013Y-65501808D01*
X218659414Y-65406044D01*
X218800304Y-65116429D01*
X218881984Y-64804892D01*
X218901318Y-64483405D01*
X218857561Y-64164325D01*
X218752395Y-63859912D01*
X218659414Y-63685956D01*
X218395013Y-63590192D01*
X217439205Y-64546000D01*
X217079995Y-64546000D01*
X216124187Y-63590192D01*
X215859786Y-63685956D01*
X215718896Y-63975571D01*
X215637216Y-64287108D01*
X215617882Y-64608595D01*
X211215000Y-64608595D01*
X211215000Y-64458967D01*
X211208840Y-64428000D01*
X211503133Y-64133708D01*
X211541896Y-64101896D01*
X211668860Y-63947190D01*
X211763202Y-63770687D01*
X211821298Y-63579171D01*
X211836000Y-63429902D01*
X211837902Y-63410587D01*
X216303792Y-63410587D01*
X217259600Y-64366395D01*
X218215408Y-63410587D01*
X218119644Y-63146186D01*
X217830029Y-63005296D01*
X217518492Y-62923616D01*
X217197005Y-62904282D01*
X216877925Y-62948039D01*
X216573512Y-63053205D01*
X216399556Y-63146186D01*
X216303792Y-63410587D01*
X211837902Y-63410587D01*
X211840915Y-63380000D01*
X211836000Y-63330098D01*
X211836000Y-60562000D01*
X215623104Y-60562000D01*
X215633788Y-60670482D01*
X215670098Y-60790180D01*
X215729063Y-60900494D01*
X215808415Y-60997185D01*
X215905106Y-61076537D01*
X216015420Y-61135502D01*
X216135118Y-61171812D01*
X216259600Y-61184072D01*
X218259600Y-61184072D01*
X218384082Y-61171812D01*
X218503780Y-61135502D01*
X218614094Y-61076537D01*
X218710785Y-60997185D01*
X218790137Y-60900494D01*
X218842079Y-60803319D01*
X221028000Y-62989241D01*
X221028001Y-68223928D01*
X220294000Y-68223928D01*
X220169518Y-68236188D01*
X220049820Y-68272498D01*
X219939506Y-68331463D01*
X219842815Y-68410815D01*
X219763463Y-68507506D01*
X219704498Y-68617820D01*
X219668188Y-68737518D01*
X219655928Y-68862000D01*
X219655928Y-72362000D01*
X219668188Y-72486482D01*
X219704498Y-72606180D01*
X219763463Y-72716494D01*
X219842815Y-72813185D01*
X219939506Y-72892537D01*
X220049820Y-72951502D01*
X220169518Y-72987812D01*
X220294000Y-73000072D01*
X223794000Y-73000072D01*
X223918482Y-72987812D01*
X224038180Y-72951502D01*
X224148494Y-72892537D01*
X224245185Y-72813185D01*
X224324537Y-72716494D01*
X224383502Y-72606180D01*
X224419812Y-72486482D01*
X224432072Y-72362000D01*
X225905928Y-72362000D01*
X225918188Y-72486482D01*
X225954498Y-72606180D01*
X226013463Y-72716494D01*
X226092815Y-72813185D01*
X226189506Y-72892537D01*
X226299820Y-72951502D01*
X226419518Y-72987812D01*
X226544000Y-73000072D01*
X227758250Y-72997000D01*
X227917000Y-72838250D01*
X227917000Y-70739000D01*
X226067750Y-70739000D01*
X225909000Y-70897750D01*
X225905928Y-72362000D01*
X224432072Y-72362000D01*
X224432072Y-68862000D01*
X224419812Y-68737518D01*
X224383502Y-68617820D01*
X224324537Y-68507506D01*
X224245185Y-68410815D01*
X224148494Y-68331463D01*
X224086655Y-68298409D01*
X224758250Y-68297000D01*
X224917000Y-68138250D01*
X224917000Y-66039000D01*
X225171000Y-66039000D01*
X225171000Y-68138250D01*
X225329750Y-68297000D01*
X226250367Y-68298931D01*
X226189506Y-68331463D01*
X226092815Y-68410815D01*
X226013463Y-68507506D01*
X225954498Y-68617820D01*
X225918188Y-68737518D01*
X225905928Y-68862000D01*
X225909000Y-70326250D01*
X226067750Y-70485000D01*
X227917000Y-70485000D01*
X227917000Y-68385750D01*
X227758250Y-68227000D01*
X227087195Y-68225302D01*
X227148494Y-68192537D01*
X227245185Y-68113185D01*
X227324537Y-68016494D01*
X227383502Y-67906180D01*
X227419812Y-67786482D01*
X227432072Y-67662000D01*
X227429000Y-66197750D01*
X227270250Y-66039000D01*
X225171000Y-66039000D01*
X224917000Y-66039000D01*
X224897000Y-66039000D01*
X224897000Y-65785000D01*
X224917000Y-65785000D01*
X224917000Y-65765000D01*
X225171000Y-65765000D01*
X225171000Y-65785000D01*
X227270250Y-65785000D01*
X227429000Y-65626250D01*
X227432072Y-64162000D01*
X227428211Y-64122797D01*
X227970530Y-63834639D01*
X227984692Y-63825177D01*
X228296876Y-63376481D01*
X226060000Y-61139605D01*
X223823124Y-63376481D01*
X223926635Y-63525255D01*
X223294000Y-63523928D01*
X223169518Y-63536188D01*
X223060000Y-63569410D01*
X223060000Y-62634598D01*
X223185361Y-62870530D01*
X223194823Y-62884692D01*
X223643519Y-63196876D01*
X225880395Y-60960000D01*
X223643519Y-58723124D01*
X223194823Y-59035308D01*
X222874388Y-59631259D01*
X222676374Y-60278273D01*
X222608390Y-60951484D01*
X222673051Y-61625023D01*
X222731040Y-61817898D01*
X222727133Y-61814692D01*
X219775312Y-58862872D01*
X219743496Y-58824104D01*
X219588790Y-58697140D01*
X219412287Y-58602798D01*
X219220771Y-58544702D01*
X219071502Y-58530000D01*
X219021600Y-58525085D01*
X218971698Y-58530000D01*
X218896096Y-58530000D01*
X218885412Y-58421518D01*
X218849102Y-58301820D01*
X218790137Y-58191506D01*
X218710785Y-58094815D01*
X218614094Y-58015463D01*
X218503780Y-57956498D01*
X218384082Y-57920188D01*
X218259600Y-57907928D01*
X216259600Y-57907928D01*
X216135118Y-57920188D01*
X216015420Y-57956498D01*
X215905106Y-58015463D01*
X215808415Y-58094815D01*
X215729063Y-58191506D01*
X215670098Y-58301820D01*
X215633788Y-58421518D01*
X215623104Y-58530000D01*
X212301351Y-58530000D01*
X212312185Y-58420000D01*
X212283513Y-58128889D01*
X212198599Y-57848966D01*
X212060706Y-57590986D01*
X212031994Y-57556000D01*
X225572588Y-57556000D01*
X225394977Y-57573051D01*
G36*
X164533872Y-69185132D02*
G01*
X164557450Y-69240142D01*
X164580232Y-69295417D01*
X164584615Y-69303523D01*
X164727904Y-69564166D01*
X164761692Y-69613513D01*
X164794804Y-69663350D01*
X164800678Y-69670450D01*
X164991864Y-69898296D01*
X165034561Y-69940107D01*
X165076753Y-69982595D01*
X165083894Y-69988419D01*
X165315695Y-70174792D01*
X165365742Y-70207542D01*
X165415343Y-70240998D01*
X165423479Y-70245324D01*
X165687066Y-70383123D01*
X165742508Y-70405522D01*
X165797672Y-70428712D01*
X165806494Y-70431375D01*
X166091824Y-70515353D01*
X166150578Y-70526561D01*
X166209182Y-70538591D01*
X166218354Y-70539490D01*
X166514561Y-70566447D01*
X166574379Y-70566029D01*
X166634196Y-70566447D01*
X166643367Y-70565548D01*
X166939171Y-70534458D01*
X166997768Y-70522429D01*
X167056530Y-70511220D01*
X167065352Y-70508556D01*
X167349483Y-70420602D01*
X167404615Y-70397427D01*
X167460089Y-70375014D01*
X167468226Y-70370687D01*
X167729862Y-70229221D01*
X167779429Y-70195788D01*
X167829508Y-70163017D01*
X167836649Y-70157193D01*
X168065824Y-69967603D01*
X168107946Y-69925185D01*
X168150716Y-69883303D01*
X168156590Y-69876202D01*
X168344576Y-69645708D01*
X168377691Y-69595866D01*
X168411475Y-69546526D01*
X168415858Y-69538419D01*
X168555494Y-69275801D01*
X168578288Y-69220499D01*
X168601854Y-69165516D01*
X168604579Y-69156713D01*
X168612856Y-69129297D01*
X168613618Y-69131808D01*
X168746868Y-69381101D01*
X168926192Y-69599608D01*
X169144699Y-69778932D01*
X169277658Y-69850000D01*
X169144699Y-69921068D01*
X168926192Y-70100392D01*
X168746868Y-70318899D01*
X168613618Y-70568192D01*
X168531564Y-70838691D01*
X168503857Y-71120000D01*
X168531564Y-71401309D01*
X168613618Y-71671808D01*
X168746868Y-71921101D01*
X168926192Y-72139608D01*
X169144699Y-72318932D01*
X169277658Y-72390000D01*
X169144699Y-72461068D01*
X168926192Y-72640392D01*
X168746868Y-72858899D01*
X168613618Y-73108192D01*
X168531564Y-73378691D01*
X168503857Y-73660000D01*
X168531564Y-73941309D01*
X168613618Y-74211808D01*
X168746868Y-74461101D01*
X168798488Y-74524000D01*
X164271867Y-74524000D01*
X164389515Y-74351646D01*
X164500167Y-74091818D01*
X164517704Y-74009039D01*
X164395715Y-73787000D01*
X162852800Y-73787000D01*
X162852800Y-73807000D01*
X162598800Y-73807000D01*
X162598800Y-73787000D01*
X162578800Y-73787000D01*
X162578800Y-73533000D01*
X162598800Y-73533000D01*
X162598800Y-73513000D01*
X162852800Y-73513000D01*
X162852800Y-73533000D01*
X164395715Y-73533000D01*
X164517704Y-73310961D01*
X164500167Y-73228182D01*
X164389515Y-72968354D01*
X164230300Y-72735105D01*
X164028639Y-72537399D01*
X163799059Y-72387265D01*
X163926901Y-72318932D01*
X164145408Y-72139608D01*
X164324732Y-71921101D01*
X164457982Y-71671808D01*
X164540036Y-71401309D01*
X164567743Y-71120000D01*
X164540036Y-70838691D01*
X164457982Y-70568192D01*
X164324732Y-70318899D01*
X164145408Y-70100392D01*
X163926901Y-69921068D01*
X163793942Y-69850000D01*
X163926901Y-69778932D01*
X164145408Y-69599608D01*
X164324732Y-69381101D01*
X164457982Y-69131808D01*
X164486810Y-69036774D01*
X164533872Y-69185132D01*
X164533872Y-69185132D01*
G37*
X164533872Y-69185132D02*
X164557450Y-69240142D01*
X164580232Y-69295417D01*
X164584615Y-69303523D01*
X164727904Y-69564166D01*
X164761692Y-69613513D01*
X164794804Y-69663350D01*
X164800678Y-69670450D01*
X164991864Y-69898296D01*
X165034561Y-69940107D01*
X165076753Y-69982595D01*
X165083894Y-69988419D01*
X165315695Y-70174792D01*
X165365742Y-70207542D01*
X165415343Y-70240998D01*
X165423479Y-70245324D01*
X165687066Y-70383123D01*
X165742508Y-70405522D01*
X165797672Y-70428712D01*
X165806494Y-70431375D01*
X166091824Y-70515353D01*
X166150578Y-70526561D01*
X166209182Y-70538591D01*
X166218354Y-70539490D01*
X166514561Y-70566447D01*
X166574379Y-70566029D01*
X166634196Y-70566447D01*
X166643367Y-70565548D01*
X166939171Y-70534458D01*
X166997768Y-70522429D01*
X167056530Y-70511220D01*
X167065352Y-70508556D01*
X167349483Y-70420602D01*
X167404615Y-70397427D01*
X167460089Y-70375014D01*
X167468226Y-70370687D01*
X167729862Y-70229221D01*
X167779429Y-70195788D01*
X167829508Y-70163017D01*
X167836649Y-70157193D01*
X168065824Y-69967603D01*
X168107946Y-69925185D01*
X168150716Y-69883303D01*
X168156590Y-69876202D01*
X168344576Y-69645708D01*
X168377691Y-69595866D01*
X168411475Y-69546526D01*
X168415858Y-69538419D01*
X168555494Y-69275801D01*
X168578288Y-69220499D01*
X168601854Y-69165516D01*
X168604579Y-69156713D01*
X168612856Y-69129297D01*
X168613618Y-69131808D01*
X168746868Y-69381101D01*
X168926192Y-69599608D01*
X169144699Y-69778932D01*
X169277658Y-69850000D01*
X169144699Y-69921068D01*
X168926192Y-70100392D01*
X168746868Y-70318899D01*
X168613618Y-70568192D01*
X168531564Y-70838691D01*
X168503857Y-71120000D01*
X168531564Y-71401309D01*
X168613618Y-71671808D01*
X168746868Y-71921101D01*
X168926192Y-72139608D01*
X169144699Y-72318932D01*
X169277658Y-72390000D01*
X169144699Y-72461068D01*
X168926192Y-72640392D01*
X168746868Y-72858899D01*
X168613618Y-73108192D01*
X168531564Y-73378691D01*
X168503857Y-73660000D01*
X168531564Y-73941309D01*
X168613618Y-74211808D01*
X168746868Y-74461101D01*
X168798488Y-74524000D01*
X164271867Y-74524000D01*
X164389515Y-74351646D01*
X164500167Y-74091818D01*
X164517704Y-74009039D01*
X164395715Y-73787000D01*
X162852800Y-73787000D01*
X162852800Y-73807000D01*
X162598800Y-73807000D01*
X162598800Y-73787000D01*
X162578800Y-73787000D01*
X162578800Y-73533000D01*
X162598800Y-73533000D01*
X162598800Y-73513000D01*
X162852800Y-73513000D01*
X162852800Y-73533000D01*
X164395715Y-73533000D01*
X164517704Y-73310961D01*
X164500167Y-73228182D01*
X164389515Y-72968354D01*
X164230300Y-72735105D01*
X164028639Y-72537399D01*
X163799059Y-72387265D01*
X163926901Y-72318932D01*
X164145408Y-72139608D01*
X164324732Y-71921101D01*
X164457982Y-71671808D01*
X164540036Y-71401309D01*
X164567743Y-71120000D01*
X164540036Y-70838691D01*
X164457982Y-70568192D01*
X164324732Y-70318899D01*
X164145408Y-70100392D01*
X163926901Y-69921068D01*
X163793942Y-69850000D01*
X163926901Y-69778932D01*
X164145408Y-69599608D01*
X164324732Y-69381101D01*
X164457982Y-69131808D01*
X164486810Y-69036774D01*
X164533872Y-69185132D01*
G36*
X173819411Y-63074134D02*
G01*
X173851223Y-63112897D01*
X174005929Y-63239861D01*
X174182432Y-63334203D01*
X174299133Y-63369604D01*
X174373947Y-63392299D01*
X174393296Y-63394205D01*
X174523217Y-63407001D01*
X174523224Y-63407001D01*
X174573118Y-63411915D01*
X174623012Y-63407001D01*
X175713768Y-63407001D01*
X175563124Y-63623519D01*
X177800000Y-65860395D01*
X177814143Y-65846253D01*
X177993748Y-66025858D01*
X177979605Y-66040000D01*
X177993748Y-66054143D01*
X177814143Y-66233748D01*
X177800000Y-66219605D01*
X175563124Y-68456481D01*
X175875308Y-68905177D01*
X176471259Y-69225612D01*
X177118273Y-69423626D01*
X177791484Y-69491610D01*
X178012796Y-69470364D01*
X177848160Y-69635000D01*
X177727050Y-69635000D01*
X177508889Y-69656487D01*
X177228966Y-69741401D01*
X176970986Y-69879294D01*
X176744866Y-70064866D01*
X176559294Y-70290986D01*
X176524799Y-70355523D01*
X176455178Y-70238645D01*
X176260269Y-70022412D01*
X176026920Y-69848359D01*
X175764099Y-69723175D01*
X175616890Y-69678524D01*
X175387000Y-69799845D01*
X175387000Y-70993000D01*
X175407000Y-70993000D01*
X175407000Y-71247000D01*
X175387000Y-71247000D01*
X175387000Y-72440155D01*
X175397000Y-72445432D01*
X175397000Y-73533000D01*
X175417000Y-73533000D01*
X175417000Y-73787000D01*
X175397000Y-73787000D01*
X175397000Y-73807000D01*
X175143000Y-73807000D01*
X175143000Y-73787000D01*
X175123000Y-73787000D01*
X175123000Y-73533000D01*
X175143000Y-73533000D01*
X175143000Y-72183750D01*
X175133000Y-72173750D01*
X175133000Y-71247000D01*
X173939186Y-71247000D01*
X173818519Y-71476891D01*
X173915843Y-71751252D01*
X174064822Y-72001355D01*
X174216528Y-72169658D01*
X174168815Y-72208815D01*
X174089463Y-72305506D01*
X174030498Y-72415820D01*
X173994188Y-72535518D01*
X173981928Y-72660000D01*
X173985000Y-73374250D01*
X174143748Y-73532998D01*
X173985000Y-73532998D01*
X173985000Y-73541877D01*
X173983315Y-73540740D01*
X173975186Y-73536418D01*
X173975181Y-73536415D01*
X173975176Y-73536413D01*
X173755524Y-73421582D01*
X173700058Y-73399173D01*
X173644919Y-73375994D01*
X173636097Y-73373330D01*
X173398321Y-73303348D01*
X173339559Y-73292139D01*
X173280962Y-73280110D01*
X173271791Y-73279211D01*
X173024951Y-73256747D01*
X172965135Y-73257165D01*
X172905318Y-73256747D01*
X172896147Y-73257646D01*
X172649644Y-73283554D01*
X172591028Y-73295586D01*
X172532284Y-73306792D01*
X172523462Y-73309456D01*
X172286686Y-73382751D01*
X172231555Y-73405926D01*
X172176080Y-73428339D01*
X172167944Y-73432666D01*
X172165483Y-73433997D01*
X172160036Y-73378691D01*
X172077982Y-73108192D01*
X171944732Y-72858899D01*
X171765408Y-72640392D01*
X171546901Y-72461068D01*
X171413942Y-72390000D01*
X171546901Y-72318932D01*
X171765408Y-72139608D01*
X171944732Y-71921101D01*
X172077982Y-71671808D01*
X172160036Y-71401309D01*
X172187743Y-71120000D01*
X172160036Y-70838691D01*
X172137109Y-70763109D01*
X173818519Y-70763109D01*
X173939186Y-70993000D01*
X175133000Y-70993000D01*
X175133000Y-69799845D01*
X174903110Y-69678524D01*
X174755901Y-69723175D01*
X174493080Y-69848359D01*
X174259731Y-70022412D01*
X174064822Y-70238645D01*
X173915843Y-70488748D01*
X173818519Y-70763109D01*
X172137109Y-70763109D01*
X172077982Y-70568192D01*
X171944732Y-70318899D01*
X171765408Y-70100392D01*
X171546901Y-69921068D01*
X171413942Y-69850000D01*
X171546901Y-69778932D01*
X171765408Y-69599608D01*
X171944732Y-69381101D01*
X172077982Y-69131808D01*
X172160036Y-68861309D01*
X172187743Y-68580000D01*
X172160036Y-68298691D01*
X172077982Y-68028192D01*
X171944732Y-67778899D01*
X171765408Y-67560392D01*
X171546901Y-67381068D01*
X171413942Y-67310000D01*
X171546901Y-67238932D01*
X171765408Y-67059608D01*
X171944732Y-66841101D01*
X172077982Y-66591808D01*
X172160036Y-66321309D01*
X172187743Y-66040000D01*
X172186905Y-66031484D01*
X174348390Y-66031484D01*
X174413051Y-66705023D01*
X174607870Y-67353006D01*
X174925361Y-67950530D01*
X174934823Y-67964692D01*
X175383519Y-68276876D01*
X177620395Y-66040000D01*
X175383519Y-63803124D01*
X174934823Y-64115308D01*
X174614388Y-64711259D01*
X174416374Y-65358273D01*
X174348390Y-66031484D01*
X172186905Y-66031484D01*
X172160036Y-65758691D01*
X172077982Y-65488192D01*
X171944732Y-65238899D01*
X171765408Y-65020392D01*
X171546901Y-64841068D01*
X171413942Y-64770000D01*
X171546901Y-64698932D01*
X171765408Y-64519608D01*
X171944732Y-64301101D01*
X172077982Y-64051808D01*
X172160036Y-63781309D01*
X172187743Y-63500000D01*
X172160036Y-63218691D01*
X172077982Y-62948192D01*
X171944732Y-62698899D01*
X171765408Y-62480392D01*
X171546901Y-62301068D01*
X171413942Y-62230000D01*
X171546901Y-62158932D01*
X171765408Y-61979608D01*
X171944732Y-61761101D01*
X172077982Y-61511808D01*
X172119667Y-61374390D01*
X173819411Y-63074134D01*
X173819411Y-63074134D01*
G37*
X173819411Y-63074134D02*
X173851223Y-63112897D01*
X174005929Y-63239861D01*
X174182432Y-63334203D01*
X174299133Y-63369604D01*
X174373947Y-63392299D01*
X174393296Y-63394205D01*
X174523217Y-63407001D01*
X174523224Y-63407001D01*
X174573118Y-63411915D01*
X174623012Y-63407001D01*
X175713768Y-63407001D01*
X175563124Y-63623519D01*
X177800000Y-65860395D01*
X177814143Y-65846253D01*
X177993748Y-66025858D01*
X177979605Y-66040000D01*
X177993748Y-66054143D01*
X177814143Y-66233748D01*
X177800000Y-66219605D01*
X175563124Y-68456481D01*
X175875308Y-68905177D01*
X176471259Y-69225612D01*
X177118273Y-69423626D01*
X177791484Y-69491610D01*
X178012796Y-69470364D01*
X177848160Y-69635000D01*
X177727050Y-69635000D01*
X177508889Y-69656487D01*
X177228966Y-69741401D01*
X176970986Y-69879294D01*
X176744866Y-70064866D01*
X176559294Y-70290986D01*
X176524799Y-70355523D01*
X176455178Y-70238645D01*
X176260269Y-70022412D01*
X176026920Y-69848359D01*
X175764099Y-69723175D01*
X175616890Y-69678524D01*
X175387000Y-69799845D01*
X175387000Y-70993000D01*
X175407000Y-70993000D01*
X175407000Y-71247000D01*
X175387000Y-71247000D01*
X175387000Y-72440155D01*
X175397000Y-72445432D01*
X175397000Y-73533000D01*
X175417000Y-73533000D01*
X175417000Y-73787000D01*
X175397000Y-73787000D01*
X175397000Y-73807000D01*
X175143000Y-73807000D01*
X175143000Y-73787000D01*
X175123000Y-73787000D01*
X175123000Y-73533000D01*
X175143000Y-73533000D01*
X175143000Y-72183750D01*
X175133000Y-72173750D01*
X175133000Y-71247000D01*
X173939186Y-71247000D01*
X173818519Y-71476891D01*
X173915843Y-71751252D01*
X174064822Y-72001355D01*
X174216528Y-72169658D01*
X174168815Y-72208815D01*
X174089463Y-72305506D01*
X174030498Y-72415820D01*
X173994188Y-72535518D01*
X173981928Y-72660000D01*
X173985000Y-73374250D01*
X174143748Y-73532998D01*
X173985000Y-73532998D01*
X173985000Y-73541877D01*
X173983315Y-73540740D01*
X173975186Y-73536418D01*
X173975181Y-73536415D01*
X173975176Y-73536413D01*
X173755524Y-73421582D01*
X173700058Y-73399173D01*
X173644919Y-73375994D01*
X173636097Y-73373330D01*
X173398321Y-73303348D01*
X173339559Y-73292139D01*
X173280962Y-73280110D01*
X173271791Y-73279211D01*
X173024951Y-73256747D01*
X172965135Y-73257165D01*
X172905318Y-73256747D01*
X172896147Y-73257646D01*
X172649644Y-73283554D01*
X172591028Y-73295586D01*
X172532284Y-73306792D01*
X172523462Y-73309456D01*
X172286686Y-73382751D01*
X172231555Y-73405926D01*
X172176080Y-73428339D01*
X172167944Y-73432666D01*
X172165483Y-73433997D01*
X172160036Y-73378691D01*
X172077982Y-73108192D01*
X171944732Y-72858899D01*
X171765408Y-72640392D01*
X171546901Y-72461068D01*
X171413942Y-72390000D01*
X171546901Y-72318932D01*
X171765408Y-72139608D01*
X171944732Y-71921101D01*
X172077982Y-71671808D01*
X172160036Y-71401309D01*
X172187743Y-71120000D01*
X172160036Y-70838691D01*
X172137109Y-70763109D01*
X173818519Y-70763109D01*
X173939186Y-70993000D01*
X175133000Y-70993000D01*
X175133000Y-69799845D01*
X174903110Y-69678524D01*
X174755901Y-69723175D01*
X174493080Y-69848359D01*
X174259731Y-70022412D01*
X174064822Y-70238645D01*
X173915843Y-70488748D01*
X173818519Y-70763109D01*
X172137109Y-70763109D01*
X172077982Y-70568192D01*
X171944732Y-70318899D01*
X171765408Y-70100392D01*
X171546901Y-69921068D01*
X171413942Y-69850000D01*
X171546901Y-69778932D01*
X171765408Y-69599608D01*
X171944732Y-69381101D01*
X172077982Y-69131808D01*
X172160036Y-68861309D01*
X172187743Y-68580000D01*
X172160036Y-68298691D01*
X172077982Y-68028192D01*
X171944732Y-67778899D01*
X171765408Y-67560392D01*
X171546901Y-67381068D01*
X171413942Y-67310000D01*
X171546901Y-67238932D01*
X171765408Y-67059608D01*
X171944732Y-66841101D01*
X172077982Y-66591808D01*
X172160036Y-66321309D01*
X172187743Y-66040000D01*
X172186905Y-66031484D01*
X174348390Y-66031484D01*
X174413051Y-66705023D01*
X174607870Y-67353006D01*
X174925361Y-67950530D01*
X174934823Y-67964692D01*
X175383519Y-68276876D01*
X177620395Y-66040000D01*
X175383519Y-63803124D01*
X174934823Y-64115308D01*
X174614388Y-64711259D01*
X174416374Y-65358273D01*
X174348390Y-66031484D01*
X172186905Y-66031484D01*
X172160036Y-65758691D01*
X172077982Y-65488192D01*
X171944732Y-65238899D01*
X171765408Y-65020392D01*
X171546901Y-64841068D01*
X171413942Y-64770000D01*
X171546901Y-64698932D01*
X171765408Y-64519608D01*
X171944732Y-64301101D01*
X172077982Y-64051808D01*
X172160036Y-63781309D01*
X172187743Y-63500000D01*
X172160036Y-63218691D01*
X172077982Y-62948192D01*
X171944732Y-62698899D01*
X171765408Y-62480392D01*
X171546901Y-62301068D01*
X171413942Y-62230000D01*
X171546901Y-62158932D01*
X171765408Y-61979608D01*
X171944732Y-61761101D01*
X172077982Y-61511808D01*
X172119667Y-61374390D01*
X173819411Y-63074134D01*
G36*
X168926192Y-67059608D02*
G01*
X169144699Y-67238932D01*
X169277658Y-67310000D01*
X169144699Y-67381068D01*
X168926192Y-67560392D01*
X168747740Y-67777836D01*
X168747740Y-66842164D01*
X168926192Y-67059608D01*
X168926192Y-67059608D01*
G37*
X168926192Y-67059608D02*
X169144699Y-67238932D01*
X169277658Y-67310000D01*
X169144699Y-67381068D01*
X168926192Y-67560392D01*
X168747740Y-67777836D01*
X168747740Y-66842164D01*
X168926192Y-67059608D01*
G36*
X168926192Y-64519608D02*
G01*
X169144699Y-64698932D01*
X169277658Y-64770000D01*
X169144699Y-64841068D01*
X168926192Y-65020392D01*
X168747740Y-65237836D01*
X168747740Y-64302164D01*
X168926192Y-64519608D01*
X168926192Y-64519608D01*
G37*
X168926192Y-64519608D02*
X169144699Y-64698932D01*
X169277658Y-64770000D01*
X169144699Y-64841068D01*
X168926192Y-65020392D01*
X168747740Y-65237836D01*
X168747740Y-64302164D01*
X168926192Y-64519608D01*
G36*
X206791928Y-57570000D02*
G01*
X206795000Y-58134250D01*
X206953750Y-58293000D01*
X208153000Y-58293000D01*
X208153000Y-58273000D01*
X208407000Y-58273000D01*
X208407000Y-58293000D01*
X208427000Y-58293000D01*
X208427000Y-58547000D01*
X208407000Y-58547000D01*
X208407000Y-59746250D01*
X208565750Y-59905000D01*
X209130000Y-59908072D01*
X209254482Y-59895812D01*
X209374180Y-59859502D01*
X209484494Y-59800537D01*
X209581185Y-59721185D01*
X209660537Y-59624494D01*
X209719502Y-59514180D01*
X209740393Y-59445313D01*
X209764866Y-59475134D01*
X209802698Y-59506182D01*
X209804000Y-59519402D01*
X209804001Y-62959158D01*
X209772000Y-62991160D01*
X209741033Y-62985000D01*
X209418967Y-62985000D01*
X209103088Y-63047832D01*
X208805537Y-63171082D01*
X208537748Y-63350013D01*
X208310013Y-63577748D01*
X208292472Y-63604000D01*
X205867528Y-63604000D01*
X205849987Y-63577748D01*
X205622252Y-63350013D01*
X205354463Y-63171082D01*
X205056912Y-63047832D01*
X204741033Y-62985000D01*
X204418967Y-62985000D01*
X204103088Y-63047832D01*
X203805537Y-63171082D01*
X203537748Y-63350013D01*
X203435194Y-63452567D01*
X202879499Y-62896872D01*
X202847683Y-62858104D01*
X202692977Y-62731140D01*
X202516474Y-62636798D01*
X202324958Y-62578702D01*
X202175689Y-62564000D01*
X202125787Y-62559085D01*
X202075885Y-62564000D01*
X181231902Y-62564000D01*
X181182000Y-62559085D01*
X181132098Y-62564000D01*
X180840841Y-62564000D01*
X180684238Y-62407397D01*
X180911034Y-62338599D01*
X181169014Y-62200706D01*
X181395134Y-62015134D01*
X181580706Y-61789014D01*
X181610000Y-61734209D01*
X181639294Y-61789014D01*
X181824866Y-62015134D01*
X182050986Y-62200706D01*
X182308966Y-62338599D01*
X182588889Y-62423513D01*
X182807050Y-62445000D01*
X182952950Y-62445000D01*
X183171111Y-62423513D01*
X183451034Y-62338599D01*
X183709014Y-62200706D01*
X183935134Y-62015134D01*
X184120706Y-61789014D01*
X184150000Y-61734209D01*
X184179294Y-61789014D01*
X184364866Y-62015134D01*
X184590986Y-62200706D01*
X184848966Y-62338599D01*
X185128889Y-62423513D01*
X185347050Y-62445000D01*
X185492950Y-62445000D01*
X185711111Y-62423513D01*
X185991034Y-62338599D01*
X186249014Y-62200706D01*
X186475134Y-62015134D01*
X186660706Y-61789014D01*
X186690000Y-61734209D01*
X186719294Y-61789014D01*
X186904866Y-62015134D01*
X187130986Y-62200706D01*
X187388966Y-62338599D01*
X187668889Y-62423513D01*
X187887050Y-62445000D01*
X188032950Y-62445000D01*
X188251111Y-62423513D01*
X188531034Y-62338599D01*
X188789014Y-62200706D01*
X189015134Y-62015134D01*
X189200706Y-61789014D01*
X189230000Y-61734209D01*
X189259294Y-61789014D01*
X189444866Y-62015134D01*
X189670986Y-62200706D01*
X189928966Y-62338599D01*
X190208889Y-62423513D01*
X190427050Y-62445000D01*
X190572950Y-62445000D01*
X190791111Y-62423513D01*
X191071034Y-62338599D01*
X191329014Y-62200706D01*
X191555134Y-62015134D01*
X191740706Y-61789014D01*
X191770000Y-61734209D01*
X191799294Y-61789014D01*
X191984866Y-62015134D01*
X192210986Y-62200706D01*
X192468966Y-62338599D01*
X192748889Y-62423513D01*
X192967050Y-62445000D01*
X193112950Y-62445000D01*
X193331111Y-62423513D01*
X193611034Y-62338599D01*
X193869014Y-62200706D01*
X194095134Y-62015134D01*
X194280706Y-61789014D01*
X194310000Y-61734209D01*
X194339294Y-61789014D01*
X194524866Y-62015134D01*
X194750986Y-62200706D01*
X195008966Y-62338599D01*
X195288889Y-62423513D01*
X195507050Y-62445000D01*
X195652950Y-62445000D01*
X195871111Y-62423513D01*
X196151034Y-62338599D01*
X196409014Y-62200706D01*
X196635134Y-62015134D01*
X196820706Y-61789014D01*
X196850000Y-61734209D01*
X196879294Y-61789014D01*
X197064866Y-62015134D01*
X197290986Y-62200706D01*
X197548966Y-62338599D01*
X197828889Y-62423513D01*
X198047050Y-62445000D01*
X198192950Y-62445000D01*
X198411111Y-62423513D01*
X198691034Y-62338599D01*
X198949014Y-62200706D01*
X199175134Y-62015134D01*
X199360706Y-61789014D01*
X199390000Y-61734209D01*
X199419294Y-61789014D01*
X199604866Y-62015134D01*
X199830986Y-62200706D01*
X200088966Y-62338599D01*
X200368889Y-62423513D01*
X200587050Y-62445000D01*
X200732950Y-62445000D01*
X200951111Y-62423513D01*
X201231034Y-62338599D01*
X201489014Y-62200706D01*
X201715134Y-62015134D01*
X201900706Y-61789014D01*
X201930000Y-61734209D01*
X201959294Y-61789014D01*
X202144866Y-62015134D01*
X202370986Y-62200706D01*
X202628966Y-62338599D01*
X202908889Y-62423513D01*
X203127050Y-62445000D01*
X203272950Y-62445000D01*
X203491111Y-62423513D01*
X203771034Y-62338599D01*
X204029014Y-62200706D01*
X204255134Y-62015134D01*
X204440706Y-61789014D01*
X204578599Y-61531034D01*
X204663513Y-61251111D01*
X204692185Y-60960000D01*
X204663513Y-60668889D01*
X204578599Y-60388966D01*
X204440706Y-60130986D01*
X204255134Y-59904866D01*
X204216000Y-59872750D01*
X204216000Y-59569742D01*
X204283608Y-59487362D01*
X204399789Y-59270000D01*
X206791928Y-59270000D01*
X206804188Y-59394482D01*
X206840498Y-59514180D01*
X206899463Y-59624494D01*
X206978815Y-59721185D01*
X207075506Y-59800537D01*
X207185820Y-59859502D01*
X207305518Y-59895812D01*
X207430000Y-59908072D01*
X207994250Y-59905000D01*
X208153000Y-59746250D01*
X208153000Y-58547000D01*
X206953750Y-58547000D01*
X206795000Y-58705750D01*
X206791928Y-59270000D01*
X204399789Y-59270000D01*
X204402929Y-59264127D01*
X204476407Y-59021903D01*
X204495000Y-58833122D01*
X204495000Y-58006877D01*
X204476407Y-57818096D01*
X204402929Y-57575873D01*
X204392307Y-57556000D01*
X206793307Y-57556000D01*
X206791928Y-57570000D01*
X206791928Y-57570000D01*
G37*
X206791928Y-57570000D02*
X206795000Y-58134250D01*
X206953750Y-58293000D01*
X208153000Y-58293000D01*
X208153000Y-58273000D01*
X208407000Y-58273000D01*
X208407000Y-58293000D01*
X208427000Y-58293000D01*
X208427000Y-58547000D01*
X208407000Y-58547000D01*
X208407000Y-59746250D01*
X208565750Y-59905000D01*
X209130000Y-59908072D01*
X209254482Y-59895812D01*
X209374180Y-59859502D01*
X209484494Y-59800537D01*
X209581185Y-59721185D01*
X209660537Y-59624494D01*
X209719502Y-59514180D01*
X209740393Y-59445313D01*
X209764866Y-59475134D01*
X209802698Y-59506182D01*
X209804000Y-59519402D01*
X209804001Y-62959158D01*
X209772000Y-62991160D01*
X209741033Y-62985000D01*
X209418967Y-62985000D01*
X209103088Y-63047832D01*
X208805537Y-63171082D01*
X208537748Y-63350013D01*
X208310013Y-63577748D01*
X208292472Y-63604000D01*
X205867528Y-63604000D01*
X205849987Y-63577748D01*
X205622252Y-63350013D01*
X205354463Y-63171082D01*
X205056912Y-63047832D01*
X204741033Y-62985000D01*
X204418967Y-62985000D01*
X204103088Y-63047832D01*
X203805537Y-63171082D01*
X203537748Y-63350013D01*
X203435194Y-63452567D01*
X202879499Y-62896872D01*
X202847683Y-62858104D01*
X202692977Y-62731140D01*
X202516474Y-62636798D01*
X202324958Y-62578702D01*
X202175689Y-62564000D01*
X202125787Y-62559085D01*
X202075885Y-62564000D01*
X181231902Y-62564000D01*
X181182000Y-62559085D01*
X181132098Y-62564000D01*
X180840841Y-62564000D01*
X180684238Y-62407397D01*
X180911034Y-62338599D01*
X181169014Y-62200706D01*
X181395134Y-62015134D01*
X181580706Y-61789014D01*
X181610000Y-61734209D01*
X181639294Y-61789014D01*
X181824866Y-62015134D01*
X182050986Y-62200706D01*
X182308966Y-62338599D01*
X182588889Y-62423513D01*
X182807050Y-62445000D01*
X182952950Y-62445000D01*
X183171111Y-62423513D01*
X183451034Y-62338599D01*
X183709014Y-62200706D01*
X183935134Y-62015134D01*
X184120706Y-61789014D01*
X184150000Y-61734209D01*
X184179294Y-61789014D01*
X184364866Y-62015134D01*
X184590986Y-62200706D01*
X184848966Y-62338599D01*
X185128889Y-62423513D01*
X185347050Y-62445000D01*
X185492950Y-62445000D01*
X185711111Y-62423513D01*
X185991034Y-62338599D01*
X186249014Y-62200706D01*
X186475134Y-62015134D01*
X186660706Y-61789014D01*
X186690000Y-61734209D01*
X186719294Y-61789014D01*
X186904866Y-62015134D01*
X187130986Y-62200706D01*
X187388966Y-62338599D01*
X187668889Y-62423513D01*
X187887050Y-62445000D01*
X188032950Y-62445000D01*
X188251111Y-62423513D01*
X188531034Y-62338599D01*
X188789014Y-62200706D01*
X189015134Y-62015134D01*
X189200706Y-61789014D01*
X189230000Y-61734209D01*
X189259294Y-61789014D01*
X189444866Y-62015134D01*
X189670986Y-62200706D01*
X189928966Y-62338599D01*
X190208889Y-62423513D01*
X190427050Y-62445000D01*
X190572950Y-62445000D01*
X190791111Y-62423513D01*
X191071034Y-62338599D01*
X191329014Y-62200706D01*
X191555134Y-62015134D01*
X191740706Y-61789014D01*
X191770000Y-61734209D01*
X191799294Y-61789014D01*
X191984866Y-62015134D01*
X192210986Y-62200706D01*
X192468966Y-62338599D01*
X192748889Y-62423513D01*
X192967050Y-62445000D01*
X193112950Y-62445000D01*
X193331111Y-62423513D01*
X193611034Y-62338599D01*
X193869014Y-62200706D01*
X194095134Y-62015134D01*
X194280706Y-61789014D01*
X194310000Y-61734209D01*
X194339294Y-61789014D01*
X194524866Y-62015134D01*
X194750986Y-62200706D01*
X195008966Y-62338599D01*
X195288889Y-62423513D01*
X195507050Y-62445000D01*
X195652950Y-62445000D01*
X195871111Y-62423513D01*
X196151034Y-62338599D01*
X196409014Y-62200706D01*
X196635134Y-62015134D01*
X196820706Y-61789014D01*
X196850000Y-61734209D01*
X196879294Y-61789014D01*
X197064866Y-62015134D01*
X197290986Y-62200706D01*
X197548966Y-62338599D01*
X197828889Y-62423513D01*
X198047050Y-62445000D01*
X198192950Y-62445000D01*
X198411111Y-62423513D01*
X198691034Y-62338599D01*
X198949014Y-62200706D01*
X199175134Y-62015134D01*
X199360706Y-61789014D01*
X199390000Y-61734209D01*
X199419294Y-61789014D01*
X199604866Y-62015134D01*
X199830986Y-62200706D01*
X200088966Y-62338599D01*
X200368889Y-62423513D01*
X200587050Y-62445000D01*
X200732950Y-62445000D01*
X200951111Y-62423513D01*
X201231034Y-62338599D01*
X201489014Y-62200706D01*
X201715134Y-62015134D01*
X201900706Y-61789014D01*
X201930000Y-61734209D01*
X201959294Y-61789014D01*
X202144866Y-62015134D01*
X202370986Y-62200706D01*
X202628966Y-62338599D01*
X202908889Y-62423513D01*
X203127050Y-62445000D01*
X203272950Y-62445000D01*
X203491111Y-62423513D01*
X203771034Y-62338599D01*
X204029014Y-62200706D01*
X204255134Y-62015134D01*
X204440706Y-61789014D01*
X204578599Y-61531034D01*
X204663513Y-61251111D01*
X204692185Y-60960000D01*
X204663513Y-60668889D01*
X204578599Y-60388966D01*
X204440706Y-60130986D01*
X204255134Y-59904866D01*
X204216000Y-59872750D01*
X204216000Y-59569742D01*
X204283608Y-59487362D01*
X204399789Y-59270000D01*
X206791928Y-59270000D01*
X206804188Y-59394482D01*
X206840498Y-59514180D01*
X206899463Y-59624494D01*
X206978815Y-59721185D01*
X207075506Y-59800537D01*
X207185820Y-59859502D01*
X207305518Y-59895812D01*
X207430000Y-59908072D01*
X207994250Y-59905000D01*
X208153000Y-59746250D01*
X208153000Y-58547000D01*
X206953750Y-58547000D01*
X206795000Y-58705750D01*
X206791928Y-59270000D01*
X204399789Y-59270000D01*
X204402929Y-59264127D01*
X204476407Y-59021903D01*
X204495000Y-58833122D01*
X204495000Y-58006877D01*
X204476407Y-57818096D01*
X204402929Y-57575873D01*
X204392307Y-57556000D01*
X206793307Y-57556000D01*
X206791928Y-57570000D01*
G36*
X168746868Y-57618899D02*
G01*
X168613618Y-57868192D01*
X168531564Y-58138691D01*
X168503857Y-58420000D01*
X168531564Y-58701309D01*
X168613618Y-58971808D01*
X168746868Y-59221101D01*
X168926192Y-59439608D01*
X169144699Y-59618932D01*
X169277658Y-59690000D01*
X169144699Y-59761068D01*
X168926192Y-59940392D01*
X168746868Y-60158899D01*
X168613618Y-60408192D01*
X168531564Y-60678691D01*
X168503857Y-60960000D01*
X168531564Y-61241309D01*
X168613618Y-61511808D01*
X168746868Y-61761101D01*
X168926192Y-61979608D01*
X169144699Y-62158932D01*
X169277658Y-62230000D01*
X169144699Y-62301068D01*
X168926192Y-62480392D01*
X168746868Y-62698899D01*
X168688391Y-62808302D01*
X168686268Y-62797581D01*
X168683543Y-62788778D01*
X168593608Y-62505268D01*
X168570030Y-62450258D01*
X168547248Y-62394983D01*
X168542865Y-62386877D01*
X168399576Y-62126234D01*
X168365788Y-62076887D01*
X168332676Y-62027050D01*
X168326802Y-62019949D01*
X168135616Y-61792104D01*
X168092886Y-61750260D01*
X168050727Y-61707805D01*
X168043586Y-61701981D01*
X167811785Y-61515608D01*
X167761771Y-61482880D01*
X167712138Y-61449402D01*
X167704001Y-61445076D01*
X167440415Y-61307277D01*
X167384959Y-61284872D01*
X167329808Y-61261688D01*
X167320986Y-61259025D01*
X167035655Y-61175047D01*
X166976915Y-61163842D01*
X166918298Y-61151809D01*
X166909126Y-61150910D01*
X166612918Y-61123953D01*
X166553101Y-61124371D01*
X166493284Y-61123953D01*
X166484112Y-61124853D01*
X166188309Y-61155942D01*
X166129712Y-61167971D01*
X166070950Y-61179180D01*
X166062128Y-61181844D01*
X165777997Y-61269798D01*
X165722879Y-61292968D01*
X165667390Y-61315386D01*
X165659254Y-61319713D01*
X165397618Y-61461179D01*
X165348051Y-61494612D01*
X165297972Y-61527383D01*
X165290831Y-61533208D01*
X165061655Y-61722797D01*
X165019514Y-61765234D01*
X164976764Y-61807097D01*
X164970890Y-61814198D01*
X164782904Y-62044692D01*
X164749789Y-62094534D01*
X164716005Y-62143874D01*
X164711622Y-62151981D01*
X164571986Y-62414599D01*
X164549198Y-62469887D01*
X164525626Y-62524883D01*
X164522902Y-62533687D01*
X164436933Y-62818425D01*
X164425310Y-62877125D01*
X164423798Y-62884239D01*
X164324732Y-62698899D01*
X164145408Y-62480392D01*
X163926901Y-62301068D01*
X163793942Y-62230000D01*
X163926901Y-62158932D01*
X164145408Y-61979608D01*
X164324732Y-61761101D01*
X164457982Y-61511808D01*
X164540036Y-61241309D01*
X164567743Y-60960000D01*
X164540036Y-60678691D01*
X164457982Y-60408192D01*
X164324732Y-60158899D01*
X164145408Y-59940392D01*
X164032318Y-59847581D01*
X164050282Y-59845812D01*
X164169980Y-59809502D01*
X164280294Y-59750537D01*
X164376985Y-59671185D01*
X164456337Y-59574494D01*
X164515302Y-59464180D01*
X164551612Y-59344482D01*
X164563872Y-59220000D01*
X164560800Y-58705750D01*
X164402050Y-58547000D01*
X162852800Y-58547000D01*
X162852800Y-58567000D01*
X162598800Y-58567000D01*
X162598800Y-58547000D01*
X162578800Y-58547000D01*
X162578800Y-58293000D01*
X162598800Y-58293000D01*
X162598800Y-58273000D01*
X162852800Y-58273000D01*
X162852800Y-58293000D01*
X164402050Y-58293000D01*
X164560800Y-58134250D01*
X164563872Y-57620000D01*
X164557569Y-57556000D01*
X168798488Y-57556000D01*
X168746868Y-57618899D01*
X168746868Y-57618899D01*
G37*
X168746868Y-57618899D02*
X168613618Y-57868192D01*
X168531564Y-58138691D01*
X168503857Y-58420000D01*
X168531564Y-58701309D01*
X168613618Y-58971808D01*
X168746868Y-59221101D01*
X168926192Y-59439608D01*
X169144699Y-59618932D01*
X169277658Y-59690000D01*
X169144699Y-59761068D01*
X168926192Y-59940392D01*
X168746868Y-60158899D01*
X168613618Y-60408192D01*
X168531564Y-60678691D01*
X168503857Y-60960000D01*
X168531564Y-61241309D01*
X168613618Y-61511808D01*
X168746868Y-61761101D01*
X168926192Y-61979608D01*
X169144699Y-62158932D01*
X169277658Y-62230000D01*
X169144699Y-62301068D01*
X168926192Y-62480392D01*
X168746868Y-62698899D01*
X168688391Y-62808302D01*
X168686268Y-62797581D01*
X168683543Y-62788778D01*
X168593608Y-62505268D01*
X168570030Y-62450258D01*
X168547248Y-62394983D01*
X168542865Y-62386877D01*
X168399576Y-62126234D01*
X168365788Y-62076887D01*
X168332676Y-62027050D01*
X168326802Y-62019949D01*
X168135616Y-61792104D01*
X168092886Y-61750260D01*
X168050727Y-61707805D01*
X168043586Y-61701981D01*
X167811785Y-61515608D01*
X167761771Y-61482880D01*
X167712138Y-61449402D01*
X167704001Y-61445076D01*
X167440415Y-61307277D01*
X167384959Y-61284872D01*
X167329808Y-61261688D01*
X167320986Y-61259025D01*
X167035655Y-61175047D01*
X166976915Y-61163842D01*
X166918298Y-61151809D01*
X166909126Y-61150910D01*
X166612918Y-61123953D01*
X166553101Y-61124371D01*
X166493284Y-61123953D01*
X166484112Y-61124853D01*
X166188309Y-61155942D01*
X166129712Y-61167971D01*
X166070950Y-61179180D01*
X166062128Y-61181844D01*
X165777997Y-61269798D01*
X165722879Y-61292968D01*
X165667390Y-61315386D01*
X165659254Y-61319713D01*
X165397618Y-61461179D01*
X165348051Y-61494612D01*
X165297972Y-61527383D01*
X165290831Y-61533208D01*
X165061655Y-61722797D01*
X165019514Y-61765234D01*
X164976764Y-61807097D01*
X164970890Y-61814198D01*
X164782904Y-62044692D01*
X164749789Y-62094534D01*
X164716005Y-62143874D01*
X164711622Y-62151981D01*
X164571986Y-62414599D01*
X164549198Y-62469887D01*
X164525626Y-62524883D01*
X164522902Y-62533687D01*
X164436933Y-62818425D01*
X164425310Y-62877125D01*
X164423798Y-62884239D01*
X164324732Y-62698899D01*
X164145408Y-62480392D01*
X163926901Y-62301068D01*
X163793942Y-62230000D01*
X163926901Y-62158932D01*
X164145408Y-61979608D01*
X164324732Y-61761101D01*
X164457982Y-61511808D01*
X164540036Y-61241309D01*
X164567743Y-60960000D01*
X164540036Y-60678691D01*
X164457982Y-60408192D01*
X164324732Y-60158899D01*
X164145408Y-59940392D01*
X164032318Y-59847581D01*
X164050282Y-59845812D01*
X164169980Y-59809502D01*
X164280294Y-59750537D01*
X164376985Y-59671185D01*
X164456337Y-59574494D01*
X164515302Y-59464180D01*
X164551612Y-59344482D01*
X164563872Y-59220000D01*
X164560800Y-58705750D01*
X164402050Y-58547000D01*
X162852800Y-58547000D01*
X162852800Y-58567000D01*
X162598800Y-58567000D01*
X162598800Y-58547000D01*
X162578800Y-58547000D01*
X162578800Y-58293000D01*
X162598800Y-58293000D01*
X162598800Y-58273000D01*
X162852800Y-58273000D01*
X162852800Y-58293000D01*
X164402050Y-58293000D01*
X164560800Y-58134250D01*
X164563872Y-57620000D01*
X164557569Y-57556000D01*
X168798488Y-57556000D01*
X168746868Y-57618899D01*
M02*
