G04 #@! TF.GenerationSoftware,KiCad,Pcbnew,(5.1.4)-1*
G04 #@! TF.CreationDate,2019-11-22T14:09:29+01:00*
G04 #@! TF.ProjectId,ArtNetNode1.3,4172744e-6574-44e6-9f64-65312e332e6b,rev?*
G04 #@! TF.SameCoordinates,Original*
G04 #@! TF.FileFunction,Legend,Bot*
G04 #@! TF.FilePolarity,Positive*
%FSLAX46Y46*%
G04 Gerber Fmt 4.6, Leading zero omitted, Abs format (unit mm)*
G04 Created by KiCad (PCBNEW (5.1.4)-1) date 2019-11-22 14:09:29*
%MOMM*%
%LPD*%
G04 APERTURE LIST*
%ADD10C,0.150000*%
%ADD11C,0.120000*%
G04 APERTURE END LIST*
D10*
X176694619Y-70392486D02*
X176681151Y-70473299D01*
X176610440Y-70544009D01*
X176506058Y-70581048D01*
X176391574Y-70560845D01*
X176300660Y-70517072D01*
X176142403Y-70405955D01*
X176041387Y-70304940D01*
X175930271Y-70146683D01*
X175886497Y-70055769D01*
X175866294Y-69941285D01*
X175903333Y-69836902D01*
X175950474Y-69789762D01*
X176054856Y-69752723D01*
X176112098Y-69762825D01*
X176347800Y-69998527D01*
X176253519Y-70092808D01*
X176256887Y-69483349D02*
X176963993Y-70190456D01*
X176539729Y-69200506D01*
X177246836Y-69907613D01*
X176775432Y-68964804D02*
X177482538Y-69671911D01*
X177600390Y-69554060D01*
X177637428Y-69449677D01*
X177617225Y-69335193D01*
X177573452Y-69244280D01*
X177462335Y-69086022D01*
X177361320Y-68985007D01*
X177203063Y-68873890D01*
X177112149Y-68830117D01*
X176997665Y-68809914D01*
X176893283Y-68846953D01*
X176775432Y-68964804D01*
X178938308Y-70756141D02*
X178396193Y-69884043D01*
X179268291Y-70426158D01*
X179076362Y-69338561D02*
X179019120Y-69328459D01*
X178914738Y-69365498D01*
X178867597Y-69412638D01*
X178830558Y-69517021D01*
X178850761Y-69631505D01*
X178894535Y-69722419D01*
X179005652Y-69880676D01*
X179106667Y-69981691D01*
X179264924Y-70092808D01*
X179355838Y-70136581D01*
X179470322Y-70156784D01*
X179574704Y-70119745D01*
X179621845Y-70072605D01*
X179658883Y-69968222D01*
X179648782Y-69910980D01*
X179571337Y-68843586D02*
X179514095Y-68833484D01*
X179409713Y-68870523D01*
X179362572Y-68917664D01*
X179325533Y-69022046D01*
X179345736Y-69136530D01*
X179389509Y-69227444D01*
X179500626Y-69385701D01*
X179601642Y-69486716D01*
X179759899Y-69597833D01*
X179850812Y-69641606D01*
X179965296Y-69661809D01*
X180069679Y-69624770D01*
X180116819Y-69577630D01*
X180153858Y-69473248D01*
X180143757Y-69416006D01*
X181532183Y-70702266D02*
X181969916Y-70264534D01*
X181464839Y-70230862D01*
X181565855Y-70129847D01*
X181599526Y-70028831D01*
X181599526Y-69961488D01*
X181565855Y-69860473D01*
X181397496Y-69692114D01*
X181296481Y-69658442D01*
X181229137Y-69658442D01*
X181128122Y-69692114D01*
X180926091Y-69894144D01*
X180892420Y-69995160D01*
X180892420Y-70062503D01*
X181633198Y-69321725D02*
X181633198Y-69254381D01*
X181565855Y-69254381D01*
X181565855Y-69321725D01*
X181633198Y-69321725D01*
X181565855Y-69254381D01*
X182542335Y-69692114D02*
X182980068Y-69254381D01*
X182474992Y-69220709D01*
X182576007Y-69119694D01*
X182609679Y-69018679D01*
X182609679Y-68951335D01*
X182576007Y-68850320D01*
X182407648Y-68681961D01*
X182306633Y-68648290D01*
X182239290Y-68648290D01*
X182138274Y-68681961D01*
X181936244Y-68883992D01*
X181902572Y-68985007D01*
X181902572Y-69052351D01*
X183182099Y-69052351D02*
X182710694Y-68109542D01*
X183653503Y-68580946D01*
X184314619Y-70392486D02*
X184301151Y-70473299D01*
X184230440Y-70544009D01*
X184126058Y-70581048D01*
X184011574Y-70560845D01*
X183920660Y-70517072D01*
X183762403Y-70405955D01*
X183661387Y-70304940D01*
X183550271Y-70146683D01*
X183506497Y-70055769D01*
X183486294Y-69941285D01*
X183523333Y-69836902D01*
X183570474Y-69789762D01*
X183674856Y-69752723D01*
X183732098Y-69762825D01*
X183967800Y-69998527D01*
X183873519Y-70092808D01*
X183876887Y-69483349D02*
X184583993Y-70190456D01*
X184159729Y-69200506D01*
X184866836Y-69907613D01*
X184395432Y-68964804D02*
X185102538Y-69671911D01*
X185220390Y-69554060D01*
X185257428Y-69449677D01*
X185237225Y-69335193D01*
X185193452Y-69244280D01*
X185082335Y-69086022D01*
X184981320Y-68985007D01*
X184823063Y-68873890D01*
X184732149Y-68830117D01*
X184617665Y-68809914D01*
X184513283Y-68846953D01*
X184395432Y-68964804D01*
X189354213Y-70500236D02*
X189421557Y-70432892D01*
X189455229Y-70331877D01*
X189455229Y-70264534D01*
X189421557Y-70163518D01*
X189320542Y-69995160D01*
X189152183Y-69826801D01*
X188983824Y-69725786D01*
X188882809Y-69692114D01*
X188815465Y-69692114D01*
X188714450Y-69725786D01*
X188647107Y-69793129D01*
X188613435Y-69894144D01*
X188613435Y-69961488D01*
X188647107Y-70062503D01*
X188748122Y-70230862D01*
X188916481Y-70399221D01*
X189084839Y-70500236D01*
X189185855Y-70533908D01*
X189253198Y-70533908D01*
X189354213Y-70500236D01*
X191422809Y-69557427D02*
X191018748Y-69961488D01*
X191220778Y-69759457D02*
X191927885Y-70466564D01*
X191759526Y-70432892D01*
X191624839Y-70432892D01*
X191523824Y-70466564D01*
X192769679Y-69624770D02*
X192432961Y-69961488D01*
X192062572Y-69658442D01*
X192129916Y-69658442D01*
X192230931Y-69624770D01*
X192399290Y-69456412D01*
X192432961Y-69355396D01*
X192432961Y-69288053D01*
X192399290Y-69187038D01*
X192230931Y-69018679D01*
X192129916Y-68985007D01*
X192062572Y-68985007D01*
X191961557Y-69018679D01*
X191793198Y-69187038D01*
X191759526Y-69288053D01*
X191759526Y-69355396D01*
X193962809Y-69557427D02*
X193558748Y-69961488D01*
X193760778Y-69759457D02*
X194467885Y-70466564D01*
X194299526Y-70432892D01*
X194164839Y-70432892D01*
X194063824Y-70466564D01*
X194905618Y-70028831D02*
X195343351Y-69591099D01*
X194838274Y-69557427D01*
X194939290Y-69456412D01*
X194972961Y-69355396D01*
X194972961Y-69288053D01*
X194939290Y-69187038D01*
X194770931Y-69018679D01*
X194669916Y-68985007D01*
X194602572Y-68985007D01*
X194501557Y-69018679D01*
X194299526Y-69220709D01*
X194265855Y-69321725D01*
X194265855Y-69389068D01*
X196502809Y-69557427D02*
X196098748Y-69961488D01*
X196300778Y-69759457D02*
X197007885Y-70466564D01*
X196839526Y-70432892D01*
X196704839Y-70432892D01*
X196603824Y-70466564D01*
X197411946Y-69927816D02*
X197479290Y-69927816D01*
X197580305Y-69894144D01*
X197748664Y-69725786D01*
X197782335Y-69624770D01*
X197782335Y-69557427D01*
X197748664Y-69456412D01*
X197681320Y-69389068D01*
X197546633Y-69321725D01*
X196738511Y-69321725D01*
X197176244Y-68883992D01*
X203971286Y-61832301D02*
X204136277Y-61997293D01*
X204577377Y-61697614D02*
X204341675Y-61461912D01*
X203634568Y-62169019D01*
X203870271Y-62404721D01*
X204789509Y-61909746D02*
X204082403Y-62616853D01*
X205072352Y-62192589D01*
X204365245Y-62899696D01*
X199544518Y-61744755D02*
X199042809Y-61916481D01*
X199261675Y-61461912D02*
X198554568Y-62169019D01*
X198743130Y-62357580D01*
X198823942Y-62371049D01*
X198881184Y-62360948D01*
X198972098Y-62317174D01*
X199073113Y-62216159D01*
X199116887Y-62125245D01*
X199126988Y-62068003D01*
X199113519Y-61987191D01*
X198924958Y-61798629D01*
X199699408Y-61966988D02*
X199803790Y-62004027D01*
X199921642Y-62121878D01*
X199935110Y-62202690D01*
X199925009Y-62259932D01*
X199881235Y-62350846D01*
X199813892Y-62418190D01*
X199722978Y-62461963D01*
X199665736Y-62472064D01*
X199584924Y-62458596D01*
X199456971Y-62397987D01*
X199376159Y-62384518D01*
X199318917Y-62394619D01*
X199228003Y-62438393D01*
X199160660Y-62505736D01*
X199116887Y-62596650D01*
X199106785Y-62653892D01*
X199120254Y-62734704D01*
X199238105Y-62852555D01*
X199342487Y-62889594D01*
X199450237Y-63064687D02*
X199733080Y-63347530D01*
X200298765Y-62499002D02*
X199591658Y-63206109D01*
X195997733Y-62152183D02*
X196435465Y-62589916D01*
X196469137Y-62084839D01*
X196570152Y-62185855D01*
X196671168Y-62219526D01*
X196738511Y-62219526D01*
X196839526Y-62185855D01*
X197007885Y-62017496D01*
X197041557Y-61916481D01*
X197041557Y-61849137D01*
X197007885Y-61748122D01*
X196805855Y-61546091D01*
X196704839Y-61512420D01*
X196637496Y-61512420D01*
X194602572Y-61882809D02*
X194198511Y-61478748D01*
X194400542Y-61680778D02*
X193693435Y-62387885D01*
X193727107Y-62219526D01*
X193727107Y-62084839D01*
X193693435Y-61983824D01*
X189101675Y-61461912D02*
X188394568Y-62169019D01*
X188512420Y-62286870D01*
X188616802Y-62323909D01*
X188731286Y-62303706D01*
X188822200Y-62259932D01*
X188980457Y-62148816D01*
X189081472Y-62047800D01*
X189192589Y-61889543D01*
X189236362Y-61798629D01*
X189256565Y-61684145D01*
X189219526Y-61579763D01*
X189101675Y-61461912D01*
X188818832Y-62593283D02*
X189101675Y-62876125D01*
X189667361Y-62027597D02*
X188960254Y-62734704D01*
X190256616Y-62616853D02*
X189754907Y-62788579D01*
X189973774Y-62334010D02*
X189266667Y-63041117D01*
X189455229Y-63229679D01*
X189536041Y-63243148D01*
X189593283Y-63233046D01*
X189684196Y-63189273D01*
X189785212Y-63088257D01*
X189828985Y-62997344D01*
X189839087Y-62940102D01*
X189825618Y-62859290D01*
X189637056Y-62670728D01*
X186777174Y-61812098D02*
X186787276Y-61754856D01*
X186750237Y-61650474D01*
X186703097Y-61603333D01*
X186598714Y-61566294D01*
X186484230Y-61586497D01*
X186393316Y-61630271D01*
X186235059Y-61741387D01*
X186134044Y-61842403D01*
X186022927Y-62000660D01*
X185979154Y-62091574D01*
X185958951Y-62206058D01*
X185995990Y-62310440D01*
X186043130Y-62357580D01*
X186147513Y-62394619D01*
X186204755Y-62384518D01*
X186278832Y-62593283D02*
X186561675Y-62876125D01*
X187127361Y-62027597D02*
X186420254Y-62734704D01*
X187376532Y-62344112D02*
X187480914Y-62381151D01*
X187598765Y-62499002D01*
X187612234Y-62579814D01*
X187602132Y-62637056D01*
X187558359Y-62727970D01*
X187491016Y-62795313D01*
X187400102Y-62839087D01*
X187342860Y-62849188D01*
X187262048Y-62835719D01*
X187134095Y-62775110D01*
X187053283Y-62761642D01*
X186996041Y-62771743D01*
X186905127Y-62815516D01*
X186837784Y-62882860D01*
X186794010Y-62973774D01*
X186783909Y-63031016D01*
X186797377Y-63111828D01*
X186915229Y-63229679D01*
X187019611Y-63266718D01*
X183607513Y-62394619D02*
X183526700Y-62381151D01*
X183455990Y-62310440D01*
X183418951Y-62206058D01*
X183439154Y-62091574D01*
X183482927Y-62000660D01*
X183594044Y-61842403D01*
X183695059Y-61741387D01*
X183853316Y-61630271D01*
X183944230Y-61586497D01*
X184058714Y-61566294D01*
X184163097Y-61603333D01*
X184210237Y-61650474D01*
X184247276Y-61754856D01*
X184237174Y-61812098D01*
X184001472Y-62047800D01*
X183907191Y-61953519D01*
X184516650Y-61956887D02*
X183809543Y-62663993D01*
X184799493Y-62239729D01*
X184092386Y-62946836D01*
X185035195Y-62475432D02*
X184328088Y-63182538D01*
X184445939Y-63300390D01*
X184550322Y-63337428D01*
X184664806Y-63317225D01*
X184755719Y-63273452D01*
X184913977Y-63162335D01*
X185014992Y-63061320D01*
X185126109Y-62903063D01*
X185169882Y-62812149D01*
X185190085Y-62697665D01*
X185153046Y-62593283D01*
X185035195Y-62475432D01*
X180757733Y-62152183D02*
X181195465Y-62589916D01*
X181229137Y-62084839D01*
X181330152Y-62185855D01*
X181431168Y-62219526D01*
X181498511Y-62219526D01*
X181599526Y-62185855D01*
X181767885Y-62017496D01*
X181801557Y-61916481D01*
X181801557Y-61849137D01*
X181767885Y-61748122D01*
X181565855Y-61546091D01*
X181464839Y-61512420D01*
X181397496Y-61512420D01*
X182138274Y-62253198D02*
X182205618Y-62253198D01*
X182205618Y-62185855D01*
X182138274Y-62185855D01*
X182138274Y-62253198D01*
X182205618Y-62185855D01*
X181767885Y-63162335D02*
X182205618Y-63600068D01*
X182239290Y-63094992D01*
X182340305Y-63196007D01*
X182441320Y-63229679D01*
X182508664Y-63229679D01*
X182609679Y-63196007D01*
X182778038Y-63027648D01*
X182811709Y-62926633D01*
X182811709Y-62859290D01*
X182778038Y-62758274D01*
X182576007Y-62556244D01*
X182474992Y-62522572D01*
X182407648Y-62522572D01*
X182407648Y-63802099D02*
X183350457Y-63330694D01*
X182879053Y-64273503D01*
X178163858Y-62098308D02*
X179035956Y-61556193D01*
X178493841Y-62428291D01*
X179581438Y-62236362D02*
X179591540Y-62179120D01*
X179554501Y-62074738D01*
X179507361Y-62027597D01*
X179402978Y-61990558D01*
X179288494Y-62010761D01*
X179197580Y-62054535D01*
X179039323Y-62165652D01*
X178938308Y-62266667D01*
X178827191Y-62424924D01*
X178783418Y-62515838D01*
X178763215Y-62630322D01*
X178800254Y-62734704D01*
X178847394Y-62781845D01*
X178951777Y-62818883D01*
X179009019Y-62808782D01*
X180076413Y-62731337D02*
X180086515Y-62674095D01*
X180049476Y-62569713D01*
X180002335Y-62522572D01*
X179897953Y-62485533D01*
X179783469Y-62505736D01*
X179692555Y-62549509D01*
X179534298Y-62660626D01*
X179433283Y-62761642D01*
X179322166Y-62919899D01*
X179278393Y-63010812D01*
X179258190Y-63125296D01*
X179295229Y-63229679D01*
X179342369Y-63276819D01*
X179446751Y-63313858D01*
X179503993Y-63303757D01*
X201211071Y-64108571D02*
X201068214Y-64156190D01*
X201020595Y-64203809D01*
X200972976Y-64299047D01*
X200972976Y-64441904D01*
X201020595Y-64537142D01*
X201068214Y-64584761D01*
X201163452Y-64632380D01*
X201544404Y-64632380D01*
X201544404Y-63632380D01*
X201211071Y-63632380D01*
X201115833Y-63680000D01*
X201068214Y-63727619D01*
X201020595Y-63822857D01*
X201020595Y-63918095D01*
X201068214Y-64013333D01*
X201115833Y-64060952D01*
X201211071Y-64108571D01*
X201544404Y-64108571D01*
X200544404Y-64632380D02*
X200544404Y-63965714D01*
X200544404Y-64156190D02*
X200496785Y-64060952D01*
X200449166Y-64013333D01*
X200353928Y-63965714D01*
X200258690Y-63965714D01*
X199925357Y-64632380D02*
X199925357Y-63965714D01*
X199925357Y-63632380D02*
X199972976Y-63680000D01*
X199925357Y-63727619D01*
X199877738Y-63680000D01*
X199925357Y-63632380D01*
X199925357Y-63727619D01*
X199020595Y-64632380D02*
X199020595Y-63632380D01*
X199020595Y-64584761D02*
X199115833Y-64632380D01*
X199306309Y-64632380D01*
X199401547Y-64584761D01*
X199449166Y-64537142D01*
X199496785Y-64441904D01*
X199496785Y-64156190D01*
X199449166Y-64060952D01*
X199401547Y-64013333D01*
X199306309Y-63965714D01*
X199115833Y-63965714D01*
X199020595Y-64013333D01*
X198115833Y-63965714D02*
X198115833Y-64775238D01*
X198163452Y-64870476D01*
X198211071Y-64918095D01*
X198306309Y-64965714D01*
X198449166Y-64965714D01*
X198544404Y-64918095D01*
X198115833Y-64584761D02*
X198211071Y-64632380D01*
X198401547Y-64632380D01*
X198496785Y-64584761D01*
X198544404Y-64537142D01*
X198592023Y-64441904D01*
X198592023Y-64156190D01*
X198544404Y-64060952D01*
X198496785Y-64013333D01*
X198401547Y-63965714D01*
X198211071Y-63965714D01*
X198115833Y-64013333D01*
X197258690Y-64584761D02*
X197353928Y-64632380D01*
X197544404Y-64632380D01*
X197639642Y-64584761D01*
X197687261Y-64489523D01*
X197687261Y-64108571D01*
X197639642Y-64013333D01*
X197544404Y-63965714D01*
X197353928Y-63965714D01*
X197258690Y-64013333D01*
X197211071Y-64108571D01*
X197211071Y-64203809D01*
X197687261Y-64299047D01*
X201401547Y-67932380D02*
X201496785Y-67884761D01*
X201544404Y-67837142D01*
X201592023Y-67741904D01*
X201592023Y-67456190D01*
X201544404Y-67360952D01*
X201496785Y-67313333D01*
X201401547Y-67265714D01*
X201258690Y-67265714D01*
X201163452Y-67313333D01*
X201115833Y-67360952D01*
X201068214Y-67456190D01*
X201068214Y-67741904D01*
X201115833Y-67837142D01*
X201163452Y-67884761D01*
X201258690Y-67932380D01*
X201401547Y-67932380D01*
X200639642Y-67932380D02*
X200639642Y-67265714D01*
X200639642Y-67456190D02*
X200592023Y-67360952D01*
X200544404Y-67313333D01*
X200449166Y-67265714D01*
X200353928Y-67265714D01*
X198830119Y-67884761D02*
X198925357Y-67932380D01*
X199115833Y-67932380D01*
X199211071Y-67884761D01*
X199258690Y-67837142D01*
X199306309Y-67741904D01*
X199306309Y-67456190D01*
X199258690Y-67360952D01*
X199211071Y-67313333D01*
X199115833Y-67265714D01*
X198925357Y-67265714D01*
X198830119Y-67313333D01*
X198258690Y-67932380D02*
X198353928Y-67884761D01*
X198401547Y-67837142D01*
X198449166Y-67741904D01*
X198449166Y-67456190D01*
X198401547Y-67360952D01*
X198353928Y-67313333D01*
X198258690Y-67265714D01*
X198115833Y-67265714D01*
X198020595Y-67313333D01*
X197972976Y-67360952D01*
X197925357Y-67456190D01*
X197925357Y-67741904D01*
X197972976Y-67837142D01*
X198020595Y-67884761D01*
X198115833Y-67932380D01*
X198258690Y-67932380D01*
X197496785Y-67265714D02*
X197496785Y-67932380D01*
X197496785Y-67360952D02*
X197449166Y-67313333D01*
X197353928Y-67265714D01*
X197211071Y-67265714D01*
X197115833Y-67313333D01*
X197068214Y-67408571D01*
X197068214Y-67932380D01*
X196592023Y-67265714D02*
X196592023Y-67932380D01*
X196592023Y-67360952D02*
X196544404Y-67313333D01*
X196449166Y-67265714D01*
X196306309Y-67265714D01*
X196211071Y-67313333D01*
X196163452Y-67408571D01*
X196163452Y-67932380D01*
X195306309Y-67884761D02*
X195401547Y-67932380D01*
X195592023Y-67932380D01*
X195687261Y-67884761D01*
X195734880Y-67789523D01*
X195734880Y-67408571D01*
X195687261Y-67313333D01*
X195592023Y-67265714D01*
X195401547Y-67265714D01*
X195306309Y-67313333D01*
X195258690Y-67408571D01*
X195258690Y-67503809D01*
X195734880Y-67599047D01*
X194401547Y-67884761D02*
X194496785Y-67932380D01*
X194687261Y-67932380D01*
X194782500Y-67884761D01*
X194830119Y-67837142D01*
X194877738Y-67741904D01*
X194877738Y-67456190D01*
X194830119Y-67360952D01*
X194782500Y-67313333D01*
X194687261Y-67265714D01*
X194496785Y-67265714D01*
X194401547Y-67313333D01*
X194115833Y-67265714D02*
X193734880Y-67265714D01*
X193972976Y-66932380D02*
X193972976Y-67789523D01*
X193925357Y-67884761D01*
X193830119Y-67932380D01*
X193734880Y-67932380D01*
X192639642Y-66932380D02*
X192639642Y-67741904D01*
X192592023Y-67837142D01*
X192544404Y-67884761D01*
X192449166Y-67932380D01*
X192258690Y-67932380D01*
X192163452Y-67884761D01*
X192115833Y-67837142D01*
X192068214Y-67741904D01*
X192068214Y-66932380D01*
X191068214Y-67932380D02*
X191639642Y-67932380D01*
X191353928Y-67932380D02*
X191353928Y-66932380D01*
X191449166Y-67075238D01*
X191544404Y-67170476D01*
X191639642Y-67218095D01*
D11*
X200820000Y-66970000D02*
G75*
G03X201520000Y-66270000I0J700000D01*
G01*
X201520000Y-65670000D02*
G75*
G03X200820000Y-64970000I-700000J0D01*
G01*
X199420000Y-64970000D02*
G75*
G03X198720000Y-65670000I0J-700000D01*
G01*
X198720000Y-66270000D02*
G75*
G03X199420000Y-66970000I700000J0D01*
G01*
X198720000Y-65670000D02*
X198720000Y-66270000D01*
X200820000Y-64970000D02*
X199420000Y-64970000D01*
X201520000Y-66270000D02*
X201520000Y-65670000D01*
X199420000Y-66970000D02*
X200820000Y-66970000D01*
D10*
X208301428Y-59819047D02*
X208301428Y-60580952D01*
X210841428Y-59779047D02*
X210841428Y-60540952D01*
X211222380Y-60160000D02*
X210460476Y-60160000D01*
X198977809Y-69422427D02*
X198573748Y-69826488D01*
X198775778Y-69624457D02*
X199482885Y-70331564D01*
X199314526Y-70297892D01*
X199179839Y-70297892D01*
X199078824Y-70331564D01*
X200055305Y-69287740D02*
X199583900Y-68816335D01*
X200156320Y-69725473D02*
X199482885Y-69388755D01*
X199920618Y-68951022D01*
X175860513Y-62267619D02*
X175779700Y-62254151D01*
X175708990Y-62183440D01*
X175671951Y-62079058D01*
X175692154Y-61964574D01*
X175735927Y-61873660D01*
X175847044Y-61715403D01*
X175948059Y-61614387D01*
X176106316Y-61503271D01*
X176197230Y-61459497D01*
X176311714Y-61439294D01*
X176416097Y-61476333D01*
X176463237Y-61523474D01*
X176500276Y-61627856D01*
X176490174Y-61685098D01*
X176254472Y-61920800D01*
X176160191Y-61826519D01*
X176769650Y-61829887D02*
X176062543Y-62536993D01*
X177052493Y-62112729D01*
X176345386Y-62819836D01*
X177288195Y-62348432D02*
X176581088Y-63055538D01*
X176698939Y-63173390D01*
X176803322Y-63210428D01*
X176917806Y-63190225D01*
X177008719Y-63146452D01*
X177166977Y-63035335D01*
X177267992Y-62934320D01*
X177379109Y-62776063D01*
X177422882Y-62685149D01*
X177443085Y-62570665D01*
X177406046Y-62466283D01*
X177288195Y-62348432D01*
X197593333Y-65462380D02*
X197593333Y-66176666D01*
X197640952Y-66319523D01*
X197736190Y-66414761D01*
X197879047Y-66462380D01*
X197974285Y-66462380D01*
X197117142Y-66462380D02*
X197117142Y-65462380D01*
X196736190Y-65462380D01*
X196640952Y-65510000D01*
X196593333Y-65557619D01*
X196545714Y-65652857D01*
X196545714Y-65795714D01*
X196593333Y-65890952D01*
X196640952Y-65938571D01*
X196736190Y-65986190D01*
X197117142Y-65986190D01*
X195593333Y-66462380D02*
X196164761Y-66462380D01*
X195879047Y-66462380D02*
X195879047Y-65462380D01*
X195974285Y-65605238D01*
X196069523Y-65700476D01*
X196164761Y-65748095D01*
M02*
