G04 #@! TF.GenerationSoftware,KiCad,Pcbnew,(5.1.4)-1*
G04 #@! TF.CreationDate,2019-11-22T14:09:29+01:00*
G04 #@! TF.ProjectId,ArtNetNode1.3,4172744e-6574-44e6-9f64-65312e332e6b,rev?*
G04 #@! TF.SameCoordinates,Original*
G04 #@! TF.FileFunction,Legend,Top*
G04 #@! TF.FilePolarity,Positive*
%FSLAX46Y46*%
G04 Gerber Fmt 4.6, Leading zero omitted, Abs format (unit mm)*
G04 Created by KiCad (PCBNEW (5.1.4)-1) date 2019-11-22 14:09:29*
%MOMM*%
%LPD*%
G04 APERTURE LIST*
%ADD10C,0.150000*%
%ADD11C,0.120000*%
G04 APERTURE END LIST*
D10*
X172426380Y-73354285D02*
X173426380Y-73163809D01*
X172712095Y-73011428D01*
X173426380Y-72859047D01*
X172426380Y-72668571D01*
X173378761Y-72401904D02*
X173426380Y-72287619D01*
X173426380Y-72097142D01*
X173378761Y-72020952D01*
X173331142Y-71982857D01*
X173235904Y-71944761D01*
X173140666Y-71944761D01*
X173045428Y-71982857D01*
X172997809Y-72020952D01*
X172950190Y-72097142D01*
X172902571Y-72249523D01*
X172854952Y-72325714D01*
X172807333Y-72363809D01*
X172712095Y-72401904D01*
X172616857Y-72401904D01*
X172521619Y-72363809D01*
X172474000Y-72325714D01*
X172426380Y-72249523D01*
X172426380Y-72059047D01*
X172474000Y-71944761D01*
X172521619Y-71640000D02*
X172474000Y-71601904D01*
X172426380Y-71525714D01*
X172426380Y-71335238D01*
X172474000Y-71259047D01*
X172521619Y-71220952D01*
X172616857Y-71182857D01*
X172712095Y-71182857D01*
X172854952Y-71220952D01*
X173426380Y-71678095D01*
X173426380Y-71182857D01*
X172854952Y-70725714D02*
X172807333Y-70801904D01*
X172759714Y-70840000D01*
X172664476Y-70878095D01*
X172616857Y-70878095D01*
X172521619Y-70840000D01*
X172474000Y-70801904D01*
X172426380Y-70725714D01*
X172426380Y-70573333D01*
X172474000Y-70497142D01*
X172521619Y-70459047D01*
X172616857Y-70420952D01*
X172664476Y-70420952D01*
X172759714Y-70459047D01*
X172807333Y-70497142D01*
X172854952Y-70573333D01*
X172854952Y-70725714D01*
X172902571Y-70801904D01*
X172950190Y-70840000D01*
X173045428Y-70878095D01*
X173235904Y-70878095D01*
X173331142Y-70840000D01*
X173378761Y-70801904D01*
X173426380Y-70725714D01*
X173426380Y-70573333D01*
X173378761Y-70497142D01*
X173331142Y-70459047D01*
X173235904Y-70420952D01*
X173045428Y-70420952D01*
X172950190Y-70459047D01*
X172902571Y-70497142D01*
X172854952Y-70573333D01*
X173331142Y-70078095D02*
X173378761Y-70040000D01*
X173426380Y-70078095D01*
X173378761Y-70116190D01*
X173331142Y-70078095D01*
X173426380Y-70078095D01*
X173331142Y-69697142D02*
X173378761Y-69659047D01*
X173426380Y-69697142D01*
X173378761Y-69735238D01*
X173331142Y-69697142D01*
X173426380Y-69697142D01*
X173140666Y-68744761D02*
X173140666Y-68363809D01*
X173426380Y-68820952D02*
X172426380Y-68554285D01*
X173426380Y-68287619D01*
X173426380Y-68020952D02*
X172759714Y-68020952D01*
X172950190Y-68020952D02*
X172854952Y-67982857D01*
X172807333Y-67944761D01*
X172759714Y-67868571D01*
X172759714Y-67792380D01*
X172759714Y-67640000D02*
X172759714Y-67335238D01*
X172426380Y-67525714D02*
X173283523Y-67525714D01*
X173378761Y-67487619D01*
X173426380Y-67411428D01*
X173426380Y-67335238D01*
X172759714Y-67068571D02*
X173426380Y-67068571D01*
X172854952Y-67068571D02*
X172807333Y-67030476D01*
X172759714Y-66954285D01*
X172759714Y-66840000D01*
X172807333Y-66763809D01*
X172902571Y-66725714D01*
X173426380Y-66725714D01*
X173378761Y-66040000D02*
X173426380Y-66116190D01*
X173426380Y-66268571D01*
X173378761Y-66344761D01*
X173283523Y-66382857D01*
X172902571Y-66382857D01*
X172807333Y-66344761D01*
X172759714Y-66268571D01*
X172759714Y-66116190D01*
X172807333Y-66040000D01*
X172902571Y-66001904D01*
X172997809Y-66001904D01*
X173093047Y-66382857D01*
X172759714Y-65773333D02*
X172759714Y-65468571D01*
X172426380Y-65659047D02*
X173283523Y-65659047D01*
X173378761Y-65620952D01*
X173426380Y-65544761D01*
X173426380Y-65468571D01*
X173426380Y-64592380D02*
X172426380Y-64592380D01*
X173426380Y-64135238D01*
X172426380Y-64135238D01*
X173426380Y-63640000D02*
X173378761Y-63716190D01*
X173331142Y-63754285D01*
X173235904Y-63792380D01*
X172950190Y-63792380D01*
X172854952Y-63754285D01*
X172807333Y-63716190D01*
X172759714Y-63640000D01*
X172759714Y-63525714D01*
X172807333Y-63449523D01*
X172854952Y-63411428D01*
X172950190Y-63373333D01*
X173235904Y-63373333D01*
X173331142Y-63411428D01*
X173378761Y-63449523D01*
X173426380Y-63525714D01*
X173426380Y-63640000D01*
X173426380Y-62687619D02*
X172426380Y-62687619D01*
X173378761Y-62687619D02*
X173426380Y-62763809D01*
X173426380Y-62916190D01*
X173378761Y-62992380D01*
X173331142Y-63030476D01*
X173235904Y-63068571D01*
X172950190Y-63068571D01*
X172854952Y-63030476D01*
X172807333Y-62992380D01*
X172759714Y-62916190D01*
X172759714Y-62763809D01*
X172807333Y-62687619D01*
X173378761Y-62001904D02*
X173426380Y-62078095D01*
X173426380Y-62230476D01*
X173378761Y-62306666D01*
X173283523Y-62344761D01*
X172902571Y-62344761D01*
X172807333Y-62306666D01*
X172759714Y-62230476D01*
X172759714Y-62078095D01*
X172807333Y-62001904D01*
X172902571Y-61963809D01*
X172997809Y-61963809D01*
X173093047Y-62344761D01*
X172426380Y-61125714D02*
X173426380Y-60859047D01*
X172426380Y-60592380D01*
X173426380Y-59906666D02*
X173426380Y-60363809D01*
X173426380Y-60135238D02*
X172426380Y-60135238D01*
X172569238Y-60211428D01*
X172664476Y-60287619D01*
X172712095Y-60363809D01*
X173331142Y-59563809D02*
X173378761Y-59525714D01*
X173426380Y-59563809D01*
X173378761Y-59601904D01*
X173331142Y-59563809D01*
X173426380Y-59563809D01*
X172426380Y-59259047D02*
X172426380Y-58763809D01*
X172807333Y-59030476D01*
X172807333Y-58916190D01*
X172854952Y-58840000D01*
X172902571Y-58801904D01*
X172997809Y-58763809D01*
X173235904Y-58763809D01*
X173331142Y-58801904D01*
X173378761Y-58840000D01*
X173426380Y-58916190D01*
X173426380Y-59144761D01*
X173378761Y-59220952D01*
X173331142Y-59259047D01*
D11*
X212100000Y-61620000D02*
X212100000Y-70270000D01*
X212100000Y-70270000D02*
X202100000Y-70270000D01*
X212100000Y-61620000D02*
X202100000Y-61620000D01*
X202100000Y-61620000D02*
X202100000Y-70270000D01*
X222530000Y-62040000D02*
G75*
G03X222530000Y-62040000I-5120000J0D01*
G01*
X222490000Y-62040000D02*
X212330000Y-62040000D01*
X222490000Y-62080000D02*
X212330000Y-62080000D01*
X222490000Y-62120000D02*
X212330000Y-62120000D01*
X222489000Y-62160000D02*
X212331000Y-62160000D01*
X222488000Y-62200000D02*
X212332000Y-62200000D01*
X222487000Y-62240000D02*
X212333000Y-62240000D01*
X222485000Y-62280000D02*
X212335000Y-62280000D01*
X222483000Y-62320000D02*
X212337000Y-62320000D01*
X222480000Y-62360000D02*
X212340000Y-62360000D01*
X222478000Y-62400000D02*
X212342000Y-62400000D01*
X222475000Y-62440000D02*
X212345000Y-62440000D01*
X222472000Y-62480000D02*
X212348000Y-62480000D01*
X222468000Y-62520000D02*
X212352000Y-62520000D01*
X222464000Y-62560000D02*
X212356000Y-62560000D01*
X222460000Y-62600000D02*
X212360000Y-62600000D01*
X222455000Y-62640000D02*
X212365000Y-62640000D01*
X222450000Y-62680000D02*
X212370000Y-62680000D01*
X222445000Y-62720000D02*
X212375000Y-62720000D01*
X222440000Y-62761000D02*
X212380000Y-62761000D01*
X222434000Y-62801000D02*
X212386000Y-62801000D01*
X222428000Y-62841000D02*
X212392000Y-62841000D01*
X222421000Y-62881000D02*
X212399000Y-62881000D01*
X222414000Y-62921000D02*
X212406000Y-62921000D01*
X222407000Y-62961000D02*
X212413000Y-62961000D01*
X222400000Y-63001000D02*
X212420000Y-63001000D01*
X222392000Y-63041000D02*
X212428000Y-63041000D01*
X222384000Y-63081000D02*
X212436000Y-63081000D01*
X222375000Y-63121000D02*
X212445000Y-63121000D01*
X222366000Y-63161000D02*
X212454000Y-63161000D01*
X222357000Y-63201000D02*
X212463000Y-63201000D01*
X222348000Y-63241000D02*
X212472000Y-63241000D01*
X222338000Y-63281000D02*
X212482000Y-63281000D01*
X222328000Y-63321000D02*
X218651000Y-63321000D01*
X216169000Y-63321000D02*
X212492000Y-63321000D01*
X222317000Y-63361000D02*
X218651000Y-63361000D01*
X216169000Y-63361000D02*
X212503000Y-63361000D01*
X222307000Y-63401000D02*
X218651000Y-63401000D01*
X216169000Y-63401000D02*
X212513000Y-63401000D01*
X222295000Y-63441000D02*
X218651000Y-63441000D01*
X216169000Y-63441000D02*
X212525000Y-63441000D01*
X222284000Y-63481000D02*
X218651000Y-63481000D01*
X216169000Y-63481000D02*
X212536000Y-63481000D01*
X222272000Y-63521000D02*
X218651000Y-63521000D01*
X216169000Y-63521000D02*
X212548000Y-63521000D01*
X222260000Y-63561000D02*
X218651000Y-63561000D01*
X216169000Y-63561000D02*
X212560000Y-63561000D01*
X222247000Y-63601000D02*
X218651000Y-63601000D01*
X216169000Y-63601000D02*
X212573000Y-63601000D01*
X222234000Y-63641000D02*
X218651000Y-63641000D01*
X216169000Y-63641000D02*
X212586000Y-63641000D01*
X222221000Y-63681000D02*
X218651000Y-63681000D01*
X216169000Y-63681000D02*
X212599000Y-63681000D01*
X222207000Y-63721000D02*
X218651000Y-63721000D01*
X216169000Y-63721000D02*
X212613000Y-63721000D01*
X222193000Y-63761000D02*
X218651000Y-63761000D01*
X216169000Y-63761000D02*
X212627000Y-63761000D01*
X222178000Y-63801000D02*
X218651000Y-63801000D01*
X216169000Y-63801000D02*
X212642000Y-63801000D01*
X222164000Y-63841000D02*
X218651000Y-63841000D01*
X216169000Y-63841000D02*
X212656000Y-63841000D01*
X222148000Y-63881000D02*
X218651000Y-63881000D01*
X216169000Y-63881000D02*
X212672000Y-63881000D01*
X222133000Y-63921000D02*
X218651000Y-63921000D01*
X216169000Y-63921000D02*
X212687000Y-63921000D01*
X222117000Y-63961000D02*
X218651000Y-63961000D01*
X216169000Y-63961000D02*
X212703000Y-63961000D01*
X222100000Y-64001000D02*
X218651000Y-64001000D01*
X216169000Y-64001000D02*
X212720000Y-64001000D01*
X222084000Y-64041000D02*
X218651000Y-64041000D01*
X216169000Y-64041000D02*
X212736000Y-64041000D01*
X222067000Y-64081000D02*
X218651000Y-64081000D01*
X216169000Y-64081000D02*
X212753000Y-64081000D01*
X222049000Y-64121000D02*
X218651000Y-64121000D01*
X216169000Y-64121000D02*
X212771000Y-64121000D01*
X222031000Y-64161000D02*
X218651000Y-64161000D01*
X216169000Y-64161000D02*
X212789000Y-64161000D01*
X222013000Y-64201000D02*
X218651000Y-64201000D01*
X216169000Y-64201000D02*
X212807000Y-64201000D01*
X221994000Y-64241000D02*
X218651000Y-64241000D01*
X216169000Y-64241000D02*
X212826000Y-64241000D01*
X221974000Y-64281000D02*
X218651000Y-64281000D01*
X216169000Y-64281000D02*
X212846000Y-64281000D01*
X221955000Y-64321000D02*
X218651000Y-64321000D01*
X216169000Y-64321000D02*
X212865000Y-64321000D01*
X221935000Y-64361000D02*
X218651000Y-64361000D01*
X216169000Y-64361000D02*
X212885000Y-64361000D01*
X221914000Y-64401000D02*
X218651000Y-64401000D01*
X216169000Y-64401000D02*
X212906000Y-64401000D01*
X221893000Y-64441000D02*
X218651000Y-64441000D01*
X216169000Y-64441000D02*
X212927000Y-64441000D01*
X221872000Y-64481000D02*
X218651000Y-64481000D01*
X216169000Y-64481000D02*
X212948000Y-64481000D01*
X221850000Y-64521000D02*
X218651000Y-64521000D01*
X216169000Y-64521000D02*
X212970000Y-64521000D01*
X221827000Y-64561000D02*
X218651000Y-64561000D01*
X216169000Y-64561000D02*
X212993000Y-64561000D01*
X221805000Y-64601000D02*
X218651000Y-64601000D01*
X216169000Y-64601000D02*
X213015000Y-64601000D01*
X221781000Y-64641000D02*
X218651000Y-64641000D01*
X216169000Y-64641000D02*
X213039000Y-64641000D01*
X221757000Y-64681000D02*
X218651000Y-64681000D01*
X216169000Y-64681000D02*
X213063000Y-64681000D01*
X221733000Y-64721000D02*
X218651000Y-64721000D01*
X216169000Y-64721000D02*
X213087000Y-64721000D01*
X221708000Y-64761000D02*
X218651000Y-64761000D01*
X216169000Y-64761000D02*
X213112000Y-64761000D01*
X221683000Y-64801000D02*
X218651000Y-64801000D01*
X216169000Y-64801000D02*
X213137000Y-64801000D01*
X221657000Y-64841000D02*
X218651000Y-64841000D01*
X216169000Y-64841000D02*
X213163000Y-64841000D01*
X221631000Y-64881000D02*
X218651000Y-64881000D01*
X216169000Y-64881000D02*
X213189000Y-64881000D01*
X221604000Y-64921000D02*
X218651000Y-64921000D01*
X216169000Y-64921000D02*
X213216000Y-64921000D01*
X221576000Y-64961000D02*
X218651000Y-64961000D01*
X216169000Y-64961000D02*
X213244000Y-64961000D01*
X221548000Y-65001000D02*
X218651000Y-65001000D01*
X216169000Y-65001000D02*
X213272000Y-65001000D01*
X221520000Y-65041000D02*
X218651000Y-65041000D01*
X216169000Y-65041000D02*
X213300000Y-65041000D01*
X221490000Y-65081000D02*
X218651000Y-65081000D01*
X216169000Y-65081000D02*
X213330000Y-65081000D01*
X221460000Y-65121000D02*
X218651000Y-65121000D01*
X216169000Y-65121000D02*
X213360000Y-65121000D01*
X221430000Y-65161000D02*
X218651000Y-65161000D01*
X216169000Y-65161000D02*
X213390000Y-65161000D01*
X221399000Y-65201000D02*
X218651000Y-65201000D01*
X216169000Y-65201000D02*
X213421000Y-65201000D01*
X221367000Y-65241000D02*
X218651000Y-65241000D01*
X216169000Y-65241000D02*
X213453000Y-65241000D01*
X221335000Y-65281000D02*
X218651000Y-65281000D01*
X216169000Y-65281000D02*
X213485000Y-65281000D01*
X221302000Y-65321000D02*
X218651000Y-65321000D01*
X216169000Y-65321000D02*
X213518000Y-65321000D01*
X221268000Y-65361000D02*
X218651000Y-65361000D01*
X216169000Y-65361000D02*
X213552000Y-65361000D01*
X221234000Y-65401000D02*
X218651000Y-65401000D01*
X216169000Y-65401000D02*
X213586000Y-65401000D01*
X221199000Y-65441000D02*
X218651000Y-65441000D01*
X216169000Y-65441000D02*
X213621000Y-65441000D01*
X221163000Y-65481000D02*
X218651000Y-65481000D01*
X216169000Y-65481000D02*
X213657000Y-65481000D01*
X221126000Y-65521000D02*
X218651000Y-65521000D01*
X216169000Y-65521000D02*
X213694000Y-65521000D01*
X221089000Y-65561000D02*
X218651000Y-65561000D01*
X216169000Y-65561000D02*
X213731000Y-65561000D01*
X221050000Y-65601000D02*
X218651000Y-65601000D01*
X216169000Y-65601000D02*
X213770000Y-65601000D01*
X221011000Y-65641000D02*
X218651000Y-65641000D01*
X216169000Y-65641000D02*
X213809000Y-65641000D01*
X220971000Y-65681000D02*
X218651000Y-65681000D01*
X216169000Y-65681000D02*
X213849000Y-65681000D01*
X220930000Y-65721000D02*
X218651000Y-65721000D01*
X216169000Y-65721000D02*
X213890000Y-65721000D01*
X220888000Y-65761000D02*
X218651000Y-65761000D01*
X216169000Y-65761000D02*
X213932000Y-65761000D01*
X220846000Y-65801000D02*
X213974000Y-65801000D01*
X220802000Y-65841000D02*
X214018000Y-65841000D01*
X220757000Y-65881000D02*
X214063000Y-65881000D01*
X220711000Y-65921000D02*
X214109000Y-65921000D01*
X220664000Y-65961000D02*
X214156000Y-65961000D01*
X220616000Y-66001000D02*
X214204000Y-66001000D01*
X220566000Y-66041000D02*
X214254000Y-66041000D01*
X220516000Y-66081000D02*
X214304000Y-66081000D01*
X220464000Y-66121000D02*
X214356000Y-66121000D01*
X220410000Y-66161000D02*
X214410000Y-66161000D01*
X220355000Y-66201000D02*
X214465000Y-66201000D01*
X220299000Y-66241000D02*
X214521000Y-66241000D01*
X220240000Y-66281000D02*
X214580000Y-66281000D01*
X220180000Y-66321000D02*
X214640000Y-66321000D01*
X220119000Y-66361000D02*
X214701000Y-66361000D01*
X220055000Y-66401000D02*
X214765000Y-66401000D01*
X219989000Y-66441000D02*
X214831000Y-66441000D01*
X219920000Y-66481000D02*
X214900000Y-66481000D01*
X219849000Y-66521000D02*
X214971000Y-66521000D01*
X219775000Y-66561000D02*
X215045000Y-66561000D01*
X219699000Y-66601000D02*
X215121000Y-66601000D01*
X219619000Y-66641000D02*
X215201000Y-66641000D01*
X219535000Y-66681000D02*
X215285000Y-66681000D01*
X219447000Y-66721000D02*
X215373000Y-66721000D01*
X219354000Y-66761000D02*
X215466000Y-66761000D01*
X219256000Y-66801000D02*
X215564000Y-66801000D01*
X219152000Y-66841000D02*
X215668000Y-66841000D01*
X219040000Y-66881000D02*
X215780000Y-66881000D01*
X218920000Y-66921000D02*
X215900000Y-66921000D01*
X218788000Y-66961000D02*
X216032000Y-66961000D01*
X218640000Y-67001000D02*
X216180000Y-67001000D01*
X218472000Y-67041000D02*
X216348000Y-67041000D01*
X218272000Y-67081000D02*
X216548000Y-67081000D01*
X218009000Y-67121000D02*
X216811000Y-67121000D01*
X221785000Y-57460354D02*
X221785000Y-58460354D01*
X222285000Y-57960354D02*
X221285000Y-57960354D01*
X160770000Y-75040000D02*
X211770000Y-75040000D01*
X160770000Y-75040000D02*
X160770000Y-57040000D01*
X160770000Y-57040000D02*
X211770000Y-57040000D01*
X211770000Y-75040000D02*
X211770000Y-57040000D01*
X220944000Y-74362000D02*
X220944000Y-75412000D01*
X221994000Y-75412000D02*
X220944000Y-75412000D01*
X227044000Y-66012000D02*
X235844000Y-66012000D01*
X235844000Y-66012000D02*
X235844000Y-75212000D01*
X221144000Y-68712000D02*
X221144000Y-66012000D01*
X221144000Y-66012000D02*
X223044000Y-66012000D01*
X235844000Y-75212000D02*
X221144000Y-75212000D01*
X221144000Y-75212000D02*
X221144000Y-72612000D01*
X186633800Y-64957600D02*
X186633800Y-64627600D01*
X186633800Y-64627600D02*
X193173800Y-64627600D01*
X193173800Y-64627600D02*
X193173800Y-64957600D01*
X186633800Y-67037600D02*
X186633800Y-67367600D01*
X186633800Y-67367600D02*
X193173800Y-67367600D01*
X193173800Y-67367600D02*
X193173800Y-67037600D01*
X167535800Y-57090000D02*
G75*
G02X165535800Y-57090000I-1000000J0D01*
G01*
X165535800Y-57090000D02*
X164285800Y-57090000D01*
X164285800Y-57090000D02*
X164285800Y-74990000D01*
X164285800Y-74990000D02*
X168785800Y-74990000D01*
X168785800Y-74990000D02*
X168785800Y-57090000D01*
X168785800Y-57090000D02*
X167535800Y-57090000D01*
X161285800Y-57030000D02*
X161285800Y-75050000D01*
X161285800Y-75050000D02*
X171785800Y-75050000D01*
X171785800Y-75050000D02*
X171785800Y-57030000D01*
X171785800Y-57030000D02*
X161285800Y-57030000D01*
D10*
X209486666Y-71072380D02*
X209486666Y-71786666D01*
X209439047Y-71929523D01*
X209343809Y-72024761D01*
X209200952Y-72072380D01*
X209105714Y-72072380D01*
X210486666Y-72072380D02*
X209915238Y-72072380D01*
X210200952Y-72072380D02*
X210200952Y-71072380D01*
X210105714Y-71215238D01*
X210010476Y-71310476D01*
X209915238Y-71358095D01*
X200499523Y-62592380D02*
X200023333Y-62592380D01*
X199975714Y-63068571D01*
X200023333Y-63020952D01*
X200118571Y-62973333D01*
X200356666Y-62973333D01*
X200451904Y-63020952D01*
X200499523Y-63068571D01*
X200547142Y-63163809D01*
X200547142Y-63401904D01*
X200499523Y-63497142D01*
X200451904Y-63544761D01*
X200356666Y-63592380D01*
X200118571Y-63592380D01*
X200023333Y-63544761D01*
X199975714Y-63497142D01*
X200832857Y-62592380D02*
X201166190Y-63592380D01*
X201499523Y-62592380D01*
X198437619Y-66212380D02*
X198437619Y-65212380D01*
X198675714Y-65212380D01*
X198818571Y-65260000D01*
X198913809Y-65355238D01*
X198961428Y-65450476D01*
X199009047Y-65640952D01*
X199009047Y-65783809D01*
X198961428Y-65974285D01*
X198913809Y-66069523D01*
X198818571Y-66164761D01*
X198675714Y-66212380D01*
X198437619Y-66212380D01*
X199580476Y-66212380D02*
X199485238Y-66164761D01*
X199437619Y-66117142D01*
X199390000Y-66021904D01*
X199390000Y-65736190D01*
X199437619Y-65640952D01*
X199485238Y-65593333D01*
X199580476Y-65545714D01*
X199723333Y-65545714D01*
X199818571Y-65593333D01*
X199866190Y-65640952D01*
X199913809Y-65736190D01*
X199913809Y-66021904D01*
X199866190Y-66117142D01*
X199818571Y-66164761D01*
X199723333Y-66212380D01*
X199580476Y-66212380D01*
X200770952Y-65545714D02*
X200770952Y-66212380D01*
X200342380Y-65545714D02*
X200342380Y-66069523D01*
X200390000Y-66164761D01*
X200485238Y-66212380D01*
X200628095Y-66212380D01*
X200723333Y-66164761D01*
X200770952Y-66117142D01*
X201104285Y-65545714D02*
X201485238Y-65545714D01*
X201247142Y-65212380D02*
X201247142Y-66069523D01*
X201294761Y-66164761D01*
X201390000Y-66212380D01*
X201485238Y-66212380D01*
X199398095Y-68350000D02*
X199302857Y-68302380D01*
X199160000Y-68302380D01*
X199017142Y-68350000D01*
X198921904Y-68445238D01*
X198874285Y-68540476D01*
X198826666Y-68730952D01*
X198826666Y-68873809D01*
X198874285Y-69064285D01*
X198921904Y-69159523D01*
X199017142Y-69254761D01*
X199160000Y-69302380D01*
X199255238Y-69302380D01*
X199398095Y-69254761D01*
X199445714Y-69207142D01*
X199445714Y-68873809D01*
X199255238Y-68873809D01*
X199874285Y-69302380D02*
X199874285Y-68302380D01*
X200445714Y-69302380D01*
X200445714Y-68302380D01*
X200921904Y-69302380D02*
X200921904Y-68302380D01*
X201160000Y-68302380D01*
X201302857Y-68350000D01*
X201398095Y-68445238D01*
X201445714Y-68540476D01*
X201493333Y-68730952D01*
X201493333Y-68873809D01*
X201445714Y-69064285D01*
X201398095Y-69159523D01*
X201302857Y-69254761D01*
X201160000Y-69302380D01*
X200921904Y-69302380D01*
X217332233Y-68787142D02*
X217284614Y-68834761D01*
X217141757Y-68882380D01*
X217046519Y-68882380D01*
X216903661Y-68834761D01*
X216808423Y-68739523D01*
X216760804Y-68644285D01*
X216713185Y-68453809D01*
X216713185Y-68310952D01*
X216760804Y-68120476D01*
X216808423Y-68025238D01*
X216903661Y-67930000D01*
X217046519Y-67882380D01*
X217141757Y-67882380D01*
X217284614Y-67930000D01*
X217332233Y-67977619D01*
X218284614Y-68882380D02*
X217713185Y-68882380D01*
X217998900Y-68882380D02*
X217998900Y-67882380D01*
X217903661Y-68025238D01*
X217808423Y-68120476D01*
X217713185Y-68168095D01*
X182312380Y-66661904D02*
X181312380Y-66661904D01*
X181788571Y-66661904D02*
X181788571Y-66090476D01*
X182312380Y-66090476D02*
X181312380Y-66090476D01*
X181407619Y-65661904D02*
X181360000Y-65614285D01*
X181312380Y-65519047D01*
X181312380Y-65280952D01*
X181360000Y-65185714D01*
X181407619Y-65138095D01*
X181502857Y-65090476D01*
X181598095Y-65090476D01*
X181740952Y-65138095D01*
X182312380Y-65709523D01*
X182312380Y-65090476D01*
X204816666Y-74082380D02*
X204816666Y-73082380D01*
X205150000Y-73796666D01*
X205483333Y-73082380D01*
X205483333Y-74082380D01*
X206530952Y-73987142D02*
X206483333Y-74034761D01*
X206340476Y-74082380D01*
X206245238Y-74082380D01*
X206102380Y-74034761D01*
X206007142Y-73939523D01*
X205959523Y-73844285D01*
X205911904Y-73653809D01*
X205911904Y-73510952D01*
X205959523Y-73320476D01*
X206007142Y-73225238D01*
X206102380Y-73130000D01*
X206245238Y-73082380D01*
X206340476Y-73082380D01*
X206483333Y-73130000D01*
X206530952Y-73177619D01*
X206959523Y-73082380D02*
X206959523Y-73891904D01*
X207007142Y-73987142D01*
X207054761Y-74034761D01*
X207150000Y-74082380D01*
X207340476Y-74082380D01*
X207435714Y-74034761D01*
X207483333Y-73987142D01*
X207530952Y-73891904D01*
X207530952Y-73082380D01*
X208530952Y-74082380D02*
X207959523Y-74082380D01*
X208245238Y-74082380D02*
X208245238Y-73082380D01*
X208150000Y-73225238D01*
X208054761Y-73320476D01*
X207959523Y-73368095D01*
X219527380Y-72516904D02*
X218527380Y-72516904D01*
X219003571Y-72516904D02*
X219003571Y-71945476D01*
X219527380Y-71945476D02*
X218527380Y-71945476D01*
X218527380Y-71564523D02*
X218527380Y-70945476D01*
X218908333Y-71278809D01*
X218908333Y-71135952D01*
X218955952Y-71040714D01*
X219003571Y-70993095D01*
X219098809Y-70945476D01*
X219336904Y-70945476D01*
X219432142Y-70993095D01*
X219479761Y-71040714D01*
X219527380Y-71135952D01*
X219527380Y-71421666D01*
X219479761Y-71516904D01*
X219432142Y-71564523D01*
X222448380Y-61721904D02*
X221448380Y-61721904D01*
X221924571Y-61721904D02*
X221924571Y-61150476D01*
X222448380Y-61150476D02*
X221448380Y-61150476D01*
X222448380Y-60150476D02*
X222448380Y-60721904D01*
X222448380Y-60436190D02*
X221448380Y-60436190D01*
X221591238Y-60531428D01*
X221686476Y-60626666D01*
X221734095Y-60721904D01*
X228072666Y-64158880D02*
X228072666Y-64873166D01*
X228025047Y-65016023D01*
X227929809Y-65111261D01*
X227786952Y-65158880D01*
X227691714Y-65158880D01*
X228501238Y-64254119D02*
X228548857Y-64206500D01*
X228644095Y-64158880D01*
X228882190Y-64158880D01*
X228977428Y-64206500D01*
X229025047Y-64254119D01*
X229072666Y-64349357D01*
X229072666Y-64444595D01*
X229025047Y-64587452D01*
X228453619Y-65158880D01*
X229072666Y-65158880D01*
X190130833Y-63935380D02*
X189797500Y-63459190D01*
X189559404Y-63935380D02*
X189559404Y-62935380D01*
X189940357Y-62935380D01*
X190035595Y-62983000D01*
X190083214Y-63030619D01*
X190130833Y-63125857D01*
X190130833Y-63268714D01*
X190083214Y-63363952D01*
X190035595Y-63411571D01*
X189940357Y-63459190D01*
X189559404Y-63459190D01*
X191083214Y-63935380D02*
X190511785Y-63935380D01*
X190797500Y-63935380D02*
X190797500Y-62935380D01*
X190702261Y-63078238D01*
X190607023Y-63173476D01*
X190511785Y-63221095D01*
X165938095Y-59072380D02*
X165938095Y-59881904D01*
X165985714Y-59977142D01*
X166033333Y-60024761D01*
X166128571Y-60072380D01*
X166319047Y-60072380D01*
X166414285Y-60024761D01*
X166461904Y-59977142D01*
X166509523Y-59881904D01*
X166509523Y-59072380D01*
X167509523Y-60072380D02*
X166938095Y-60072380D01*
X167223809Y-60072380D02*
X167223809Y-59072380D01*
X167128571Y-59215238D01*
X167033333Y-59310476D01*
X166938095Y-59358095D01*
M02*
