G04 #@! TF.GenerationSoftware,KiCad,Pcbnew,(5.1.4)-1*
G04 #@! TF.CreationDate,2019-11-22T13:16:02+01:00*
G04 #@! TF.ProjectId,ArtNetNode1.2,4172744e-6574-44e6-9f64-65312e322e6b,rev?*
G04 #@! TF.SameCoordinates,Original*
G04 #@! TF.FileFunction,Copper,L2,Bot*
G04 #@! TF.FilePolarity,Positive*
%FSLAX46Y46*%
G04 Gerber Fmt 4.6, Leading zero omitted, Abs format (unit mm)*
G04 Created by KiCad (PCBNEW (5.1.4)-1) date 2019-11-22 13:16:02*
%MOMM*%
%LPD*%
G04 APERTURE LIST*
%ADD10C,0.150000*%
%ADD11C,2.000000*%
%ADD12R,2.000000X2.000000*%
%ADD13C,1.500000*%
%ADD14O,1.700000X1.700000*%
%ADD15R,1.700000X1.700000*%
%ADD16C,5.600000*%
%ADD17O,1.300000X2.000000*%
%ADD18R,1.300000X2.000000*%
%ADD19C,1.700000*%
%ADD20R,3.500000X3.500000*%
%ADD21C,0.100000*%
%ADD22C,3.000000*%
%ADD23C,3.500000*%
%ADD24C,1.600000*%
%ADD25O,1.600000X1.600000*%
%ADD26R,2.400000X1.600000*%
%ADD27O,2.400000X1.600000*%
%ADD28C,0.500000*%
%ADD29C,0.800000*%
%ADD30C,0.508000*%
%ADD31C,0.762000*%
%ADD32C,0.254000*%
G04 APERTURE END LIST*
D10*
X186746870Y-70096175D02*
X186275465Y-69624770D01*
X186847885Y-70533908D02*
X186174450Y-70197190D01*
X186612183Y-69759457D01*
X201582809Y-69557427D02*
X201178748Y-69961488D01*
X201380778Y-69759457D02*
X202087885Y-70466564D01*
X201919526Y-70432892D01*
X201784839Y-70432892D01*
X201683824Y-70466564D01*
X202896007Y-69658442D02*
X202761320Y-69793129D01*
X202660305Y-69826801D01*
X202592961Y-69826801D01*
X202424603Y-69793129D01*
X202256244Y-69692114D01*
X201986870Y-69422740D01*
X201953198Y-69321725D01*
X201953198Y-69254381D01*
X201986870Y-69153366D01*
X202121557Y-69018679D01*
X202222572Y-68985007D01*
X202289916Y-68985007D01*
X202390931Y-69018679D01*
X202559290Y-69187038D01*
X202592961Y-69288053D01*
X202592961Y-69355396D01*
X202559290Y-69456412D01*
X202424603Y-69591099D01*
X202323587Y-69624770D01*
X202256244Y-69624770D01*
X202155229Y-69591099D01*
X201178748Y-62118511D02*
X201178748Y-62185855D01*
X201212420Y-62286870D01*
X201380778Y-62455229D01*
X201481794Y-62488900D01*
X201549137Y-62488900D01*
X201650152Y-62455229D01*
X201717496Y-62387885D01*
X201784839Y-62253198D01*
X201784839Y-61445076D01*
X202222572Y-61882809D01*
X191321794Y-62556244D02*
X190985076Y-62219526D01*
X191288122Y-61849137D01*
X191288122Y-61916481D01*
X191321794Y-62017496D01*
X191490152Y-62185855D01*
X191591168Y-62219526D01*
X191658511Y-62219526D01*
X191759526Y-62185855D01*
X191927885Y-62017496D01*
X191961557Y-61916481D01*
X191961557Y-61849137D01*
X191927885Y-61748122D01*
X191759526Y-61579763D01*
X191658511Y-61546091D01*
X191591168Y-61546091D01*
D11*
X209580000Y-64620000D03*
X209580000Y-67120000D03*
D12*
X209580000Y-69620000D03*
D13*
X204580000Y-69620000D03*
D11*
X204580000Y-67120000D03*
X204580000Y-64620000D03*
D12*
X217259600Y-59546000D03*
D11*
X217259600Y-64546000D03*
D14*
X210820000Y-58420000D03*
D15*
X208280000Y-58420000D03*
D16*
X177800000Y-66040000D03*
D17*
X193050000Y-58420000D03*
X195590000Y-58420000D03*
X190510000Y-58420000D03*
X177810000Y-58420000D03*
X180350000Y-58420000D03*
D18*
X182890000Y-58420000D03*
D17*
X187970000Y-58420000D03*
X185430000Y-58420000D03*
X185430000Y-73660000D03*
X187970000Y-73660000D03*
X200670000Y-58420000D03*
X190510000Y-73660000D03*
X193050000Y-73660000D03*
X203210000Y-73660000D03*
X195590000Y-73660000D03*
X203210000Y-58420000D03*
X200670000Y-73660000D03*
D18*
X175270000Y-58420000D03*
D17*
X198130000Y-73660000D03*
X198130000Y-58420000D03*
D18*
X182890000Y-73660000D03*
D17*
X180350000Y-73660000D03*
X177810000Y-73660000D03*
D18*
X175270000Y-73660000D03*
D14*
X203200000Y-60960000D03*
X200660000Y-60960000D03*
X198120000Y-60960000D03*
X195580000Y-60960000D03*
X193040000Y-60960000D03*
X190500000Y-60960000D03*
X187960000Y-60960000D03*
X185420000Y-60960000D03*
X182880000Y-60960000D03*
X180340000Y-60960000D03*
X177800000Y-60960000D03*
D19*
X175260000Y-60960000D03*
D14*
X175260000Y-71120000D03*
X177800000Y-71120000D03*
X180340000Y-71120000D03*
X182880000Y-71120000D03*
X185420000Y-71120000D03*
X187960000Y-71120000D03*
X190500000Y-71120000D03*
X193040000Y-71120000D03*
X195580000Y-71120000D03*
X198120000Y-71120000D03*
X200660000Y-71120000D03*
D19*
X203200000Y-71120000D03*
D16*
X215265000Y-71755000D03*
X226060000Y-60960000D03*
D20*
X222044000Y-70612000D03*
D21*
G36*
X228867513Y-68865611D02*
G01*
X228940318Y-68876411D01*
X229011714Y-68894295D01*
X229081013Y-68919090D01*
X229147548Y-68950559D01*
X229210678Y-68988398D01*
X229269795Y-69032242D01*
X229324330Y-69081670D01*
X229373758Y-69136205D01*
X229417602Y-69195322D01*
X229455441Y-69258452D01*
X229486910Y-69324987D01*
X229511705Y-69394286D01*
X229529589Y-69465682D01*
X229540389Y-69538487D01*
X229544000Y-69612000D01*
X229544000Y-71612000D01*
X229540389Y-71685513D01*
X229529589Y-71758318D01*
X229511705Y-71829714D01*
X229486910Y-71899013D01*
X229455441Y-71965548D01*
X229417602Y-72028678D01*
X229373758Y-72087795D01*
X229324330Y-72142330D01*
X229269795Y-72191758D01*
X229210678Y-72235602D01*
X229147548Y-72273441D01*
X229081013Y-72304910D01*
X229011714Y-72329705D01*
X228940318Y-72347589D01*
X228867513Y-72358389D01*
X228794000Y-72362000D01*
X227294000Y-72362000D01*
X227220487Y-72358389D01*
X227147682Y-72347589D01*
X227076286Y-72329705D01*
X227006987Y-72304910D01*
X226940452Y-72273441D01*
X226877322Y-72235602D01*
X226818205Y-72191758D01*
X226763670Y-72142330D01*
X226714242Y-72087795D01*
X226670398Y-72028678D01*
X226632559Y-71965548D01*
X226601090Y-71899013D01*
X226576295Y-71829714D01*
X226558411Y-71758318D01*
X226547611Y-71685513D01*
X226544000Y-71612000D01*
X226544000Y-69612000D01*
X226547611Y-69538487D01*
X226558411Y-69465682D01*
X226576295Y-69394286D01*
X226601090Y-69324987D01*
X226632559Y-69258452D01*
X226670398Y-69195322D01*
X226714242Y-69136205D01*
X226763670Y-69081670D01*
X226818205Y-69032242D01*
X226877322Y-68988398D01*
X226940452Y-68950559D01*
X227006987Y-68919090D01*
X227076286Y-68894295D01*
X227147682Y-68876411D01*
X227220487Y-68865611D01*
X227294000Y-68862000D01*
X228794000Y-68862000D01*
X228867513Y-68865611D01*
X228867513Y-68865611D01*
G37*
D22*
X228044000Y-70612000D03*
D21*
G36*
X226004765Y-64166213D02*
G01*
X226089704Y-64178813D01*
X226172999Y-64199677D01*
X226253848Y-64228605D01*
X226331472Y-64265319D01*
X226405124Y-64309464D01*
X226474094Y-64360616D01*
X226537718Y-64418282D01*
X226595384Y-64481906D01*
X226646536Y-64550876D01*
X226690681Y-64624528D01*
X226727395Y-64702152D01*
X226756323Y-64783001D01*
X226777187Y-64866296D01*
X226789787Y-64951235D01*
X226794000Y-65037000D01*
X226794000Y-66787000D01*
X226789787Y-66872765D01*
X226777187Y-66957704D01*
X226756323Y-67040999D01*
X226727395Y-67121848D01*
X226690681Y-67199472D01*
X226646536Y-67273124D01*
X226595384Y-67342094D01*
X226537718Y-67405718D01*
X226474094Y-67463384D01*
X226405124Y-67514536D01*
X226331472Y-67558681D01*
X226253848Y-67595395D01*
X226172999Y-67624323D01*
X226089704Y-67645187D01*
X226004765Y-67657787D01*
X225919000Y-67662000D01*
X224169000Y-67662000D01*
X224083235Y-67657787D01*
X223998296Y-67645187D01*
X223915001Y-67624323D01*
X223834152Y-67595395D01*
X223756528Y-67558681D01*
X223682876Y-67514536D01*
X223613906Y-67463384D01*
X223550282Y-67405718D01*
X223492616Y-67342094D01*
X223441464Y-67273124D01*
X223397319Y-67199472D01*
X223360605Y-67121848D01*
X223331677Y-67040999D01*
X223310813Y-66957704D01*
X223298213Y-66872765D01*
X223294000Y-66787000D01*
X223294000Y-65037000D01*
X223298213Y-64951235D01*
X223310813Y-64866296D01*
X223331677Y-64783001D01*
X223360605Y-64702152D01*
X223397319Y-64624528D01*
X223441464Y-64550876D01*
X223492616Y-64481906D01*
X223550282Y-64418282D01*
X223613906Y-64360616D01*
X223682876Y-64309464D01*
X223756528Y-64265319D01*
X223834152Y-64228605D01*
X223915001Y-64199677D01*
X223998296Y-64178813D01*
X224083235Y-64166213D01*
X224169000Y-64162000D01*
X225919000Y-64162000D01*
X226004765Y-64166213D01*
X226004765Y-64166213D01*
G37*
D23*
X225044000Y-65912000D03*
D24*
X186093800Y-65997600D03*
D25*
X193713800Y-65997600D03*
D26*
X162725800Y-58420000D03*
D27*
X170345800Y-73660000D03*
X162725800Y-60960000D03*
X170345800Y-71120000D03*
X162725800Y-63500000D03*
X170345800Y-68580000D03*
X162725800Y-66040000D03*
X170345800Y-66040000D03*
X162725800Y-68580000D03*
X170345800Y-63500000D03*
X162725800Y-71120000D03*
X170345800Y-60960000D03*
X162725800Y-73660000D03*
X170345800Y-58420000D03*
D28*
X199470000Y-65970000D03*
D21*
G36*
X199970000Y-66720000D02*
G01*
X199470000Y-66720000D01*
X199470000Y-66719398D01*
X199445466Y-66719398D01*
X199396635Y-66714588D01*
X199348510Y-66705016D01*
X199301555Y-66690772D01*
X199256222Y-66671995D01*
X199212949Y-66648864D01*
X199172150Y-66621604D01*
X199134221Y-66590476D01*
X199099524Y-66555779D01*
X199068396Y-66517850D01*
X199041136Y-66477051D01*
X199018005Y-66433778D01*
X198999228Y-66388445D01*
X198984984Y-66341490D01*
X198975412Y-66293365D01*
X198970602Y-66244534D01*
X198970602Y-66220000D01*
X198970000Y-66220000D01*
X198970000Y-65720000D01*
X198970602Y-65720000D01*
X198970602Y-65695466D01*
X198975412Y-65646635D01*
X198984984Y-65598510D01*
X198999228Y-65551555D01*
X199018005Y-65506222D01*
X199041136Y-65462949D01*
X199068396Y-65422150D01*
X199099524Y-65384221D01*
X199134221Y-65349524D01*
X199172150Y-65318396D01*
X199212949Y-65291136D01*
X199256222Y-65268005D01*
X199301555Y-65249228D01*
X199348510Y-65234984D01*
X199396635Y-65225412D01*
X199445466Y-65220602D01*
X199470000Y-65220602D01*
X199470000Y-65220000D01*
X199970000Y-65220000D01*
X199970000Y-66720000D01*
X199970000Y-66720000D01*
G37*
D28*
X200770000Y-65970000D03*
D21*
G36*
X200770000Y-65220602D02*
G01*
X200794534Y-65220602D01*
X200843365Y-65225412D01*
X200891490Y-65234984D01*
X200938445Y-65249228D01*
X200983778Y-65268005D01*
X201027051Y-65291136D01*
X201067850Y-65318396D01*
X201105779Y-65349524D01*
X201140476Y-65384221D01*
X201171604Y-65422150D01*
X201198864Y-65462949D01*
X201221995Y-65506222D01*
X201240772Y-65551555D01*
X201255016Y-65598510D01*
X201264588Y-65646635D01*
X201269398Y-65695466D01*
X201269398Y-65720000D01*
X201270000Y-65720000D01*
X201270000Y-66220000D01*
X201269398Y-66220000D01*
X201269398Y-66244534D01*
X201264588Y-66293365D01*
X201255016Y-66341490D01*
X201240772Y-66388445D01*
X201221995Y-66433778D01*
X201198864Y-66477051D01*
X201171604Y-66517850D01*
X201140476Y-66555779D01*
X201105779Y-66590476D01*
X201067850Y-66621604D01*
X201027051Y-66648864D01*
X200983778Y-66671995D01*
X200938445Y-66690772D01*
X200891490Y-66705016D01*
X200843365Y-66714588D01*
X200794534Y-66719398D01*
X200770000Y-66719398D01*
X200770000Y-66720000D01*
X200270000Y-66720000D01*
X200270000Y-65220000D01*
X200770000Y-65220000D01*
X200770000Y-65220602D01*
X200770000Y-65220602D01*
G37*
D29*
X182626000Y-66548000D03*
X182626000Y-65278000D03*
X183896000Y-66548000D03*
X183896000Y-65278000D03*
D30*
X162725800Y-63483000D02*
X163125800Y-63483000D01*
X186093800Y-67128970D02*
X186093800Y-65997600D01*
X176238079Y-69294001D02*
X185858102Y-69294001D01*
X186093800Y-69058303D02*
X186093800Y-67128970D01*
X162725800Y-63500000D02*
X163125800Y-63500000D01*
X174466733Y-67522655D02*
X176238079Y-69294001D01*
X163125800Y-63500000D02*
X165329376Y-61296424D01*
X165329376Y-61296424D02*
X168496424Y-61296424D01*
X174466733Y-65447496D02*
X174466733Y-67522655D01*
X168496424Y-61296424D02*
X169445990Y-62245990D01*
X185858102Y-69294001D02*
X186093800Y-69058303D01*
X169445990Y-62245990D02*
X171265227Y-62245990D01*
X171265227Y-62245990D02*
X174466733Y-65447496D01*
X186216431Y-67251601D02*
X186093800Y-67128970D01*
X197588399Y-67251601D02*
X186216431Y-67251601D01*
X199470000Y-65970000D02*
X198870000Y-65970000D01*
X198870000Y-65970000D02*
X197588399Y-67251601D01*
X174112000Y-73660000D02*
X175270000Y-73660000D01*
X172857990Y-72405990D02*
X174112000Y-73660000D01*
X169426373Y-72405990D02*
X172857990Y-72405990D01*
X168172363Y-73660000D02*
X169426373Y-72405990D01*
X162725800Y-73660000D02*
X168172363Y-73660000D01*
X164433800Y-73660000D02*
X162725800Y-73660000D01*
X164592000Y-73660000D02*
X164433800Y-73660000D01*
X168386010Y-69865990D02*
X164592000Y-73660000D01*
X174005990Y-69865990D02*
X168386010Y-69865990D01*
X175260000Y-71120000D02*
X174005990Y-69865990D01*
D31*
X182118000Y-66040000D02*
X182626000Y-66548000D01*
X177800000Y-66040000D02*
X182118000Y-66040000D01*
X177800000Y-66040000D02*
X179578000Y-66040000D01*
X179578000Y-66040000D02*
X181102000Y-64516000D01*
X181864000Y-64516000D02*
X182626000Y-65278000D01*
X181102000Y-64516000D02*
X181864000Y-64516000D01*
X177800000Y-66040000D02*
X179324000Y-66040000D01*
X181102000Y-67818000D02*
X182626000Y-67818000D01*
X179324000Y-66040000D02*
X181102000Y-67818000D01*
D30*
X200670000Y-58770000D02*
X200670000Y-58420000D01*
X200648000Y-58442000D02*
X200670000Y-58420000D01*
X200648000Y-60054000D02*
X200648000Y-58442000D01*
X200648000Y-61578000D02*
X200648000Y-60054000D01*
X200648000Y-65642000D02*
X200902000Y-65896000D01*
X200648000Y-61578000D02*
X200648000Y-62692000D01*
X192838000Y-62692000D02*
X200648000Y-62692000D01*
X192130000Y-63400000D02*
X192838000Y-62692000D01*
X190670000Y-63400000D02*
X192130000Y-63400000D01*
X163125800Y-60960000D02*
X164411790Y-59674010D01*
X164411790Y-59674010D02*
X171734010Y-59674010D01*
X171734010Y-59674010D02*
X174760000Y-62700000D01*
X174760000Y-62700000D02*
X189970000Y-62700000D01*
X162725800Y-60960000D02*
X163125800Y-60960000D01*
X189970000Y-62700000D02*
X190670000Y-63400000D01*
X200648000Y-62692000D02*
X200648000Y-65970000D01*
D32*
G36*
X206791928Y-57570000D02*
G01*
X206795000Y-58134250D01*
X206953750Y-58293000D01*
X208153000Y-58293000D01*
X208153000Y-58273000D01*
X208407000Y-58273000D01*
X208407000Y-58293000D01*
X208427000Y-58293000D01*
X208427000Y-58547000D01*
X208407000Y-58547000D01*
X208407000Y-59746250D01*
X208565750Y-59905000D01*
X209130000Y-59908072D01*
X209254482Y-59895812D01*
X209374180Y-59859502D01*
X209484494Y-59800537D01*
X209581185Y-59721185D01*
X209660537Y-59624494D01*
X209719502Y-59514180D01*
X209740393Y-59445313D01*
X209764866Y-59475134D01*
X209990986Y-59660706D01*
X210248966Y-59798599D01*
X210528889Y-59883513D01*
X210747050Y-59905000D01*
X210892950Y-59905000D01*
X211111111Y-59883513D01*
X211391034Y-59798599D01*
X211649014Y-59660706D01*
X211875134Y-59475134D01*
X212060706Y-59249014D01*
X212198599Y-58991034D01*
X212283513Y-58711111D01*
X212299775Y-58546000D01*
X215621528Y-58546000D01*
X215621528Y-60546000D01*
X215633788Y-60670482D01*
X215670098Y-60790180D01*
X215729063Y-60900494D01*
X215808415Y-60997185D01*
X215905106Y-61076537D01*
X216015420Y-61135502D01*
X216135118Y-61171812D01*
X216259600Y-61184072D01*
X218259600Y-61184072D01*
X218384082Y-61171812D01*
X218503780Y-61135502D01*
X218614094Y-61076537D01*
X218710785Y-60997185D01*
X218748290Y-60951484D01*
X222608390Y-60951484D01*
X222673051Y-61625023D01*
X222867870Y-62273006D01*
X223185361Y-62870530D01*
X223194823Y-62884692D01*
X223643519Y-63196876D01*
X225880395Y-60960000D01*
X223643519Y-58723124D01*
X223194823Y-59035308D01*
X222874388Y-59631259D01*
X222676374Y-60278273D01*
X222608390Y-60951484D01*
X218748290Y-60951484D01*
X218790137Y-60900494D01*
X218849102Y-60790180D01*
X218885412Y-60670482D01*
X218897672Y-60546000D01*
X218897672Y-58546000D01*
X218885412Y-58421518D01*
X218849102Y-58301820D01*
X218790137Y-58191506D01*
X218710785Y-58094815D01*
X218614094Y-58015463D01*
X218503780Y-57956498D01*
X218384082Y-57920188D01*
X218259600Y-57907928D01*
X216259600Y-57907928D01*
X216135118Y-57920188D01*
X216015420Y-57956498D01*
X215905106Y-58015463D01*
X215808415Y-58094815D01*
X215729063Y-58191506D01*
X215670098Y-58301820D01*
X215633788Y-58421518D01*
X215621528Y-58546000D01*
X212299775Y-58546000D01*
X212312185Y-58420000D01*
X212283513Y-58128889D01*
X212198599Y-57848966D01*
X212060706Y-57590986D01*
X212031994Y-57556000D01*
X225572588Y-57556000D01*
X225394977Y-57573051D01*
X224746994Y-57767870D01*
X224149470Y-58085361D01*
X224135308Y-58094823D01*
X223823124Y-58543519D01*
X226060000Y-60780395D01*
X226074143Y-60766253D01*
X226253748Y-60945858D01*
X226239605Y-60960000D01*
X228476481Y-63196876D01*
X228925177Y-62884692D01*
X229245612Y-62288741D01*
X229443626Y-61641727D01*
X229464000Y-61439973D01*
X229464001Y-68224130D01*
X228329750Y-68227000D01*
X228171000Y-68385750D01*
X228171000Y-70485000D01*
X228191000Y-70485000D01*
X228191000Y-70739000D01*
X228171000Y-70739000D01*
X228171000Y-72838250D01*
X228329750Y-72997000D01*
X229464001Y-72999870D01*
X229464001Y-74524000D01*
X217256608Y-74524000D01*
X217501876Y-74171481D01*
X215265000Y-71934605D01*
X213028124Y-74171481D01*
X213273392Y-74524000D01*
X204392307Y-74524000D01*
X204402929Y-74504127D01*
X204476407Y-74261903D01*
X204495000Y-74073122D01*
X204495000Y-73246877D01*
X204476407Y-73058096D01*
X204402929Y-72815873D01*
X204283608Y-72592638D01*
X204123028Y-72396972D01*
X204050674Y-72337592D01*
X204146632Y-72273475D01*
X204353475Y-72066632D01*
X204515990Y-71823411D01*
X204547854Y-71746484D01*
X211813390Y-71746484D01*
X211878051Y-72420023D01*
X212072870Y-73068006D01*
X212390361Y-73665530D01*
X212399823Y-73679692D01*
X212848519Y-73991876D01*
X215085395Y-71755000D01*
X215444605Y-71755000D01*
X217681481Y-73991876D01*
X218130177Y-73679692D01*
X218450612Y-73083741D01*
X218648626Y-72436727D01*
X218716610Y-71763516D01*
X218651949Y-71089977D01*
X218457130Y-70441994D01*
X218139639Y-69844470D01*
X218130177Y-69830308D01*
X217681481Y-69518124D01*
X215444605Y-71755000D01*
X215085395Y-71755000D01*
X212848519Y-69518124D01*
X212399823Y-69830308D01*
X212079388Y-70426259D01*
X211881374Y-71073273D01*
X211813390Y-71746484D01*
X204547854Y-71746484D01*
X204627932Y-71553158D01*
X204685000Y-71266260D01*
X204685000Y-71004889D01*
X204922238Y-70968965D01*
X205178832Y-70876277D01*
X205291863Y-70815860D01*
X205345590Y-70620000D01*
X207941928Y-70620000D01*
X207954188Y-70744482D01*
X207990498Y-70864180D01*
X208049463Y-70974494D01*
X208128815Y-71071185D01*
X208225506Y-71150537D01*
X208335820Y-71209502D01*
X208455518Y-71245812D01*
X208580000Y-71258072D01*
X209294250Y-71255000D01*
X209453000Y-71096250D01*
X209453000Y-69747000D01*
X209707000Y-69747000D01*
X209707000Y-71096250D01*
X209865750Y-71255000D01*
X210580000Y-71258072D01*
X210704482Y-71245812D01*
X210824180Y-71209502D01*
X210934494Y-71150537D01*
X211031185Y-71071185D01*
X211110537Y-70974494D01*
X211169502Y-70864180D01*
X211205812Y-70744482D01*
X211218072Y-70620000D01*
X211215000Y-69905750D01*
X211056250Y-69747000D01*
X209707000Y-69747000D01*
X209453000Y-69747000D01*
X208103750Y-69747000D01*
X207945000Y-69905750D01*
X207941928Y-70620000D01*
X205345590Y-70620000D01*
X205357388Y-70576993D01*
X204580000Y-69799605D01*
X204565858Y-69813748D01*
X204386253Y-69634143D01*
X204400395Y-69620000D01*
X204759605Y-69620000D01*
X205536993Y-70397388D01*
X205775860Y-70331863D01*
X205891760Y-70084884D01*
X205957250Y-69820040D01*
X205969812Y-69547508D01*
X205928965Y-69277762D01*
X205836277Y-69021168D01*
X205775860Y-68908137D01*
X205536993Y-68842612D01*
X204759605Y-69620000D01*
X204400395Y-69620000D01*
X203623007Y-68842612D01*
X203492351Y-68878453D01*
X202116843Y-67502945D01*
X199765882Y-69853907D01*
X199809172Y-69897197D01*
X199604866Y-70064866D01*
X199419294Y-70290986D01*
X199390000Y-70345791D01*
X199360706Y-70290986D01*
X199175134Y-70064866D01*
X198949014Y-69879294D01*
X198691034Y-69741401D01*
X198411111Y-69656487D01*
X198192950Y-69635000D01*
X198047050Y-69635000D01*
X197828889Y-69656487D01*
X197548966Y-69741401D01*
X197290986Y-69879294D01*
X197064866Y-70064866D01*
X196879294Y-70290986D01*
X196850000Y-70345791D01*
X196820706Y-70290986D01*
X196635134Y-70064866D01*
X196409014Y-69879294D01*
X196151034Y-69741401D01*
X195871111Y-69656487D01*
X195652950Y-69635000D01*
X195507050Y-69635000D01*
X195288889Y-69656487D01*
X195008966Y-69741401D01*
X194750986Y-69879294D01*
X194524866Y-70064866D01*
X194339294Y-70290986D01*
X194310000Y-70345791D01*
X194280706Y-70290986D01*
X194095134Y-70064866D01*
X193869014Y-69879294D01*
X193611034Y-69741401D01*
X193331111Y-69656487D01*
X193112950Y-69635000D01*
X192967050Y-69635000D01*
X192748889Y-69656487D01*
X192468966Y-69741401D01*
X192210986Y-69879294D01*
X191984866Y-70064866D01*
X191799294Y-70290986D01*
X191770000Y-70345791D01*
X191740706Y-70290986D01*
X191555134Y-70064866D01*
X191329014Y-69879294D01*
X191071034Y-69741401D01*
X190791111Y-69656487D01*
X190572950Y-69635000D01*
X190427050Y-69635000D01*
X190208889Y-69656487D01*
X189928966Y-69741401D01*
X189670986Y-69879294D01*
X189444866Y-70064866D01*
X189259294Y-70290986D01*
X189230000Y-70345791D01*
X189200706Y-70290986D01*
X189015134Y-70064866D01*
X188789014Y-69879294D01*
X188531034Y-69741401D01*
X188251111Y-69656487D01*
X188032950Y-69635000D01*
X187887050Y-69635000D01*
X187682203Y-69655176D01*
X186982800Y-68955773D01*
X186982800Y-68140601D01*
X197544739Y-68140601D01*
X197588399Y-68144901D01*
X197632059Y-68140601D01*
X197632066Y-68140601D01*
X197762673Y-68127737D01*
X197930250Y-68076904D01*
X198084690Y-67994354D01*
X198220058Y-67883260D01*
X198247898Y-67849337D01*
X198896706Y-67200530D01*
X198990125Y-67250464D01*
X199080681Y-67287973D01*
X199200377Y-67324282D01*
X199296510Y-67343404D01*
X199420991Y-67355664D01*
X199445550Y-67355664D01*
X199470000Y-67358072D01*
X199970000Y-67358072D01*
X200094482Y-67345812D01*
X200120000Y-67338071D01*
X200145518Y-67345812D01*
X200270000Y-67358072D01*
X200770000Y-67358072D01*
X200794450Y-67355664D01*
X200819009Y-67355664D01*
X200943490Y-67343404D01*
X201039623Y-67324282D01*
X201159319Y-67287973D01*
X201249875Y-67250464D01*
X201360192Y-67191498D01*
X201441691Y-67137042D01*
X201538382Y-67057690D01*
X201607690Y-66988382D01*
X201687042Y-66891691D01*
X201741498Y-66810192D01*
X201800464Y-66699875D01*
X201837973Y-66609319D01*
X201874282Y-66489623D01*
X201893404Y-66393490D01*
X201905664Y-66269009D01*
X201905664Y-66244450D01*
X201908072Y-66220000D01*
X201908072Y-65720000D01*
X201905664Y-65695550D01*
X201905664Y-65670991D01*
X201893404Y-65546510D01*
X201874282Y-65450377D01*
X201837973Y-65330681D01*
X201800464Y-65240125D01*
X201741498Y-65129808D01*
X201687042Y-65048309D01*
X201607690Y-64951618D01*
X201538382Y-64882310D01*
X201537000Y-64881176D01*
X201537000Y-64458967D01*
X202945000Y-64458967D01*
X202945000Y-64781033D01*
X203007832Y-65096912D01*
X203131082Y-65394463D01*
X203310013Y-65662252D01*
X203517761Y-65870000D01*
X203310013Y-66077748D01*
X203131082Y-66345537D01*
X203007832Y-66643088D01*
X202945000Y-66958967D01*
X202945000Y-67281033D01*
X203007832Y-67596912D01*
X203131082Y-67894463D01*
X203310013Y-68162252D01*
X203537748Y-68389987D01*
X203805537Y-68568918D01*
X203826087Y-68577430D01*
X203802612Y-68663007D01*
X204580000Y-69440395D01*
X205357388Y-68663007D01*
X205345591Y-68620000D01*
X207941928Y-68620000D01*
X207945000Y-69334250D01*
X208103750Y-69493000D01*
X209453000Y-69493000D01*
X209453000Y-69473000D01*
X209707000Y-69473000D01*
X209707000Y-69493000D01*
X211056250Y-69493000D01*
X211210731Y-69338519D01*
X213028124Y-69338519D01*
X215265000Y-71575395D01*
X217501876Y-69338519D01*
X217189692Y-68889823D01*
X217137947Y-68862000D01*
X219655928Y-68862000D01*
X219655928Y-72362000D01*
X219668188Y-72486482D01*
X219704498Y-72606180D01*
X219763463Y-72716494D01*
X219842815Y-72813185D01*
X219939506Y-72892537D01*
X220049820Y-72951502D01*
X220169518Y-72987812D01*
X220294000Y-73000072D01*
X223794000Y-73000072D01*
X223918482Y-72987812D01*
X224038180Y-72951502D01*
X224148494Y-72892537D01*
X224245185Y-72813185D01*
X224324537Y-72716494D01*
X224383502Y-72606180D01*
X224419812Y-72486482D01*
X224432072Y-72362000D01*
X225905928Y-72362000D01*
X225918188Y-72486482D01*
X225954498Y-72606180D01*
X226013463Y-72716494D01*
X226092815Y-72813185D01*
X226189506Y-72892537D01*
X226299820Y-72951502D01*
X226419518Y-72987812D01*
X226544000Y-73000072D01*
X227758250Y-72997000D01*
X227917000Y-72838250D01*
X227917000Y-70739000D01*
X226067750Y-70739000D01*
X225909000Y-70897750D01*
X225905928Y-72362000D01*
X224432072Y-72362000D01*
X224432072Y-68862000D01*
X224419812Y-68737518D01*
X224383502Y-68617820D01*
X224324537Y-68507506D01*
X224245185Y-68410815D01*
X224148494Y-68331463D01*
X224086655Y-68298409D01*
X224758250Y-68297000D01*
X224917000Y-68138250D01*
X224917000Y-66039000D01*
X225171000Y-66039000D01*
X225171000Y-68138250D01*
X225329750Y-68297000D01*
X226250367Y-68298931D01*
X226189506Y-68331463D01*
X226092815Y-68410815D01*
X226013463Y-68507506D01*
X225954498Y-68617820D01*
X225918188Y-68737518D01*
X225905928Y-68862000D01*
X225909000Y-70326250D01*
X226067750Y-70485000D01*
X227917000Y-70485000D01*
X227917000Y-68385750D01*
X227758250Y-68227000D01*
X227087195Y-68225302D01*
X227148494Y-68192537D01*
X227245185Y-68113185D01*
X227324537Y-68016494D01*
X227383502Y-67906180D01*
X227419812Y-67786482D01*
X227432072Y-67662000D01*
X227429000Y-66197750D01*
X227270250Y-66039000D01*
X225171000Y-66039000D01*
X224917000Y-66039000D01*
X222817750Y-66039000D01*
X222659000Y-66197750D01*
X222655928Y-67662000D01*
X222668188Y-67786482D01*
X222704498Y-67906180D01*
X222763463Y-68016494D01*
X222842815Y-68113185D01*
X222939506Y-68192537D01*
X222998233Y-68223928D01*
X220294000Y-68223928D01*
X220169518Y-68236188D01*
X220049820Y-68272498D01*
X219939506Y-68331463D01*
X219842815Y-68410815D01*
X219763463Y-68507506D01*
X219704498Y-68617820D01*
X219668188Y-68737518D01*
X219655928Y-68862000D01*
X217137947Y-68862000D01*
X216593741Y-68569388D01*
X215946727Y-68371374D01*
X215273516Y-68303390D01*
X214599977Y-68368051D01*
X213951994Y-68562870D01*
X213354470Y-68880361D01*
X213340308Y-68889823D01*
X213028124Y-69338519D01*
X211210731Y-69338519D01*
X211215000Y-69334250D01*
X211218072Y-68620000D01*
X211205812Y-68495518D01*
X211169502Y-68375820D01*
X211110537Y-68265506D01*
X211031185Y-68168815D01*
X210934494Y-68089463D01*
X210908063Y-68075335D01*
X211028918Y-67894463D01*
X211152168Y-67596912D01*
X211215000Y-67281033D01*
X211215000Y-66958967D01*
X211152168Y-66643088D01*
X211028918Y-66345537D01*
X210849987Y-66077748D01*
X210642239Y-65870000D01*
X210830826Y-65681413D01*
X216303792Y-65681413D01*
X216399556Y-65945814D01*
X216689171Y-66086704D01*
X217000708Y-66168384D01*
X217322195Y-66187718D01*
X217641275Y-66143961D01*
X217945688Y-66038795D01*
X218119644Y-65945814D01*
X218215408Y-65681413D01*
X217259600Y-64725605D01*
X216303792Y-65681413D01*
X210830826Y-65681413D01*
X210849987Y-65662252D01*
X211028918Y-65394463D01*
X211152168Y-65096912D01*
X211215000Y-64781033D01*
X211215000Y-64608595D01*
X215617882Y-64608595D01*
X215661639Y-64927675D01*
X215766805Y-65232088D01*
X215859786Y-65406044D01*
X216124187Y-65501808D01*
X217079995Y-64546000D01*
X217439205Y-64546000D01*
X218395013Y-65501808D01*
X218659414Y-65406044D01*
X218800304Y-65116429D01*
X218881984Y-64804892D01*
X218901318Y-64483405D01*
X218857561Y-64164325D01*
X218856758Y-64162000D01*
X222655928Y-64162000D01*
X222659000Y-65626250D01*
X222817750Y-65785000D01*
X224917000Y-65785000D01*
X224917000Y-65765000D01*
X225171000Y-65765000D01*
X225171000Y-65785000D01*
X227270250Y-65785000D01*
X227429000Y-65626250D01*
X227432072Y-64162000D01*
X227428211Y-64122797D01*
X227970530Y-63834639D01*
X227984692Y-63825177D01*
X228296876Y-63376481D01*
X226060000Y-61139605D01*
X223823124Y-63376481D01*
X223926635Y-63525255D01*
X223294000Y-63523928D01*
X223169518Y-63536188D01*
X223049820Y-63572498D01*
X222939506Y-63631463D01*
X222842815Y-63710815D01*
X222763463Y-63807506D01*
X222704498Y-63917820D01*
X222668188Y-64037518D01*
X222655928Y-64162000D01*
X218856758Y-64162000D01*
X218752395Y-63859912D01*
X218659414Y-63685956D01*
X218395013Y-63590192D01*
X217439205Y-64546000D01*
X217079995Y-64546000D01*
X216124187Y-63590192D01*
X215859786Y-63685956D01*
X215718896Y-63975571D01*
X215637216Y-64287108D01*
X215617882Y-64608595D01*
X211215000Y-64608595D01*
X211215000Y-64458967D01*
X211152168Y-64143088D01*
X211028918Y-63845537D01*
X210849987Y-63577748D01*
X210682826Y-63410587D01*
X216303792Y-63410587D01*
X217259600Y-64366395D01*
X218215408Y-63410587D01*
X218119644Y-63146186D01*
X217830029Y-63005296D01*
X217518492Y-62923616D01*
X217197005Y-62904282D01*
X216877925Y-62948039D01*
X216573512Y-63053205D01*
X216399556Y-63146186D01*
X216303792Y-63410587D01*
X210682826Y-63410587D01*
X210622252Y-63350013D01*
X210354463Y-63171082D01*
X210056912Y-63047832D01*
X209741033Y-62985000D01*
X209418967Y-62985000D01*
X209103088Y-63047832D01*
X208805537Y-63171082D01*
X208537748Y-63350013D01*
X208310013Y-63577748D01*
X208131082Y-63845537D01*
X208007832Y-64143088D01*
X207945000Y-64458967D01*
X207945000Y-64781033D01*
X208007832Y-65096912D01*
X208131082Y-65394463D01*
X208310013Y-65662252D01*
X208517761Y-65870000D01*
X208310013Y-66077748D01*
X208131082Y-66345537D01*
X208007832Y-66643088D01*
X207945000Y-66958967D01*
X207945000Y-67281033D01*
X208007832Y-67596912D01*
X208131082Y-67894463D01*
X208251937Y-68075335D01*
X208225506Y-68089463D01*
X208128815Y-68168815D01*
X208049463Y-68265506D01*
X207990498Y-68375820D01*
X207954188Y-68495518D01*
X207941928Y-68620000D01*
X205345591Y-68620000D01*
X205333913Y-68577430D01*
X205354463Y-68568918D01*
X205622252Y-68389987D01*
X205849987Y-68162252D01*
X206028918Y-67894463D01*
X206152168Y-67596912D01*
X206215000Y-67281033D01*
X206215000Y-66958967D01*
X206152168Y-66643088D01*
X206028918Y-66345537D01*
X205849987Y-66077748D01*
X205642239Y-65870000D01*
X205849987Y-65662252D01*
X206028918Y-65394463D01*
X206152168Y-65096912D01*
X206215000Y-64781033D01*
X206215000Y-64458967D01*
X206152168Y-64143088D01*
X206028918Y-63845537D01*
X205849987Y-63577748D01*
X205622252Y-63350013D01*
X205354463Y-63171082D01*
X205056912Y-63047832D01*
X204741033Y-62985000D01*
X204418967Y-62985000D01*
X204103088Y-63047832D01*
X203805537Y-63171082D01*
X203537748Y-63350013D01*
X203310013Y-63577748D01*
X203131082Y-63845537D01*
X203007832Y-64143088D01*
X202945000Y-64458967D01*
X201537000Y-64458967D01*
X201537000Y-63806292D01*
X201538868Y-63808160D01*
X202922203Y-62424824D01*
X203127050Y-62445000D01*
X203272950Y-62445000D01*
X203491111Y-62423513D01*
X203771034Y-62338599D01*
X204029014Y-62200706D01*
X204255134Y-62015134D01*
X204440706Y-61789014D01*
X204578599Y-61531034D01*
X204663513Y-61251111D01*
X204692185Y-60960000D01*
X204663513Y-60668889D01*
X204578599Y-60388966D01*
X204440706Y-60130986D01*
X204255134Y-59904866D01*
X204053926Y-59739739D01*
X204123028Y-59683028D01*
X204283608Y-59487362D01*
X204399789Y-59270000D01*
X206791928Y-59270000D01*
X206804188Y-59394482D01*
X206840498Y-59514180D01*
X206899463Y-59624494D01*
X206978815Y-59721185D01*
X207075506Y-59800537D01*
X207185820Y-59859502D01*
X207305518Y-59895812D01*
X207430000Y-59908072D01*
X207994250Y-59905000D01*
X208153000Y-59746250D01*
X208153000Y-58547000D01*
X206953750Y-58547000D01*
X206795000Y-58705750D01*
X206791928Y-59270000D01*
X204399789Y-59270000D01*
X204402929Y-59264127D01*
X204476407Y-59021903D01*
X204495000Y-58833122D01*
X204495000Y-58006877D01*
X204476407Y-57818096D01*
X204402929Y-57575873D01*
X204392307Y-57556000D01*
X206793307Y-57556000D01*
X206791928Y-57570000D01*
X206791928Y-57570000D01*
G37*
X206791928Y-57570000D02*
X206795000Y-58134250D01*
X206953750Y-58293000D01*
X208153000Y-58293000D01*
X208153000Y-58273000D01*
X208407000Y-58273000D01*
X208407000Y-58293000D01*
X208427000Y-58293000D01*
X208427000Y-58547000D01*
X208407000Y-58547000D01*
X208407000Y-59746250D01*
X208565750Y-59905000D01*
X209130000Y-59908072D01*
X209254482Y-59895812D01*
X209374180Y-59859502D01*
X209484494Y-59800537D01*
X209581185Y-59721185D01*
X209660537Y-59624494D01*
X209719502Y-59514180D01*
X209740393Y-59445313D01*
X209764866Y-59475134D01*
X209990986Y-59660706D01*
X210248966Y-59798599D01*
X210528889Y-59883513D01*
X210747050Y-59905000D01*
X210892950Y-59905000D01*
X211111111Y-59883513D01*
X211391034Y-59798599D01*
X211649014Y-59660706D01*
X211875134Y-59475134D01*
X212060706Y-59249014D01*
X212198599Y-58991034D01*
X212283513Y-58711111D01*
X212299775Y-58546000D01*
X215621528Y-58546000D01*
X215621528Y-60546000D01*
X215633788Y-60670482D01*
X215670098Y-60790180D01*
X215729063Y-60900494D01*
X215808415Y-60997185D01*
X215905106Y-61076537D01*
X216015420Y-61135502D01*
X216135118Y-61171812D01*
X216259600Y-61184072D01*
X218259600Y-61184072D01*
X218384082Y-61171812D01*
X218503780Y-61135502D01*
X218614094Y-61076537D01*
X218710785Y-60997185D01*
X218748290Y-60951484D01*
X222608390Y-60951484D01*
X222673051Y-61625023D01*
X222867870Y-62273006D01*
X223185361Y-62870530D01*
X223194823Y-62884692D01*
X223643519Y-63196876D01*
X225880395Y-60960000D01*
X223643519Y-58723124D01*
X223194823Y-59035308D01*
X222874388Y-59631259D01*
X222676374Y-60278273D01*
X222608390Y-60951484D01*
X218748290Y-60951484D01*
X218790137Y-60900494D01*
X218849102Y-60790180D01*
X218885412Y-60670482D01*
X218897672Y-60546000D01*
X218897672Y-58546000D01*
X218885412Y-58421518D01*
X218849102Y-58301820D01*
X218790137Y-58191506D01*
X218710785Y-58094815D01*
X218614094Y-58015463D01*
X218503780Y-57956498D01*
X218384082Y-57920188D01*
X218259600Y-57907928D01*
X216259600Y-57907928D01*
X216135118Y-57920188D01*
X216015420Y-57956498D01*
X215905106Y-58015463D01*
X215808415Y-58094815D01*
X215729063Y-58191506D01*
X215670098Y-58301820D01*
X215633788Y-58421518D01*
X215621528Y-58546000D01*
X212299775Y-58546000D01*
X212312185Y-58420000D01*
X212283513Y-58128889D01*
X212198599Y-57848966D01*
X212060706Y-57590986D01*
X212031994Y-57556000D01*
X225572588Y-57556000D01*
X225394977Y-57573051D01*
X224746994Y-57767870D01*
X224149470Y-58085361D01*
X224135308Y-58094823D01*
X223823124Y-58543519D01*
X226060000Y-60780395D01*
X226074143Y-60766253D01*
X226253748Y-60945858D01*
X226239605Y-60960000D01*
X228476481Y-63196876D01*
X228925177Y-62884692D01*
X229245612Y-62288741D01*
X229443626Y-61641727D01*
X229464000Y-61439973D01*
X229464001Y-68224130D01*
X228329750Y-68227000D01*
X228171000Y-68385750D01*
X228171000Y-70485000D01*
X228191000Y-70485000D01*
X228191000Y-70739000D01*
X228171000Y-70739000D01*
X228171000Y-72838250D01*
X228329750Y-72997000D01*
X229464001Y-72999870D01*
X229464001Y-74524000D01*
X217256608Y-74524000D01*
X217501876Y-74171481D01*
X215265000Y-71934605D01*
X213028124Y-74171481D01*
X213273392Y-74524000D01*
X204392307Y-74524000D01*
X204402929Y-74504127D01*
X204476407Y-74261903D01*
X204495000Y-74073122D01*
X204495000Y-73246877D01*
X204476407Y-73058096D01*
X204402929Y-72815873D01*
X204283608Y-72592638D01*
X204123028Y-72396972D01*
X204050674Y-72337592D01*
X204146632Y-72273475D01*
X204353475Y-72066632D01*
X204515990Y-71823411D01*
X204547854Y-71746484D01*
X211813390Y-71746484D01*
X211878051Y-72420023D01*
X212072870Y-73068006D01*
X212390361Y-73665530D01*
X212399823Y-73679692D01*
X212848519Y-73991876D01*
X215085395Y-71755000D01*
X215444605Y-71755000D01*
X217681481Y-73991876D01*
X218130177Y-73679692D01*
X218450612Y-73083741D01*
X218648626Y-72436727D01*
X218716610Y-71763516D01*
X218651949Y-71089977D01*
X218457130Y-70441994D01*
X218139639Y-69844470D01*
X218130177Y-69830308D01*
X217681481Y-69518124D01*
X215444605Y-71755000D01*
X215085395Y-71755000D01*
X212848519Y-69518124D01*
X212399823Y-69830308D01*
X212079388Y-70426259D01*
X211881374Y-71073273D01*
X211813390Y-71746484D01*
X204547854Y-71746484D01*
X204627932Y-71553158D01*
X204685000Y-71266260D01*
X204685000Y-71004889D01*
X204922238Y-70968965D01*
X205178832Y-70876277D01*
X205291863Y-70815860D01*
X205345590Y-70620000D01*
X207941928Y-70620000D01*
X207954188Y-70744482D01*
X207990498Y-70864180D01*
X208049463Y-70974494D01*
X208128815Y-71071185D01*
X208225506Y-71150537D01*
X208335820Y-71209502D01*
X208455518Y-71245812D01*
X208580000Y-71258072D01*
X209294250Y-71255000D01*
X209453000Y-71096250D01*
X209453000Y-69747000D01*
X209707000Y-69747000D01*
X209707000Y-71096250D01*
X209865750Y-71255000D01*
X210580000Y-71258072D01*
X210704482Y-71245812D01*
X210824180Y-71209502D01*
X210934494Y-71150537D01*
X211031185Y-71071185D01*
X211110537Y-70974494D01*
X211169502Y-70864180D01*
X211205812Y-70744482D01*
X211218072Y-70620000D01*
X211215000Y-69905750D01*
X211056250Y-69747000D01*
X209707000Y-69747000D01*
X209453000Y-69747000D01*
X208103750Y-69747000D01*
X207945000Y-69905750D01*
X207941928Y-70620000D01*
X205345590Y-70620000D01*
X205357388Y-70576993D01*
X204580000Y-69799605D01*
X204565858Y-69813748D01*
X204386253Y-69634143D01*
X204400395Y-69620000D01*
X204759605Y-69620000D01*
X205536993Y-70397388D01*
X205775860Y-70331863D01*
X205891760Y-70084884D01*
X205957250Y-69820040D01*
X205969812Y-69547508D01*
X205928965Y-69277762D01*
X205836277Y-69021168D01*
X205775860Y-68908137D01*
X205536993Y-68842612D01*
X204759605Y-69620000D01*
X204400395Y-69620000D01*
X203623007Y-68842612D01*
X203492351Y-68878453D01*
X202116843Y-67502945D01*
X199765882Y-69853907D01*
X199809172Y-69897197D01*
X199604866Y-70064866D01*
X199419294Y-70290986D01*
X199390000Y-70345791D01*
X199360706Y-70290986D01*
X199175134Y-70064866D01*
X198949014Y-69879294D01*
X198691034Y-69741401D01*
X198411111Y-69656487D01*
X198192950Y-69635000D01*
X198047050Y-69635000D01*
X197828889Y-69656487D01*
X197548966Y-69741401D01*
X197290986Y-69879294D01*
X197064866Y-70064866D01*
X196879294Y-70290986D01*
X196850000Y-70345791D01*
X196820706Y-70290986D01*
X196635134Y-70064866D01*
X196409014Y-69879294D01*
X196151034Y-69741401D01*
X195871111Y-69656487D01*
X195652950Y-69635000D01*
X195507050Y-69635000D01*
X195288889Y-69656487D01*
X195008966Y-69741401D01*
X194750986Y-69879294D01*
X194524866Y-70064866D01*
X194339294Y-70290986D01*
X194310000Y-70345791D01*
X194280706Y-70290986D01*
X194095134Y-70064866D01*
X193869014Y-69879294D01*
X193611034Y-69741401D01*
X193331111Y-69656487D01*
X193112950Y-69635000D01*
X192967050Y-69635000D01*
X192748889Y-69656487D01*
X192468966Y-69741401D01*
X192210986Y-69879294D01*
X191984866Y-70064866D01*
X191799294Y-70290986D01*
X191770000Y-70345791D01*
X191740706Y-70290986D01*
X191555134Y-70064866D01*
X191329014Y-69879294D01*
X191071034Y-69741401D01*
X190791111Y-69656487D01*
X190572950Y-69635000D01*
X190427050Y-69635000D01*
X190208889Y-69656487D01*
X189928966Y-69741401D01*
X189670986Y-69879294D01*
X189444866Y-70064866D01*
X189259294Y-70290986D01*
X189230000Y-70345791D01*
X189200706Y-70290986D01*
X189015134Y-70064866D01*
X188789014Y-69879294D01*
X188531034Y-69741401D01*
X188251111Y-69656487D01*
X188032950Y-69635000D01*
X187887050Y-69635000D01*
X187682203Y-69655176D01*
X186982800Y-68955773D01*
X186982800Y-68140601D01*
X197544739Y-68140601D01*
X197588399Y-68144901D01*
X197632059Y-68140601D01*
X197632066Y-68140601D01*
X197762673Y-68127737D01*
X197930250Y-68076904D01*
X198084690Y-67994354D01*
X198220058Y-67883260D01*
X198247898Y-67849337D01*
X198896706Y-67200530D01*
X198990125Y-67250464D01*
X199080681Y-67287973D01*
X199200377Y-67324282D01*
X199296510Y-67343404D01*
X199420991Y-67355664D01*
X199445550Y-67355664D01*
X199470000Y-67358072D01*
X199970000Y-67358072D01*
X200094482Y-67345812D01*
X200120000Y-67338071D01*
X200145518Y-67345812D01*
X200270000Y-67358072D01*
X200770000Y-67358072D01*
X200794450Y-67355664D01*
X200819009Y-67355664D01*
X200943490Y-67343404D01*
X201039623Y-67324282D01*
X201159319Y-67287973D01*
X201249875Y-67250464D01*
X201360192Y-67191498D01*
X201441691Y-67137042D01*
X201538382Y-67057690D01*
X201607690Y-66988382D01*
X201687042Y-66891691D01*
X201741498Y-66810192D01*
X201800464Y-66699875D01*
X201837973Y-66609319D01*
X201874282Y-66489623D01*
X201893404Y-66393490D01*
X201905664Y-66269009D01*
X201905664Y-66244450D01*
X201908072Y-66220000D01*
X201908072Y-65720000D01*
X201905664Y-65695550D01*
X201905664Y-65670991D01*
X201893404Y-65546510D01*
X201874282Y-65450377D01*
X201837973Y-65330681D01*
X201800464Y-65240125D01*
X201741498Y-65129808D01*
X201687042Y-65048309D01*
X201607690Y-64951618D01*
X201538382Y-64882310D01*
X201537000Y-64881176D01*
X201537000Y-64458967D01*
X202945000Y-64458967D01*
X202945000Y-64781033D01*
X203007832Y-65096912D01*
X203131082Y-65394463D01*
X203310013Y-65662252D01*
X203517761Y-65870000D01*
X203310013Y-66077748D01*
X203131082Y-66345537D01*
X203007832Y-66643088D01*
X202945000Y-66958967D01*
X202945000Y-67281033D01*
X203007832Y-67596912D01*
X203131082Y-67894463D01*
X203310013Y-68162252D01*
X203537748Y-68389987D01*
X203805537Y-68568918D01*
X203826087Y-68577430D01*
X203802612Y-68663007D01*
X204580000Y-69440395D01*
X205357388Y-68663007D01*
X205345591Y-68620000D01*
X207941928Y-68620000D01*
X207945000Y-69334250D01*
X208103750Y-69493000D01*
X209453000Y-69493000D01*
X209453000Y-69473000D01*
X209707000Y-69473000D01*
X209707000Y-69493000D01*
X211056250Y-69493000D01*
X211210731Y-69338519D01*
X213028124Y-69338519D01*
X215265000Y-71575395D01*
X217501876Y-69338519D01*
X217189692Y-68889823D01*
X217137947Y-68862000D01*
X219655928Y-68862000D01*
X219655928Y-72362000D01*
X219668188Y-72486482D01*
X219704498Y-72606180D01*
X219763463Y-72716494D01*
X219842815Y-72813185D01*
X219939506Y-72892537D01*
X220049820Y-72951502D01*
X220169518Y-72987812D01*
X220294000Y-73000072D01*
X223794000Y-73000072D01*
X223918482Y-72987812D01*
X224038180Y-72951502D01*
X224148494Y-72892537D01*
X224245185Y-72813185D01*
X224324537Y-72716494D01*
X224383502Y-72606180D01*
X224419812Y-72486482D01*
X224432072Y-72362000D01*
X225905928Y-72362000D01*
X225918188Y-72486482D01*
X225954498Y-72606180D01*
X226013463Y-72716494D01*
X226092815Y-72813185D01*
X226189506Y-72892537D01*
X226299820Y-72951502D01*
X226419518Y-72987812D01*
X226544000Y-73000072D01*
X227758250Y-72997000D01*
X227917000Y-72838250D01*
X227917000Y-70739000D01*
X226067750Y-70739000D01*
X225909000Y-70897750D01*
X225905928Y-72362000D01*
X224432072Y-72362000D01*
X224432072Y-68862000D01*
X224419812Y-68737518D01*
X224383502Y-68617820D01*
X224324537Y-68507506D01*
X224245185Y-68410815D01*
X224148494Y-68331463D01*
X224086655Y-68298409D01*
X224758250Y-68297000D01*
X224917000Y-68138250D01*
X224917000Y-66039000D01*
X225171000Y-66039000D01*
X225171000Y-68138250D01*
X225329750Y-68297000D01*
X226250367Y-68298931D01*
X226189506Y-68331463D01*
X226092815Y-68410815D01*
X226013463Y-68507506D01*
X225954498Y-68617820D01*
X225918188Y-68737518D01*
X225905928Y-68862000D01*
X225909000Y-70326250D01*
X226067750Y-70485000D01*
X227917000Y-70485000D01*
X227917000Y-68385750D01*
X227758250Y-68227000D01*
X227087195Y-68225302D01*
X227148494Y-68192537D01*
X227245185Y-68113185D01*
X227324537Y-68016494D01*
X227383502Y-67906180D01*
X227419812Y-67786482D01*
X227432072Y-67662000D01*
X227429000Y-66197750D01*
X227270250Y-66039000D01*
X225171000Y-66039000D01*
X224917000Y-66039000D01*
X222817750Y-66039000D01*
X222659000Y-66197750D01*
X222655928Y-67662000D01*
X222668188Y-67786482D01*
X222704498Y-67906180D01*
X222763463Y-68016494D01*
X222842815Y-68113185D01*
X222939506Y-68192537D01*
X222998233Y-68223928D01*
X220294000Y-68223928D01*
X220169518Y-68236188D01*
X220049820Y-68272498D01*
X219939506Y-68331463D01*
X219842815Y-68410815D01*
X219763463Y-68507506D01*
X219704498Y-68617820D01*
X219668188Y-68737518D01*
X219655928Y-68862000D01*
X217137947Y-68862000D01*
X216593741Y-68569388D01*
X215946727Y-68371374D01*
X215273516Y-68303390D01*
X214599977Y-68368051D01*
X213951994Y-68562870D01*
X213354470Y-68880361D01*
X213340308Y-68889823D01*
X213028124Y-69338519D01*
X211210731Y-69338519D01*
X211215000Y-69334250D01*
X211218072Y-68620000D01*
X211205812Y-68495518D01*
X211169502Y-68375820D01*
X211110537Y-68265506D01*
X211031185Y-68168815D01*
X210934494Y-68089463D01*
X210908063Y-68075335D01*
X211028918Y-67894463D01*
X211152168Y-67596912D01*
X211215000Y-67281033D01*
X211215000Y-66958967D01*
X211152168Y-66643088D01*
X211028918Y-66345537D01*
X210849987Y-66077748D01*
X210642239Y-65870000D01*
X210830826Y-65681413D01*
X216303792Y-65681413D01*
X216399556Y-65945814D01*
X216689171Y-66086704D01*
X217000708Y-66168384D01*
X217322195Y-66187718D01*
X217641275Y-66143961D01*
X217945688Y-66038795D01*
X218119644Y-65945814D01*
X218215408Y-65681413D01*
X217259600Y-64725605D01*
X216303792Y-65681413D01*
X210830826Y-65681413D01*
X210849987Y-65662252D01*
X211028918Y-65394463D01*
X211152168Y-65096912D01*
X211215000Y-64781033D01*
X211215000Y-64608595D01*
X215617882Y-64608595D01*
X215661639Y-64927675D01*
X215766805Y-65232088D01*
X215859786Y-65406044D01*
X216124187Y-65501808D01*
X217079995Y-64546000D01*
X217439205Y-64546000D01*
X218395013Y-65501808D01*
X218659414Y-65406044D01*
X218800304Y-65116429D01*
X218881984Y-64804892D01*
X218901318Y-64483405D01*
X218857561Y-64164325D01*
X218856758Y-64162000D01*
X222655928Y-64162000D01*
X222659000Y-65626250D01*
X222817750Y-65785000D01*
X224917000Y-65785000D01*
X224917000Y-65765000D01*
X225171000Y-65765000D01*
X225171000Y-65785000D01*
X227270250Y-65785000D01*
X227429000Y-65626250D01*
X227432072Y-64162000D01*
X227428211Y-64122797D01*
X227970530Y-63834639D01*
X227984692Y-63825177D01*
X228296876Y-63376481D01*
X226060000Y-61139605D01*
X223823124Y-63376481D01*
X223926635Y-63525255D01*
X223294000Y-63523928D01*
X223169518Y-63536188D01*
X223049820Y-63572498D01*
X222939506Y-63631463D01*
X222842815Y-63710815D01*
X222763463Y-63807506D01*
X222704498Y-63917820D01*
X222668188Y-64037518D01*
X222655928Y-64162000D01*
X218856758Y-64162000D01*
X218752395Y-63859912D01*
X218659414Y-63685956D01*
X218395013Y-63590192D01*
X217439205Y-64546000D01*
X217079995Y-64546000D01*
X216124187Y-63590192D01*
X215859786Y-63685956D01*
X215718896Y-63975571D01*
X215637216Y-64287108D01*
X215617882Y-64608595D01*
X211215000Y-64608595D01*
X211215000Y-64458967D01*
X211152168Y-64143088D01*
X211028918Y-63845537D01*
X210849987Y-63577748D01*
X210682826Y-63410587D01*
X216303792Y-63410587D01*
X217259600Y-64366395D01*
X218215408Y-63410587D01*
X218119644Y-63146186D01*
X217830029Y-63005296D01*
X217518492Y-62923616D01*
X217197005Y-62904282D01*
X216877925Y-62948039D01*
X216573512Y-63053205D01*
X216399556Y-63146186D01*
X216303792Y-63410587D01*
X210682826Y-63410587D01*
X210622252Y-63350013D01*
X210354463Y-63171082D01*
X210056912Y-63047832D01*
X209741033Y-62985000D01*
X209418967Y-62985000D01*
X209103088Y-63047832D01*
X208805537Y-63171082D01*
X208537748Y-63350013D01*
X208310013Y-63577748D01*
X208131082Y-63845537D01*
X208007832Y-64143088D01*
X207945000Y-64458967D01*
X207945000Y-64781033D01*
X208007832Y-65096912D01*
X208131082Y-65394463D01*
X208310013Y-65662252D01*
X208517761Y-65870000D01*
X208310013Y-66077748D01*
X208131082Y-66345537D01*
X208007832Y-66643088D01*
X207945000Y-66958967D01*
X207945000Y-67281033D01*
X208007832Y-67596912D01*
X208131082Y-67894463D01*
X208251937Y-68075335D01*
X208225506Y-68089463D01*
X208128815Y-68168815D01*
X208049463Y-68265506D01*
X207990498Y-68375820D01*
X207954188Y-68495518D01*
X207941928Y-68620000D01*
X205345591Y-68620000D01*
X205333913Y-68577430D01*
X205354463Y-68568918D01*
X205622252Y-68389987D01*
X205849987Y-68162252D01*
X206028918Y-67894463D01*
X206152168Y-67596912D01*
X206215000Y-67281033D01*
X206215000Y-66958967D01*
X206152168Y-66643088D01*
X206028918Y-66345537D01*
X205849987Y-66077748D01*
X205642239Y-65870000D01*
X205849987Y-65662252D01*
X206028918Y-65394463D01*
X206152168Y-65096912D01*
X206215000Y-64781033D01*
X206215000Y-64458967D01*
X206152168Y-64143088D01*
X206028918Y-63845537D01*
X205849987Y-63577748D01*
X205622252Y-63350013D01*
X205354463Y-63171082D01*
X205056912Y-63047832D01*
X204741033Y-62985000D01*
X204418967Y-62985000D01*
X204103088Y-63047832D01*
X203805537Y-63171082D01*
X203537748Y-63350013D01*
X203310013Y-63577748D01*
X203131082Y-63845537D01*
X203007832Y-64143088D01*
X202945000Y-64458967D01*
X201537000Y-64458967D01*
X201537000Y-63806292D01*
X201538868Y-63808160D01*
X202922203Y-62424824D01*
X203127050Y-62445000D01*
X203272950Y-62445000D01*
X203491111Y-62423513D01*
X203771034Y-62338599D01*
X204029014Y-62200706D01*
X204255134Y-62015134D01*
X204440706Y-61789014D01*
X204578599Y-61531034D01*
X204663513Y-61251111D01*
X204692185Y-60960000D01*
X204663513Y-60668889D01*
X204578599Y-60388966D01*
X204440706Y-60130986D01*
X204255134Y-59904866D01*
X204053926Y-59739739D01*
X204123028Y-59683028D01*
X204283608Y-59487362D01*
X204399789Y-59270000D01*
X206791928Y-59270000D01*
X206804188Y-59394482D01*
X206840498Y-59514180D01*
X206899463Y-59624494D01*
X206978815Y-59721185D01*
X207075506Y-59800537D01*
X207185820Y-59859502D01*
X207305518Y-59895812D01*
X207430000Y-59908072D01*
X207994250Y-59905000D01*
X208153000Y-59746250D01*
X208153000Y-58547000D01*
X206953750Y-58547000D01*
X206795000Y-58705750D01*
X206791928Y-59270000D01*
X204399789Y-59270000D01*
X204402929Y-59264127D01*
X204476407Y-59021903D01*
X204495000Y-58833122D01*
X204495000Y-58006877D01*
X204476407Y-57818096D01*
X204402929Y-57575873D01*
X204392307Y-57556000D01*
X206793307Y-57556000D01*
X206791928Y-57570000D01*
G36*
X164533872Y-69185132D02*
G01*
X164557450Y-69240142D01*
X164580232Y-69295417D01*
X164584615Y-69303523D01*
X164727904Y-69564166D01*
X164761692Y-69613513D01*
X164794804Y-69663350D01*
X164800678Y-69670450D01*
X164991864Y-69898296D01*
X165034561Y-69940107D01*
X165076753Y-69982595D01*
X165083894Y-69988419D01*
X165315695Y-70174792D01*
X165365742Y-70207542D01*
X165415343Y-70240998D01*
X165423479Y-70245324D01*
X165687066Y-70383123D01*
X165742508Y-70405522D01*
X165797672Y-70428712D01*
X165806494Y-70431375D01*
X166091824Y-70515353D01*
X166150578Y-70526561D01*
X166209182Y-70538591D01*
X166218354Y-70539490D01*
X166514561Y-70566447D01*
X166574379Y-70566029D01*
X166634196Y-70566447D01*
X166643367Y-70565548D01*
X166939171Y-70534458D01*
X166997768Y-70522429D01*
X167056530Y-70511220D01*
X167065352Y-70508556D01*
X167349483Y-70420602D01*
X167404615Y-70397427D01*
X167460089Y-70375014D01*
X167468226Y-70370687D01*
X167729862Y-70229221D01*
X167779429Y-70195788D01*
X167829508Y-70163017D01*
X167836649Y-70157193D01*
X168065824Y-69967603D01*
X168107946Y-69925185D01*
X168150716Y-69883303D01*
X168156590Y-69876202D01*
X168344576Y-69645708D01*
X168377691Y-69595866D01*
X168411475Y-69546526D01*
X168415858Y-69538419D01*
X168555494Y-69275801D01*
X168578288Y-69220499D01*
X168601854Y-69165516D01*
X168604579Y-69156713D01*
X168612856Y-69129297D01*
X168613618Y-69131808D01*
X168746868Y-69381101D01*
X168926192Y-69599608D01*
X169144699Y-69778932D01*
X169277658Y-69850000D01*
X169144699Y-69921068D01*
X168926192Y-70100392D01*
X168746868Y-70318899D01*
X168613618Y-70568192D01*
X168531564Y-70838691D01*
X168503857Y-71120000D01*
X168531564Y-71401309D01*
X168613618Y-71671808D01*
X168746868Y-71921101D01*
X168926192Y-72139608D01*
X169144699Y-72318932D01*
X169277658Y-72390000D01*
X169144699Y-72461068D01*
X168926192Y-72640392D01*
X168746868Y-72858899D01*
X168613618Y-73108192D01*
X168531564Y-73378691D01*
X168503857Y-73660000D01*
X168531564Y-73941309D01*
X168613618Y-74211808D01*
X168746868Y-74461101D01*
X168798488Y-74524000D01*
X164271867Y-74524000D01*
X164389515Y-74351646D01*
X164500167Y-74091818D01*
X164517704Y-74009039D01*
X164395715Y-73787000D01*
X162852800Y-73787000D01*
X162852800Y-73807000D01*
X162598800Y-73807000D01*
X162598800Y-73787000D01*
X162578800Y-73787000D01*
X162578800Y-73533000D01*
X162598800Y-73533000D01*
X162598800Y-73513000D01*
X162852800Y-73513000D01*
X162852800Y-73533000D01*
X164395715Y-73533000D01*
X164517704Y-73310961D01*
X164500167Y-73228182D01*
X164389515Y-72968354D01*
X164230300Y-72735105D01*
X164028639Y-72537399D01*
X163799059Y-72387265D01*
X163926901Y-72318932D01*
X164145408Y-72139608D01*
X164324732Y-71921101D01*
X164457982Y-71671808D01*
X164540036Y-71401309D01*
X164567743Y-71120000D01*
X164540036Y-70838691D01*
X164457982Y-70568192D01*
X164324732Y-70318899D01*
X164145408Y-70100392D01*
X163926901Y-69921068D01*
X163793942Y-69850000D01*
X163926901Y-69778932D01*
X164145408Y-69599608D01*
X164324732Y-69381101D01*
X164457982Y-69131808D01*
X164486810Y-69036774D01*
X164533872Y-69185132D01*
X164533872Y-69185132D01*
G37*
X164533872Y-69185132D02*
X164557450Y-69240142D01*
X164580232Y-69295417D01*
X164584615Y-69303523D01*
X164727904Y-69564166D01*
X164761692Y-69613513D01*
X164794804Y-69663350D01*
X164800678Y-69670450D01*
X164991864Y-69898296D01*
X165034561Y-69940107D01*
X165076753Y-69982595D01*
X165083894Y-69988419D01*
X165315695Y-70174792D01*
X165365742Y-70207542D01*
X165415343Y-70240998D01*
X165423479Y-70245324D01*
X165687066Y-70383123D01*
X165742508Y-70405522D01*
X165797672Y-70428712D01*
X165806494Y-70431375D01*
X166091824Y-70515353D01*
X166150578Y-70526561D01*
X166209182Y-70538591D01*
X166218354Y-70539490D01*
X166514561Y-70566447D01*
X166574379Y-70566029D01*
X166634196Y-70566447D01*
X166643367Y-70565548D01*
X166939171Y-70534458D01*
X166997768Y-70522429D01*
X167056530Y-70511220D01*
X167065352Y-70508556D01*
X167349483Y-70420602D01*
X167404615Y-70397427D01*
X167460089Y-70375014D01*
X167468226Y-70370687D01*
X167729862Y-70229221D01*
X167779429Y-70195788D01*
X167829508Y-70163017D01*
X167836649Y-70157193D01*
X168065824Y-69967603D01*
X168107946Y-69925185D01*
X168150716Y-69883303D01*
X168156590Y-69876202D01*
X168344576Y-69645708D01*
X168377691Y-69595866D01*
X168411475Y-69546526D01*
X168415858Y-69538419D01*
X168555494Y-69275801D01*
X168578288Y-69220499D01*
X168601854Y-69165516D01*
X168604579Y-69156713D01*
X168612856Y-69129297D01*
X168613618Y-69131808D01*
X168746868Y-69381101D01*
X168926192Y-69599608D01*
X169144699Y-69778932D01*
X169277658Y-69850000D01*
X169144699Y-69921068D01*
X168926192Y-70100392D01*
X168746868Y-70318899D01*
X168613618Y-70568192D01*
X168531564Y-70838691D01*
X168503857Y-71120000D01*
X168531564Y-71401309D01*
X168613618Y-71671808D01*
X168746868Y-71921101D01*
X168926192Y-72139608D01*
X169144699Y-72318932D01*
X169277658Y-72390000D01*
X169144699Y-72461068D01*
X168926192Y-72640392D01*
X168746868Y-72858899D01*
X168613618Y-73108192D01*
X168531564Y-73378691D01*
X168503857Y-73660000D01*
X168531564Y-73941309D01*
X168613618Y-74211808D01*
X168746868Y-74461101D01*
X168798488Y-74524000D01*
X164271867Y-74524000D01*
X164389515Y-74351646D01*
X164500167Y-74091818D01*
X164517704Y-74009039D01*
X164395715Y-73787000D01*
X162852800Y-73787000D01*
X162852800Y-73807000D01*
X162598800Y-73807000D01*
X162598800Y-73787000D01*
X162578800Y-73787000D01*
X162578800Y-73533000D01*
X162598800Y-73533000D01*
X162598800Y-73513000D01*
X162852800Y-73513000D01*
X162852800Y-73533000D01*
X164395715Y-73533000D01*
X164517704Y-73310961D01*
X164500167Y-73228182D01*
X164389515Y-72968354D01*
X164230300Y-72735105D01*
X164028639Y-72537399D01*
X163799059Y-72387265D01*
X163926901Y-72318932D01*
X164145408Y-72139608D01*
X164324732Y-71921101D01*
X164457982Y-71671808D01*
X164540036Y-71401309D01*
X164567743Y-71120000D01*
X164540036Y-70838691D01*
X164457982Y-70568192D01*
X164324732Y-70318899D01*
X164145408Y-70100392D01*
X163926901Y-69921068D01*
X163793942Y-69850000D01*
X163926901Y-69778932D01*
X164145408Y-69599608D01*
X164324732Y-69381101D01*
X164457982Y-69131808D01*
X164486810Y-69036774D01*
X164533872Y-69185132D01*
G36*
X183007000Y-70993000D02*
G01*
X183027000Y-70993000D01*
X183027000Y-71247000D01*
X183007000Y-71247000D01*
X183007000Y-72440155D01*
X183017000Y-72445432D01*
X183017000Y-73533000D01*
X183037000Y-73533000D01*
X183037000Y-73787000D01*
X183017000Y-73787000D01*
X183017000Y-73807000D01*
X182763000Y-73807000D01*
X182763000Y-73787000D01*
X182743000Y-73787000D01*
X182743000Y-73533000D01*
X182763000Y-73533000D01*
X182763000Y-72183750D01*
X182753000Y-72173750D01*
X182753000Y-71247000D01*
X182733000Y-71247000D01*
X182733000Y-70993000D01*
X182753000Y-70993000D01*
X182753000Y-70973000D01*
X183007000Y-70973000D01*
X183007000Y-70993000D01*
X183007000Y-70993000D01*
G37*
X183007000Y-70993000D02*
X183027000Y-70993000D01*
X183027000Y-71247000D01*
X183007000Y-71247000D01*
X183007000Y-72440155D01*
X183017000Y-72445432D01*
X183017000Y-73533000D01*
X183037000Y-73533000D01*
X183037000Y-73787000D01*
X183017000Y-73787000D01*
X183017000Y-73807000D01*
X182763000Y-73807000D01*
X182763000Y-73787000D01*
X182743000Y-73787000D01*
X182743000Y-73533000D01*
X182763000Y-73533000D01*
X182763000Y-72183750D01*
X182753000Y-72173750D01*
X182753000Y-71247000D01*
X182733000Y-71247000D01*
X182733000Y-70993000D01*
X182753000Y-70993000D01*
X182753000Y-70973000D01*
X183007000Y-70973000D01*
X183007000Y-70993000D01*
G36*
X173577733Y-65815732D02*
G01*
X173577734Y-67478985D01*
X173573433Y-67522655D01*
X173590597Y-67696929D01*
X173641431Y-67864507D01*
X173723981Y-68018946D01*
X173787732Y-68096626D01*
X173835075Y-68154314D01*
X173868992Y-68182149D01*
X175452252Y-69765409D01*
X175387000Y-69799845D01*
X175387000Y-70993000D01*
X175407000Y-70993000D01*
X175407000Y-71247000D01*
X175387000Y-71247000D01*
X175387000Y-72440155D01*
X175397000Y-72445432D01*
X175397000Y-73533000D01*
X175417000Y-73533000D01*
X175417000Y-73787000D01*
X175397000Y-73787000D01*
X175397000Y-73807000D01*
X175143000Y-73807000D01*
X175143000Y-73787000D01*
X175123000Y-73787000D01*
X175123000Y-73533000D01*
X175143000Y-73533000D01*
X175143000Y-72183750D01*
X175133000Y-72173750D01*
X175133000Y-71247000D01*
X173939186Y-71247000D01*
X173818519Y-71476891D01*
X173915843Y-71751252D01*
X174064822Y-72001355D01*
X174216528Y-72169658D01*
X174168815Y-72208815D01*
X174089463Y-72305506D01*
X174030498Y-72415820D01*
X173994188Y-72535518D01*
X173981928Y-72660000D01*
X173985000Y-73374250D01*
X174143748Y-73532998D01*
X173985000Y-73532998D01*
X173985000Y-73541877D01*
X173983315Y-73540740D01*
X173975186Y-73536418D01*
X173975181Y-73536415D01*
X173975176Y-73536413D01*
X173755524Y-73421582D01*
X173700058Y-73399173D01*
X173644919Y-73375994D01*
X173636097Y-73373330D01*
X173398321Y-73303348D01*
X173339559Y-73292139D01*
X173280962Y-73280110D01*
X173271791Y-73279211D01*
X173024951Y-73256747D01*
X172965135Y-73257165D01*
X172905318Y-73256747D01*
X172896147Y-73257646D01*
X172649644Y-73283554D01*
X172591028Y-73295586D01*
X172532284Y-73306792D01*
X172523462Y-73309456D01*
X172286686Y-73382751D01*
X172231555Y-73405926D01*
X172176080Y-73428339D01*
X172167944Y-73432666D01*
X172165483Y-73433997D01*
X172160036Y-73378691D01*
X172077982Y-73108192D01*
X171944732Y-72858899D01*
X171765408Y-72640392D01*
X171546901Y-72461068D01*
X171413942Y-72390000D01*
X171546901Y-72318932D01*
X171765408Y-72139608D01*
X171944732Y-71921101D01*
X172077982Y-71671808D01*
X172160036Y-71401309D01*
X172187743Y-71120000D01*
X172160036Y-70838691D01*
X172137109Y-70763109D01*
X173818519Y-70763109D01*
X173939186Y-70993000D01*
X175133000Y-70993000D01*
X175133000Y-69799845D01*
X174903110Y-69678524D01*
X174755901Y-69723175D01*
X174493080Y-69848359D01*
X174259731Y-70022412D01*
X174064822Y-70238645D01*
X173915843Y-70488748D01*
X173818519Y-70763109D01*
X172137109Y-70763109D01*
X172077982Y-70568192D01*
X171944732Y-70318899D01*
X171765408Y-70100392D01*
X171546901Y-69921068D01*
X171413942Y-69850000D01*
X171546901Y-69778932D01*
X171765408Y-69599608D01*
X171944732Y-69381101D01*
X172077982Y-69131808D01*
X172160036Y-68861309D01*
X172187743Y-68580000D01*
X172160036Y-68298691D01*
X172077982Y-68028192D01*
X171944732Y-67778899D01*
X171765408Y-67560392D01*
X171546901Y-67381068D01*
X171413942Y-67310000D01*
X171546901Y-67238932D01*
X171765408Y-67059608D01*
X171944732Y-66841101D01*
X172077982Y-66591808D01*
X172160036Y-66321309D01*
X172187743Y-66040000D01*
X172160036Y-65758691D01*
X172077982Y-65488192D01*
X171944732Y-65238899D01*
X171765408Y-65020392D01*
X171546901Y-64841068D01*
X171413942Y-64770000D01*
X171546901Y-64698932D01*
X171765408Y-64519608D01*
X171944732Y-64301101D01*
X171985964Y-64223962D01*
X173577733Y-65815732D01*
X173577733Y-65815732D01*
G37*
X173577733Y-65815732D02*
X173577734Y-67478985D01*
X173573433Y-67522655D01*
X173590597Y-67696929D01*
X173641431Y-67864507D01*
X173723981Y-68018946D01*
X173787732Y-68096626D01*
X173835075Y-68154314D01*
X173868992Y-68182149D01*
X175452252Y-69765409D01*
X175387000Y-69799845D01*
X175387000Y-70993000D01*
X175407000Y-70993000D01*
X175407000Y-71247000D01*
X175387000Y-71247000D01*
X175387000Y-72440155D01*
X175397000Y-72445432D01*
X175397000Y-73533000D01*
X175417000Y-73533000D01*
X175417000Y-73787000D01*
X175397000Y-73787000D01*
X175397000Y-73807000D01*
X175143000Y-73807000D01*
X175143000Y-73787000D01*
X175123000Y-73787000D01*
X175123000Y-73533000D01*
X175143000Y-73533000D01*
X175143000Y-72183750D01*
X175133000Y-72173750D01*
X175133000Y-71247000D01*
X173939186Y-71247000D01*
X173818519Y-71476891D01*
X173915843Y-71751252D01*
X174064822Y-72001355D01*
X174216528Y-72169658D01*
X174168815Y-72208815D01*
X174089463Y-72305506D01*
X174030498Y-72415820D01*
X173994188Y-72535518D01*
X173981928Y-72660000D01*
X173985000Y-73374250D01*
X174143748Y-73532998D01*
X173985000Y-73532998D01*
X173985000Y-73541877D01*
X173983315Y-73540740D01*
X173975186Y-73536418D01*
X173975181Y-73536415D01*
X173975176Y-73536413D01*
X173755524Y-73421582D01*
X173700058Y-73399173D01*
X173644919Y-73375994D01*
X173636097Y-73373330D01*
X173398321Y-73303348D01*
X173339559Y-73292139D01*
X173280962Y-73280110D01*
X173271791Y-73279211D01*
X173024951Y-73256747D01*
X172965135Y-73257165D01*
X172905318Y-73256747D01*
X172896147Y-73257646D01*
X172649644Y-73283554D01*
X172591028Y-73295586D01*
X172532284Y-73306792D01*
X172523462Y-73309456D01*
X172286686Y-73382751D01*
X172231555Y-73405926D01*
X172176080Y-73428339D01*
X172167944Y-73432666D01*
X172165483Y-73433997D01*
X172160036Y-73378691D01*
X172077982Y-73108192D01*
X171944732Y-72858899D01*
X171765408Y-72640392D01*
X171546901Y-72461068D01*
X171413942Y-72390000D01*
X171546901Y-72318932D01*
X171765408Y-72139608D01*
X171944732Y-71921101D01*
X172077982Y-71671808D01*
X172160036Y-71401309D01*
X172187743Y-71120000D01*
X172160036Y-70838691D01*
X172137109Y-70763109D01*
X173818519Y-70763109D01*
X173939186Y-70993000D01*
X175133000Y-70993000D01*
X175133000Y-69799845D01*
X174903110Y-69678524D01*
X174755901Y-69723175D01*
X174493080Y-69848359D01*
X174259731Y-70022412D01*
X174064822Y-70238645D01*
X173915843Y-70488748D01*
X173818519Y-70763109D01*
X172137109Y-70763109D01*
X172077982Y-70568192D01*
X171944732Y-70318899D01*
X171765408Y-70100392D01*
X171546901Y-69921068D01*
X171413942Y-69850000D01*
X171546901Y-69778932D01*
X171765408Y-69599608D01*
X171944732Y-69381101D01*
X172077982Y-69131808D01*
X172160036Y-68861309D01*
X172187743Y-68580000D01*
X172160036Y-68298691D01*
X172077982Y-68028192D01*
X171944732Y-67778899D01*
X171765408Y-67560392D01*
X171546901Y-67381068D01*
X171413942Y-67310000D01*
X171546901Y-67238932D01*
X171765408Y-67059608D01*
X171944732Y-66841101D01*
X172077982Y-66591808D01*
X172160036Y-66321309D01*
X172187743Y-66040000D01*
X172160036Y-65758691D01*
X172077982Y-65488192D01*
X171944732Y-65238899D01*
X171765408Y-65020392D01*
X171546901Y-64841068D01*
X171413942Y-64770000D01*
X171546901Y-64698932D01*
X171765408Y-64519608D01*
X171944732Y-64301101D01*
X171985964Y-64223962D01*
X173577733Y-65815732D01*
G36*
X174100504Y-63297740D02*
G01*
X174128341Y-63331659D01*
X174263709Y-63442753D01*
X174403182Y-63517303D01*
X174415577Y-63523928D01*
X174418149Y-63525303D01*
X174454033Y-63536188D01*
X174585724Y-63576136D01*
X174618924Y-63579406D01*
X174716333Y-63589000D01*
X174716339Y-63589000D01*
X174759999Y-63593300D01*
X174803659Y-63589000D01*
X175587141Y-63589000D01*
X175563124Y-63623519D01*
X177800000Y-65860395D01*
X180036876Y-63623519D01*
X180012859Y-63589000D01*
X189601765Y-63589000D01*
X190010505Y-63997741D01*
X190038341Y-64031659D01*
X190173709Y-64142753D01*
X190328149Y-64225303D01*
X190385672Y-64242752D01*
X190495724Y-64276136D01*
X190528924Y-64279406D01*
X190626333Y-64289000D01*
X190626339Y-64289000D01*
X190669999Y-64293300D01*
X190713659Y-64289000D01*
X192086340Y-64289000D01*
X192130000Y-64293300D01*
X192173660Y-64289000D01*
X192173667Y-64289000D01*
X192304274Y-64276136D01*
X192471851Y-64225303D01*
X192626291Y-64142753D01*
X192761659Y-64031659D01*
X192789498Y-63997737D01*
X193206236Y-63581000D01*
X199759000Y-63581000D01*
X199759001Y-64581928D01*
X199470000Y-64581928D01*
X199445550Y-64584336D01*
X199420991Y-64584336D01*
X199296510Y-64596596D01*
X199200377Y-64615718D01*
X199080681Y-64652027D01*
X198990125Y-64689536D01*
X198879808Y-64748502D01*
X198798309Y-64802958D01*
X198701618Y-64882310D01*
X198632310Y-64951618D01*
X198552958Y-65048309D01*
X198498502Y-65129808D01*
X198475502Y-65172837D01*
X198373709Y-65227247D01*
X198238341Y-65338341D01*
X198210506Y-65372259D01*
X197220164Y-66362601D01*
X195102649Y-66362601D01*
X195128036Y-66278909D01*
X195155743Y-65997600D01*
X195128036Y-65716291D01*
X195045982Y-65445792D01*
X194912732Y-65196499D01*
X194733408Y-64977992D01*
X194514901Y-64798668D01*
X194265608Y-64665418D01*
X193995109Y-64583364D01*
X193784292Y-64562600D01*
X193643308Y-64562600D01*
X193432491Y-64583364D01*
X193161992Y-64665418D01*
X192912699Y-64798668D01*
X192694192Y-64977992D01*
X192514868Y-65196499D01*
X192381618Y-65445792D01*
X192299564Y-65716291D01*
X192271857Y-65997600D01*
X192299564Y-66278909D01*
X192324951Y-66362601D01*
X187484309Y-66362601D01*
X187528800Y-66138935D01*
X187528800Y-65856265D01*
X187473653Y-65579026D01*
X187365480Y-65317873D01*
X187208437Y-65082841D01*
X187008559Y-64882963D01*
X186773527Y-64725920D01*
X186512374Y-64617747D01*
X186235135Y-64562600D01*
X185952465Y-64562600D01*
X185675226Y-64617747D01*
X185414073Y-64725920D01*
X185179041Y-64882963D01*
X184979163Y-65082841D01*
X184822120Y-65317873D01*
X184713947Y-65579026D01*
X184658800Y-65856265D01*
X184658800Y-66138935D01*
X184713947Y-66416174D01*
X184822120Y-66677327D01*
X184979163Y-66912359D01*
X185179041Y-67112237D01*
X185200721Y-67126723D01*
X185200500Y-67128970D01*
X185204800Y-67172630D01*
X185204800Y-67172636D01*
X185204801Y-67172646D01*
X185204800Y-68405001D01*
X180315459Y-68405001D01*
X180330034Y-68390426D01*
X180216483Y-68276875D01*
X180665177Y-67964692D01*
X180985612Y-67368741D01*
X181183626Y-66721727D01*
X181251610Y-66048516D01*
X181186949Y-65374977D01*
X180992130Y-64726994D01*
X180674639Y-64129470D01*
X180665177Y-64115308D01*
X180216481Y-63803124D01*
X177979605Y-66040000D01*
X177993748Y-66054143D01*
X177814143Y-66233748D01*
X177800000Y-66219605D01*
X177785858Y-66233748D01*
X177606253Y-66054143D01*
X177620395Y-66040000D01*
X175383519Y-63803124D01*
X174934823Y-64115308D01*
X174744936Y-64468463D01*
X171977071Y-61700599D01*
X172077982Y-61511808D01*
X172133047Y-61330282D01*
X174100504Y-63297740D01*
X174100504Y-63297740D01*
G37*
X174100504Y-63297740D02*
X174128341Y-63331659D01*
X174263709Y-63442753D01*
X174403182Y-63517303D01*
X174415577Y-63523928D01*
X174418149Y-63525303D01*
X174454033Y-63536188D01*
X174585724Y-63576136D01*
X174618924Y-63579406D01*
X174716333Y-63589000D01*
X174716339Y-63589000D01*
X174759999Y-63593300D01*
X174803659Y-63589000D01*
X175587141Y-63589000D01*
X175563124Y-63623519D01*
X177800000Y-65860395D01*
X180036876Y-63623519D01*
X180012859Y-63589000D01*
X189601765Y-63589000D01*
X190010505Y-63997741D01*
X190038341Y-64031659D01*
X190173709Y-64142753D01*
X190328149Y-64225303D01*
X190385672Y-64242752D01*
X190495724Y-64276136D01*
X190528924Y-64279406D01*
X190626333Y-64289000D01*
X190626339Y-64289000D01*
X190669999Y-64293300D01*
X190713659Y-64289000D01*
X192086340Y-64289000D01*
X192130000Y-64293300D01*
X192173660Y-64289000D01*
X192173667Y-64289000D01*
X192304274Y-64276136D01*
X192471851Y-64225303D01*
X192626291Y-64142753D01*
X192761659Y-64031659D01*
X192789498Y-63997737D01*
X193206236Y-63581000D01*
X199759000Y-63581000D01*
X199759001Y-64581928D01*
X199470000Y-64581928D01*
X199445550Y-64584336D01*
X199420991Y-64584336D01*
X199296510Y-64596596D01*
X199200377Y-64615718D01*
X199080681Y-64652027D01*
X198990125Y-64689536D01*
X198879808Y-64748502D01*
X198798309Y-64802958D01*
X198701618Y-64882310D01*
X198632310Y-64951618D01*
X198552958Y-65048309D01*
X198498502Y-65129808D01*
X198475502Y-65172837D01*
X198373709Y-65227247D01*
X198238341Y-65338341D01*
X198210506Y-65372259D01*
X197220164Y-66362601D01*
X195102649Y-66362601D01*
X195128036Y-66278909D01*
X195155743Y-65997600D01*
X195128036Y-65716291D01*
X195045982Y-65445792D01*
X194912732Y-65196499D01*
X194733408Y-64977992D01*
X194514901Y-64798668D01*
X194265608Y-64665418D01*
X193995109Y-64583364D01*
X193784292Y-64562600D01*
X193643308Y-64562600D01*
X193432491Y-64583364D01*
X193161992Y-64665418D01*
X192912699Y-64798668D01*
X192694192Y-64977992D01*
X192514868Y-65196499D01*
X192381618Y-65445792D01*
X192299564Y-65716291D01*
X192271857Y-65997600D01*
X192299564Y-66278909D01*
X192324951Y-66362601D01*
X187484309Y-66362601D01*
X187528800Y-66138935D01*
X187528800Y-65856265D01*
X187473653Y-65579026D01*
X187365480Y-65317873D01*
X187208437Y-65082841D01*
X187008559Y-64882963D01*
X186773527Y-64725920D01*
X186512374Y-64617747D01*
X186235135Y-64562600D01*
X185952465Y-64562600D01*
X185675226Y-64617747D01*
X185414073Y-64725920D01*
X185179041Y-64882963D01*
X184979163Y-65082841D01*
X184822120Y-65317873D01*
X184713947Y-65579026D01*
X184658800Y-65856265D01*
X184658800Y-66138935D01*
X184713947Y-66416174D01*
X184822120Y-66677327D01*
X184979163Y-66912359D01*
X185179041Y-67112237D01*
X185200721Y-67126723D01*
X185200500Y-67128970D01*
X185204800Y-67172630D01*
X185204800Y-67172636D01*
X185204801Y-67172646D01*
X185204800Y-68405001D01*
X180315459Y-68405001D01*
X180330034Y-68390426D01*
X180216483Y-68276875D01*
X180665177Y-67964692D01*
X180985612Y-67368741D01*
X181183626Y-66721727D01*
X181251610Y-66048516D01*
X181186949Y-65374977D01*
X180992130Y-64726994D01*
X180674639Y-64129470D01*
X180665177Y-64115308D01*
X180216481Y-63803124D01*
X177979605Y-66040000D01*
X177993748Y-66054143D01*
X177814143Y-66233748D01*
X177800000Y-66219605D01*
X177785858Y-66233748D01*
X177606253Y-66054143D01*
X177620395Y-66040000D01*
X175383519Y-63803124D01*
X174934823Y-64115308D01*
X174744936Y-64468463D01*
X171977071Y-61700599D01*
X172077982Y-61511808D01*
X172133047Y-61330282D01*
X174100504Y-63297740D01*
G36*
X168746868Y-57618899D02*
G01*
X168613618Y-57868192D01*
X168531564Y-58138691D01*
X168503857Y-58420000D01*
X168531564Y-58701309D01*
X168556954Y-58785010D01*
X164561273Y-58785010D01*
X164560800Y-58705750D01*
X164402050Y-58547000D01*
X162852800Y-58547000D01*
X162852800Y-58567000D01*
X162598800Y-58567000D01*
X162598800Y-58547000D01*
X162578800Y-58547000D01*
X162578800Y-58293000D01*
X162598800Y-58293000D01*
X162598800Y-58273000D01*
X162852800Y-58273000D01*
X162852800Y-58293000D01*
X164402050Y-58293000D01*
X164560800Y-58134250D01*
X164563872Y-57620000D01*
X164557569Y-57556000D01*
X168798488Y-57556000D01*
X168746868Y-57618899D01*
X168746868Y-57618899D01*
G37*
X168746868Y-57618899D02*
X168613618Y-57868192D01*
X168531564Y-58138691D01*
X168503857Y-58420000D01*
X168531564Y-58701309D01*
X168556954Y-58785010D01*
X164561273Y-58785010D01*
X164560800Y-58705750D01*
X164402050Y-58547000D01*
X162852800Y-58547000D01*
X162852800Y-58567000D01*
X162598800Y-58567000D01*
X162598800Y-58547000D01*
X162578800Y-58547000D01*
X162578800Y-58293000D01*
X162598800Y-58293000D01*
X162598800Y-58273000D01*
X162852800Y-58273000D01*
X162852800Y-58293000D01*
X164402050Y-58293000D01*
X164560800Y-58134250D01*
X164563872Y-57620000D01*
X164557569Y-57556000D01*
X168798488Y-57556000D01*
X168746868Y-57618899D01*
M02*
