M48
; DRILL file {KiCad (5.1.4)-1} date 11/8/2019 5:43:23 PM
; FORMAT={-:-/ absolute / inch / decimal}
; #@! TF.CreationDate,2019-11-08T17:43:23+01:00
; #@! TF.GenerationSoftware,Kicad,Pcbnew,(5.1.4)-1
; #@! TF.FileFunction,Plated,1,2,PTH
FMAT,2
INCH
T1C0.0315
T2C0.0394
%
G90
G05
T1
X6.377Y-2.445
X6.377Y-2.545
X6.377Y-2.645
X6.377Y-2.745
X6.377Y-2.845
X6.377Y-2.945
X6.377Y-3.045
X6.677Y-2.445
X6.677Y-2.545
X6.677Y-2.645
X6.677Y-2.745
X6.677Y-2.845
X6.677Y-2.945
X6.677Y-3.045
X7.297Y-2.744
X7.597Y-2.744
T2
X8.175Y-2.6441
X8.175Y-2.7425
X8.175Y-2.8409
X8.524Y-2.49
X8.524Y-2.6869
X6.8709Y-2.4457
X6.8709Y-3.0457
X6.9709Y-2.4457
X6.9709Y-3.0457
X7.0709Y-2.4457
X7.0709Y-3.0457
X7.1709Y-2.4457
X7.1709Y-3.0457
X7.2709Y-2.4457
X7.2709Y-3.0457
X7.3709Y-2.4457
X7.3709Y-3.0457
X7.4709Y-2.4457
X7.4709Y-3.0457
X7.5709Y-2.4457
X7.5709Y-3.0457
X7.6709Y-2.4457
X7.6709Y-3.0457
X7.7709Y-2.4457
X7.7709Y-3.0457
X7.8709Y-2.4457
X7.8709Y-3.0457
X7.9709Y-2.4457
X7.9709Y-3.0457
T2
G00X8.7Y-2.9894
M15
G01X8.7Y-2.9106
M16
G05
G00X8.8575Y-2.765
M15
G01X8.7787Y-2.765
M16
G05
G00X8.9362Y-2.9894
M15
G01X8.9362Y-2.9106
M16
G05
T0
M30
