G04 #@! TF.GenerationSoftware,KiCad,Pcbnew,(5.1.4)-1*
G04 #@! TF.CreationDate,2019-11-08T17:43:16+01:00*
G04 #@! TF.ProjectId,ArtNetNode,4172744e-6574-44e6-9f64-652e6b696361,rev?*
G04 #@! TF.SameCoordinates,Original*
G04 #@! TF.FileFunction,Copper,L2,Bot*
G04 #@! TF.FilePolarity,Positive*
%FSLAX46Y46*%
G04 Gerber Fmt 4.6, Leading zero omitted, Abs format (unit mm)*
G04 Created by KiCad (PCBNEW (5.1.4)-1) date 2019-11-08 17:43:16*
%MOMM*%
%LPD*%
G04 APERTURE LIST*
%ADD10C,0.250000*%
%ADD11R,3.500000X3.500000*%
%ADD12C,0.100000*%
%ADD13C,3.000000*%
%ADD14C,3.500000*%
%ADD15O,1.300000X2.000000*%
%ADD16R,1.300000X2.000000*%
%ADD17R,2.000000X2.000000*%
%ADD18C,2.000000*%
%ADD19O,2.000000X1.300000*%
%ADD20R,2.000000X1.300000*%
%ADD21C,1.600000*%
%ADD22O,1.600000X1.600000*%
%ADD23R,2.400000X1.600000*%
%ADD24O,2.400000X1.600000*%
%ADD25C,0.500000*%
%ADD26C,0.508000*%
%ADD27C,0.254000*%
G04 APERTURE END LIST*
D10*
X180974809Y-72731380D02*
X180641476Y-73731380D01*
X180308142Y-72731380D01*
X179451000Y-73731380D02*
X180022428Y-73731380D01*
X179736714Y-73731380D02*
X179736714Y-72731380D01*
X179831952Y-72874238D01*
X179927190Y-72969476D01*
X180022428Y-73017095D01*
X179022428Y-73636142D02*
X178974809Y-73683761D01*
X179022428Y-73731380D01*
X179070047Y-73683761D01*
X179022428Y-73636142D01*
X179022428Y-73731380D01*
X178022428Y-73731380D02*
X178593857Y-73731380D01*
X178308142Y-73731380D02*
X178308142Y-72731380D01*
X178403380Y-72874238D01*
X178498619Y-72969476D01*
X178593857Y-73017095D01*
D11*
X220980000Y-74930000D03*
D12*
G36*
X227803513Y-73183611D02*
G01*
X227876318Y-73194411D01*
X227947714Y-73212295D01*
X228017013Y-73237090D01*
X228083548Y-73268559D01*
X228146678Y-73306398D01*
X228205795Y-73350242D01*
X228260330Y-73399670D01*
X228309758Y-73454205D01*
X228353602Y-73513322D01*
X228391441Y-73576452D01*
X228422910Y-73642987D01*
X228447705Y-73712286D01*
X228465589Y-73783682D01*
X228476389Y-73856487D01*
X228480000Y-73930000D01*
X228480000Y-75930000D01*
X228476389Y-76003513D01*
X228465589Y-76076318D01*
X228447705Y-76147714D01*
X228422910Y-76217013D01*
X228391441Y-76283548D01*
X228353602Y-76346678D01*
X228309758Y-76405795D01*
X228260330Y-76460330D01*
X228205795Y-76509758D01*
X228146678Y-76553602D01*
X228083548Y-76591441D01*
X228017013Y-76622910D01*
X227947714Y-76647705D01*
X227876318Y-76665589D01*
X227803513Y-76676389D01*
X227730000Y-76680000D01*
X226230000Y-76680000D01*
X226156487Y-76676389D01*
X226083682Y-76665589D01*
X226012286Y-76647705D01*
X225942987Y-76622910D01*
X225876452Y-76591441D01*
X225813322Y-76553602D01*
X225754205Y-76509758D01*
X225699670Y-76460330D01*
X225650242Y-76405795D01*
X225606398Y-76346678D01*
X225568559Y-76283548D01*
X225537090Y-76217013D01*
X225512295Y-76147714D01*
X225494411Y-76076318D01*
X225483611Y-76003513D01*
X225480000Y-75930000D01*
X225480000Y-73930000D01*
X225483611Y-73856487D01*
X225494411Y-73783682D01*
X225512295Y-73712286D01*
X225537090Y-73642987D01*
X225568559Y-73576452D01*
X225606398Y-73513322D01*
X225650242Y-73454205D01*
X225699670Y-73399670D01*
X225754205Y-73350242D01*
X225813322Y-73306398D01*
X225876452Y-73268559D01*
X225942987Y-73237090D01*
X226012286Y-73212295D01*
X226083682Y-73194411D01*
X226156487Y-73183611D01*
X226230000Y-73180000D01*
X227730000Y-73180000D01*
X227803513Y-73183611D01*
X227803513Y-73183611D01*
G37*
D13*
X226980000Y-74930000D03*
D12*
G36*
X224940765Y-68484213D02*
G01*
X225025704Y-68496813D01*
X225108999Y-68517677D01*
X225189848Y-68546605D01*
X225267472Y-68583319D01*
X225341124Y-68627464D01*
X225410094Y-68678616D01*
X225473718Y-68736282D01*
X225531384Y-68799906D01*
X225582536Y-68868876D01*
X225626681Y-68942528D01*
X225663395Y-69020152D01*
X225692323Y-69101001D01*
X225713187Y-69184296D01*
X225725787Y-69269235D01*
X225730000Y-69355000D01*
X225730000Y-71105000D01*
X225725787Y-71190765D01*
X225713187Y-71275704D01*
X225692323Y-71358999D01*
X225663395Y-71439848D01*
X225626681Y-71517472D01*
X225582536Y-71591124D01*
X225531384Y-71660094D01*
X225473718Y-71723718D01*
X225410094Y-71781384D01*
X225341124Y-71832536D01*
X225267472Y-71876681D01*
X225189848Y-71913395D01*
X225108999Y-71942323D01*
X225025704Y-71963187D01*
X224940765Y-71975787D01*
X224855000Y-71980000D01*
X223105000Y-71980000D01*
X223019235Y-71975787D01*
X222934296Y-71963187D01*
X222851001Y-71942323D01*
X222770152Y-71913395D01*
X222692528Y-71876681D01*
X222618876Y-71832536D01*
X222549906Y-71781384D01*
X222486282Y-71723718D01*
X222428616Y-71660094D01*
X222377464Y-71591124D01*
X222333319Y-71517472D01*
X222296605Y-71439848D01*
X222267677Y-71358999D01*
X222246813Y-71275704D01*
X222234213Y-71190765D01*
X222230000Y-71105000D01*
X222230000Y-69355000D01*
X222234213Y-69269235D01*
X222246813Y-69184296D01*
X222267677Y-69101001D01*
X222296605Y-69020152D01*
X222333319Y-68942528D01*
X222377464Y-68868876D01*
X222428616Y-68799906D01*
X222486282Y-68736282D01*
X222549906Y-68678616D01*
X222618876Y-68627464D01*
X222692528Y-68583319D01*
X222770152Y-68546605D01*
X222851001Y-68517677D01*
X222934296Y-68496813D01*
X223019235Y-68484213D01*
X223105000Y-68480000D01*
X224855000Y-68480000D01*
X224940765Y-68484213D01*
X224940765Y-68484213D01*
G37*
D14*
X223980000Y-70230000D03*
D15*
X192300000Y-62120000D03*
X194840000Y-62120000D03*
X189760000Y-62120000D03*
X177060000Y-62120000D03*
X179600000Y-62120000D03*
D16*
X182140000Y-62120000D03*
D15*
X187220000Y-62120000D03*
X184680000Y-62120000D03*
X184680000Y-77360000D03*
X187220000Y-77360000D03*
X199920000Y-62120000D03*
X189760000Y-77360000D03*
X192300000Y-77360000D03*
X202460000Y-77360000D03*
X194840000Y-77360000D03*
X202460000Y-62120000D03*
X199920000Y-77360000D03*
D16*
X174520000Y-62120000D03*
D15*
X197380000Y-77360000D03*
X197380000Y-62120000D03*
D16*
X182140000Y-77360000D03*
D15*
X179600000Y-77360000D03*
X177060000Y-77360000D03*
D16*
X174520000Y-77360000D03*
D17*
X216509600Y-63246000D03*
D18*
X216509600Y-68246000D03*
D19*
X207645000Y-69659500D03*
X207645000Y-67159500D03*
D20*
X207645000Y-72159500D03*
D21*
X185343800Y-69697600D03*
D22*
X192963800Y-69697600D03*
D23*
X161975800Y-62103000D03*
D24*
X169595800Y-77343000D03*
X161975800Y-64643000D03*
X169595800Y-74803000D03*
X161975800Y-67183000D03*
X169595800Y-72263000D03*
X161975800Y-69723000D03*
X169595800Y-69723000D03*
X161975800Y-72263000D03*
X169595800Y-67183000D03*
X161975800Y-74803000D03*
X169595800Y-64643000D03*
X161975800Y-77343000D03*
X169595800Y-62103000D03*
D25*
X188595000Y-66040000D03*
D12*
G36*
X189095000Y-66790000D02*
G01*
X188595000Y-66790000D01*
X188595000Y-66789398D01*
X188570466Y-66789398D01*
X188521635Y-66784588D01*
X188473510Y-66775016D01*
X188426555Y-66760772D01*
X188381222Y-66741995D01*
X188337949Y-66718864D01*
X188297150Y-66691604D01*
X188259221Y-66660476D01*
X188224524Y-66625779D01*
X188193396Y-66587850D01*
X188166136Y-66547051D01*
X188143005Y-66503778D01*
X188124228Y-66458445D01*
X188109984Y-66411490D01*
X188100412Y-66363365D01*
X188095602Y-66314534D01*
X188095602Y-66290000D01*
X188095000Y-66290000D01*
X188095000Y-65790000D01*
X188095602Y-65790000D01*
X188095602Y-65765466D01*
X188100412Y-65716635D01*
X188109984Y-65668510D01*
X188124228Y-65621555D01*
X188143005Y-65576222D01*
X188166136Y-65532949D01*
X188193396Y-65492150D01*
X188224524Y-65454221D01*
X188259221Y-65419524D01*
X188297150Y-65388396D01*
X188337949Y-65361136D01*
X188381222Y-65338005D01*
X188426555Y-65319228D01*
X188473510Y-65304984D01*
X188521635Y-65295412D01*
X188570466Y-65290602D01*
X188595000Y-65290602D01*
X188595000Y-65290000D01*
X189095000Y-65290000D01*
X189095000Y-66790000D01*
X189095000Y-66790000D01*
G37*
D25*
X189895000Y-66040000D03*
D12*
G36*
X189895000Y-65290602D02*
G01*
X189919534Y-65290602D01*
X189968365Y-65295412D01*
X190016490Y-65304984D01*
X190063445Y-65319228D01*
X190108778Y-65338005D01*
X190152051Y-65361136D01*
X190192850Y-65388396D01*
X190230779Y-65419524D01*
X190265476Y-65454221D01*
X190296604Y-65492150D01*
X190323864Y-65532949D01*
X190346995Y-65576222D01*
X190365772Y-65621555D01*
X190380016Y-65668510D01*
X190389588Y-65716635D01*
X190394398Y-65765466D01*
X190394398Y-65790000D01*
X190395000Y-65790000D01*
X190395000Y-66290000D01*
X190394398Y-66290000D01*
X190394398Y-66314534D01*
X190389588Y-66363365D01*
X190380016Y-66411490D01*
X190365772Y-66458445D01*
X190346995Y-66503778D01*
X190323864Y-66547051D01*
X190296604Y-66587850D01*
X190265476Y-66625779D01*
X190230779Y-66660476D01*
X190192850Y-66691604D01*
X190152051Y-66718864D01*
X190108778Y-66741995D01*
X190063445Y-66760772D01*
X190016490Y-66775016D01*
X189968365Y-66784588D01*
X189919534Y-66789398D01*
X189895000Y-66789398D01*
X189895000Y-66790000D01*
X189395000Y-66790000D01*
X189395000Y-65290000D01*
X189895000Y-65290000D01*
X189895000Y-65290602D01*
X189895000Y-65290602D01*
G37*
D26*
X184543801Y-68897601D02*
X185343800Y-69697600D01*
X181575190Y-65928990D02*
X184543801Y-68897601D01*
X168676373Y-65928990D02*
X181575190Y-65928990D01*
X167422363Y-67183000D02*
X168676373Y-65928990D01*
X161975800Y-67183000D02*
X167422363Y-67183000D01*
X188595000Y-66446400D02*
X185343800Y-69697600D01*
X188595000Y-66040000D02*
X188595000Y-66446400D01*
X199920000Y-62470000D02*
X199920000Y-62120000D01*
X189895000Y-66040000D02*
X196350000Y-66040000D01*
X163683800Y-64643000D02*
X161975800Y-64643000D01*
X164937810Y-63388990D02*
X163683800Y-64643000D01*
X170515227Y-63388990D02*
X164937810Y-63388990D01*
X196350000Y-66040000D02*
X196917500Y-65472500D01*
X196215000Y-64135000D02*
X197235000Y-65155000D01*
X171261237Y-64135000D02*
X196215000Y-64135000D01*
X170515227Y-63388990D02*
X171261237Y-64135000D01*
X196917500Y-65472500D02*
X197235000Y-65155000D01*
X197235000Y-65155000D02*
X199920000Y-62470000D01*
D27*
G36*
X230480000Y-65043381D02*
G01*
X230480001Y-79350000D01*
X160680000Y-79350000D01*
X160680000Y-78470204D01*
X160909317Y-78620166D01*
X161171286Y-78725650D01*
X161448800Y-78778000D01*
X161848800Y-78778000D01*
X161848800Y-77470000D01*
X162102800Y-77470000D01*
X162102800Y-78778000D01*
X162502800Y-78778000D01*
X162780314Y-78725650D01*
X163042283Y-78620166D01*
X163278639Y-78465601D01*
X163480300Y-78267895D01*
X163639515Y-78034646D01*
X163750167Y-77774818D01*
X163767704Y-77692039D01*
X163645715Y-77470000D01*
X162102800Y-77470000D01*
X161848800Y-77470000D01*
X161828800Y-77470000D01*
X161828800Y-77216000D01*
X161848800Y-77216000D01*
X161848800Y-77196000D01*
X162102800Y-77196000D01*
X162102800Y-77216000D01*
X163645715Y-77216000D01*
X163767704Y-76993961D01*
X163750167Y-76911182D01*
X163639515Y-76651354D01*
X163480300Y-76418105D01*
X163278639Y-76220399D01*
X163049059Y-76070265D01*
X163176901Y-76001932D01*
X163395408Y-75822608D01*
X163574732Y-75604101D01*
X163707982Y-75354808D01*
X163790036Y-75084309D01*
X163817743Y-74803000D01*
X163790036Y-74521691D01*
X163707982Y-74251192D01*
X163574732Y-74001899D01*
X163395408Y-73783392D01*
X163176901Y-73604068D01*
X163043942Y-73533000D01*
X163176901Y-73461932D01*
X163395408Y-73282608D01*
X163574732Y-73064101D01*
X163707982Y-72814808D01*
X163790036Y-72544309D01*
X163817743Y-72263000D01*
X163790036Y-71981691D01*
X163707982Y-71711192D01*
X163574732Y-71461899D01*
X163395408Y-71243392D01*
X163176901Y-71064068D01*
X163043942Y-70993000D01*
X163176901Y-70921932D01*
X163395408Y-70742608D01*
X163574732Y-70524101D01*
X163707982Y-70274808D01*
X163790036Y-70004309D01*
X163817743Y-69723000D01*
X163790036Y-69441691D01*
X163707982Y-69171192D01*
X163574732Y-68921899D01*
X163395408Y-68703392D01*
X163176901Y-68524068D01*
X163043942Y-68453000D01*
X163176901Y-68381932D01*
X163395408Y-68202608D01*
X163502595Y-68072000D01*
X167378703Y-68072000D01*
X167422363Y-68076300D01*
X167466023Y-68072000D01*
X167466030Y-68072000D01*
X167596637Y-68059136D01*
X167764214Y-68008303D01*
X167918654Y-67925753D01*
X167951341Y-67898927D01*
X167996868Y-67984101D01*
X168176192Y-68202608D01*
X168394699Y-68381932D01*
X168527658Y-68453000D01*
X168394699Y-68524068D01*
X168176192Y-68703392D01*
X167996868Y-68921899D01*
X167863618Y-69171192D01*
X167781564Y-69441691D01*
X167753857Y-69723000D01*
X167781564Y-70004309D01*
X167863618Y-70274808D01*
X167996868Y-70524101D01*
X168176192Y-70742608D01*
X168394699Y-70921932D01*
X168527658Y-70993000D01*
X168394699Y-71064068D01*
X168176192Y-71243392D01*
X167996868Y-71461899D01*
X167863618Y-71711192D01*
X167781564Y-71981691D01*
X167753857Y-72263000D01*
X167781564Y-72544309D01*
X167863618Y-72814808D01*
X167996868Y-73064101D01*
X168176192Y-73282608D01*
X168394699Y-73461932D01*
X168527658Y-73533000D01*
X168394699Y-73604068D01*
X168176192Y-73783392D01*
X167996868Y-74001899D01*
X167863618Y-74251192D01*
X167781564Y-74521691D01*
X167753857Y-74803000D01*
X167781564Y-75084309D01*
X167863618Y-75354808D01*
X167996868Y-75604101D01*
X168176192Y-75822608D01*
X168394699Y-76001932D01*
X168527658Y-76073000D01*
X168394699Y-76144068D01*
X168176192Y-76323392D01*
X167996868Y-76541899D01*
X167863618Y-76791192D01*
X167781564Y-77061691D01*
X167753857Y-77343000D01*
X167781564Y-77624309D01*
X167863618Y-77894808D01*
X167996868Y-78144101D01*
X168176192Y-78362608D01*
X168394699Y-78541932D01*
X168643992Y-78675182D01*
X168914491Y-78757236D01*
X169125308Y-78778000D01*
X170066292Y-78778000D01*
X170277109Y-78757236D01*
X170547608Y-78675182D01*
X170796901Y-78541932D01*
X171015408Y-78362608D01*
X171017548Y-78360000D01*
X173231928Y-78360000D01*
X173244188Y-78484482D01*
X173280498Y-78604180D01*
X173339463Y-78714494D01*
X173418815Y-78811185D01*
X173515506Y-78890537D01*
X173625820Y-78949502D01*
X173745518Y-78985812D01*
X173870000Y-78998072D01*
X174234250Y-78995000D01*
X174393000Y-78836250D01*
X174393000Y-77487000D01*
X173393750Y-77487000D01*
X173235000Y-77645750D01*
X173231928Y-78360000D01*
X171017548Y-78360000D01*
X171194732Y-78144101D01*
X171327982Y-77894808D01*
X171410036Y-77624309D01*
X171437743Y-77343000D01*
X171410036Y-77061691D01*
X171327982Y-76791192D01*
X171194732Y-76541899D01*
X171045452Y-76360000D01*
X173231928Y-76360000D01*
X173235000Y-77074250D01*
X173393750Y-77233000D01*
X174393000Y-77233000D01*
X174393000Y-75883750D01*
X174647000Y-75883750D01*
X174647000Y-77233000D01*
X174667000Y-77233000D01*
X174667000Y-77487000D01*
X174647000Y-77487000D01*
X174647000Y-78836250D01*
X174805750Y-78995000D01*
X175170000Y-78998072D01*
X175294482Y-78985812D01*
X175414180Y-78949502D01*
X175524494Y-78890537D01*
X175621185Y-78811185D01*
X175700537Y-78714494D01*
X175759502Y-78604180D01*
X175795812Y-78484482D01*
X175808072Y-78360000D01*
X175806543Y-78004595D01*
X175867071Y-78204127D01*
X175986392Y-78427362D01*
X176146973Y-78623028D01*
X176342639Y-78783608D01*
X176565874Y-78902929D01*
X176808097Y-78976407D01*
X177060000Y-79001217D01*
X177311904Y-78976407D01*
X177554127Y-78902929D01*
X177777362Y-78783608D01*
X177973028Y-78623028D01*
X178133608Y-78427362D01*
X178252929Y-78204127D01*
X178326407Y-77961903D01*
X178330000Y-77925423D01*
X178333593Y-77961904D01*
X178407071Y-78204127D01*
X178526392Y-78427362D01*
X178686973Y-78623028D01*
X178882639Y-78783608D01*
X179105874Y-78902929D01*
X179348097Y-78976407D01*
X179600000Y-79001217D01*
X179851904Y-78976407D01*
X180094127Y-78902929D01*
X180317362Y-78783608D01*
X180513028Y-78623028D01*
X180673608Y-78427362D01*
X180792929Y-78204127D01*
X180851928Y-78009635D01*
X180851928Y-78360000D01*
X180864188Y-78484482D01*
X180900498Y-78604180D01*
X180959463Y-78714494D01*
X181038815Y-78811185D01*
X181135506Y-78890537D01*
X181245820Y-78949502D01*
X181365518Y-78985812D01*
X181490000Y-78998072D01*
X182790000Y-78998072D01*
X182914482Y-78985812D01*
X183034180Y-78949502D01*
X183144494Y-78890537D01*
X183241185Y-78811185D01*
X183320537Y-78714494D01*
X183379502Y-78604180D01*
X183415812Y-78484482D01*
X183428072Y-78360000D01*
X183428072Y-78009635D01*
X183487071Y-78204127D01*
X183606392Y-78427362D01*
X183766973Y-78623028D01*
X183962639Y-78783608D01*
X184185874Y-78902929D01*
X184428097Y-78976407D01*
X184680000Y-79001217D01*
X184931904Y-78976407D01*
X185174127Y-78902929D01*
X185397362Y-78783608D01*
X185593028Y-78623028D01*
X185753608Y-78427362D01*
X185872929Y-78204127D01*
X185946407Y-77961903D01*
X185950000Y-77925423D01*
X185953593Y-77961904D01*
X186027071Y-78204127D01*
X186146392Y-78427362D01*
X186306973Y-78623028D01*
X186502639Y-78783608D01*
X186725874Y-78902929D01*
X186968097Y-78976407D01*
X187220000Y-79001217D01*
X187471904Y-78976407D01*
X187714127Y-78902929D01*
X187937362Y-78783608D01*
X188133028Y-78623028D01*
X188293608Y-78427362D01*
X188412929Y-78204127D01*
X188486407Y-77961903D01*
X188490000Y-77925423D01*
X188493593Y-77961904D01*
X188567071Y-78204127D01*
X188686392Y-78427362D01*
X188846973Y-78623028D01*
X189042639Y-78783608D01*
X189265874Y-78902929D01*
X189508097Y-78976407D01*
X189760000Y-79001217D01*
X190011904Y-78976407D01*
X190254127Y-78902929D01*
X190477362Y-78783608D01*
X190673028Y-78623028D01*
X190833608Y-78427362D01*
X190952929Y-78204127D01*
X191026407Y-77961903D01*
X191030000Y-77925423D01*
X191033593Y-77961904D01*
X191107071Y-78204127D01*
X191226392Y-78427362D01*
X191386973Y-78623028D01*
X191582639Y-78783608D01*
X191805874Y-78902929D01*
X192048097Y-78976407D01*
X192300000Y-79001217D01*
X192551904Y-78976407D01*
X192794127Y-78902929D01*
X193017362Y-78783608D01*
X193213028Y-78623028D01*
X193373608Y-78427362D01*
X193492929Y-78204127D01*
X193566407Y-77961903D01*
X193570000Y-77925423D01*
X193573593Y-77961904D01*
X193647071Y-78204127D01*
X193766392Y-78427362D01*
X193926973Y-78623028D01*
X194122639Y-78783608D01*
X194345874Y-78902929D01*
X194588097Y-78976407D01*
X194840000Y-79001217D01*
X195091904Y-78976407D01*
X195334127Y-78902929D01*
X195557362Y-78783608D01*
X195753028Y-78623028D01*
X195913608Y-78427362D01*
X196032929Y-78204127D01*
X196106407Y-77961903D01*
X196110000Y-77925423D01*
X196113593Y-77961904D01*
X196187071Y-78204127D01*
X196306392Y-78427362D01*
X196466973Y-78623028D01*
X196662639Y-78783608D01*
X196885874Y-78902929D01*
X197128097Y-78976407D01*
X197380000Y-79001217D01*
X197631904Y-78976407D01*
X197874127Y-78902929D01*
X198097362Y-78783608D01*
X198293028Y-78623028D01*
X198453608Y-78427362D01*
X198572929Y-78204127D01*
X198646407Y-77961903D01*
X198650000Y-77925423D01*
X198653593Y-77961904D01*
X198727071Y-78204127D01*
X198846392Y-78427362D01*
X199006973Y-78623028D01*
X199202639Y-78783608D01*
X199425874Y-78902929D01*
X199668097Y-78976407D01*
X199920000Y-79001217D01*
X200171904Y-78976407D01*
X200414127Y-78902929D01*
X200637362Y-78783608D01*
X200833028Y-78623028D01*
X200993608Y-78427362D01*
X201112929Y-78204127D01*
X201186407Y-77961903D01*
X201190000Y-77925423D01*
X201193593Y-77961904D01*
X201267071Y-78204127D01*
X201386392Y-78427362D01*
X201546973Y-78623028D01*
X201742639Y-78783608D01*
X201965874Y-78902929D01*
X202208097Y-78976407D01*
X202460000Y-79001217D01*
X202711904Y-78976407D01*
X202954127Y-78902929D01*
X203177362Y-78783608D01*
X203373028Y-78623028D01*
X203533608Y-78427362D01*
X203652929Y-78204127D01*
X203726407Y-77961903D01*
X203745000Y-77773122D01*
X203745000Y-76946877D01*
X203726407Y-76758096D01*
X203652929Y-76515873D01*
X203533608Y-76292638D01*
X203373028Y-76096972D01*
X203178485Y-75937314D01*
X212566405Y-75937314D01*
X212566405Y-76462686D01*
X212668900Y-76977963D01*
X212869951Y-77463343D01*
X213161832Y-77900174D01*
X213533326Y-78271668D01*
X213970157Y-78563549D01*
X214455537Y-78764600D01*
X214970814Y-78867095D01*
X215496186Y-78867095D01*
X216011463Y-78764600D01*
X216496843Y-78563549D01*
X216933674Y-78271668D01*
X217305168Y-77900174D01*
X217597049Y-77463343D01*
X217798100Y-76977963D01*
X217900595Y-76462686D01*
X217900595Y-75937314D01*
X217798100Y-75422037D01*
X217597049Y-74936657D01*
X217305168Y-74499826D01*
X216933674Y-74128332D01*
X216496843Y-73836451D01*
X216011463Y-73635400D01*
X215496186Y-73532905D01*
X214970814Y-73532905D01*
X214455537Y-73635400D01*
X213970157Y-73836451D01*
X213533326Y-74128332D01*
X213161832Y-74499826D01*
X212869951Y-74936657D01*
X212668900Y-75422037D01*
X212566405Y-75937314D01*
X203178485Y-75937314D01*
X203177361Y-75936392D01*
X202954126Y-75817071D01*
X202711903Y-75743593D01*
X202460000Y-75718783D01*
X202208096Y-75743593D01*
X201965873Y-75817071D01*
X201742638Y-75936392D01*
X201546972Y-76096972D01*
X201386392Y-76292639D01*
X201267071Y-76515874D01*
X201193593Y-76758097D01*
X201190000Y-76794577D01*
X201186407Y-76758096D01*
X201112929Y-76515873D01*
X200993608Y-76292638D01*
X200833028Y-76096972D01*
X200637361Y-75936392D01*
X200414126Y-75817071D01*
X200171903Y-75743593D01*
X199920000Y-75718783D01*
X199668096Y-75743593D01*
X199425873Y-75817071D01*
X199202638Y-75936392D01*
X199006972Y-76096972D01*
X198846392Y-76292639D01*
X198727071Y-76515874D01*
X198653593Y-76758097D01*
X198650000Y-76794577D01*
X198646407Y-76758096D01*
X198572929Y-76515873D01*
X198453608Y-76292638D01*
X198293028Y-76096972D01*
X198097361Y-75936392D01*
X197874126Y-75817071D01*
X197631903Y-75743593D01*
X197380000Y-75718783D01*
X197128096Y-75743593D01*
X196885873Y-75817071D01*
X196662638Y-75936392D01*
X196466972Y-76096972D01*
X196306392Y-76292639D01*
X196187071Y-76515874D01*
X196113593Y-76758097D01*
X196110000Y-76794577D01*
X196106407Y-76758096D01*
X196032929Y-76515873D01*
X195913608Y-76292638D01*
X195753028Y-76096972D01*
X195557361Y-75936392D01*
X195334126Y-75817071D01*
X195091903Y-75743593D01*
X194840000Y-75718783D01*
X194588096Y-75743593D01*
X194345873Y-75817071D01*
X194122638Y-75936392D01*
X193926972Y-76096972D01*
X193766392Y-76292639D01*
X193647071Y-76515874D01*
X193573593Y-76758097D01*
X193570000Y-76794577D01*
X193566407Y-76758096D01*
X193492929Y-76515873D01*
X193373608Y-76292638D01*
X193213028Y-76096972D01*
X193017361Y-75936392D01*
X192794126Y-75817071D01*
X192551903Y-75743593D01*
X192300000Y-75718783D01*
X192048096Y-75743593D01*
X191805873Y-75817071D01*
X191582638Y-75936392D01*
X191386972Y-76096972D01*
X191226392Y-76292639D01*
X191107071Y-76515874D01*
X191033593Y-76758097D01*
X191030000Y-76794577D01*
X191026407Y-76758096D01*
X190952929Y-76515873D01*
X190833608Y-76292638D01*
X190673028Y-76096972D01*
X190477361Y-75936392D01*
X190254126Y-75817071D01*
X190011903Y-75743593D01*
X189760000Y-75718783D01*
X189508096Y-75743593D01*
X189265873Y-75817071D01*
X189042638Y-75936392D01*
X188846972Y-76096972D01*
X188686392Y-76292639D01*
X188567071Y-76515874D01*
X188493593Y-76758097D01*
X188490000Y-76794577D01*
X188486407Y-76758096D01*
X188412929Y-76515873D01*
X188293608Y-76292638D01*
X188133028Y-76096972D01*
X187937361Y-75936392D01*
X187714126Y-75817071D01*
X187471903Y-75743593D01*
X187220000Y-75718783D01*
X186968096Y-75743593D01*
X186725873Y-75817071D01*
X186502638Y-75936392D01*
X186306972Y-76096972D01*
X186146392Y-76292639D01*
X186027071Y-76515874D01*
X185953593Y-76758097D01*
X185950000Y-76794577D01*
X185946407Y-76758096D01*
X185872929Y-76515873D01*
X185753608Y-76292638D01*
X185593028Y-76096972D01*
X185397361Y-75936392D01*
X185174126Y-75817071D01*
X184931903Y-75743593D01*
X184680000Y-75718783D01*
X184428096Y-75743593D01*
X184185873Y-75817071D01*
X183962638Y-75936392D01*
X183766972Y-76096972D01*
X183606392Y-76292639D01*
X183487071Y-76515874D01*
X183428072Y-76710365D01*
X183428072Y-76360000D01*
X183415812Y-76235518D01*
X183379502Y-76115820D01*
X183320537Y-76005506D01*
X183241185Y-75908815D01*
X183144494Y-75829463D01*
X183034180Y-75770498D01*
X182914482Y-75734188D01*
X182790000Y-75721928D01*
X181490000Y-75721928D01*
X181365518Y-75734188D01*
X181245820Y-75770498D01*
X181135506Y-75829463D01*
X181038815Y-75908815D01*
X180959463Y-76005506D01*
X180900498Y-76115820D01*
X180864188Y-76235518D01*
X180851928Y-76360000D01*
X180851928Y-76710365D01*
X180792929Y-76515873D01*
X180673608Y-76292638D01*
X180513028Y-76096972D01*
X180317361Y-75936392D01*
X180094126Y-75817071D01*
X179851903Y-75743593D01*
X179600000Y-75718783D01*
X179348096Y-75743593D01*
X179105873Y-75817071D01*
X178882638Y-75936392D01*
X178686972Y-76096972D01*
X178526392Y-76292639D01*
X178407071Y-76515874D01*
X178333593Y-76758097D01*
X178330000Y-76794577D01*
X178326407Y-76758096D01*
X178252929Y-76515873D01*
X178133608Y-76292638D01*
X177973028Y-76096972D01*
X177777361Y-75936392D01*
X177554126Y-75817071D01*
X177311903Y-75743593D01*
X177060000Y-75718783D01*
X176808096Y-75743593D01*
X176565873Y-75817071D01*
X176342638Y-75936392D01*
X176146972Y-76096972D01*
X175986392Y-76292639D01*
X175867071Y-76515874D01*
X175806543Y-76715406D01*
X175808072Y-76360000D01*
X175795812Y-76235518D01*
X175759502Y-76115820D01*
X175700537Y-76005506D01*
X175621185Y-75908815D01*
X175524494Y-75829463D01*
X175414180Y-75770498D01*
X175294482Y-75734188D01*
X175170000Y-75721928D01*
X174805750Y-75725000D01*
X174647000Y-75883750D01*
X174393000Y-75883750D01*
X174234250Y-75725000D01*
X173870000Y-75721928D01*
X173745518Y-75734188D01*
X173625820Y-75770498D01*
X173515506Y-75829463D01*
X173418815Y-75908815D01*
X173339463Y-76005506D01*
X173280498Y-76115820D01*
X173244188Y-76235518D01*
X173231928Y-76360000D01*
X171045452Y-76360000D01*
X171015408Y-76323392D01*
X170796901Y-76144068D01*
X170663942Y-76073000D01*
X170796901Y-76001932D01*
X171015408Y-75822608D01*
X171194732Y-75604101D01*
X171327982Y-75354808D01*
X171410036Y-75084309D01*
X171437743Y-74803000D01*
X171410036Y-74521691D01*
X171327982Y-74251192D01*
X171194732Y-74001899D01*
X171015408Y-73783392D01*
X170796901Y-73604068D01*
X170663942Y-73533000D01*
X170796901Y-73461932D01*
X171015408Y-73282608D01*
X171194732Y-73064101D01*
X171327982Y-72814808D01*
X171410036Y-72544309D01*
X171437743Y-72263000D01*
X171410036Y-71981691D01*
X171327982Y-71711192D01*
X171194732Y-71461899D01*
X171015408Y-71243392D01*
X170796901Y-71064068D01*
X170663942Y-70993000D01*
X170796901Y-70921932D01*
X171015408Y-70742608D01*
X171194732Y-70524101D01*
X171327982Y-70274808D01*
X171410036Y-70004309D01*
X171437743Y-69723000D01*
X171424379Y-69587314D01*
X172592905Y-69587314D01*
X172592905Y-70112686D01*
X172695400Y-70627963D01*
X172896451Y-71113343D01*
X173188332Y-71550174D01*
X173559826Y-71921668D01*
X173996657Y-72213549D01*
X174482037Y-72414600D01*
X174997314Y-72517095D01*
X175522686Y-72517095D01*
X176037963Y-72414600D01*
X176523343Y-72213549D01*
X176960174Y-71921668D01*
X177020342Y-71861500D01*
X177071953Y-71861500D01*
X177071953Y-74881500D01*
X181830048Y-74881500D01*
X181830048Y-72809500D01*
X206006928Y-72809500D01*
X206019188Y-72933982D01*
X206055498Y-73053680D01*
X206114463Y-73163994D01*
X206193815Y-73260685D01*
X206290506Y-73340037D01*
X206400820Y-73399002D01*
X206520518Y-73435312D01*
X206645000Y-73447572D01*
X207359250Y-73444500D01*
X207518000Y-73285750D01*
X207518000Y-72286500D01*
X207772000Y-72286500D01*
X207772000Y-73285750D01*
X207930750Y-73444500D01*
X208645000Y-73447572D01*
X208769482Y-73435312D01*
X208889180Y-73399002D01*
X208999494Y-73340037D01*
X209096185Y-73260685D01*
X209162401Y-73180000D01*
X218591928Y-73180000D01*
X218591928Y-76680000D01*
X218604188Y-76804482D01*
X218640498Y-76924180D01*
X218699463Y-77034494D01*
X218778815Y-77131185D01*
X218875506Y-77210537D01*
X218985820Y-77269502D01*
X219105518Y-77305812D01*
X219230000Y-77318072D01*
X222730000Y-77318072D01*
X222854482Y-77305812D01*
X222974180Y-77269502D01*
X223084494Y-77210537D01*
X223181185Y-77131185D01*
X223260537Y-77034494D01*
X223319502Y-76924180D01*
X223355812Y-76804482D01*
X223368072Y-76680000D01*
X224841928Y-76680000D01*
X224854188Y-76804482D01*
X224890498Y-76924180D01*
X224949463Y-77034494D01*
X225028815Y-77131185D01*
X225125506Y-77210537D01*
X225235820Y-77269502D01*
X225355518Y-77305812D01*
X225480000Y-77318072D01*
X226694250Y-77315000D01*
X226853000Y-77156250D01*
X226853000Y-75057000D01*
X227107000Y-75057000D01*
X227107000Y-77156250D01*
X227265750Y-77315000D01*
X228480000Y-77318072D01*
X228604482Y-77305812D01*
X228724180Y-77269502D01*
X228834494Y-77210537D01*
X228931185Y-77131185D01*
X229010537Y-77034494D01*
X229069502Y-76924180D01*
X229105812Y-76804482D01*
X229118072Y-76680000D01*
X229115000Y-75215750D01*
X228956250Y-75057000D01*
X227107000Y-75057000D01*
X226853000Y-75057000D01*
X225003750Y-75057000D01*
X224845000Y-75215750D01*
X224841928Y-76680000D01*
X223368072Y-76680000D01*
X223368072Y-73180000D01*
X223355812Y-73055518D01*
X223319502Y-72935820D01*
X223260537Y-72825506D01*
X223181185Y-72728815D01*
X223084494Y-72649463D01*
X223022655Y-72616409D01*
X223694250Y-72615000D01*
X223853000Y-72456250D01*
X223853000Y-70357000D01*
X224107000Y-70357000D01*
X224107000Y-72456250D01*
X224265750Y-72615000D01*
X225186367Y-72616931D01*
X225125506Y-72649463D01*
X225028815Y-72728815D01*
X224949463Y-72825506D01*
X224890498Y-72935820D01*
X224854188Y-73055518D01*
X224841928Y-73180000D01*
X224845000Y-74644250D01*
X225003750Y-74803000D01*
X226853000Y-74803000D01*
X226853000Y-72703750D01*
X227107000Y-72703750D01*
X227107000Y-74803000D01*
X228956250Y-74803000D01*
X229115000Y-74644250D01*
X229118072Y-73180000D01*
X229105812Y-73055518D01*
X229069502Y-72935820D01*
X229010537Y-72825506D01*
X228931185Y-72728815D01*
X228834494Y-72649463D01*
X228724180Y-72590498D01*
X228604482Y-72554188D01*
X228480000Y-72541928D01*
X227265750Y-72545000D01*
X227107000Y-72703750D01*
X226853000Y-72703750D01*
X226694250Y-72545000D01*
X226023195Y-72543302D01*
X226084494Y-72510537D01*
X226181185Y-72431185D01*
X226260537Y-72334494D01*
X226319502Y-72224180D01*
X226355812Y-72104482D01*
X226368072Y-71980000D01*
X226365000Y-70515750D01*
X226206250Y-70357000D01*
X224107000Y-70357000D01*
X223853000Y-70357000D01*
X221753750Y-70357000D01*
X221595000Y-70515750D01*
X221591928Y-71980000D01*
X221604188Y-72104482D01*
X221640498Y-72224180D01*
X221699463Y-72334494D01*
X221778815Y-72431185D01*
X221875506Y-72510537D01*
X221934233Y-72541928D01*
X219230000Y-72541928D01*
X219105518Y-72554188D01*
X218985820Y-72590498D01*
X218875506Y-72649463D01*
X218778815Y-72728815D01*
X218699463Y-72825506D01*
X218640498Y-72935820D01*
X218604188Y-73055518D01*
X218591928Y-73180000D01*
X209162401Y-73180000D01*
X209175537Y-73163994D01*
X209234502Y-73053680D01*
X209270812Y-72933982D01*
X209283072Y-72809500D01*
X209280000Y-72445250D01*
X209121250Y-72286500D01*
X207772000Y-72286500D01*
X207518000Y-72286500D01*
X206168750Y-72286500D01*
X206010000Y-72445250D01*
X206006928Y-72809500D01*
X181830048Y-72809500D01*
X181830048Y-71861500D01*
X177071953Y-71861500D01*
X177020342Y-71861500D01*
X177331668Y-71550174D01*
X177623549Y-71113343D01*
X177824600Y-70627963D01*
X177927095Y-70112686D01*
X177927095Y-69587314D01*
X177824600Y-69072037D01*
X177623549Y-68586657D01*
X177331668Y-68149826D01*
X176960174Y-67778332D01*
X176523343Y-67486451D01*
X176037963Y-67285400D01*
X175522686Y-67182905D01*
X174997314Y-67182905D01*
X174482037Y-67285400D01*
X173996657Y-67486451D01*
X173559826Y-67778332D01*
X173188332Y-68149826D01*
X172896451Y-68586657D01*
X172695400Y-69072037D01*
X172592905Y-69587314D01*
X171424379Y-69587314D01*
X171410036Y-69441691D01*
X171327982Y-69171192D01*
X171194732Y-68921899D01*
X171015408Y-68703392D01*
X170796901Y-68524068D01*
X170663942Y-68453000D01*
X170796901Y-68381932D01*
X171015408Y-68202608D01*
X171194732Y-67984101D01*
X171327982Y-67734808D01*
X171410036Y-67464309D01*
X171437743Y-67183000D01*
X171410036Y-66901691D01*
X171384646Y-66817990D01*
X181206955Y-66817990D01*
X183914844Y-69525880D01*
X183908800Y-69556265D01*
X183908800Y-69838935D01*
X183963947Y-70116174D01*
X184072120Y-70377327D01*
X184229163Y-70612359D01*
X184429041Y-70812237D01*
X184664073Y-70969280D01*
X184925226Y-71077453D01*
X185202465Y-71132600D01*
X185485135Y-71132600D01*
X185762374Y-71077453D01*
X186023527Y-70969280D01*
X186258559Y-70812237D01*
X186458437Y-70612359D01*
X186615480Y-70377327D01*
X186723653Y-70116174D01*
X186778800Y-69838935D01*
X186778800Y-69697600D01*
X191521857Y-69697600D01*
X191549564Y-69978909D01*
X191631618Y-70249408D01*
X191764868Y-70498701D01*
X191944192Y-70717208D01*
X192162699Y-70896532D01*
X192411992Y-71029782D01*
X192682491Y-71111836D01*
X192893308Y-71132600D01*
X193034292Y-71132600D01*
X193245109Y-71111836D01*
X193515608Y-71029782D01*
X193764901Y-70896532D01*
X193983408Y-70717208D01*
X194162732Y-70498701D01*
X194295982Y-70249408D01*
X194378036Y-69978909D01*
X194405743Y-69697600D01*
X194378036Y-69416291D01*
X194295982Y-69145792D01*
X194162732Y-68896499D01*
X193983408Y-68677992D01*
X193764901Y-68498668D01*
X193515608Y-68365418D01*
X193245109Y-68283364D01*
X193034292Y-68262600D01*
X192893308Y-68262600D01*
X192682491Y-68283364D01*
X192411992Y-68365418D01*
X192162699Y-68498668D01*
X191944192Y-68677992D01*
X191764868Y-68896499D01*
X191631618Y-69145792D01*
X191549564Y-69416291D01*
X191521857Y-69697600D01*
X186778800Y-69697600D01*
X186778800Y-69556265D01*
X186772756Y-69525879D01*
X188870564Y-67428072D01*
X189095000Y-67428072D01*
X189219482Y-67415812D01*
X189245000Y-67408071D01*
X189270518Y-67415812D01*
X189395000Y-67428072D01*
X189895000Y-67428072D01*
X189919450Y-67425664D01*
X189944009Y-67425664D01*
X190068490Y-67413404D01*
X190164623Y-67394282D01*
X190284319Y-67357973D01*
X190374875Y-67320464D01*
X190485192Y-67261498D01*
X190566691Y-67207042D01*
X190624621Y-67159500D01*
X206003783Y-67159500D01*
X206028593Y-67411404D01*
X206102071Y-67653627D01*
X206221392Y-67876862D01*
X206381972Y-68072528D01*
X206577638Y-68233108D01*
X206800873Y-68352429D01*
X206989010Y-68409500D01*
X206800873Y-68466571D01*
X206577638Y-68585892D01*
X206381972Y-68746472D01*
X206221392Y-68942138D01*
X206102071Y-69165373D01*
X206028593Y-69407596D01*
X206003783Y-69659500D01*
X206028593Y-69911404D01*
X206102071Y-70153627D01*
X206221392Y-70376862D01*
X206381972Y-70572528D01*
X206577638Y-70733108D01*
X206800873Y-70852429D01*
X206866647Y-70872381D01*
X206645000Y-70871428D01*
X206520518Y-70883688D01*
X206400820Y-70919998D01*
X206290506Y-70978963D01*
X206193815Y-71058315D01*
X206114463Y-71155006D01*
X206055498Y-71265320D01*
X206019188Y-71385018D01*
X206006928Y-71509500D01*
X206010000Y-71873750D01*
X206168750Y-72032500D01*
X207518000Y-72032500D01*
X207518000Y-72012500D01*
X207772000Y-72012500D01*
X207772000Y-72032500D01*
X209121250Y-72032500D01*
X209280000Y-71873750D01*
X209283072Y-71509500D01*
X209270812Y-71385018D01*
X209234502Y-71265320D01*
X209175537Y-71155006D01*
X209096185Y-71058315D01*
X208999494Y-70978963D01*
X208889180Y-70919998D01*
X208769482Y-70883688D01*
X208645000Y-70871428D01*
X208423353Y-70872381D01*
X208489127Y-70852429D01*
X208712362Y-70733108D01*
X208908028Y-70572528D01*
X209068608Y-70376862D01*
X209187929Y-70153627D01*
X209261407Y-69911404D01*
X209286217Y-69659500D01*
X209261407Y-69407596D01*
X209253465Y-69381413D01*
X215553792Y-69381413D01*
X215649556Y-69645814D01*
X215939171Y-69786704D01*
X216250708Y-69868384D01*
X216572195Y-69887718D01*
X216891275Y-69843961D01*
X217195688Y-69738795D01*
X217369644Y-69645814D01*
X217465408Y-69381413D01*
X216509600Y-68425605D01*
X215553792Y-69381413D01*
X209253465Y-69381413D01*
X209187929Y-69165373D01*
X209068608Y-68942138D01*
X208908028Y-68746472D01*
X208712362Y-68585892D01*
X208489127Y-68466571D01*
X208300990Y-68409500D01*
X208489127Y-68352429D01*
X208571135Y-68308595D01*
X214867882Y-68308595D01*
X214911639Y-68627675D01*
X215016805Y-68932088D01*
X215109786Y-69106044D01*
X215374187Y-69201808D01*
X216329995Y-68246000D01*
X216689205Y-68246000D01*
X217645013Y-69201808D01*
X217909414Y-69106044D01*
X218050304Y-68816429D01*
X218131984Y-68504892D01*
X218133480Y-68480000D01*
X221591928Y-68480000D01*
X221595000Y-69944250D01*
X221753750Y-70103000D01*
X223853000Y-70103000D01*
X223853000Y-68003750D01*
X224107000Y-68003750D01*
X224107000Y-70103000D01*
X226206250Y-70103000D01*
X226365000Y-69944250D01*
X226368072Y-68480000D01*
X226355812Y-68355518D01*
X226319502Y-68235820D01*
X226260537Y-68125506D01*
X226181185Y-68028815D01*
X226084494Y-67949463D01*
X225974180Y-67890498D01*
X225854482Y-67854188D01*
X225730000Y-67841928D01*
X224265750Y-67845000D01*
X224107000Y-68003750D01*
X223853000Y-68003750D01*
X223694250Y-67845000D01*
X222230000Y-67841928D01*
X222105518Y-67854188D01*
X221985820Y-67890498D01*
X221875506Y-67949463D01*
X221778815Y-68028815D01*
X221699463Y-68125506D01*
X221640498Y-68235820D01*
X221604188Y-68355518D01*
X221591928Y-68480000D01*
X218133480Y-68480000D01*
X218151318Y-68183405D01*
X218107561Y-67864325D01*
X218002395Y-67559912D01*
X217909414Y-67385956D01*
X217645013Y-67290192D01*
X216689205Y-68246000D01*
X216329995Y-68246000D01*
X215374187Y-67290192D01*
X215109786Y-67385956D01*
X214968896Y-67675571D01*
X214887216Y-67987108D01*
X214867882Y-68308595D01*
X208571135Y-68308595D01*
X208712362Y-68233108D01*
X208908028Y-68072528D01*
X209068608Y-67876862D01*
X209187929Y-67653627D01*
X209261407Y-67411404D01*
X209286217Y-67159500D01*
X209281400Y-67110587D01*
X215553792Y-67110587D01*
X216509600Y-68066395D01*
X217465408Y-67110587D01*
X217369644Y-66846186D01*
X217080029Y-66705296D01*
X216768492Y-66623616D01*
X216447005Y-66604282D01*
X216127925Y-66648039D01*
X215823512Y-66753205D01*
X215649556Y-66846186D01*
X215553792Y-67110587D01*
X209281400Y-67110587D01*
X209261407Y-66907596D01*
X209187929Y-66665373D01*
X209068608Y-66442138D01*
X208908028Y-66246472D01*
X208712362Y-66085892D01*
X208489127Y-65966571D01*
X208246904Y-65893093D01*
X208058123Y-65874500D01*
X207231877Y-65874500D01*
X207043096Y-65893093D01*
X206800873Y-65966571D01*
X206577638Y-66085892D01*
X206381972Y-66246472D01*
X206221392Y-66442138D01*
X206102071Y-66665373D01*
X206028593Y-66907596D01*
X206003783Y-67159500D01*
X190624621Y-67159500D01*
X190663382Y-67127690D01*
X190732690Y-67058382D01*
X190812042Y-66961691D01*
X190833885Y-66929000D01*
X196306340Y-66929000D01*
X196350000Y-66933300D01*
X196393660Y-66929000D01*
X196393667Y-66929000D01*
X196524274Y-66916136D01*
X196691851Y-66865303D01*
X196846291Y-66782753D01*
X196981659Y-66671659D01*
X197009499Y-66637736D01*
X197832738Y-65814497D01*
X197866659Y-65786659D01*
X197894497Y-65752738D01*
X199889065Y-63758170D01*
X199920000Y-63761217D01*
X200171904Y-63736407D01*
X200414127Y-63662929D01*
X200637362Y-63543608D01*
X200833028Y-63383028D01*
X200993608Y-63187362D01*
X201112929Y-62964127D01*
X201186407Y-62721903D01*
X201190000Y-62685423D01*
X201193593Y-62721904D01*
X201267071Y-62964127D01*
X201386392Y-63187362D01*
X201546973Y-63383028D01*
X201742639Y-63543608D01*
X201965874Y-63662929D01*
X202208097Y-63736407D01*
X202460000Y-63761217D01*
X202711904Y-63736407D01*
X202954127Y-63662929D01*
X203177362Y-63543608D01*
X203373028Y-63383028D01*
X203533608Y-63187362D01*
X203652929Y-62964127D01*
X203726407Y-62721903D01*
X203745000Y-62533122D01*
X203745000Y-62246000D01*
X214871528Y-62246000D01*
X214871528Y-64246000D01*
X214883788Y-64370482D01*
X214920098Y-64490180D01*
X214979063Y-64600494D01*
X215058415Y-64697185D01*
X215155106Y-64776537D01*
X215265420Y-64835502D01*
X215385118Y-64871812D01*
X215509600Y-64884072D01*
X217509600Y-64884072D01*
X217634082Y-64871812D01*
X217753780Y-64835502D01*
X217864094Y-64776537D01*
X217960785Y-64697185D01*
X218040137Y-64600494D01*
X218099102Y-64490180D01*
X218135412Y-64370482D01*
X218147672Y-64246000D01*
X218147672Y-63237314D01*
X222122905Y-63237314D01*
X222122905Y-63762686D01*
X222225400Y-64277963D01*
X222426451Y-64763343D01*
X222718332Y-65200174D01*
X223089826Y-65571668D01*
X223526657Y-65863549D01*
X224012037Y-66064600D01*
X224527314Y-66167095D01*
X225052686Y-66167095D01*
X225567963Y-66064600D01*
X226053343Y-65863549D01*
X226490174Y-65571668D01*
X226861668Y-65200174D01*
X227153549Y-64763343D01*
X227354600Y-64277963D01*
X227457095Y-63762686D01*
X227457095Y-63237314D01*
X227354600Y-62722037D01*
X227153549Y-62236657D01*
X226861668Y-61799826D01*
X226490174Y-61428332D01*
X226053343Y-61136451D01*
X225567963Y-60935400D01*
X225052686Y-60832905D01*
X224527314Y-60832905D01*
X224012037Y-60935400D01*
X223526657Y-61136451D01*
X223089826Y-61428332D01*
X222718332Y-61799826D01*
X222426451Y-62236657D01*
X222225400Y-62722037D01*
X222122905Y-63237314D01*
X218147672Y-63237314D01*
X218147672Y-62246000D01*
X218135412Y-62121518D01*
X218099102Y-62001820D01*
X218040137Y-61891506D01*
X217960785Y-61794815D01*
X217864094Y-61715463D01*
X217753780Y-61656498D01*
X217634082Y-61620188D01*
X217509600Y-61607928D01*
X215509600Y-61607928D01*
X215385118Y-61620188D01*
X215265420Y-61656498D01*
X215155106Y-61715463D01*
X215058415Y-61794815D01*
X214979063Y-61891506D01*
X214920098Y-62001820D01*
X214883788Y-62121518D01*
X214871528Y-62246000D01*
X203745000Y-62246000D01*
X203745000Y-61706877D01*
X203726407Y-61518096D01*
X203652929Y-61275873D01*
X203533608Y-61052638D01*
X203373028Y-60856972D01*
X203177361Y-60696392D01*
X202954126Y-60577071D01*
X202711903Y-60503593D01*
X202460000Y-60478783D01*
X202208096Y-60503593D01*
X201965873Y-60577071D01*
X201742638Y-60696392D01*
X201546972Y-60856972D01*
X201386392Y-61052639D01*
X201267071Y-61275874D01*
X201193593Y-61518097D01*
X201190000Y-61554577D01*
X201186407Y-61518096D01*
X201112929Y-61275873D01*
X200993608Y-61052638D01*
X200833028Y-60856972D01*
X200637361Y-60696392D01*
X200414126Y-60577071D01*
X200171903Y-60503593D01*
X199920000Y-60478783D01*
X199668096Y-60503593D01*
X199425873Y-60577071D01*
X199202638Y-60696392D01*
X199006972Y-60856972D01*
X198846392Y-61052639D01*
X198727071Y-61275874D01*
X198653593Y-61518097D01*
X198650000Y-61554577D01*
X198646407Y-61518096D01*
X198572929Y-61275873D01*
X198453608Y-61052638D01*
X198293028Y-60856972D01*
X198097361Y-60696392D01*
X197874126Y-60577071D01*
X197631903Y-60503593D01*
X197380000Y-60478783D01*
X197128096Y-60503593D01*
X196885873Y-60577071D01*
X196662638Y-60696392D01*
X196466972Y-60856972D01*
X196306392Y-61052639D01*
X196187071Y-61275874D01*
X196113593Y-61518097D01*
X196110000Y-61554577D01*
X196106407Y-61518096D01*
X196032929Y-61275873D01*
X195913608Y-61052638D01*
X195753028Y-60856972D01*
X195557361Y-60696392D01*
X195334126Y-60577071D01*
X195091903Y-60503593D01*
X194840000Y-60478783D01*
X194588096Y-60503593D01*
X194345873Y-60577071D01*
X194122638Y-60696392D01*
X193926972Y-60856972D01*
X193766392Y-61052639D01*
X193647071Y-61275874D01*
X193573593Y-61518097D01*
X193570000Y-61554577D01*
X193566407Y-61518096D01*
X193492929Y-61275873D01*
X193373608Y-61052638D01*
X193213028Y-60856972D01*
X193017361Y-60696392D01*
X192794126Y-60577071D01*
X192551903Y-60503593D01*
X192300000Y-60478783D01*
X192048096Y-60503593D01*
X191805873Y-60577071D01*
X191582638Y-60696392D01*
X191386972Y-60856972D01*
X191226392Y-61052639D01*
X191107071Y-61275874D01*
X191033593Y-61518097D01*
X191030000Y-61554577D01*
X191026407Y-61518096D01*
X190952929Y-61275873D01*
X190833608Y-61052638D01*
X190673028Y-60856972D01*
X190477361Y-60696392D01*
X190254126Y-60577071D01*
X190011903Y-60503593D01*
X189760000Y-60478783D01*
X189508096Y-60503593D01*
X189265873Y-60577071D01*
X189042638Y-60696392D01*
X188846972Y-60856972D01*
X188686392Y-61052639D01*
X188567071Y-61275874D01*
X188493593Y-61518097D01*
X188490000Y-61554577D01*
X188486407Y-61518096D01*
X188412929Y-61275873D01*
X188293608Y-61052638D01*
X188133028Y-60856972D01*
X187937361Y-60696392D01*
X187714126Y-60577071D01*
X187471903Y-60503593D01*
X187220000Y-60478783D01*
X186968096Y-60503593D01*
X186725873Y-60577071D01*
X186502638Y-60696392D01*
X186306972Y-60856972D01*
X186146392Y-61052639D01*
X186027071Y-61275874D01*
X185953593Y-61518097D01*
X185950000Y-61554577D01*
X185946407Y-61518096D01*
X185872929Y-61275873D01*
X185753608Y-61052638D01*
X185593028Y-60856972D01*
X185397361Y-60696392D01*
X185174126Y-60577071D01*
X184931903Y-60503593D01*
X184680000Y-60478783D01*
X184428096Y-60503593D01*
X184185873Y-60577071D01*
X183962638Y-60696392D01*
X183766972Y-60856972D01*
X183606392Y-61052639D01*
X183487071Y-61275874D01*
X183428072Y-61470365D01*
X183428072Y-61120000D01*
X183415812Y-60995518D01*
X183379502Y-60875820D01*
X183320537Y-60765506D01*
X183241185Y-60668815D01*
X183144494Y-60589463D01*
X183034180Y-60530498D01*
X182914482Y-60494188D01*
X182790000Y-60481928D01*
X181490000Y-60481928D01*
X181365518Y-60494188D01*
X181245820Y-60530498D01*
X181135506Y-60589463D01*
X181038815Y-60668815D01*
X180959463Y-60765506D01*
X180900498Y-60875820D01*
X180864188Y-60995518D01*
X180851928Y-61120000D01*
X180851928Y-61470365D01*
X180792929Y-61275873D01*
X180673608Y-61052638D01*
X180513028Y-60856972D01*
X180317361Y-60696392D01*
X180094126Y-60577071D01*
X179851903Y-60503593D01*
X179600000Y-60478783D01*
X179348096Y-60503593D01*
X179105873Y-60577071D01*
X178882638Y-60696392D01*
X178686972Y-60856972D01*
X178526392Y-61052639D01*
X178407071Y-61275874D01*
X178333593Y-61518097D01*
X178330000Y-61554577D01*
X178326407Y-61518096D01*
X178252929Y-61275873D01*
X178133608Y-61052638D01*
X177973028Y-60856972D01*
X177777361Y-60696392D01*
X177554126Y-60577071D01*
X177311903Y-60503593D01*
X177060000Y-60478783D01*
X176808096Y-60503593D01*
X176565873Y-60577071D01*
X176342638Y-60696392D01*
X176146972Y-60856972D01*
X175986392Y-61052639D01*
X175867071Y-61275874D01*
X175808072Y-61470365D01*
X175808072Y-61120000D01*
X175795812Y-60995518D01*
X175759502Y-60875820D01*
X175700537Y-60765506D01*
X175621185Y-60668815D01*
X175524494Y-60589463D01*
X175414180Y-60530498D01*
X175294482Y-60494188D01*
X175170000Y-60481928D01*
X173870000Y-60481928D01*
X173745518Y-60494188D01*
X173625820Y-60530498D01*
X173515506Y-60589463D01*
X173418815Y-60668815D01*
X173339463Y-60765506D01*
X173280498Y-60875820D01*
X173244188Y-60995518D01*
X173231928Y-61120000D01*
X173231928Y-63120000D01*
X173244188Y-63244482D01*
X173244648Y-63246000D01*
X171629473Y-63246000D01*
X171227071Y-62843599D01*
X171327982Y-62654808D01*
X171410036Y-62384309D01*
X171437743Y-62103000D01*
X171410036Y-61821691D01*
X171327982Y-61551192D01*
X171194732Y-61301899D01*
X171015408Y-61083392D01*
X170796901Y-60904068D01*
X170547608Y-60770818D01*
X170277109Y-60688764D01*
X170066292Y-60668000D01*
X169125308Y-60668000D01*
X168914491Y-60688764D01*
X168643992Y-60770818D01*
X168394699Y-60904068D01*
X168176192Y-61083392D01*
X167996868Y-61301899D01*
X167863618Y-61551192D01*
X167781564Y-61821691D01*
X167753857Y-62103000D01*
X167781564Y-62384309D01*
X167816655Y-62499990D01*
X164981470Y-62499990D01*
X164937810Y-62495690D01*
X164894150Y-62499990D01*
X164894143Y-62499990D01*
X164780135Y-62511219D01*
X164763535Y-62512854D01*
X164696720Y-62533122D01*
X164595959Y-62563687D01*
X164441519Y-62646237D01*
X164306151Y-62757331D01*
X164278316Y-62791249D01*
X163418290Y-63651274D01*
X163395408Y-63623392D01*
X163282318Y-63530581D01*
X163300282Y-63528812D01*
X163419980Y-63492502D01*
X163530294Y-63433537D01*
X163626985Y-63354185D01*
X163706337Y-63257494D01*
X163765302Y-63147180D01*
X163801612Y-63027482D01*
X163813872Y-62903000D01*
X163810800Y-62388750D01*
X163652050Y-62230000D01*
X162102800Y-62230000D01*
X162102800Y-62250000D01*
X161848800Y-62250000D01*
X161848800Y-62230000D01*
X161828800Y-62230000D01*
X161828800Y-61976000D01*
X161848800Y-61976000D01*
X161848800Y-60826750D01*
X162102800Y-60826750D01*
X162102800Y-61976000D01*
X163652050Y-61976000D01*
X163810800Y-61817250D01*
X163813872Y-61303000D01*
X163801612Y-61178518D01*
X163765302Y-61058820D01*
X163706337Y-60948506D01*
X163626985Y-60851815D01*
X163530294Y-60772463D01*
X163419980Y-60713498D01*
X163300282Y-60677188D01*
X163175800Y-60664928D01*
X162261550Y-60668000D01*
X162102800Y-60826750D01*
X161848800Y-60826750D01*
X161690050Y-60668000D01*
X160775800Y-60664928D01*
X160680000Y-60674363D01*
X160680000Y-60350000D01*
X225786620Y-60350000D01*
X230480000Y-65043381D01*
X230480000Y-65043381D01*
G37*
X230480000Y-65043381D02*
X230480001Y-79350000D01*
X160680000Y-79350000D01*
X160680000Y-78470204D01*
X160909317Y-78620166D01*
X161171286Y-78725650D01*
X161448800Y-78778000D01*
X161848800Y-78778000D01*
X161848800Y-77470000D01*
X162102800Y-77470000D01*
X162102800Y-78778000D01*
X162502800Y-78778000D01*
X162780314Y-78725650D01*
X163042283Y-78620166D01*
X163278639Y-78465601D01*
X163480300Y-78267895D01*
X163639515Y-78034646D01*
X163750167Y-77774818D01*
X163767704Y-77692039D01*
X163645715Y-77470000D01*
X162102800Y-77470000D01*
X161848800Y-77470000D01*
X161828800Y-77470000D01*
X161828800Y-77216000D01*
X161848800Y-77216000D01*
X161848800Y-77196000D01*
X162102800Y-77196000D01*
X162102800Y-77216000D01*
X163645715Y-77216000D01*
X163767704Y-76993961D01*
X163750167Y-76911182D01*
X163639515Y-76651354D01*
X163480300Y-76418105D01*
X163278639Y-76220399D01*
X163049059Y-76070265D01*
X163176901Y-76001932D01*
X163395408Y-75822608D01*
X163574732Y-75604101D01*
X163707982Y-75354808D01*
X163790036Y-75084309D01*
X163817743Y-74803000D01*
X163790036Y-74521691D01*
X163707982Y-74251192D01*
X163574732Y-74001899D01*
X163395408Y-73783392D01*
X163176901Y-73604068D01*
X163043942Y-73533000D01*
X163176901Y-73461932D01*
X163395408Y-73282608D01*
X163574732Y-73064101D01*
X163707982Y-72814808D01*
X163790036Y-72544309D01*
X163817743Y-72263000D01*
X163790036Y-71981691D01*
X163707982Y-71711192D01*
X163574732Y-71461899D01*
X163395408Y-71243392D01*
X163176901Y-71064068D01*
X163043942Y-70993000D01*
X163176901Y-70921932D01*
X163395408Y-70742608D01*
X163574732Y-70524101D01*
X163707982Y-70274808D01*
X163790036Y-70004309D01*
X163817743Y-69723000D01*
X163790036Y-69441691D01*
X163707982Y-69171192D01*
X163574732Y-68921899D01*
X163395408Y-68703392D01*
X163176901Y-68524068D01*
X163043942Y-68453000D01*
X163176901Y-68381932D01*
X163395408Y-68202608D01*
X163502595Y-68072000D01*
X167378703Y-68072000D01*
X167422363Y-68076300D01*
X167466023Y-68072000D01*
X167466030Y-68072000D01*
X167596637Y-68059136D01*
X167764214Y-68008303D01*
X167918654Y-67925753D01*
X167951341Y-67898927D01*
X167996868Y-67984101D01*
X168176192Y-68202608D01*
X168394699Y-68381932D01*
X168527658Y-68453000D01*
X168394699Y-68524068D01*
X168176192Y-68703392D01*
X167996868Y-68921899D01*
X167863618Y-69171192D01*
X167781564Y-69441691D01*
X167753857Y-69723000D01*
X167781564Y-70004309D01*
X167863618Y-70274808D01*
X167996868Y-70524101D01*
X168176192Y-70742608D01*
X168394699Y-70921932D01*
X168527658Y-70993000D01*
X168394699Y-71064068D01*
X168176192Y-71243392D01*
X167996868Y-71461899D01*
X167863618Y-71711192D01*
X167781564Y-71981691D01*
X167753857Y-72263000D01*
X167781564Y-72544309D01*
X167863618Y-72814808D01*
X167996868Y-73064101D01*
X168176192Y-73282608D01*
X168394699Y-73461932D01*
X168527658Y-73533000D01*
X168394699Y-73604068D01*
X168176192Y-73783392D01*
X167996868Y-74001899D01*
X167863618Y-74251192D01*
X167781564Y-74521691D01*
X167753857Y-74803000D01*
X167781564Y-75084309D01*
X167863618Y-75354808D01*
X167996868Y-75604101D01*
X168176192Y-75822608D01*
X168394699Y-76001932D01*
X168527658Y-76073000D01*
X168394699Y-76144068D01*
X168176192Y-76323392D01*
X167996868Y-76541899D01*
X167863618Y-76791192D01*
X167781564Y-77061691D01*
X167753857Y-77343000D01*
X167781564Y-77624309D01*
X167863618Y-77894808D01*
X167996868Y-78144101D01*
X168176192Y-78362608D01*
X168394699Y-78541932D01*
X168643992Y-78675182D01*
X168914491Y-78757236D01*
X169125308Y-78778000D01*
X170066292Y-78778000D01*
X170277109Y-78757236D01*
X170547608Y-78675182D01*
X170796901Y-78541932D01*
X171015408Y-78362608D01*
X171017548Y-78360000D01*
X173231928Y-78360000D01*
X173244188Y-78484482D01*
X173280498Y-78604180D01*
X173339463Y-78714494D01*
X173418815Y-78811185D01*
X173515506Y-78890537D01*
X173625820Y-78949502D01*
X173745518Y-78985812D01*
X173870000Y-78998072D01*
X174234250Y-78995000D01*
X174393000Y-78836250D01*
X174393000Y-77487000D01*
X173393750Y-77487000D01*
X173235000Y-77645750D01*
X173231928Y-78360000D01*
X171017548Y-78360000D01*
X171194732Y-78144101D01*
X171327982Y-77894808D01*
X171410036Y-77624309D01*
X171437743Y-77343000D01*
X171410036Y-77061691D01*
X171327982Y-76791192D01*
X171194732Y-76541899D01*
X171045452Y-76360000D01*
X173231928Y-76360000D01*
X173235000Y-77074250D01*
X173393750Y-77233000D01*
X174393000Y-77233000D01*
X174393000Y-75883750D01*
X174647000Y-75883750D01*
X174647000Y-77233000D01*
X174667000Y-77233000D01*
X174667000Y-77487000D01*
X174647000Y-77487000D01*
X174647000Y-78836250D01*
X174805750Y-78995000D01*
X175170000Y-78998072D01*
X175294482Y-78985812D01*
X175414180Y-78949502D01*
X175524494Y-78890537D01*
X175621185Y-78811185D01*
X175700537Y-78714494D01*
X175759502Y-78604180D01*
X175795812Y-78484482D01*
X175808072Y-78360000D01*
X175806543Y-78004595D01*
X175867071Y-78204127D01*
X175986392Y-78427362D01*
X176146973Y-78623028D01*
X176342639Y-78783608D01*
X176565874Y-78902929D01*
X176808097Y-78976407D01*
X177060000Y-79001217D01*
X177311904Y-78976407D01*
X177554127Y-78902929D01*
X177777362Y-78783608D01*
X177973028Y-78623028D01*
X178133608Y-78427362D01*
X178252929Y-78204127D01*
X178326407Y-77961903D01*
X178330000Y-77925423D01*
X178333593Y-77961904D01*
X178407071Y-78204127D01*
X178526392Y-78427362D01*
X178686973Y-78623028D01*
X178882639Y-78783608D01*
X179105874Y-78902929D01*
X179348097Y-78976407D01*
X179600000Y-79001217D01*
X179851904Y-78976407D01*
X180094127Y-78902929D01*
X180317362Y-78783608D01*
X180513028Y-78623028D01*
X180673608Y-78427362D01*
X180792929Y-78204127D01*
X180851928Y-78009635D01*
X180851928Y-78360000D01*
X180864188Y-78484482D01*
X180900498Y-78604180D01*
X180959463Y-78714494D01*
X181038815Y-78811185D01*
X181135506Y-78890537D01*
X181245820Y-78949502D01*
X181365518Y-78985812D01*
X181490000Y-78998072D01*
X182790000Y-78998072D01*
X182914482Y-78985812D01*
X183034180Y-78949502D01*
X183144494Y-78890537D01*
X183241185Y-78811185D01*
X183320537Y-78714494D01*
X183379502Y-78604180D01*
X183415812Y-78484482D01*
X183428072Y-78360000D01*
X183428072Y-78009635D01*
X183487071Y-78204127D01*
X183606392Y-78427362D01*
X183766973Y-78623028D01*
X183962639Y-78783608D01*
X184185874Y-78902929D01*
X184428097Y-78976407D01*
X184680000Y-79001217D01*
X184931904Y-78976407D01*
X185174127Y-78902929D01*
X185397362Y-78783608D01*
X185593028Y-78623028D01*
X185753608Y-78427362D01*
X185872929Y-78204127D01*
X185946407Y-77961903D01*
X185950000Y-77925423D01*
X185953593Y-77961904D01*
X186027071Y-78204127D01*
X186146392Y-78427362D01*
X186306973Y-78623028D01*
X186502639Y-78783608D01*
X186725874Y-78902929D01*
X186968097Y-78976407D01*
X187220000Y-79001217D01*
X187471904Y-78976407D01*
X187714127Y-78902929D01*
X187937362Y-78783608D01*
X188133028Y-78623028D01*
X188293608Y-78427362D01*
X188412929Y-78204127D01*
X188486407Y-77961903D01*
X188490000Y-77925423D01*
X188493593Y-77961904D01*
X188567071Y-78204127D01*
X188686392Y-78427362D01*
X188846973Y-78623028D01*
X189042639Y-78783608D01*
X189265874Y-78902929D01*
X189508097Y-78976407D01*
X189760000Y-79001217D01*
X190011904Y-78976407D01*
X190254127Y-78902929D01*
X190477362Y-78783608D01*
X190673028Y-78623028D01*
X190833608Y-78427362D01*
X190952929Y-78204127D01*
X191026407Y-77961903D01*
X191030000Y-77925423D01*
X191033593Y-77961904D01*
X191107071Y-78204127D01*
X191226392Y-78427362D01*
X191386973Y-78623028D01*
X191582639Y-78783608D01*
X191805874Y-78902929D01*
X192048097Y-78976407D01*
X192300000Y-79001217D01*
X192551904Y-78976407D01*
X192794127Y-78902929D01*
X193017362Y-78783608D01*
X193213028Y-78623028D01*
X193373608Y-78427362D01*
X193492929Y-78204127D01*
X193566407Y-77961903D01*
X193570000Y-77925423D01*
X193573593Y-77961904D01*
X193647071Y-78204127D01*
X193766392Y-78427362D01*
X193926973Y-78623028D01*
X194122639Y-78783608D01*
X194345874Y-78902929D01*
X194588097Y-78976407D01*
X194840000Y-79001217D01*
X195091904Y-78976407D01*
X195334127Y-78902929D01*
X195557362Y-78783608D01*
X195753028Y-78623028D01*
X195913608Y-78427362D01*
X196032929Y-78204127D01*
X196106407Y-77961903D01*
X196110000Y-77925423D01*
X196113593Y-77961904D01*
X196187071Y-78204127D01*
X196306392Y-78427362D01*
X196466973Y-78623028D01*
X196662639Y-78783608D01*
X196885874Y-78902929D01*
X197128097Y-78976407D01*
X197380000Y-79001217D01*
X197631904Y-78976407D01*
X197874127Y-78902929D01*
X198097362Y-78783608D01*
X198293028Y-78623028D01*
X198453608Y-78427362D01*
X198572929Y-78204127D01*
X198646407Y-77961903D01*
X198650000Y-77925423D01*
X198653593Y-77961904D01*
X198727071Y-78204127D01*
X198846392Y-78427362D01*
X199006973Y-78623028D01*
X199202639Y-78783608D01*
X199425874Y-78902929D01*
X199668097Y-78976407D01*
X199920000Y-79001217D01*
X200171904Y-78976407D01*
X200414127Y-78902929D01*
X200637362Y-78783608D01*
X200833028Y-78623028D01*
X200993608Y-78427362D01*
X201112929Y-78204127D01*
X201186407Y-77961903D01*
X201190000Y-77925423D01*
X201193593Y-77961904D01*
X201267071Y-78204127D01*
X201386392Y-78427362D01*
X201546973Y-78623028D01*
X201742639Y-78783608D01*
X201965874Y-78902929D01*
X202208097Y-78976407D01*
X202460000Y-79001217D01*
X202711904Y-78976407D01*
X202954127Y-78902929D01*
X203177362Y-78783608D01*
X203373028Y-78623028D01*
X203533608Y-78427362D01*
X203652929Y-78204127D01*
X203726407Y-77961903D01*
X203745000Y-77773122D01*
X203745000Y-76946877D01*
X203726407Y-76758096D01*
X203652929Y-76515873D01*
X203533608Y-76292638D01*
X203373028Y-76096972D01*
X203178485Y-75937314D01*
X212566405Y-75937314D01*
X212566405Y-76462686D01*
X212668900Y-76977963D01*
X212869951Y-77463343D01*
X213161832Y-77900174D01*
X213533326Y-78271668D01*
X213970157Y-78563549D01*
X214455537Y-78764600D01*
X214970814Y-78867095D01*
X215496186Y-78867095D01*
X216011463Y-78764600D01*
X216496843Y-78563549D01*
X216933674Y-78271668D01*
X217305168Y-77900174D01*
X217597049Y-77463343D01*
X217798100Y-76977963D01*
X217900595Y-76462686D01*
X217900595Y-75937314D01*
X217798100Y-75422037D01*
X217597049Y-74936657D01*
X217305168Y-74499826D01*
X216933674Y-74128332D01*
X216496843Y-73836451D01*
X216011463Y-73635400D01*
X215496186Y-73532905D01*
X214970814Y-73532905D01*
X214455537Y-73635400D01*
X213970157Y-73836451D01*
X213533326Y-74128332D01*
X213161832Y-74499826D01*
X212869951Y-74936657D01*
X212668900Y-75422037D01*
X212566405Y-75937314D01*
X203178485Y-75937314D01*
X203177361Y-75936392D01*
X202954126Y-75817071D01*
X202711903Y-75743593D01*
X202460000Y-75718783D01*
X202208096Y-75743593D01*
X201965873Y-75817071D01*
X201742638Y-75936392D01*
X201546972Y-76096972D01*
X201386392Y-76292639D01*
X201267071Y-76515874D01*
X201193593Y-76758097D01*
X201190000Y-76794577D01*
X201186407Y-76758096D01*
X201112929Y-76515873D01*
X200993608Y-76292638D01*
X200833028Y-76096972D01*
X200637361Y-75936392D01*
X200414126Y-75817071D01*
X200171903Y-75743593D01*
X199920000Y-75718783D01*
X199668096Y-75743593D01*
X199425873Y-75817071D01*
X199202638Y-75936392D01*
X199006972Y-76096972D01*
X198846392Y-76292639D01*
X198727071Y-76515874D01*
X198653593Y-76758097D01*
X198650000Y-76794577D01*
X198646407Y-76758096D01*
X198572929Y-76515873D01*
X198453608Y-76292638D01*
X198293028Y-76096972D01*
X198097361Y-75936392D01*
X197874126Y-75817071D01*
X197631903Y-75743593D01*
X197380000Y-75718783D01*
X197128096Y-75743593D01*
X196885873Y-75817071D01*
X196662638Y-75936392D01*
X196466972Y-76096972D01*
X196306392Y-76292639D01*
X196187071Y-76515874D01*
X196113593Y-76758097D01*
X196110000Y-76794577D01*
X196106407Y-76758096D01*
X196032929Y-76515873D01*
X195913608Y-76292638D01*
X195753028Y-76096972D01*
X195557361Y-75936392D01*
X195334126Y-75817071D01*
X195091903Y-75743593D01*
X194840000Y-75718783D01*
X194588096Y-75743593D01*
X194345873Y-75817071D01*
X194122638Y-75936392D01*
X193926972Y-76096972D01*
X193766392Y-76292639D01*
X193647071Y-76515874D01*
X193573593Y-76758097D01*
X193570000Y-76794577D01*
X193566407Y-76758096D01*
X193492929Y-76515873D01*
X193373608Y-76292638D01*
X193213028Y-76096972D01*
X193017361Y-75936392D01*
X192794126Y-75817071D01*
X192551903Y-75743593D01*
X192300000Y-75718783D01*
X192048096Y-75743593D01*
X191805873Y-75817071D01*
X191582638Y-75936392D01*
X191386972Y-76096972D01*
X191226392Y-76292639D01*
X191107071Y-76515874D01*
X191033593Y-76758097D01*
X191030000Y-76794577D01*
X191026407Y-76758096D01*
X190952929Y-76515873D01*
X190833608Y-76292638D01*
X190673028Y-76096972D01*
X190477361Y-75936392D01*
X190254126Y-75817071D01*
X190011903Y-75743593D01*
X189760000Y-75718783D01*
X189508096Y-75743593D01*
X189265873Y-75817071D01*
X189042638Y-75936392D01*
X188846972Y-76096972D01*
X188686392Y-76292639D01*
X188567071Y-76515874D01*
X188493593Y-76758097D01*
X188490000Y-76794577D01*
X188486407Y-76758096D01*
X188412929Y-76515873D01*
X188293608Y-76292638D01*
X188133028Y-76096972D01*
X187937361Y-75936392D01*
X187714126Y-75817071D01*
X187471903Y-75743593D01*
X187220000Y-75718783D01*
X186968096Y-75743593D01*
X186725873Y-75817071D01*
X186502638Y-75936392D01*
X186306972Y-76096972D01*
X186146392Y-76292639D01*
X186027071Y-76515874D01*
X185953593Y-76758097D01*
X185950000Y-76794577D01*
X185946407Y-76758096D01*
X185872929Y-76515873D01*
X185753608Y-76292638D01*
X185593028Y-76096972D01*
X185397361Y-75936392D01*
X185174126Y-75817071D01*
X184931903Y-75743593D01*
X184680000Y-75718783D01*
X184428096Y-75743593D01*
X184185873Y-75817071D01*
X183962638Y-75936392D01*
X183766972Y-76096972D01*
X183606392Y-76292639D01*
X183487071Y-76515874D01*
X183428072Y-76710365D01*
X183428072Y-76360000D01*
X183415812Y-76235518D01*
X183379502Y-76115820D01*
X183320537Y-76005506D01*
X183241185Y-75908815D01*
X183144494Y-75829463D01*
X183034180Y-75770498D01*
X182914482Y-75734188D01*
X182790000Y-75721928D01*
X181490000Y-75721928D01*
X181365518Y-75734188D01*
X181245820Y-75770498D01*
X181135506Y-75829463D01*
X181038815Y-75908815D01*
X180959463Y-76005506D01*
X180900498Y-76115820D01*
X180864188Y-76235518D01*
X180851928Y-76360000D01*
X180851928Y-76710365D01*
X180792929Y-76515873D01*
X180673608Y-76292638D01*
X180513028Y-76096972D01*
X180317361Y-75936392D01*
X180094126Y-75817071D01*
X179851903Y-75743593D01*
X179600000Y-75718783D01*
X179348096Y-75743593D01*
X179105873Y-75817071D01*
X178882638Y-75936392D01*
X178686972Y-76096972D01*
X178526392Y-76292639D01*
X178407071Y-76515874D01*
X178333593Y-76758097D01*
X178330000Y-76794577D01*
X178326407Y-76758096D01*
X178252929Y-76515873D01*
X178133608Y-76292638D01*
X177973028Y-76096972D01*
X177777361Y-75936392D01*
X177554126Y-75817071D01*
X177311903Y-75743593D01*
X177060000Y-75718783D01*
X176808096Y-75743593D01*
X176565873Y-75817071D01*
X176342638Y-75936392D01*
X176146972Y-76096972D01*
X175986392Y-76292639D01*
X175867071Y-76515874D01*
X175806543Y-76715406D01*
X175808072Y-76360000D01*
X175795812Y-76235518D01*
X175759502Y-76115820D01*
X175700537Y-76005506D01*
X175621185Y-75908815D01*
X175524494Y-75829463D01*
X175414180Y-75770498D01*
X175294482Y-75734188D01*
X175170000Y-75721928D01*
X174805750Y-75725000D01*
X174647000Y-75883750D01*
X174393000Y-75883750D01*
X174234250Y-75725000D01*
X173870000Y-75721928D01*
X173745518Y-75734188D01*
X173625820Y-75770498D01*
X173515506Y-75829463D01*
X173418815Y-75908815D01*
X173339463Y-76005506D01*
X173280498Y-76115820D01*
X173244188Y-76235518D01*
X173231928Y-76360000D01*
X171045452Y-76360000D01*
X171015408Y-76323392D01*
X170796901Y-76144068D01*
X170663942Y-76073000D01*
X170796901Y-76001932D01*
X171015408Y-75822608D01*
X171194732Y-75604101D01*
X171327982Y-75354808D01*
X171410036Y-75084309D01*
X171437743Y-74803000D01*
X171410036Y-74521691D01*
X171327982Y-74251192D01*
X171194732Y-74001899D01*
X171015408Y-73783392D01*
X170796901Y-73604068D01*
X170663942Y-73533000D01*
X170796901Y-73461932D01*
X171015408Y-73282608D01*
X171194732Y-73064101D01*
X171327982Y-72814808D01*
X171410036Y-72544309D01*
X171437743Y-72263000D01*
X171410036Y-71981691D01*
X171327982Y-71711192D01*
X171194732Y-71461899D01*
X171015408Y-71243392D01*
X170796901Y-71064068D01*
X170663942Y-70993000D01*
X170796901Y-70921932D01*
X171015408Y-70742608D01*
X171194732Y-70524101D01*
X171327982Y-70274808D01*
X171410036Y-70004309D01*
X171437743Y-69723000D01*
X171424379Y-69587314D01*
X172592905Y-69587314D01*
X172592905Y-70112686D01*
X172695400Y-70627963D01*
X172896451Y-71113343D01*
X173188332Y-71550174D01*
X173559826Y-71921668D01*
X173996657Y-72213549D01*
X174482037Y-72414600D01*
X174997314Y-72517095D01*
X175522686Y-72517095D01*
X176037963Y-72414600D01*
X176523343Y-72213549D01*
X176960174Y-71921668D01*
X177020342Y-71861500D01*
X177071953Y-71861500D01*
X177071953Y-74881500D01*
X181830048Y-74881500D01*
X181830048Y-72809500D01*
X206006928Y-72809500D01*
X206019188Y-72933982D01*
X206055498Y-73053680D01*
X206114463Y-73163994D01*
X206193815Y-73260685D01*
X206290506Y-73340037D01*
X206400820Y-73399002D01*
X206520518Y-73435312D01*
X206645000Y-73447572D01*
X207359250Y-73444500D01*
X207518000Y-73285750D01*
X207518000Y-72286500D01*
X207772000Y-72286500D01*
X207772000Y-73285750D01*
X207930750Y-73444500D01*
X208645000Y-73447572D01*
X208769482Y-73435312D01*
X208889180Y-73399002D01*
X208999494Y-73340037D01*
X209096185Y-73260685D01*
X209162401Y-73180000D01*
X218591928Y-73180000D01*
X218591928Y-76680000D01*
X218604188Y-76804482D01*
X218640498Y-76924180D01*
X218699463Y-77034494D01*
X218778815Y-77131185D01*
X218875506Y-77210537D01*
X218985820Y-77269502D01*
X219105518Y-77305812D01*
X219230000Y-77318072D01*
X222730000Y-77318072D01*
X222854482Y-77305812D01*
X222974180Y-77269502D01*
X223084494Y-77210537D01*
X223181185Y-77131185D01*
X223260537Y-77034494D01*
X223319502Y-76924180D01*
X223355812Y-76804482D01*
X223368072Y-76680000D01*
X224841928Y-76680000D01*
X224854188Y-76804482D01*
X224890498Y-76924180D01*
X224949463Y-77034494D01*
X225028815Y-77131185D01*
X225125506Y-77210537D01*
X225235820Y-77269502D01*
X225355518Y-77305812D01*
X225480000Y-77318072D01*
X226694250Y-77315000D01*
X226853000Y-77156250D01*
X226853000Y-75057000D01*
X227107000Y-75057000D01*
X227107000Y-77156250D01*
X227265750Y-77315000D01*
X228480000Y-77318072D01*
X228604482Y-77305812D01*
X228724180Y-77269502D01*
X228834494Y-77210537D01*
X228931185Y-77131185D01*
X229010537Y-77034494D01*
X229069502Y-76924180D01*
X229105812Y-76804482D01*
X229118072Y-76680000D01*
X229115000Y-75215750D01*
X228956250Y-75057000D01*
X227107000Y-75057000D01*
X226853000Y-75057000D01*
X225003750Y-75057000D01*
X224845000Y-75215750D01*
X224841928Y-76680000D01*
X223368072Y-76680000D01*
X223368072Y-73180000D01*
X223355812Y-73055518D01*
X223319502Y-72935820D01*
X223260537Y-72825506D01*
X223181185Y-72728815D01*
X223084494Y-72649463D01*
X223022655Y-72616409D01*
X223694250Y-72615000D01*
X223853000Y-72456250D01*
X223853000Y-70357000D01*
X224107000Y-70357000D01*
X224107000Y-72456250D01*
X224265750Y-72615000D01*
X225186367Y-72616931D01*
X225125506Y-72649463D01*
X225028815Y-72728815D01*
X224949463Y-72825506D01*
X224890498Y-72935820D01*
X224854188Y-73055518D01*
X224841928Y-73180000D01*
X224845000Y-74644250D01*
X225003750Y-74803000D01*
X226853000Y-74803000D01*
X226853000Y-72703750D01*
X227107000Y-72703750D01*
X227107000Y-74803000D01*
X228956250Y-74803000D01*
X229115000Y-74644250D01*
X229118072Y-73180000D01*
X229105812Y-73055518D01*
X229069502Y-72935820D01*
X229010537Y-72825506D01*
X228931185Y-72728815D01*
X228834494Y-72649463D01*
X228724180Y-72590498D01*
X228604482Y-72554188D01*
X228480000Y-72541928D01*
X227265750Y-72545000D01*
X227107000Y-72703750D01*
X226853000Y-72703750D01*
X226694250Y-72545000D01*
X226023195Y-72543302D01*
X226084494Y-72510537D01*
X226181185Y-72431185D01*
X226260537Y-72334494D01*
X226319502Y-72224180D01*
X226355812Y-72104482D01*
X226368072Y-71980000D01*
X226365000Y-70515750D01*
X226206250Y-70357000D01*
X224107000Y-70357000D01*
X223853000Y-70357000D01*
X221753750Y-70357000D01*
X221595000Y-70515750D01*
X221591928Y-71980000D01*
X221604188Y-72104482D01*
X221640498Y-72224180D01*
X221699463Y-72334494D01*
X221778815Y-72431185D01*
X221875506Y-72510537D01*
X221934233Y-72541928D01*
X219230000Y-72541928D01*
X219105518Y-72554188D01*
X218985820Y-72590498D01*
X218875506Y-72649463D01*
X218778815Y-72728815D01*
X218699463Y-72825506D01*
X218640498Y-72935820D01*
X218604188Y-73055518D01*
X218591928Y-73180000D01*
X209162401Y-73180000D01*
X209175537Y-73163994D01*
X209234502Y-73053680D01*
X209270812Y-72933982D01*
X209283072Y-72809500D01*
X209280000Y-72445250D01*
X209121250Y-72286500D01*
X207772000Y-72286500D01*
X207518000Y-72286500D01*
X206168750Y-72286500D01*
X206010000Y-72445250D01*
X206006928Y-72809500D01*
X181830048Y-72809500D01*
X181830048Y-71861500D01*
X177071953Y-71861500D01*
X177020342Y-71861500D01*
X177331668Y-71550174D01*
X177623549Y-71113343D01*
X177824600Y-70627963D01*
X177927095Y-70112686D01*
X177927095Y-69587314D01*
X177824600Y-69072037D01*
X177623549Y-68586657D01*
X177331668Y-68149826D01*
X176960174Y-67778332D01*
X176523343Y-67486451D01*
X176037963Y-67285400D01*
X175522686Y-67182905D01*
X174997314Y-67182905D01*
X174482037Y-67285400D01*
X173996657Y-67486451D01*
X173559826Y-67778332D01*
X173188332Y-68149826D01*
X172896451Y-68586657D01*
X172695400Y-69072037D01*
X172592905Y-69587314D01*
X171424379Y-69587314D01*
X171410036Y-69441691D01*
X171327982Y-69171192D01*
X171194732Y-68921899D01*
X171015408Y-68703392D01*
X170796901Y-68524068D01*
X170663942Y-68453000D01*
X170796901Y-68381932D01*
X171015408Y-68202608D01*
X171194732Y-67984101D01*
X171327982Y-67734808D01*
X171410036Y-67464309D01*
X171437743Y-67183000D01*
X171410036Y-66901691D01*
X171384646Y-66817990D01*
X181206955Y-66817990D01*
X183914844Y-69525880D01*
X183908800Y-69556265D01*
X183908800Y-69838935D01*
X183963947Y-70116174D01*
X184072120Y-70377327D01*
X184229163Y-70612359D01*
X184429041Y-70812237D01*
X184664073Y-70969280D01*
X184925226Y-71077453D01*
X185202465Y-71132600D01*
X185485135Y-71132600D01*
X185762374Y-71077453D01*
X186023527Y-70969280D01*
X186258559Y-70812237D01*
X186458437Y-70612359D01*
X186615480Y-70377327D01*
X186723653Y-70116174D01*
X186778800Y-69838935D01*
X186778800Y-69697600D01*
X191521857Y-69697600D01*
X191549564Y-69978909D01*
X191631618Y-70249408D01*
X191764868Y-70498701D01*
X191944192Y-70717208D01*
X192162699Y-70896532D01*
X192411992Y-71029782D01*
X192682491Y-71111836D01*
X192893308Y-71132600D01*
X193034292Y-71132600D01*
X193245109Y-71111836D01*
X193515608Y-71029782D01*
X193764901Y-70896532D01*
X193983408Y-70717208D01*
X194162732Y-70498701D01*
X194295982Y-70249408D01*
X194378036Y-69978909D01*
X194405743Y-69697600D01*
X194378036Y-69416291D01*
X194295982Y-69145792D01*
X194162732Y-68896499D01*
X193983408Y-68677992D01*
X193764901Y-68498668D01*
X193515608Y-68365418D01*
X193245109Y-68283364D01*
X193034292Y-68262600D01*
X192893308Y-68262600D01*
X192682491Y-68283364D01*
X192411992Y-68365418D01*
X192162699Y-68498668D01*
X191944192Y-68677992D01*
X191764868Y-68896499D01*
X191631618Y-69145792D01*
X191549564Y-69416291D01*
X191521857Y-69697600D01*
X186778800Y-69697600D01*
X186778800Y-69556265D01*
X186772756Y-69525879D01*
X188870564Y-67428072D01*
X189095000Y-67428072D01*
X189219482Y-67415812D01*
X189245000Y-67408071D01*
X189270518Y-67415812D01*
X189395000Y-67428072D01*
X189895000Y-67428072D01*
X189919450Y-67425664D01*
X189944009Y-67425664D01*
X190068490Y-67413404D01*
X190164623Y-67394282D01*
X190284319Y-67357973D01*
X190374875Y-67320464D01*
X190485192Y-67261498D01*
X190566691Y-67207042D01*
X190624621Y-67159500D01*
X206003783Y-67159500D01*
X206028593Y-67411404D01*
X206102071Y-67653627D01*
X206221392Y-67876862D01*
X206381972Y-68072528D01*
X206577638Y-68233108D01*
X206800873Y-68352429D01*
X206989010Y-68409500D01*
X206800873Y-68466571D01*
X206577638Y-68585892D01*
X206381972Y-68746472D01*
X206221392Y-68942138D01*
X206102071Y-69165373D01*
X206028593Y-69407596D01*
X206003783Y-69659500D01*
X206028593Y-69911404D01*
X206102071Y-70153627D01*
X206221392Y-70376862D01*
X206381972Y-70572528D01*
X206577638Y-70733108D01*
X206800873Y-70852429D01*
X206866647Y-70872381D01*
X206645000Y-70871428D01*
X206520518Y-70883688D01*
X206400820Y-70919998D01*
X206290506Y-70978963D01*
X206193815Y-71058315D01*
X206114463Y-71155006D01*
X206055498Y-71265320D01*
X206019188Y-71385018D01*
X206006928Y-71509500D01*
X206010000Y-71873750D01*
X206168750Y-72032500D01*
X207518000Y-72032500D01*
X207518000Y-72012500D01*
X207772000Y-72012500D01*
X207772000Y-72032500D01*
X209121250Y-72032500D01*
X209280000Y-71873750D01*
X209283072Y-71509500D01*
X209270812Y-71385018D01*
X209234502Y-71265320D01*
X209175537Y-71155006D01*
X209096185Y-71058315D01*
X208999494Y-70978963D01*
X208889180Y-70919998D01*
X208769482Y-70883688D01*
X208645000Y-70871428D01*
X208423353Y-70872381D01*
X208489127Y-70852429D01*
X208712362Y-70733108D01*
X208908028Y-70572528D01*
X209068608Y-70376862D01*
X209187929Y-70153627D01*
X209261407Y-69911404D01*
X209286217Y-69659500D01*
X209261407Y-69407596D01*
X209253465Y-69381413D01*
X215553792Y-69381413D01*
X215649556Y-69645814D01*
X215939171Y-69786704D01*
X216250708Y-69868384D01*
X216572195Y-69887718D01*
X216891275Y-69843961D01*
X217195688Y-69738795D01*
X217369644Y-69645814D01*
X217465408Y-69381413D01*
X216509600Y-68425605D01*
X215553792Y-69381413D01*
X209253465Y-69381413D01*
X209187929Y-69165373D01*
X209068608Y-68942138D01*
X208908028Y-68746472D01*
X208712362Y-68585892D01*
X208489127Y-68466571D01*
X208300990Y-68409500D01*
X208489127Y-68352429D01*
X208571135Y-68308595D01*
X214867882Y-68308595D01*
X214911639Y-68627675D01*
X215016805Y-68932088D01*
X215109786Y-69106044D01*
X215374187Y-69201808D01*
X216329995Y-68246000D01*
X216689205Y-68246000D01*
X217645013Y-69201808D01*
X217909414Y-69106044D01*
X218050304Y-68816429D01*
X218131984Y-68504892D01*
X218133480Y-68480000D01*
X221591928Y-68480000D01*
X221595000Y-69944250D01*
X221753750Y-70103000D01*
X223853000Y-70103000D01*
X223853000Y-68003750D01*
X224107000Y-68003750D01*
X224107000Y-70103000D01*
X226206250Y-70103000D01*
X226365000Y-69944250D01*
X226368072Y-68480000D01*
X226355812Y-68355518D01*
X226319502Y-68235820D01*
X226260537Y-68125506D01*
X226181185Y-68028815D01*
X226084494Y-67949463D01*
X225974180Y-67890498D01*
X225854482Y-67854188D01*
X225730000Y-67841928D01*
X224265750Y-67845000D01*
X224107000Y-68003750D01*
X223853000Y-68003750D01*
X223694250Y-67845000D01*
X222230000Y-67841928D01*
X222105518Y-67854188D01*
X221985820Y-67890498D01*
X221875506Y-67949463D01*
X221778815Y-68028815D01*
X221699463Y-68125506D01*
X221640498Y-68235820D01*
X221604188Y-68355518D01*
X221591928Y-68480000D01*
X218133480Y-68480000D01*
X218151318Y-68183405D01*
X218107561Y-67864325D01*
X218002395Y-67559912D01*
X217909414Y-67385956D01*
X217645013Y-67290192D01*
X216689205Y-68246000D01*
X216329995Y-68246000D01*
X215374187Y-67290192D01*
X215109786Y-67385956D01*
X214968896Y-67675571D01*
X214887216Y-67987108D01*
X214867882Y-68308595D01*
X208571135Y-68308595D01*
X208712362Y-68233108D01*
X208908028Y-68072528D01*
X209068608Y-67876862D01*
X209187929Y-67653627D01*
X209261407Y-67411404D01*
X209286217Y-67159500D01*
X209281400Y-67110587D01*
X215553792Y-67110587D01*
X216509600Y-68066395D01*
X217465408Y-67110587D01*
X217369644Y-66846186D01*
X217080029Y-66705296D01*
X216768492Y-66623616D01*
X216447005Y-66604282D01*
X216127925Y-66648039D01*
X215823512Y-66753205D01*
X215649556Y-66846186D01*
X215553792Y-67110587D01*
X209281400Y-67110587D01*
X209261407Y-66907596D01*
X209187929Y-66665373D01*
X209068608Y-66442138D01*
X208908028Y-66246472D01*
X208712362Y-66085892D01*
X208489127Y-65966571D01*
X208246904Y-65893093D01*
X208058123Y-65874500D01*
X207231877Y-65874500D01*
X207043096Y-65893093D01*
X206800873Y-65966571D01*
X206577638Y-66085892D01*
X206381972Y-66246472D01*
X206221392Y-66442138D01*
X206102071Y-66665373D01*
X206028593Y-66907596D01*
X206003783Y-67159500D01*
X190624621Y-67159500D01*
X190663382Y-67127690D01*
X190732690Y-67058382D01*
X190812042Y-66961691D01*
X190833885Y-66929000D01*
X196306340Y-66929000D01*
X196350000Y-66933300D01*
X196393660Y-66929000D01*
X196393667Y-66929000D01*
X196524274Y-66916136D01*
X196691851Y-66865303D01*
X196846291Y-66782753D01*
X196981659Y-66671659D01*
X197009499Y-66637736D01*
X197832738Y-65814497D01*
X197866659Y-65786659D01*
X197894497Y-65752738D01*
X199889065Y-63758170D01*
X199920000Y-63761217D01*
X200171904Y-63736407D01*
X200414127Y-63662929D01*
X200637362Y-63543608D01*
X200833028Y-63383028D01*
X200993608Y-63187362D01*
X201112929Y-62964127D01*
X201186407Y-62721903D01*
X201190000Y-62685423D01*
X201193593Y-62721904D01*
X201267071Y-62964127D01*
X201386392Y-63187362D01*
X201546973Y-63383028D01*
X201742639Y-63543608D01*
X201965874Y-63662929D01*
X202208097Y-63736407D01*
X202460000Y-63761217D01*
X202711904Y-63736407D01*
X202954127Y-63662929D01*
X203177362Y-63543608D01*
X203373028Y-63383028D01*
X203533608Y-63187362D01*
X203652929Y-62964127D01*
X203726407Y-62721903D01*
X203745000Y-62533122D01*
X203745000Y-62246000D01*
X214871528Y-62246000D01*
X214871528Y-64246000D01*
X214883788Y-64370482D01*
X214920098Y-64490180D01*
X214979063Y-64600494D01*
X215058415Y-64697185D01*
X215155106Y-64776537D01*
X215265420Y-64835502D01*
X215385118Y-64871812D01*
X215509600Y-64884072D01*
X217509600Y-64884072D01*
X217634082Y-64871812D01*
X217753780Y-64835502D01*
X217864094Y-64776537D01*
X217960785Y-64697185D01*
X218040137Y-64600494D01*
X218099102Y-64490180D01*
X218135412Y-64370482D01*
X218147672Y-64246000D01*
X218147672Y-63237314D01*
X222122905Y-63237314D01*
X222122905Y-63762686D01*
X222225400Y-64277963D01*
X222426451Y-64763343D01*
X222718332Y-65200174D01*
X223089826Y-65571668D01*
X223526657Y-65863549D01*
X224012037Y-66064600D01*
X224527314Y-66167095D01*
X225052686Y-66167095D01*
X225567963Y-66064600D01*
X226053343Y-65863549D01*
X226490174Y-65571668D01*
X226861668Y-65200174D01*
X227153549Y-64763343D01*
X227354600Y-64277963D01*
X227457095Y-63762686D01*
X227457095Y-63237314D01*
X227354600Y-62722037D01*
X227153549Y-62236657D01*
X226861668Y-61799826D01*
X226490174Y-61428332D01*
X226053343Y-61136451D01*
X225567963Y-60935400D01*
X225052686Y-60832905D01*
X224527314Y-60832905D01*
X224012037Y-60935400D01*
X223526657Y-61136451D01*
X223089826Y-61428332D01*
X222718332Y-61799826D01*
X222426451Y-62236657D01*
X222225400Y-62722037D01*
X222122905Y-63237314D01*
X218147672Y-63237314D01*
X218147672Y-62246000D01*
X218135412Y-62121518D01*
X218099102Y-62001820D01*
X218040137Y-61891506D01*
X217960785Y-61794815D01*
X217864094Y-61715463D01*
X217753780Y-61656498D01*
X217634082Y-61620188D01*
X217509600Y-61607928D01*
X215509600Y-61607928D01*
X215385118Y-61620188D01*
X215265420Y-61656498D01*
X215155106Y-61715463D01*
X215058415Y-61794815D01*
X214979063Y-61891506D01*
X214920098Y-62001820D01*
X214883788Y-62121518D01*
X214871528Y-62246000D01*
X203745000Y-62246000D01*
X203745000Y-61706877D01*
X203726407Y-61518096D01*
X203652929Y-61275873D01*
X203533608Y-61052638D01*
X203373028Y-60856972D01*
X203177361Y-60696392D01*
X202954126Y-60577071D01*
X202711903Y-60503593D01*
X202460000Y-60478783D01*
X202208096Y-60503593D01*
X201965873Y-60577071D01*
X201742638Y-60696392D01*
X201546972Y-60856972D01*
X201386392Y-61052639D01*
X201267071Y-61275874D01*
X201193593Y-61518097D01*
X201190000Y-61554577D01*
X201186407Y-61518096D01*
X201112929Y-61275873D01*
X200993608Y-61052638D01*
X200833028Y-60856972D01*
X200637361Y-60696392D01*
X200414126Y-60577071D01*
X200171903Y-60503593D01*
X199920000Y-60478783D01*
X199668096Y-60503593D01*
X199425873Y-60577071D01*
X199202638Y-60696392D01*
X199006972Y-60856972D01*
X198846392Y-61052639D01*
X198727071Y-61275874D01*
X198653593Y-61518097D01*
X198650000Y-61554577D01*
X198646407Y-61518096D01*
X198572929Y-61275873D01*
X198453608Y-61052638D01*
X198293028Y-60856972D01*
X198097361Y-60696392D01*
X197874126Y-60577071D01*
X197631903Y-60503593D01*
X197380000Y-60478783D01*
X197128096Y-60503593D01*
X196885873Y-60577071D01*
X196662638Y-60696392D01*
X196466972Y-60856972D01*
X196306392Y-61052639D01*
X196187071Y-61275874D01*
X196113593Y-61518097D01*
X196110000Y-61554577D01*
X196106407Y-61518096D01*
X196032929Y-61275873D01*
X195913608Y-61052638D01*
X195753028Y-60856972D01*
X195557361Y-60696392D01*
X195334126Y-60577071D01*
X195091903Y-60503593D01*
X194840000Y-60478783D01*
X194588096Y-60503593D01*
X194345873Y-60577071D01*
X194122638Y-60696392D01*
X193926972Y-60856972D01*
X193766392Y-61052639D01*
X193647071Y-61275874D01*
X193573593Y-61518097D01*
X193570000Y-61554577D01*
X193566407Y-61518096D01*
X193492929Y-61275873D01*
X193373608Y-61052638D01*
X193213028Y-60856972D01*
X193017361Y-60696392D01*
X192794126Y-60577071D01*
X192551903Y-60503593D01*
X192300000Y-60478783D01*
X192048096Y-60503593D01*
X191805873Y-60577071D01*
X191582638Y-60696392D01*
X191386972Y-60856972D01*
X191226392Y-61052639D01*
X191107071Y-61275874D01*
X191033593Y-61518097D01*
X191030000Y-61554577D01*
X191026407Y-61518096D01*
X190952929Y-61275873D01*
X190833608Y-61052638D01*
X190673028Y-60856972D01*
X190477361Y-60696392D01*
X190254126Y-60577071D01*
X190011903Y-60503593D01*
X189760000Y-60478783D01*
X189508096Y-60503593D01*
X189265873Y-60577071D01*
X189042638Y-60696392D01*
X188846972Y-60856972D01*
X188686392Y-61052639D01*
X188567071Y-61275874D01*
X188493593Y-61518097D01*
X188490000Y-61554577D01*
X188486407Y-61518096D01*
X188412929Y-61275873D01*
X188293608Y-61052638D01*
X188133028Y-60856972D01*
X187937361Y-60696392D01*
X187714126Y-60577071D01*
X187471903Y-60503593D01*
X187220000Y-60478783D01*
X186968096Y-60503593D01*
X186725873Y-60577071D01*
X186502638Y-60696392D01*
X186306972Y-60856972D01*
X186146392Y-61052639D01*
X186027071Y-61275874D01*
X185953593Y-61518097D01*
X185950000Y-61554577D01*
X185946407Y-61518096D01*
X185872929Y-61275873D01*
X185753608Y-61052638D01*
X185593028Y-60856972D01*
X185397361Y-60696392D01*
X185174126Y-60577071D01*
X184931903Y-60503593D01*
X184680000Y-60478783D01*
X184428096Y-60503593D01*
X184185873Y-60577071D01*
X183962638Y-60696392D01*
X183766972Y-60856972D01*
X183606392Y-61052639D01*
X183487071Y-61275874D01*
X183428072Y-61470365D01*
X183428072Y-61120000D01*
X183415812Y-60995518D01*
X183379502Y-60875820D01*
X183320537Y-60765506D01*
X183241185Y-60668815D01*
X183144494Y-60589463D01*
X183034180Y-60530498D01*
X182914482Y-60494188D01*
X182790000Y-60481928D01*
X181490000Y-60481928D01*
X181365518Y-60494188D01*
X181245820Y-60530498D01*
X181135506Y-60589463D01*
X181038815Y-60668815D01*
X180959463Y-60765506D01*
X180900498Y-60875820D01*
X180864188Y-60995518D01*
X180851928Y-61120000D01*
X180851928Y-61470365D01*
X180792929Y-61275873D01*
X180673608Y-61052638D01*
X180513028Y-60856972D01*
X180317361Y-60696392D01*
X180094126Y-60577071D01*
X179851903Y-60503593D01*
X179600000Y-60478783D01*
X179348096Y-60503593D01*
X179105873Y-60577071D01*
X178882638Y-60696392D01*
X178686972Y-60856972D01*
X178526392Y-61052639D01*
X178407071Y-61275874D01*
X178333593Y-61518097D01*
X178330000Y-61554577D01*
X178326407Y-61518096D01*
X178252929Y-61275873D01*
X178133608Y-61052638D01*
X177973028Y-60856972D01*
X177777361Y-60696392D01*
X177554126Y-60577071D01*
X177311903Y-60503593D01*
X177060000Y-60478783D01*
X176808096Y-60503593D01*
X176565873Y-60577071D01*
X176342638Y-60696392D01*
X176146972Y-60856972D01*
X175986392Y-61052639D01*
X175867071Y-61275874D01*
X175808072Y-61470365D01*
X175808072Y-61120000D01*
X175795812Y-60995518D01*
X175759502Y-60875820D01*
X175700537Y-60765506D01*
X175621185Y-60668815D01*
X175524494Y-60589463D01*
X175414180Y-60530498D01*
X175294482Y-60494188D01*
X175170000Y-60481928D01*
X173870000Y-60481928D01*
X173745518Y-60494188D01*
X173625820Y-60530498D01*
X173515506Y-60589463D01*
X173418815Y-60668815D01*
X173339463Y-60765506D01*
X173280498Y-60875820D01*
X173244188Y-60995518D01*
X173231928Y-61120000D01*
X173231928Y-63120000D01*
X173244188Y-63244482D01*
X173244648Y-63246000D01*
X171629473Y-63246000D01*
X171227071Y-62843599D01*
X171327982Y-62654808D01*
X171410036Y-62384309D01*
X171437743Y-62103000D01*
X171410036Y-61821691D01*
X171327982Y-61551192D01*
X171194732Y-61301899D01*
X171015408Y-61083392D01*
X170796901Y-60904068D01*
X170547608Y-60770818D01*
X170277109Y-60688764D01*
X170066292Y-60668000D01*
X169125308Y-60668000D01*
X168914491Y-60688764D01*
X168643992Y-60770818D01*
X168394699Y-60904068D01*
X168176192Y-61083392D01*
X167996868Y-61301899D01*
X167863618Y-61551192D01*
X167781564Y-61821691D01*
X167753857Y-62103000D01*
X167781564Y-62384309D01*
X167816655Y-62499990D01*
X164981470Y-62499990D01*
X164937810Y-62495690D01*
X164894150Y-62499990D01*
X164894143Y-62499990D01*
X164780135Y-62511219D01*
X164763535Y-62512854D01*
X164696720Y-62533122D01*
X164595959Y-62563687D01*
X164441519Y-62646237D01*
X164306151Y-62757331D01*
X164278316Y-62791249D01*
X163418290Y-63651274D01*
X163395408Y-63623392D01*
X163282318Y-63530581D01*
X163300282Y-63528812D01*
X163419980Y-63492502D01*
X163530294Y-63433537D01*
X163626985Y-63354185D01*
X163706337Y-63257494D01*
X163765302Y-63147180D01*
X163801612Y-63027482D01*
X163813872Y-62903000D01*
X163810800Y-62388750D01*
X163652050Y-62230000D01*
X162102800Y-62230000D01*
X162102800Y-62250000D01*
X161848800Y-62250000D01*
X161848800Y-62230000D01*
X161828800Y-62230000D01*
X161828800Y-61976000D01*
X161848800Y-61976000D01*
X161848800Y-60826750D01*
X162102800Y-60826750D01*
X162102800Y-61976000D01*
X163652050Y-61976000D01*
X163810800Y-61817250D01*
X163813872Y-61303000D01*
X163801612Y-61178518D01*
X163765302Y-61058820D01*
X163706337Y-60948506D01*
X163626985Y-60851815D01*
X163530294Y-60772463D01*
X163419980Y-60713498D01*
X163300282Y-60677188D01*
X163175800Y-60664928D01*
X162261550Y-60668000D01*
X162102800Y-60826750D01*
X161848800Y-60826750D01*
X161690050Y-60668000D01*
X160775800Y-60664928D01*
X160680000Y-60674363D01*
X160680000Y-60350000D01*
X225786620Y-60350000D01*
X230480000Y-65043381D01*
M02*
