G04 #@! TF.GenerationSoftware,KiCad,Pcbnew,(5.1.4)-1*
G04 #@! TF.CreationDate,2019-11-08T17:43:16+01:00*
G04 #@! TF.ProjectId,ArtNetNode,4172744e-6574-44e6-9f64-652e6b696361,rev?*
G04 #@! TF.SameCoordinates,Original*
G04 #@! TF.FileFunction,Legend,Bot*
G04 #@! TF.FilePolarity,Positive*
%FSLAX46Y46*%
G04 Gerber Fmt 4.6, Leading zero omitted, Abs format (unit mm)*
G04 Created by KiCad (PCBNEW (5.1.4)-1) date 2019-11-08 17:43:16*
%MOMM*%
%LPD*%
G04 APERTURE LIST*
%ADD10C,0.150000*%
%ADD11C,0.120000*%
G04 APERTURE END LIST*
D10*
X195475666Y-65841571D02*
X195332809Y-65889190D01*
X195285190Y-65936809D01*
X195237571Y-66032047D01*
X195237571Y-66174904D01*
X195285190Y-66270142D01*
X195332809Y-66317761D01*
X195428047Y-66365380D01*
X195809000Y-66365380D01*
X195809000Y-65365380D01*
X195475666Y-65365380D01*
X195380428Y-65413000D01*
X195332809Y-65460619D01*
X195285190Y-65555857D01*
X195285190Y-65651095D01*
X195332809Y-65746333D01*
X195380428Y-65793952D01*
X195475666Y-65841571D01*
X195809000Y-65841571D01*
X194809000Y-66365380D02*
X194809000Y-65698714D01*
X194809000Y-65889190D02*
X194761380Y-65793952D01*
X194713761Y-65746333D01*
X194618523Y-65698714D01*
X194523285Y-65698714D01*
X194189952Y-66365380D02*
X194189952Y-65698714D01*
X194189952Y-65365380D02*
X194237571Y-65413000D01*
X194189952Y-65460619D01*
X194142333Y-65413000D01*
X194189952Y-65365380D01*
X194189952Y-65460619D01*
X193285190Y-66365380D02*
X193285190Y-65365380D01*
X193285190Y-66317761D02*
X193380428Y-66365380D01*
X193570904Y-66365380D01*
X193666142Y-66317761D01*
X193713761Y-66270142D01*
X193761380Y-66174904D01*
X193761380Y-65889190D01*
X193713761Y-65793952D01*
X193666142Y-65746333D01*
X193570904Y-65698714D01*
X193380428Y-65698714D01*
X193285190Y-65746333D01*
X192380428Y-65698714D02*
X192380428Y-66508238D01*
X192428047Y-66603476D01*
X192475666Y-66651095D01*
X192570904Y-66698714D01*
X192713761Y-66698714D01*
X192809000Y-66651095D01*
X192380428Y-66317761D02*
X192475666Y-66365380D01*
X192666142Y-66365380D01*
X192761380Y-66317761D01*
X192809000Y-66270142D01*
X192856619Y-66174904D01*
X192856619Y-65889190D01*
X192809000Y-65793952D01*
X192761380Y-65746333D01*
X192666142Y-65698714D01*
X192475666Y-65698714D01*
X192380428Y-65746333D01*
X191523285Y-66317761D02*
X191618523Y-66365380D01*
X191809000Y-66365380D01*
X191904238Y-66317761D01*
X191951857Y-66222523D01*
X191951857Y-65841571D01*
X191904238Y-65746333D01*
X191809000Y-65698714D01*
X191618523Y-65698714D01*
X191523285Y-65746333D01*
X191475666Y-65841571D01*
X191475666Y-65936809D01*
X191951857Y-66032047D01*
X187094714Y-66365380D02*
X187189952Y-66317761D01*
X187237571Y-66270142D01*
X187285190Y-66174904D01*
X187285190Y-65889190D01*
X187237571Y-65793952D01*
X187189952Y-65746333D01*
X187094714Y-65698714D01*
X186951857Y-65698714D01*
X186856619Y-65746333D01*
X186809000Y-65793952D01*
X186761380Y-65889190D01*
X186761380Y-66174904D01*
X186809000Y-66270142D01*
X186856619Y-66317761D01*
X186951857Y-66365380D01*
X187094714Y-66365380D01*
X186332809Y-66365380D02*
X186332809Y-65698714D01*
X186332809Y-65889190D02*
X186285190Y-65793952D01*
X186237571Y-65746333D01*
X186142333Y-65698714D01*
X186047095Y-65698714D01*
X184523285Y-66317761D02*
X184618523Y-66365380D01*
X184809000Y-66365380D01*
X184904238Y-66317761D01*
X184951857Y-66270142D01*
X184999476Y-66174904D01*
X184999476Y-65889190D01*
X184951857Y-65793952D01*
X184904238Y-65746333D01*
X184809000Y-65698714D01*
X184618523Y-65698714D01*
X184523285Y-65746333D01*
X183951857Y-66365380D02*
X184047095Y-66317761D01*
X184094714Y-66270142D01*
X184142333Y-66174904D01*
X184142333Y-65889190D01*
X184094714Y-65793952D01*
X184047095Y-65746333D01*
X183951857Y-65698714D01*
X183809000Y-65698714D01*
X183713761Y-65746333D01*
X183666142Y-65793952D01*
X183618523Y-65889190D01*
X183618523Y-66174904D01*
X183666142Y-66270142D01*
X183713761Y-66317761D01*
X183809000Y-66365380D01*
X183951857Y-66365380D01*
X183189952Y-65698714D02*
X183189952Y-66365380D01*
X183189952Y-65793952D02*
X183142333Y-65746333D01*
X183047095Y-65698714D01*
X182904238Y-65698714D01*
X182809000Y-65746333D01*
X182761380Y-65841571D01*
X182761380Y-66365380D01*
X182285190Y-65698714D02*
X182285190Y-66365380D01*
X182285190Y-65793952D02*
X182237571Y-65746333D01*
X182142333Y-65698714D01*
X181999476Y-65698714D01*
X181904238Y-65746333D01*
X181856619Y-65841571D01*
X181856619Y-66365380D01*
X180999476Y-66317761D02*
X181094714Y-66365380D01*
X181285190Y-66365380D01*
X181380428Y-66317761D01*
X181428047Y-66222523D01*
X181428047Y-65841571D01*
X181380428Y-65746333D01*
X181285190Y-65698714D01*
X181094714Y-65698714D01*
X180999476Y-65746333D01*
X180951857Y-65841571D01*
X180951857Y-65936809D01*
X181428047Y-66032047D01*
X180094714Y-66317761D02*
X180189952Y-66365380D01*
X180380428Y-66365380D01*
X180475666Y-66317761D01*
X180523285Y-66270142D01*
X180570904Y-66174904D01*
X180570904Y-65889190D01*
X180523285Y-65793952D01*
X180475666Y-65746333D01*
X180380428Y-65698714D01*
X180189952Y-65698714D01*
X180094714Y-65746333D01*
X179809000Y-65698714D02*
X179428047Y-65698714D01*
X179666142Y-65365380D02*
X179666142Y-66222523D01*
X179618523Y-66317761D01*
X179523285Y-66365380D01*
X179428047Y-66365380D01*
X178332809Y-65365380D02*
X178332809Y-66174904D01*
X178285190Y-66270142D01*
X178237571Y-66317761D01*
X178142333Y-66365380D01*
X177951857Y-66365380D01*
X177856619Y-66317761D01*
X177809000Y-66270142D01*
X177761380Y-66174904D01*
X177761380Y-65365380D01*
X176761380Y-66365380D02*
X177332809Y-66365380D01*
X177047095Y-66365380D02*
X177047095Y-65365380D01*
X177142333Y-65508238D01*
X177237571Y-65603476D01*
X177332809Y-65651095D01*
X203865500Y-72667880D02*
X203627404Y-73667880D01*
X203436928Y-72953595D01*
X203246452Y-73667880D01*
X203008357Y-72667880D01*
X202627404Y-73667880D02*
X202627404Y-73001214D01*
X202627404Y-72667880D02*
X202675023Y-72715500D01*
X202627404Y-72763119D01*
X202579785Y-72715500D01*
X202627404Y-72667880D01*
X202627404Y-72763119D01*
X202294071Y-73001214D02*
X201913119Y-73001214D01*
X202151214Y-73667880D02*
X202151214Y-72810738D01*
X202103595Y-72715500D01*
X202008357Y-72667880D01*
X201913119Y-72667880D01*
X201579785Y-73667880D02*
X201579785Y-73001214D01*
X201579785Y-72667880D02*
X201627404Y-72715500D01*
X201579785Y-72763119D01*
X201532166Y-72715500D01*
X201579785Y-72667880D01*
X201579785Y-72763119D01*
X200341690Y-73667880D02*
X200341690Y-72667880D01*
X199770261Y-73667880D02*
X200198833Y-73096452D01*
X199770261Y-72667880D02*
X200341690Y-73239309D01*
X199341690Y-73667880D02*
X199341690Y-73001214D01*
X199341690Y-72667880D02*
X199389309Y-72715500D01*
X199341690Y-72763119D01*
X199294071Y-72715500D01*
X199341690Y-72667880D01*
X199341690Y-72763119D01*
X199008357Y-73001214D02*
X198627404Y-73001214D01*
X198865500Y-72667880D02*
X198865500Y-73525023D01*
X198817880Y-73620261D01*
X198722642Y-73667880D01*
X198627404Y-73667880D01*
X197389309Y-73096452D02*
X197484547Y-73048833D01*
X197532166Y-73001214D01*
X197579785Y-72905976D01*
X197579785Y-72858357D01*
X197532166Y-72763119D01*
X197484547Y-72715500D01*
X197389309Y-72667880D01*
X197198833Y-72667880D01*
X197103595Y-72715500D01*
X197055976Y-72763119D01*
X197008357Y-72858357D01*
X197008357Y-72905976D01*
X197055976Y-73001214D01*
X197103595Y-73048833D01*
X197198833Y-73096452D01*
X197389309Y-73096452D01*
X197484547Y-73144071D01*
X197532166Y-73191690D01*
X197579785Y-73286928D01*
X197579785Y-73477404D01*
X197532166Y-73572642D01*
X197484547Y-73620261D01*
X197389309Y-73667880D01*
X197198833Y-73667880D01*
X197103595Y-73620261D01*
X197055976Y-73572642D01*
X197008357Y-73477404D01*
X197008357Y-73286928D01*
X197055976Y-73191690D01*
X197103595Y-73144071D01*
X197198833Y-73096452D01*
X195341690Y-73667880D02*
X195817880Y-73667880D01*
X195817880Y-72667880D01*
X195008357Y-73144071D02*
X194675023Y-73144071D01*
X194532166Y-73667880D02*
X195008357Y-73667880D01*
X195008357Y-72667880D01*
X194532166Y-72667880D01*
X194103595Y-73667880D02*
X194103595Y-72667880D01*
X193865500Y-72667880D01*
X193722642Y-72715500D01*
X193627404Y-72810738D01*
X193579785Y-72905976D01*
X193532166Y-73096452D01*
X193532166Y-73239309D01*
X193579785Y-73429785D01*
X193627404Y-73525023D01*
X193722642Y-73620261D01*
X193865500Y-73667880D01*
X194103595Y-73667880D01*
X192389309Y-73382166D02*
X191913119Y-73382166D01*
X192484547Y-73667880D02*
X192151214Y-72667880D01*
X191817880Y-73667880D01*
X191484547Y-73667880D02*
X191484547Y-73001214D01*
X191484547Y-73191690D02*
X191436928Y-73096452D01*
X191389309Y-73048833D01*
X191294071Y-73001214D01*
X191198833Y-73001214D01*
X191008357Y-73001214D02*
X190627404Y-73001214D01*
X190865500Y-72667880D02*
X190865500Y-73525023D01*
X190817880Y-73620261D01*
X190722642Y-73667880D01*
X190627404Y-73667880D01*
X190294071Y-73001214D02*
X190294071Y-73667880D01*
X190294071Y-73096452D02*
X190246452Y-73048833D01*
X190151214Y-73001214D01*
X190008357Y-73001214D01*
X189913119Y-73048833D01*
X189865500Y-73144071D01*
X189865500Y-73667880D01*
X189008357Y-73620261D02*
X189103595Y-73667880D01*
X189294071Y-73667880D01*
X189389309Y-73620261D01*
X189436928Y-73525023D01*
X189436928Y-73144071D01*
X189389309Y-73048833D01*
X189294071Y-73001214D01*
X189103595Y-73001214D01*
X189008357Y-73048833D01*
X188960738Y-73144071D01*
X188960738Y-73239309D01*
X189436928Y-73334547D01*
X188675023Y-73001214D02*
X188294071Y-73001214D01*
X188532166Y-72667880D02*
X188532166Y-73525023D01*
X188484547Y-73620261D01*
X188389309Y-73667880D01*
X188294071Y-73667880D01*
X187198833Y-73667880D02*
X187198833Y-72667880D01*
X186627404Y-73667880D01*
X186627404Y-72667880D01*
X186008357Y-73667880D02*
X186103595Y-73620261D01*
X186151214Y-73572642D01*
X186198833Y-73477404D01*
X186198833Y-73191690D01*
X186151214Y-73096452D01*
X186103595Y-73048833D01*
X186008357Y-73001214D01*
X185865500Y-73001214D01*
X185770261Y-73048833D01*
X185722642Y-73096452D01*
X185675023Y-73191690D01*
X185675023Y-73477404D01*
X185722642Y-73572642D01*
X185770261Y-73620261D01*
X185865500Y-73667880D01*
X186008357Y-73667880D01*
X184817880Y-73667880D02*
X184817880Y-72667880D01*
X184817880Y-73620261D02*
X184913119Y-73667880D01*
X185103595Y-73667880D01*
X185198833Y-73620261D01*
X185246452Y-73572642D01*
X185294071Y-73477404D01*
X185294071Y-73191690D01*
X185246452Y-73096452D01*
X185198833Y-73048833D01*
X185103595Y-73001214D01*
X184913119Y-73001214D01*
X184817880Y-73048833D01*
X183960738Y-73620261D02*
X184055976Y-73667880D01*
X184246452Y-73667880D01*
X184341690Y-73620261D01*
X184389309Y-73525023D01*
X184389309Y-73144071D01*
X184341690Y-73048833D01*
X184246452Y-73001214D01*
X184055976Y-73001214D01*
X183960738Y-73048833D01*
X183913119Y-73144071D01*
X183913119Y-73239309D01*
X184389309Y-73334547D01*
D11*
X189945000Y-67040000D02*
G75*
G03X190645000Y-66340000I0J700000D01*
G01*
X190645000Y-65740000D02*
G75*
G03X189945000Y-65040000I-700000J0D01*
G01*
X188545000Y-65040000D02*
G75*
G03X187845000Y-65740000I0J-700000D01*
G01*
X187845000Y-66340000D02*
G75*
G03X188545000Y-67040000I700000J0D01*
G01*
X187845000Y-65740000D02*
X187845000Y-66340000D01*
X189945000Y-65040000D02*
X188545000Y-65040000D01*
X190645000Y-66340000D02*
X190645000Y-65740000D01*
X188545000Y-67040000D02*
X189945000Y-67040000D01*
D10*
X190063333Y-68032380D02*
X190063333Y-68746666D01*
X190110952Y-68889523D01*
X190206190Y-68984761D01*
X190349047Y-69032380D01*
X190444285Y-69032380D01*
X189587142Y-69032380D02*
X189587142Y-68032380D01*
X189206190Y-68032380D01*
X189110952Y-68080000D01*
X189063333Y-68127619D01*
X189015714Y-68222857D01*
X189015714Y-68365714D01*
X189063333Y-68460952D01*
X189110952Y-68508571D01*
X189206190Y-68556190D01*
X189587142Y-68556190D01*
X188063333Y-69032380D02*
X188634761Y-69032380D01*
X188349047Y-69032380D02*
X188349047Y-68032380D01*
X188444285Y-68175238D01*
X188539523Y-68270476D01*
X188634761Y-68318095D01*
M02*
